<?xml version="1.0" encoding="utf-8"?>
<!-- Generator: Adobe Illustrator 21.1.0, SVG Export Plug-In . SVG Version: 6.00 Build 0)  -->
<svg version="1.1" id="Capa_1" xmlns="http://www.w3.org/2000/svg" xmlns:xlink="http://www.w3.org/1999/xlink" x="0px" y="0px"
	 viewBox="0 0 970.6 970.6" style="enable-background:new 0 0 970.6 970.6;" xml:space="preserve">
<style type="text/css">
	.st0{fill:#FFFF00;}
</style>
<g>
	<path class="st0" d="M49.8,943.6c22.3,18.1,49.1,27,75.7,27c34.8,0,69.4-15.1,93.1-44.2l298.7-366.7c36-44.1,36-107.4,0-151.6
		L220.9,44.2C179-7.2,103.5-14.9,52.1,26.9C0.7,68.8-7,144.4,34.8,195.8l234.7,288.1l-237,290.9C-9.3,826.1-1.6,901.7,49.8,943.6z"
		/>
	<path class="st0" d="M641.8,44.2C600-7.2,524.4-14.9,473,26.9c-51.4,41.9-59.1,117.4-17.2,168.8l234.6,288.1l-237,290.9
		c-41.9,51.4-34.1,127,17.2,168.8c22.3,18.1,49.1,27,75.7,27c34.8,0,69.4-15.1,93.1-44.2l298.7-366.7c36-44.1,36-107.4,0-151.6
		L641.8,44.2z"/>
</g>
</svg>
