<?xml version="1.0" encoding="utf-8"?>
<!-- Generator: Adobe Illustrator 21.1.0, SVG Export Plug-In . SVG Version: 6.00 Build 0)  -->
<svg version="1.1" id="图层_1" xmlns="http://www.w3.org/2000/svg" xmlns:xlink="http://www.w3.org/1999/xlink" x="0px" y="0px"
	 viewBox="0 0 48 48" style="enable-background:new 0 0 48 48;" xml:space="preserve">
<style type="text/css">
	.st0{fill:#E65100;}
	.st1{fill:#F57C00;}
	.st2{fill:#FFF9C4;}
	.st3{fill:#942A09;}
	.st4{fill:#BF360C;}
</style>
<g>
	<path class="st0" d="M43.4,42.9h-32c-2.5,0-4.6-2.1-4.6-4.6V15.4c0-2.5,2.1-4.6,4.6-4.6h32c2.5,0,4.6,2.1,4.6,4.6v22.9
		C48,40.8,45.9,42.9,43.4,42.9z"/>
	<path class="st1" d="M36.6,36h-32C2.1,36,0,33.9,0,31.4V8.6C0,6.1,2.1,4,4.6,4h32c2.5,0,4.6,2.1,4.6,4.6v22.9
		C41.1,33.9,39.1,36,36.6,36z"/>
	<circle class="st2" cx="30.9" cy="13.1" r="3.4"/>
	<polygon class="st3" points="16,15.3 5.7,30.3 26.3,30.3 	"/>
	<polygon class="st4" points="28.6,21.7 21.7,30.3 35.4,30.3 	"/>
</g>
</svg>
