<svg id="图层_6" data-name="图层 6" xmlns="http://www.w3.org/2000/svg" xmlns:xlink="http://www.w3.org/1999/xlink" viewBox="0 0 750 850"><defs><style>.cls-1{fill:none;}.cls-2{clip-path:url(#clip-path);}.cls-3{fill:#fff;}.cls-4{fill:#fbb03b;}</style><clipPath id="clip-path"><circle class="cls-1" cx="210.66" cy="620.49" r="57.49" transform="translate(-142.58 68.58) rotate(-13.87)"/></clipPath></defs><title>layer6</title><g class="cls-2"><ellipse class="cls-3" cx="208.21" cy="622.83" rx="73.86" ry="74.28" transform="translate(-143.21 68.06) rotate(-13.87)"/><path class="cls-4" d="M172.31,698.07c-23.71-20-38.12-39.7-44-60.15-6.55-22.61-2.27-46,12.74-69.45l9.31,6c-25.66,40.15-16.4,76.76,29.13,115.2Z"/><path class="cls-4" d="M196.38,686.23l-8.4,7.18c-17.1-20-28.5-40.46-33.91-60.81-5.81-21.88-4.92-44.4,2.65-66.94l10.48,3.52C153.75,609.24,163.29,647.53,196.38,686.23Z"/><path class="cls-4" d="M213.32,683.14l-9.69,5.31c-21.11-38.51-31.22-79.43-30.9-125.1l11.05.08C183.48,607.17,193.14,646.32,213.32,683.14Z"/><path class="cls-4" d="M230.12,680.37l-10.69,2.8c-4-15.17-7.26-30.7-10.44-45.72-5.3-25.06-10.79-51-19.65-76.25l10.43-3.66c9.09,26,14.65,52.22,20,77.62C223,650.06,226.22,665.45,230.12,680.37Z"/><path class="cls-4" d="M246.6,677.79l-11.05-.07c.27-43.26-1.73-82.07-29.13-119.08l8.88-6.58C244.69,591.75,246.87,634.18,246.6,677.79Z"/><path class="cls-4" d="M262.72,675.11,252,672.35c11.72-45.46,11.36-82.73-28.46-116.82l7.19-8.4C277.51,587.17,273.75,632.3,262.72,675.11Z"/><path class="cls-4" d="M278.63,672.15l-9.91-4.89C288,628.12,298,587.08,240.57,552l5.76-9.43c28.59,17.45,44.2,37.68,47.73,61.83C296.87,623.62,292,645.14,278.63,672.15Z"/></g></svg>