<svg id="图层_1" data-name="图层 1" xmlns="http://www.w3.org/2000/svg" xmlns:xlink="http://www.w3.org/1999/xlink" viewBox="0 0 750 850"><defs><style>.cls-1,.cls-5{fill:none;}.cls-2,.cls-4{fill:#fff;}.cls-3{clip-path:url(#clip-path);}.cls-4{stroke:#000;}.cls-4,.cls-5{stroke-miterlimit:10;}.cls-5{stroke:#fff;stroke-width:5px;}</style><clipPath id="clip-path"><polygon class="cls-1" points="575.3 309.92 591.65 462.43 726.56 535.41 586.57 598.1 558.85 748.96 455.97 635.19 303.93 655.43 380.34 522.44 314.1 384.1 464.2 415.67 575.3 309.92"/></clipPath></defs><title>layer2</title><circle class="cls-2" cx="513.17" cy="326" r="7"/><g class="cls-3"><rect class="cls-4" x="248.72" y="283.35" width="516.89" height="488.72" transform="translate(212.78 -142.39) rotate(20.15)"/><ellipse cx="383.53" cy="273.65" rx="12.5" ry="12.54" transform="translate(-5.47 539.47) rotate(-69.85)"/><ellipse cx="422.37" cy="287.9" rx="12.5" ry="12.54" transform="translate(6.62 585.27) rotate(-69.85)"/><ellipse cx="461.21" cy="302.15" rx="12.5" ry="12.54" transform="translate(18.7 631.08) rotate(-69.85)"/><ellipse cx="500.05" cy="316.4" rx="12.5" ry="12.54" transform="translate(30.79 676.88) rotate(-69.85)"/><ellipse cx="538.89" cy="330.64" rx="12.5" ry="12.54" transform="translate(42.87 722.69) rotate(-69.85)"/><ellipse cx="577.73" cy="344.89" rx="12.5" ry="12.54" transform="translate(54.96 768.49) rotate(-69.85)"/><ellipse cx="616.57" cy="359.14" rx="12.5" ry="12.54" transform="translate(67.05 814.3) rotate(-69.85)"/><ellipse cx="655.41" cy="373.39" rx="12.5" ry="12.54" transform="translate(79.13 860.1) rotate(-69.85)"/><ellipse cx="694.25" cy="387.64" rx="12.5" ry="12.54" transform="translate(91.22 905.91) rotate(-69.85)"/><ellipse cx="733.09" cy="401.89" rx="12.5" ry="12.54" transform="translate(103.3 951.71) rotate(-69.85)"/><ellipse cx="370.46" cy="309.3" rx="12.5" ry="12.54" transform="translate(-47.51 550.56) rotate(-69.85)"/><ellipse cx="409.3" cy="323.54" rx="12.5" ry="12.54" transform="translate(-35.42 596.37) rotate(-69.85)"/><ellipse cx="448.14" cy="337.79" rx="12.5" ry="12.54" transform="translate(-23.33 642.17) rotate(-69.85)"/><ellipse cx="486.98" cy="352.04" rx="12.5" ry="12.54" transform="translate(-11.25 687.97) rotate(-69.85)"/><ellipse cx="525.82" cy="366.29" rx="12.5" ry="12.54" transform="translate(0.84 733.78) rotate(-69.85)"/><ellipse cx="564.66" cy="380.54" rx="12.5" ry="12.54" transform="translate(12.92 779.58) rotate(-69.85)"/><ellipse cx="603.5" cy="394.79" rx="12.5" ry="12.54" transform="translate(25.01 825.39) rotate(-69.85)"/><ellipse cx="642.34" cy="409.04" rx="12.5" ry="12.54" transform="translate(37.09 871.19) rotate(-69.85)"/><ellipse cx="681.18" cy="423.29" rx="12.5" ry="12.54" transform="translate(49.18 917) rotate(-69.85)"/><ellipse cx="720.02" cy="437.54" rx="12.5" ry="12.54" transform="translate(61.26 962.8) rotate(-69.85)"/><ellipse cx="758.86" cy="451.78" rx="12.5" ry="12.54" transform="translate(73.35 1008.61) rotate(-69.85)"/><ellipse cx="357.38" cy="344.94" rx="12.5" ry="12.54" transform="translate(-89.54 561.65) rotate(-69.85)"/><ellipse cx="396.22" cy="359.19" rx="12.5" ry="12.54" transform="translate(-77.46 607.46) rotate(-69.85)"/><ellipse cx="435.06" cy="373.44" rx="12.5" ry="12.54" transform="translate(-65.37 653.26) rotate(-69.85)"/><ellipse cx="473.9" cy="387.69" rx="12.5" ry="12.54" transform="translate(-53.29 699.07) rotate(-69.85)"/><ellipse cx="512.74" cy="401.94" rx="12.5" ry="12.54" transform="translate(-41.2 744.87) rotate(-69.85)"/><ellipse cx="551.58" cy="416.19" rx="12.5" ry="12.54" transform="translate(-29.12 790.68) rotate(-69.85)"/><ellipse cx="590.42" cy="430.43" rx="12.5" ry="12.54" transform="translate(-17.03 836.48) rotate(-69.85)"/><ellipse cx="629.26" cy="444.68" rx="12.5" ry="12.54" transform="translate(-4.95 882.29) rotate(-69.85)"/><ellipse cx="668.1" cy="458.93" rx="12.5" ry="12.54" transform="translate(7.14 928.09) rotate(-69.85)"/><ellipse cx="706.94" cy="473.18" rx="12.5" ry="12.54" transform="translate(19.23 973.9) rotate(-69.85)"/><ellipse cx="745.78" cy="487.43" rx="12.5" ry="12.54" transform="translate(31.31 1019.7) rotate(-69.85)"/><ellipse cx="344.3" cy="380.59" rx="12.5" ry="12.54" transform="translate(-131.58 572.74) rotate(-69.85)"/><ellipse cx="383.14" cy="394.84" rx="12.5" ry="12.54" transform="translate(-119.5 618.55) rotate(-69.85)"/><ellipse cx="421.98" cy="409.09" rx="12.5" ry="12.54" transform="translate(-107.41 664.35) rotate(-69.85)"/><ellipse cx="460.82" cy="423.33" rx="12.5" ry="12.54" transform="translate(-95.33 710.16) rotate(-69.85)"/><ellipse cx="499.66" cy="437.58" rx="12.5" ry="12.54" transform="translate(-83.24 755.96) rotate(-69.85)"/><ellipse cx="538.5" cy="451.83" rx="12.5" ry="12.54" transform="translate(-71.15 801.77) rotate(-69.85)"/><ellipse cx="577.34" cy="466.08" rx="12.5" ry="12.54" transform="translate(-59.07 847.57) rotate(-69.85)"/><ellipse cx="616.18" cy="480.33" rx="12.5" ry="12.54" transform="translate(-46.98 893.38) rotate(-69.85)"/><ellipse cx="655.02" cy="494.58" rx="12.5" ry="12.54" transform="translate(-34.9 939.18) rotate(-69.85)"/><ellipse cx="693.86" cy="508.83" rx="12.5" ry="12.54" transform="translate(-22.81 984.99) rotate(-69.85)"/><ellipse cx="732.7" cy="523.08" rx="12.5" ry="12.54" transform="translate(-10.73 1030.79) rotate(-69.85)"/><ellipse cx="331.23" cy="416.23" rx="12.5" ry="12.54" transform="translate(-173.62 583.84) rotate(-69.85)"/><ellipse cx="370.07" cy="430.48" rx="12.5" ry="12.54" transform="translate(-161.54 629.64) rotate(-69.85)"/><ellipse cx="408.91" cy="444.73" rx="12.5" ry="12.54" transform="translate(-149.45 675.45) rotate(-69.85)"/><ellipse cx="447.75" cy="458.98" rx="12.5" ry="12.54" transform="translate(-137.36 721.25) rotate(-69.85)"/><ellipse cx="486.59" cy="473.23" rx="12.5" ry="12.54" transform="translate(-125.28 767.05) rotate(-69.85)"/><ellipse cx="525.43" cy="487.48" rx="12.5" ry="12.54" transform="translate(-113.19 812.86) rotate(-69.85)"/><ellipse cx="564.26" cy="501.73" rx="12.5" ry="12.54" transform="translate(-101.11 858.66) rotate(-69.85)"/><ellipse cx="603.1" cy="515.98" rx="12.5" ry="12.54" transform="translate(-89.02 904.47) rotate(-69.85)"/><ellipse cx="641.94" cy="530.22" rx="12.5" ry="12.54" transform="translate(-76.94 950.28) rotate(-69.85)"/><ellipse cx="680.78" cy="544.47" rx="12.5" ry="12.54" transform="translate(-64.85 996.08) rotate(-69.85)"/><ellipse cx="719.62" cy="558.72" rx="12.5" ry="12.54" transform="translate(-52.77 1041.88) rotate(-69.85)"/><ellipse cx="758.46" cy="572.97" rx="12.5" ry="12.54" transform="translate(-40.68 1087.69) rotate(-69.85)"/><ellipse cx="318.15" cy="451.88" rx="12.5" ry="12.54" transform="translate(-215.66 594.93) rotate(-69.85)"/><ellipse cx="356.99" cy="466.13" rx="12.5" ry="12.54" transform="translate(-203.57 640.73) rotate(-69.85)"/><ellipse cx="395.83" cy="480.38" rx="12.5" ry="12.54" transform="translate(-191.49 686.54) rotate(-69.85)"/><ellipse cx="434.67" cy="494.63" rx="12.5" ry="12.54" transform="translate(-179.4 732.34) rotate(-69.85)"/><ellipse cx="473.51" cy="508.87" rx="12.5" ry="12.54" transform="translate(-167.32 778.15) rotate(-69.85)"/><ellipse cx="512.35" cy="523.12" rx="12.5" ry="12.54" transform="translate(-155.23 823.95) rotate(-69.85)"/><ellipse cx="551.19" cy="537.37" rx="12.5" ry="12.54" transform="translate(-143.15 869.76) rotate(-69.85)"/><ellipse cx="590.03" cy="551.62" rx="12.5" ry="12.54" transform="translate(-131.06 915.56) rotate(-69.85)"/><ellipse cx="628.87" cy="565.87" rx="12.5" ry="12.54" transform="translate(-118.97 961.37) rotate(-69.85)"/><ellipse cx="667.71" cy="580.12" rx="12.5" ry="12.54" transform="translate(-106.89 1007.17) rotate(-69.85)"/><ellipse cx="706.55" cy="594.37" rx="12.5" ry="12.54" transform="translate(-94.8 1052.97) rotate(-69.85)"/><ellipse cx="745.39" cy="608.62" rx="12.5" ry="12.54" transform="translate(-82.72 1098.78) rotate(-69.85)"/><ellipse cx="305.07" cy="487.53" rx="12.5" ry="12.54" transform="translate(-257.7 606.02) rotate(-69.85)"/><ellipse cx="343.91" cy="501.77" rx="12.5" ry="12.54" transform="translate(-245.61 651.82) rotate(-69.85)"/><ellipse cx="382.75" cy="516.02" rx="12.5" ry="12.54" transform="translate(-233.53 697.63) rotate(-69.85)"/><ellipse cx="421.59" cy="530.27" rx="12.5" ry="12.54" transform="translate(-221.44 743.43) rotate(-69.85)"/><ellipse cx="460.43" cy="544.52" rx="12.5" ry="12.54" transform="translate(-209.36 789.24) rotate(-69.85)"/><ellipse cx="499.27" cy="558.77" rx="12.5" ry="12.54" transform="translate(-197.27 835.04) rotate(-69.85)"/><ellipse cx="538.11" cy="573.02" rx="12.5" ry="12.54" transform="translate(-185.18 880.85) rotate(-69.85)"/><ellipse cx="576.95" cy="587.27" rx="12.5" ry="12.54" transform="translate(-173.1 926.65) rotate(-69.85)"/><ellipse cx="615.79" cy="601.52" rx="12.5" ry="12.54" transform="translate(-161.01 972.46) rotate(-69.85)"/><ellipse cx="654.63" cy="615.77" rx="12.5" ry="12.54" transform="translate(-148.93 1018.26) rotate(-69.85)"/><ellipse cx="693.47" cy="630.01" rx="12.5" ry="12.54" transform="translate(-136.84 1064.07) rotate(-69.85)"/><ellipse cx="732.31" cy="644.26" rx="12.5" ry="12.54" transform="translate(-124.76 1109.87) rotate(-69.85)"/><ellipse cx="291.99" cy="523.17" rx="12.5" ry="12.54" transform="translate(-299.74 617.11) rotate(-69.85)"/><ellipse cx="330.83" cy="537.42" rx="12.5" ry="12.54" transform="translate(-287.65 662.92) rotate(-69.85)"/><ellipse cx="369.67" cy="551.67" rx="12.5" ry="12.54" transform="translate(-275.56 708.72) rotate(-69.85)"/><ellipse cx="408.51" cy="565.92" rx="12.5" ry="12.54" transform="translate(-263.48 754.52) rotate(-69.85)"/><ellipse cx="447.35" cy="580.17" rx="12.5" ry="12.54" transform="translate(-251.39 800.33) rotate(-69.85)"/><ellipse cx="486.19" cy="594.42" rx="12.5" ry="12.54" transform="translate(-239.31 846.14) rotate(-69.85)"/><ellipse cx="525.03" cy="608.66" rx="12.5" ry="12.54" transform="translate(-227.22 891.94) rotate(-69.85)"/><ellipse cx="563.87" cy="622.91" rx="12.5" ry="12.54" transform="translate(-215.14 937.74) rotate(-69.85)"/><ellipse cx="602.71" cy="637.16" rx="12.5" ry="12.54" transform="translate(-203.05 983.55) rotate(-69.85)"/><ellipse cx="641.55" cy="651.41" rx="12.5" ry="12.54" transform="translate(-190.97 1029.35) rotate(-69.85)"/><ellipse cx="680.39" cy="665.66" rx="12.5" ry="12.54" transform="translate(-178.88 1075.16) rotate(-69.85)"/><ellipse cx="719.23" cy="679.91" rx="12.5" ry="12.54" transform="translate(-166.79 1120.97) rotate(-69.85)"/><ellipse cx="278.92" cy="558.82" rx="12.5" ry="12.54" transform="translate(-341.77 628.2) rotate(-69.85)"/><ellipse cx="317.76" cy="573.07" rx="12.5" ry="12.54" transform="translate(-329.69 674.01) rotate(-69.85)"/><ellipse cx="356.6" cy="587.32" rx="12.5" ry="12.54" transform="translate(-317.6 719.81) rotate(-69.85)"/><ellipse cx="395.44" cy="601.56" rx="12.5" ry="12.54" transform="translate(-305.52 765.62) rotate(-69.85)"/><ellipse cx="434.28" cy="615.81" rx="12.5" ry="12.54" transform="translate(-293.43 811.42) rotate(-69.85)"/><ellipse cx="473.12" cy="630.06" rx="12.5" ry="12.54" transform="translate(-281.35 857.23) rotate(-69.85)"/><ellipse cx="511.96" cy="644.31" rx="12.5" ry="12.54" transform="translate(-269.26 903.03) rotate(-69.85)"/><ellipse cx="550.8" cy="658.56" rx="12.5" ry="12.54" transform="translate(-257.17 948.84) rotate(-69.85)"/><ellipse cx="589.64" cy="672.81" rx="12.5" ry="12.54" transform="translate(-245.09 994.64) rotate(-69.85)"/><ellipse cx="628.48" cy="687.06" rx="12.5" ry="12.54" transform="translate(-233 1040.45) rotate(-69.85)"/><ellipse cx="667.32" cy="701.31" rx="12.5" ry="12.54" transform="translate(-220.92 1086.25) rotate(-69.85)"/><ellipse cx="706.16" cy="715.56" rx="12.5" ry="12.54" transform="translate(-208.83 1132.06) rotate(-69.85)"/><ellipse cx="265.84" cy="594.46" rx="12.5" ry="12.54" transform="translate(-383.81 639.29) rotate(-69.85)"/><ellipse cx="304.68" cy="608.71" rx="12.5" ry="12.54" transform="translate(-371.73 685.1) rotate(-69.85)"/><ellipse cx="343.52" cy="622.96" rx="12.5" ry="12.54" transform="translate(-359.64 730.9) rotate(-69.85)"/><ellipse cx="382.36" cy="637.21" rx="12.5" ry="12.54" transform="translate(-347.56 776.71) rotate(-69.85)"/><ellipse cx="421.2" cy="651.46" rx="12.5" ry="12.54" transform="translate(-335.47 822.51) rotate(-69.85)"/><ellipse cx="460.04" cy="665.71" rx="12.5" ry="12.54" transform="translate(-323.38 868.32) rotate(-69.85)"/><ellipse cx="498.88" cy="679.96" rx="12.5" ry="12.54" transform="translate(-311.3 914.12) rotate(-69.85)"/><ellipse cx="537.72" cy="694.21" rx="12.5" ry="12.54" transform="translate(-299.21 959.93) rotate(-69.85)"/><ellipse cx="576.56" cy="708.45" rx="12.5" ry="12.54" transform="translate(-287.13 1005.73) rotate(-69.85)"/><ellipse cx="615.4" cy="722.7" rx="12.5" ry="12.54" transform="translate(-275.04 1051.54) rotate(-69.85)"/><ellipse cx="654.24" cy="736.95" rx="12.5" ry="12.54" transform="translate(-262.96 1097.34) rotate(-69.85)"/><ellipse cx="693.08" cy="751.2" rx="12.5" ry="12.54" transform="translate(-250.87 1143.15) rotate(-69.85)"/><ellipse cx="252.76" cy="630.11" rx="12.5" ry="12.54" transform="translate(-425.85 650.39) rotate(-69.85)"/><ellipse cx="291.6" cy="644.36" rx="12.5" ry="12.54" transform="translate(-413.76 696.19) rotate(-69.85)"/><ellipse cx="330.44" cy="658.61" rx="12.5" ry="12.54" transform="translate(-401.68 742) rotate(-69.85)"/><ellipse cx="369.28" cy="672.86" rx="12.5" ry="12.54" transform="translate(-389.59 787.8) rotate(-69.85)"/><ellipse cx="408.12" cy="687.1" rx="12.5" ry="12.54" transform="translate(-377.51 833.6) rotate(-69.85)"/><ellipse cx="446.96" cy="701.35" rx="12.5" ry="12.54" transform="translate(-365.42 879.41) rotate(-69.85)"/><ellipse cx="485.8" cy="715.6" rx="12.5" ry="12.54" transform="translate(-353.34 925.21) rotate(-69.85)"/><ellipse cx="524.64" cy="729.85" rx="12.5" ry="12.54" transform="translate(-341.25 971.02) rotate(-69.85)"/><ellipse cx="563.48" cy="744.1" rx="12.5" ry="12.54" transform="translate(-329.17 1016.83) rotate(-69.85)"/><ellipse cx="602.32" cy="758.35" rx="12.5" ry="12.54" transform="translate(-317.08 1062.63) rotate(-69.85)"/><ellipse cx="641.16" cy="772.6" rx="12.5" ry="12.54" transform="translate(-304.99 1108.43) rotate(-69.85)"/><ellipse cx="680" cy="786.85" rx="12.5" ry="12.54" transform="translate(-292.91 1154.24) rotate(-69.85)"/></g><polygon class="cls-5" points="166.12 155.46 196.64 190.7 242.97 185.54 218.88 225.46 238.1 267.94 192.7 257.36 158.24 288.77 154.27 242.31 113.75 219.25 156.7 201.12 166.12 155.46"/></svg>