<svg id="图层_5" data-name="图层 5" xmlns="http://www.w3.org/2000/svg" xmlns:xlink="http://www.w3.org/1999/xlink" viewBox="0 0 750 750"><defs><style>.cls-1{fill:none;}.cls-2{clip-path:url(#clip-path);}.cls-3{fill:#fff;}.cls-4{clip-path:url(#clip-path-2);}.cls-5{fill:#7f47dd;}</style><clipPath id="clip-path"><circle class="cls-1" cx="75.16" cy="407" r="20" transform="translate(-298.55 229.13) rotate(-54.08)"/></clipPath><clipPath id="clip-path-2"><circle class="cls-1" cx="585.16" cy="154.99" r="51.99" transform="translate(-20.09 144.77) rotate(-13.87)"/></clipPath></defs><title>画板 1</title><g class="cls-2"><ellipse class="cls-3" cx="73.99" cy="406.87" rx="25.84" ry="25.69" transform="translate(-298.93 228.13) rotate(-54.08)"/><path d="M45.94,414.24c0-10.8,2-19,6.08-25.21,4.53-6.82,11.7-10.93,21.31-12.22l.51,3.81c-16.43,2.2-24.07,12.88-24.06,33.61Z"/><path d="M54.49,418l-3.8-.62c1.47-9,4.34-16.66,8.54-22.67a39.88,39.88,0,0,1,18.38-14.33L79,383.93C65.37,389.35,57.34,400.49,54.49,418Z"/><path d="M59.12,421.78l-3.59-1.38a87,87,0,0,1,26.29-36.31l2.46,3A83.21,83.21,0,0,0,59.12,421.78Z"/><path d="M63.63,425.62l-3.15-2.21c3.14-4.46,6.53-8.82,9.8-13,5.47-7,11.12-14.32,15.84-22.35l3.31,2c-4.85,8.25-10.58,15.62-16.12,22.76C70.07,416.9,66.72,421.23,63.63,425.62Z"/><path d="M68,429.41l-2.46-3C77.11,416.82,87,407.57,90.64,392l3.74.88C90.44,409.58,79.66,419.69,68,429.41Z"/><path d="M72.35,433.1l-1.67-3.46c14.71-7.1,24.53-15.57,24.64-33.8l3.85,0C99,417.27,86.2,426.41,72.35,433.1Z"/><path d="M76.71,436.66l-.93-3.73c14.74-3.66,27.88-10.23,24.29-33.36l3.8-.59c1.79,11.51-.08,20.2-5.7,26.57C93.7,430.6,86.88,434.13,76.71,436.66Z"/></g><g class="cls-4"><ellipse class="cls-3" cx="582.95" cy="157.1" rx="66.8" ry="67.17" transform="translate(-20.66 144.3) rotate(-13.87)"/><path class="cls-5" d="M550.48,225.15C529,207,516,189.25,510.65,170.75c-5.92-20.45-2-41.58,11.52-62.81l8.42,5.38c-23.2,36.31-14.83,69.41,26.34,104.18Z"/><path class="cls-5" d="M572.24,214.44l-7.6,6.5c-15.46-18.08-25.78-36.59-30.66-55-5.25-19.79-4.45-40.16,2.4-60.54l9.48,3.18C533.69,144.82,542.32,179.45,572.24,214.44Z"/><path class="cls-5" d="M587.57,211.65l-8.77,4.81c-19.09-34.83-28.23-71.84-27.94-113.13l10,.07C560.58,142.94,569.32,178.35,587.57,211.65Z"/><path class="cls-5" d="M602.76,209.15l-9.67,2.53c-3.59-13.72-6.56-27.77-9.44-41.35-4.8-22.66-9.76-46.09-17.77-69l9.44-3.31c8.22,23.47,13.25,47.22,18.11,70.19C596.28,181.73,599.23,195.65,602.76,209.15Z"/><path class="cls-5" d="M617.66,206.81l-10-.06c.25-39.12-1.57-74.22-26.35-107.69l8-5.95C615.93,129,617.91,167.37,617.66,206.81Z"/><path class="cls-5" d="M632.24,204.38l-9.68-2.49c10.59-41.12,10.27-74.82-25.74-105.65l6.5-7.59C645.62,124.86,642.22,165.67,632.24,204.38Z"/><path class="cls-5" d="M646.63,201.71l-9-4.43c17.48-35.39,26.49-72.51-25.45-104.21l5.21-8.53c25.85,15.78,40,34.07,43.16,55.92C663.12,157.82,658.69,177.29,646.63,201.71Z"/></g></svg>