<svg id="图层_2" data-name="图层 2" xmlns="http://www.w3.org/2000/svg" xmlns:xlink="http://www.w3.org/1999/xlink" viewBox="0 0 750 850"><defs><style>.cls-1{fill:none;}.cls-2{clip-path:url(#clip-path);}.cls-3{fill:#fff;}.cls-4{fill:red;}</style><clipPath id="clip-path"><circle class="cls-1" cx="135.66" cy="563.5" r="46.5" transform="translate(-400.28 342.83) rotate(-54.08)"/></clipPath></defs><title>layer5</title><g class="cls-2"><ellipse class="cls-3" cx="132.94" cy="563.2" rx="60.08" ry="59.74" transform="translate(-401.17 340.51) rotate(-54.08)"/><path class="cls-4" d="M67.73,580.32c0-25.1,4.61-44.27,14.15-58.61,10.54-15.85,27.21-25.41,49.54-28.4l1.19,8.86c-38.19,5.12-56,30-55.94,78.15Z"/><path class="cls-4" d="M87.61,589l-8.82-1.44c3.42-21,10.1-38.73,19.85-52.7,10.48-15,24.85-26.22,42.73-33.32l3.3,8.31C112.89,522.47,94.23,548.36,87.61,589Z"/><path class="cls-4" d="M98.36,597.86,90,594.65c12.76-33.15,32.75-60.76,61.12-84.41l5.72,6.87C129.7,539.75,110.56,566.16,98.36,597.86Z"/><path class="cls-4" d="M108.84,606.79l-7.31-5.14c7.3-10.38,15.17-20.52,22.79-30.32C137,555,150.16,538,161.15,519.37l7.71,4.53c-11.28,19.17-24.6,36.32-37.48,52.9C123.83,586.53,116,596.58,108.84,606.79Z"/><path class="cls-4" d="M119,615.61l-5.73-6.86c26.86-22.42,49.78-43.93,58.33-80.18l8.7,2.05C171.18,569.5,146.12,593,119,615.61Z"/><path class="cls-4" d="M129.12,624.17l-3.89-8.05c34.2-16.51,57-36.19,57.29-78.58l8.94.06C191.16,587.38,161.32,608.63,129.12,624.17Z"/><path class="cls-4" d="M139.26,632.45l-2.15-8.68c34.26-8.5,64.81-23.78,56.47-77.56l8.83-1.37c4.15,26.77-.19,47-13.26,61.77C178.75,618.37,162.9,626.58,139.26,632.45Z"/></g></svg>