<?xml version="1.0" encoding="utf-8"?>
<!-- Generator: Adobe Illustrator 21.1.0, SVG Export Plug-In . SVG Version: 6.00 Build 0)  -->
<svg version="1.1" id="图层_1" xmlns="http://www.w3.org/2000/svg" xmlns:xlink="http://www.w3.org/1999/xlink" x="0px" y="0px"
	 viewBox="0 0 100 100" style="enable-background:new 0 0 100 100;" xml:space="preserve">
<style type="text/css">
	.st0{fill:#FEE191;}
	.st1{fill:#FFD24D;}
	.st2{fill:#F14742;}
	.st3{fill:#FFFFFF;}
</style>
<polygon class="st0" points="100,25.2 100,100 75,91.1 68.3,53.7 75,16.3 "/>
<polygon class="st1" points="75,16.3 75,91.1 50,100 45.6,62.6 50,25.2 "/>
<polygon class="st0" points="50,25.2 50,100 25,91.1 18.3,53.7 25,16.3 "/>
<polygon class="st1" points="25,16.3 25,91.1 0,100 0,25.2 "/>
<path class="st2" d="M85.1,22.6c0,18.1-20.4,34.8-20.4,34.8c-1.2,1-3.1,1-4.3,0c0,0-20.4-16.7-20.4-34.8C39.9,10.1,50,0,62.5,0
	S85.1,10.1,85.1,22.6z"/>
<path class="st3" d="M62.5,33.9c-6.3,0-11.4-5.1-11.4-11.4s5.1-11.4,11.4-11.4s11.4,5.1,11.4,11.4S68.8,33.9,62.5,33.9z"/>
</svg>
