<?xml version="1.0" encoding="utf-8"?>
<!-- Generator: Adobe Illustrator 21.0.2, SVG Export Plug-In . SVG Version: 6.00 Build 0)  -->
<svg version="1.1" id="图层_1" xmlns="http://www.w3.org/2000/svg" xmlns:xlink="http://www.w3.org/1999/xlink" x="0px" y="0px"
	 viewBox="0 0 750 493" style="enable-background:new 0 0 750 493;" xml:space="preserve">
<g>
	<path d="M4.1,31.7c0-6.4,1.1-11.2,3.2-14.5c2.1-3.3,5.2-4.9,9.2-4.9c7.6,0,11.5,6.2,11.5,18.5c0,6.1-1.1,10.7-3.2,14
		c-2.2,3.2-5.2,4.8-9.1,4.8c-3.7,0-6.5-1.5-8.5-4.6C5.1,42,4.1,37.5,4.1,31.7z M8.8,31.5c0,9.6,2.4,14.4,7.3,14.4
		c4.8,0,7.2-4.9,7.2-14.6c0-10.1-2.3-15.1-7-15.1C11.3,16.1,8.8,21.2,8.8,31.5z"/>
	<path d="M55.6,14.5L41.5,49h-4.7L50.2,17h-18v-4h23.5V14.5z"/>
	<path d="M81.9,22.7c0.8,0,1.5,0.3,2.1,0.9c0.6,0.6,0.9,1.3,0.9,2.1c0,0.8-0.3,1.5-0.9,2.1c-0.6,0.6-1.3,0.9-2.1,0.9
		c-0.9,0-1.6-0.3-2.1-0.9s-0.9-1.3-0.9-2.1c0-0.8,0.3-1.5,0.9-2.1C80.3,23,81.1,22.7,81.9,22.7z M81.9,43.7c0.8,0,1.5,0.3,2.1,0.9
		s0.9,1.3,0.9,2.1c0,0.8-0.3,1.5-0.9,2.1s-1.3,0.9-2.1,0.9s-1.5-0.3-2.1-0.9s-0.9-1.3-0.9-2.1c0-0.8,0.3-1.5,0.9-2.1
		S81.1,43.7,81.9,43.7z"/>
	<path d="M130.1,49h-21.9v-4l10.5-10.5c2.9-2.9,4.8-5.2,5.8-6.9c1-1.7,1.5-3.4,1.5-5.2c0-2.1-0.6-3.6-1.7-4.7
		c-1.1-1.1-2.8-1.6-5-1.6c-3.2,0-6.3,1.4-9.2,4.1v-4.6c2.8-2.2,6.2-3.3,9.9-3.3c3.2,0,5.8,0.9,7.7,2.6c1.9,1.8,2.8,4.1,2.8,7.1
		c0,2.2-0.6,4.4-1.8,6.6c-1.2,2.2-3.5,4.9-6.8,8.2l-8.2,8V45h16.5V49z"/>
	<path d="M143.9,30c-4.3-2-6.5-4.9-6.5-8.7c0-2.7,1-4.8,3-6.5c2-1.7,4.6-2.5,7.7-2.5c2.9,0,5.2,0.8,7.1,2.4c1.9,1.6,2.8,3.6,2.8,6.1
		c0,4-2.2,7.1-6.7,9.3v0.1c5.3,1.9,7.9,5.1,7.9,9.7c0,3-1.1,5.4-3.3,7.2c-2.2,1.8-5.2,2.7-9.1,2.7c-3.2,0-5.8-0.9-7.8-2.6
		c-2-1.8-3-4-3-6.8C136.1,35.6,138.7,32.2,143.9,30L143.9,30z M147.4,32.2c-4.5,1.8-6.7,4.4-6.7,7.7c0,1.7,0.7,3.2,2,4.3
		c1.3,1.1,3,1.7,5.1,1.7c2,0,3.7-0.6,5-1.7c1.3-1.1,1.9-2.5,1.9-4.2C154.7,36.6,152.2,34,147.4,32.2z M153.5,21.3
		c0-1.6-0.5-2.9-1.5-3.8c-1-0.9-2.4-1.4-4.1-1.4c-1.6,0-3,0.5-4.1,1.5c-1.1,1-1.7,2.2-1.7,3.7c0,3,1.9,5.3,5.7,6.9
		C151.6,26.5,153.5,24.2,153.5,21.3z"/>
	<path d="M162,28.4c6.4-4.5,11.9-10.7,16.4-18.5l3.3,1.8c-4.7,8.3-10.4,14.9-17,19.9C164.1,30.6,163.2,29.6,162,28.4z M168.4,29.9
		h31c-0.2,5.3-0.4,10.4-0.7,15.5c-0.4,5.8-3.1,8.7-8.2,8.7c-2.5,0-5.2,0-8-0.2c-0.2-1.3-0.4-2.6-0.7-4c2.4,0.3,5.1,0.5,8,0.6
		c3.1,0.1,4.8-1.8,5.1-5.5c0.2-3.4,0.4-7.2,0.6-11.6h-14.3c-0.4,5.2-1.5,9.4-3.2,12.5c-2.4,4.2-6.3,7.4-11.9,9.6
		c-0.8-1.1-1.7-2.1-2.7-3.1c5.2-1.9,8.9-4.7,11.1-8.4c1.6-2.8,2.6-6.3,2.8-10.7h-9V29.9z M187.7,10.6l3.4-1.4
		c3.4,8.3,9.4,14.6,18,18.7c-1.4,1.5-2.4,2.6-3,3.5C197.4,26.4,191.3,19.5,187.7,10.6z"/>
	<path d="M233.3,22.7c0.8,0,1.5,0.3,2.1,0.9c0.6,0.6,0.9,1.3,0.9,2.1c0,0.8-0.3,1.5-0.9,2.1c-0.6,0.6-1.3,0.9-2.1,0.9
		c-0.9,0-1.6-0.3-2.1-0.9s-0.9-1.3-0.9-2.1c0-0.8,0.3-1.5,0.9-2.1C231.7,23,232.5,22.7,233.3,22.7z M233.3,43.7
		c0.8,0,1.5,0.3,2.1,0.9s0.9,1.3,0.9,2.1c0,0.8-0.3,1.5-0.9,2.1s-1.3,0.9-2.1,0.9s-1.5-0.3-2.1-0.9s-0.9-1.3-0.9-2.1
		c0-0.8,0.3-1.5,0.9-2.1S232.5,43.7,233.3,43.7z"/>
	<path d="M257.7,25.5h7.5c-1.3-2.1-2.6-3.9-3.7-5.4l2.5-1.8c1,1.2,2.3,3,4,5.3l-2.6,1.9h6.2c1.7-2.4,3.3-4.8,4.7-7.2l3.3,1.9
		c-1.5,1.9-2.9,3.7-4.3,5.4h7.1v3h-24.5V25.5z M262.6,39.3l3.2,1.5c-1.7,3.5-3.3,6.7-5,9.5c-0.9-0.6-1.9-1.1-3.1-1.7
		C259.3,46.2,260.9,43.1,262.6,39.3z M259,34.2h9.5v-4.4h3.4v4.4h9.1v3h-9.1v12.2c0,3.3-1.6,4.9-4.8,4.9c-1.3,0-2.8,0-4.5,0
		c-0.1-1-0.3-2.2-0.5-3.5c1.8,0.2,3.2,0.3,4.2,0.3c1.5,0,2.2-0.8,2.2-2.4V37.2H259V34.2z M259.2,14.7h10.1c-0.7-1.3-1.4-2.7-2.3-4.1
		l3-1.4c1,1.6,1.9,3.2,2.7,4.8l-1.6,0.7h9.9v3h-21.8V14.7z M276.1,39.5c1.7,2.4,3.3,4.5,4.6,6.5l-3,2.1c-1.4-2.4-2.8-4.6-4.3-6.8
		L276.1,39.5z M283.9,13.3c6.4-0.1,12.4-0.7,17.8-1.9l1.2,3.6c-6.2,0.8-11.4,1.3-15.7,1.6v10.9h17v3.2h-6.7V55h-3.4V30.5h-6.9v2.3
		c0,9.5-2.3,17-6.9,22.3c-0.7-1-1.6-2-2.5-3c4-4.4,6-10.9,6-19.4V13.3z"/>
	<path d="M322.8,47.9l-2.7,2.8c-1.5-1.6-3.1-3.1-4.6-4.6c-2.1,3.4-4.8,6.4-8.3,9.2c-0.7-1-1.4-2-2.1-3c3.3-2.6,5.9-5.5,7.8-8.8
		c-2.1-2-4.2-3.9-6.2-5.7c1.1-4.1,2.2-9.1,3.2-15.2h-4.1v-3.4h4.7c0.4-3.1,0.9-6.4,1.3-10l3.7,0.5c-0.5,3.4-1,6.6-1.5,9.5h7.5v2.9
		c-0.6,9.2-2,16.1-4.1,20.6C319.2,44.7,321,46.3,322.8,47.9z M317.8,22.8h-4.5c-1.1,6.6-2.1,11.4-3,14.1c1.4,1.2,2.8,2.4,4.2,3.6
		C316.4,36.2,317.5,30.3,317.8,22.8z M348.2,36.6l2.1,2.9c-2.4,1.7-5.4,3.6-9,5.7c3,2.7,6.5,4.4,10.7,5.3c-0.8,1-1.6,2.2-2.4,3.6
		c-8.7-2.7-14.7-8.9-18.1-18.8h-4v14.8c2.5-1,5.4-2.3,8.8-3.9c-0.1,1.2,0,2.5,0,3.6c-6.4,2.9-10.3,4.8-11.8,5.7l-2.1-3.1
		c1.1-0.7,1.6-1.7,1.6-2.9V14.7h10.8c-0.7-1.5-1.3-2.9-2-4.2l3.3-1.3c0.9,1.8,1.7,3.7,2.5,5.5h9.2v21.8h-3.4v-1.2h-9.7
		c1.2,3,2.7,5.5,4.4,7.6C341.9,41.2,345,39.1,348.2,36.6z M344.4,17.8h-17v5.6h17V17.8z M344.4,32.2v-5.7h-17v5.7H344.4z"/>
	<path d="M353.2,32.5c5.4-7.2,9.4-14.8,11.9-22.9l4.1,1.2c-1.5,3.9-3.1,7.5-4.8,10.9V55h-3.9V28.6c-1.7,2.8-3.6,5.4-5.5,7.9
		C354.4,35.2,353.8,33.8,353.2,32.5z M366.3,38.2c4.1-1.9,7.9-4.1,11.4-6.5V10.3h4v18.4c4.8-3.8,9-8.3,12.7-13.3l3.4,2.5
		c-4.5,6-9.9,11.3-16.1,15.8v13.2c0,2.1,1.1,3.2,3.4,3.2h5.9c2.1,0,3.3-1,3.7-3c0.4-2.1,0.7-4.6,0.8-7.3c1.3,0.5,2.7,0.9,4.1,1.4
		c-0.2,2.6-0.6,5-1,7.2c-0.6,3.6-2.8,5.4-6.7,5.4H384c-4.2,0-6.3-2.1-6.3-6.2V36.3c-2.9,1.9-6,3.6-9.2,5.1
		C367.9,40.4,367.1,39.3,366.3,38.2z"/>
	<path d="M410.6,9.9h3.5v45.2h-3.5V38.8c-2.6,2.4-5.2,4.8-7.7,7.1l-2.1-3.4c3.2-2.6,6.4-5.5,9.7-8.5V9.9z M401.5,19.1l2.9-1.6
		c1.8,3.2,3.5,6.5,5,10l-3.3,1.8C404.6,25.5,403.1,22.1,401.5,19.1z M447.5,51.8l-2.5,3.4c-4.3-3.2-8.3-6.1-12-8.7
		c-4,3.7-9.3,6.6-15.8,8.8c-0.6-1.2-1.3-2.5-2-3.7c6-1.7,10.9-4.1,14.6-7.3c-3.7-2.5-7-4.6-10-6.3c1.8-4.6,3.3-9.2,4.7-13.7h-8v-3.4
		h8.9c1.1-3.8,2-7.5,2.8-11.2l3.8,0.7c-0.9,3.6-1.9,7.1-2.9,10.5h18.2v3.4h-4.4c-1,8.3-3.4,14.9-7.3,19.6
		C439.1,46.1,443,48.8,447.5,51.8z M424.2,36.5c2.3,1.4,5,3.1,8.2,5.2c3.7-4.3,6-10.1,6.9-17.4h-11.1
		C426.9,28.4,425.6,32.5,424.2,36.5z"/>
	<path d="M4.1,103.3c0-6.4,1.1-11.2,3.2-14.5c2.1-3.3,5.2-4.9,9.2-4.9c7.6,0,11.5,6.2,11.5,18.5c0,6.1-1.1,10.7-3.2,14
		c-2.2,3.2-5.2,4.8-9.1,4.8c-3.7,0-6.5-1.5-8.5-4.6C5.1,113.6,4.1,109.1,4.1,103.3z M8.8,103.1c0,9.6,2.4,14.4,7.3,14.4
		c4.8,0,7.2-4.9,7.2-14.6c0-10.1-2.3-15.1-7-15.1C11.3,87.7,8.8,92.8,8.8,103.1z"/>
	<path d="M34.3,115.7c2,1.1,4.1,1.7,6.4,1.7c3.2,0,5.7-1.3,7.5-3.8c1.8-2.5,2.7-6.2,2.7-10.9c0,0-0.1,0-0.1,0c-1.6,3-4.2,4.5-8,4.5
		c-3,0-5.5-1-7.5-3.1c-2-2.1-3-4.8-3-8.1c0-3.5,1.1-6.5,3.3-8.7c2.2-2.3,5-3.4,8.5-3.4c3.6,0,6.4,1.4,8.4,4.2c2,2.8,3,6.9,3,12.3
		c0,6.7-1.3,11.8-3.9,15.4c-2.6,3.6-6.2,5.4-10.8,5.4c-2.5,0-4.7-0.4-6.4-1.2V115.7z M36.9,95.5c0,2.4,0.6,4.3,1.9,5.8
		c1.2,1.4,3,2.1,5.1,2.1c1.9,0,3.5-0.6,4.8-1.9c1.3-1.3,1.9-2.9,1.9-4.7c0-2.6-0.6-4.7-1.9-6.4c-1.3-1.7-3-2.6-5.1-2.6
		c-1.9,0-3.5,0.7-4.8,2.2C37.6,91.4,36.9,93.2,36.9,95.5z"/>
	<path d="M81.9,94.3c0.8,0,1.5,0.3,2.1,0.9c0.6,0.6,0.9,1.3,0.9,2.1c0,0.8-0.3,1.5-0.9,2.1c-0.6,0.6-1.3,0.9-2.1,0.9
		c-0.9,0-1.6-0.3-2.1-0.9s-0.9-1.3-0.9-2.1c0-0.8,0.3-1.5,0.9-2.1C80.3,94.6,81.1,94.3,81.9,94.3z M81.9,115.3
		c0.8,0,1.5,0.3,2.1,0.9s0.9,1.3,0.9,2.1c0,0.8-0.3,1.5-0.9,2.1s-1.3,0.9-2.1,0.9s-1.5-0.3-2.1-0.9s-0.9-1.3-0.9-2.1
		c0-0.8,0.3-1.5,0.9-2.1S81.1,115.3,81.9,115.3z"/>
	<path d="M130.8,120.6h-20.7v-3.9h8.1V89.3l-8.3,2.4v-4.2l12.8-3.7v32.9h8.1V120.6z"/>
	<path d="M143.9,101.6c-4.3-2-6.5-4.9-6.5-8.7c0-2.7,1-4.8,3-6.5c2-1.7,4.6-2.5,7.7-2.5c2.9,0,5.2,0.8,7.1,2.4
		c1.9,1.6,2.8,3.6,2.8,6.1c0,4-2.2,7.1-6.7,9.3v0.1c5.3,1.9,7.9,5.1,7.9,9.7c0,3-1.1,5.4-3.3,7.2c-2.2,1.8-5.2,2.7-9.1,2.7
		c-3.2,0-5.8-0.9-7.8-2.6c-2-1.8-3-4-3-6.8C136.1,107.1,138.7,103.8,143.9,101.6L143.9,101.6z M147.4,103.8
		c-4.5,1.8-6.7,4.4-6.7,7.7c0,1.7,0.7,3.2,2,4.3c1.3,1.1,3,1.7,5.1,1.7c2,0,3.7-0.6,5-1.7c1.3-1.1,1.9-2.5,1.9-4.2
		C154.7,108.2,152.2,105.5,147.4,103.8z M153.5,92.9c0-1.6-0.5-2.9-1.5-3.8c-1-0.9-2.4-1.4-4.1-1.4c-1.6,0-3,0.5-4.1,1.5
		c-1.1,1-1.7,2.2-1.7,3.7c0,3,1.9,5.3,5.7,6.9C151.6,98.1,153.5,95.8,153.5,92.9z"/>
	<path d="M162,100c6.4-4.5,11.9-10.7,16.4-18.5l3.3,1.8c-4.7,8.3-10.4,14.9-17,19.9C164.1,102.2,163.2,101.1,162,100z M168.4,101.5
		h31c-0.2,5.3-0.4,10.4-0.7,15.5c-0.4,5.8-3.1,8.7-8.2,8.7c-2.5,0-5.2,0-8-0.2c-0.2-1.3-0.4-2.6-0.7-4c2.4,0.3,5.1,0.5,8,0.6
		c3.1,0.1,4.8-1.8,5.1-5.5c0.2-3.4,0.4-7.2,0.6-11.6h-14.3c-0.4,5.2-1.5,9.4-3.2,12.5c-2.4,4.2-6.3,7.4-11.9,9.6
		c-0.8-1.1-1.7-2.1-2.7-3.1c5.2-1.9,8.9-4.7,11.1-8.4c1.6-2.8,2.6-6.3,2.8-10.7h-9V101.5z M187.7,82.1l3.4-1.4
		c3.4,8.3,9.4,14.6,18,18.7c-1.4,1.5-2.4,2.6-3,3.5C197.4,98,191.3,91,187.7,82.1z"/>
	<path d="M233.3,94.3c0.8,0,1.5,0.3,2.1,0.9c0.6,0.6,0.9,1.3,0.9,2.1c0,0.8-0.3,1.5-0.9,2.1c-0.6,0.6-1.3,0.9-2.1,0.9
		c-0.9,0-1.6-0.3-2.1-0.9s-0.9-1.3-0.9-2.1c0-0.8,0.3-1.5,0.9-2.1C231.7,94.6,232.5,94.3,233.3,94.3z M233.3,115.3
		c0.8,0,1.5,0.3,2.1,0.9s0.9,1.3,0.9,2.1c0,0.8-0.3,1.5-0.9,2.1s-1.3,0.9-2.1,0.9s-1.5-0.3-2.1-0.9s-0.9-1.3-0.9-2.1
		c0-0.8,0.3-1.5,0.9-2.1S232.5,115.3,233.3,115.3z"/>
	<path d="M257.7,97h7.5c-1.3-2.1-2.6-3.9-3.7-5.4l2.5-1.8c1,1.2,2.3,3,4,5.3l-2.6,1.9h6.2c1.7-2.4,3.3-4.8,4.7-7.2l3.3,1.9
		c-1.5,1.9-2.9,3.7-4.3,5.4h7.1v3h-24.5V97z M262.6,110.8l3.2,1.5c-1.7,3.5-3.3,6.7-5,9.5c-0.9-0.6-1.9-1.1-3.1-1.7
		C259.3,117.8,260.9,114.7,262.6,110.8z M259,105.8h9.5v-4.4h3.4v4.4h9.1v3h-9.1v12.2c0,3.3-1.6,4.9-4.8,4.9c-1.3,0-2.8,0-4.5,0
		c-0.1-1-0.3-2.2-0.5-3.5c1.8,0.2,3.2,0.3,4.2,0.3c1.5,0,2.2-0.8,2.2-2.4v-11.4H259V105.8z M259.2,86.2h10.1
		c-0.7-1.3-1.4-2.7-2.3-4.1l3-1.4c1,1.6,1.9,3.2,2.7,4.8l-1.6,0.7h9.9v3h-21.8V86.2z M276.1,111.1c1.7,2.4,3.3,4.5,4.6,6.5l-3,2.1
		c-1.4-2.4-2.8-4.6-4.3-6.8L276.1,111.1z M283.9,84.8c6.4-0.1,12.4-0.7,17.8-1.9l1.2,3.6c-6.2,0.8-11.4,1.3-15.7,1.6V99h17v3.2h-6.7
		v24.4h-3.4v-24.4h-6.9v2.3c0,9.5-2.3,17-6.9,22.3c-0.7-1-1.6-2-2.5-3c4-4.4,6-10.9,6-19.4V84.8z"/>
	<path d="M318.2,111.9l2.5-2c3.6,3.5,7,7.2,10.3,11l-2.8,2.4c-1.4-1.6-2.8-3.3-4.2-4.9c-8.5,3.6-13.3,6-14.4,7.2l-2.3-3.4
		c0.9-0.8,1.3-2.1,1.3-4.1V86.2h9.3c-1.1-1.3-2.3-2.5-3.7-3.8l2.6-2.1c1.5,1.4,2.9,2.7,4.1,4l-2.2,1.9h9.3v23.4h-3.5v-1.9h-12.3
		v12.1c2.8-1.1,5.9-2.5,9.3-4.2C320.5,114.3,319.4,113.1,318.2,111.9z M324.6,89.4h-12.3v6h12.3V89.4z M312.3,104.5h12.3v-6.1h-12.3
		V104.5z M351.1,111.4c0,5.7-2.6,8.6-7.9,8.6c-1.3,0-2.9-0.1-4.8-0.3c-0.2-1.1-0.4-2.5-0.6-4c2.5,0.4,4.4,0.6,6,0.6
		c2.4,0,3.6-1.6,3.6-4.9c0-3.8-2.4-7.5-7.2-11c2-4,4.1-8.5,6.2-13.4H337v39.8h-3.5V83.5h16.8v3.8c-1.2,2.9-3.1,7-5.6,12.2
		C348.9,103.1,351.1,107,351.1,111.4z"/>
	<path d="M372.5,122l11.2,0.2l15.8-0.4c-0.3,1-0.8,2.3-1.3,3.7h-15.6l-10.6-0.2c-5.5-0.1-9.3-1.9-11.4-5.4c-1.3,1.2-3.1,3.3-5.6,6.2
		l-1.9-3.9c2.7-2.7,4.7-4.6,6-5.7v-15.7h-5.5v-3.4h9.1v19.9C364.6,120.4,367.9,122,372.5,122z M357.8,81.4c2.5,3,4.8,5.9,6.9,8.9
		l-3.4,2.2c-2.6-3.9-4.7-7-6.4-9L357.8,81.4z M379.6,106.6c0,1.3,0.1,2.5,0.2,3.6c-3,1.4-5.7,2.8-8.1,4.1c-0.9,0.6-1.6,1.1-2.2,1.7
		l-2.2-3.1c0.9-0.8,1.3-2,1.3-3.6v-25c4-0.7,7.9-1.7,11.7-3l1.4,3.3c-2.9,0.8-6,1.6-9.6,2.4v23C374.7,108.9,377.2,107.7,379.6,106.6
		z M381.5,85.3h15.7v23c0,3.9-1.7,5.9-5,6c-1.6,0.1-3.4,0.1-5.5,0c-0.1-1.3-0.3-2.6-0.6-3.8c1.9,0.2,3.5,0.4,4.9,0.4
		c1.8,0,2.7-1.1,2.7-3.3V88.7H385v31.6h-3.5V85.3z"/>
	<path d="M403.4,107.8h19.5v-5.9h-21.6v-3.4h13.6c-1.2-2.2-2.5-4.2-3.8-6.2l3.1-1.8c1.6,2.1,3,4.3,4.3,6.7l-2.4,1.4h12.4
		c1.9-2.8,3.5-5.6,5-8.3l3.5,1.8c-1.4,2.2-2.9,4.4-4.4,6.5h14.3v3.4h-20.3v5.9h18v3.4h-18v9.3c0,4-2,6.1-6,6.1c-1.7,0-4,0-6.8,0
		c-0.2-1.2-0.4-2.5-0.7-4c2.6,0.2,4.8,0.3,6.4,0.3c2.2,0,3.3-1.2,3.3-3.6v-8.1h-19.5V107.8z M412.4,113.3l2.8,2.4
		c-3.5,3.3-7.1,6.3-10.8,9.1c-0.8-1.1-1.6-2.1-2.6-3C405.4,119.5,408.9,116.6,412.4,113.3z M403.6,86.1h19.5
		c-0.7-1.3-1.4-2.6-2.2-3.9l3.5-1.6c1.1,1.8,2.1,3.7,3.1,5.5h17.1v3.4h-41V86.1z M431.6,116.2l2.4-2.7c4.2,2.8,8.1,5.5,11.6,8.2
		l-2.7,3.1C439.4,121.8,435.6,118.9,431.6,116.2z"/>
	<path d="M27.1,192.2H6.4v-3.9h8.1v-27.4l-8.3,2.4V159l12.8-3.7v32.9h8.1V192.2z"/>
	<path d="M32.1,174.8c0-6.4,1.1-11.2,3.2-14.5c2.1-3.3,5.2-4.9,9.2-4.9c7.6,0,11.5,6.2,11.5,18.5c0,6.1-1.1,10.7-3.2,14
		c-2.2,3.2-5.2,4.8-9.1,4.8c-3.7,0-6.5-1.5-8.5-4.6C33.1,185.1,32.1,180.7,32.1,174.8z M36.8,174.6c0,9.6,2.4,14.4,7.3,14.4
		c4.8,0,7.2-4.9,7.2-14.6c0-10.1-2.3-15.1-7-15.1C39.2,159.3,36.8,164.4,36.8,174.6z"/>
	<path d="M81.9,165.9c0.8,0,1.5,0.3,2.1,0.9c0.6,0.6,0.9,1.3,0.9,2.1c0,0.8-0.3,1.5-0.9,2.1c-0.6,0.6-1.3,0.9-2.1,0.9
		c-0.9,0-1.6-0.3-2.1-0.9s-0.9-1.3-0.9-2.1c0-0.8,0.3-1.5,0.9-2.1C80.3,166.1,81.1,165.9,81.9,165.9z M81.9,186.8
		c0.8,0,1.5,0.3,2.1,0.9s0.9,1.3,0.9,2.1c0,0.8-0.3,1.5-0.9,2.1s-1.3,0.9-2.1,0.9s-1.5-0.3-2.1-0.9s-0.9-1.3-0.9-2.1
		c0-0.8,0.3-1.5,0.9-2.1S81.1,186.8,81.9,186.8z"/>
	<path d="M130.1,192.2h-21.9v-4l10.5-10.5c2.9-2.9,4.8-5.2,5.8-6.9c1-1.7,1.5-3.4,1.5-5.2c0-2.1-0.6-3.6-1.7-4.7
		c-1.1-1.1-2.8-1.6-5-1.6c-3.2,0-6.3,1.4-9.2,4.1v-4.6c2.8-2.2,6.2-3.3,9.9-3.3c3.2,0,5.8,0.9,7.7,2.6c1.9,1.8,2.8,4.1,2.8,7.1
		c0,2.2-0.6,4.4-1.8,6.6c-1.2,2.2-3.5,4.9-6.8,8.2l-8.2,8v0.1h16.5V192.2z"/>
	<path d="M143.9,173.2c-4.3-2-6.5-4.9-6.5-8.7c0-2.7,1-4.8,3-6.5c2-1.7,4.6-2.5,7.7-2.5c2.9,0,5.2,0.8,7.1,2.4
		c1.9,1.6,2.8,3.6,2.8,6.1c0,4-2.2,7.1-6.7,9.3v0.1c5.3,1.9,7.9,5.1,7.9,9.7c0,3-1.1,5.4-3.3,7.2c-2.2,1.8-5.2,2.7-9.1,2.7
		c-3.2,0-5.8-0.9-7.8-2.6c-2-1.8-3-4-3-6.8C136.1,178.7,138.7,175.4,143.9,173.2L143.9,173.2z M147.4,175.4
		c-4.5,1.8-6.7,4.4-6.7,7.7c0,1.7,0.7,3.2,2,4.3c1.3,1.1,3,1.7,5.1,1.7c2,0,3.7-0.6,5-1.7c1.3-1.1,1.9-2.5,1.9-4.2
		C154.7,179.7,152.2,177.1,147.4,175.4z M153.5,164.5c0-1.6-0.5-2.9-1.5-3.8c-1-0.9-2.4-1.4-4.1-1.4c-1.6,0-3,0.5-4.1,1.5
		c-1.1,1-1.7,2.2-1.7,3.7c0,3,1.9,5.3,5.7,6.9C151.6,169.7,153.5,167.4,153.5,164.5z"/>
	<path d="M162,171.6c6.4-4.5,11.9-10.7,16.4-18.5l3.3,1.8c-4.7,8.3-10.4,14.9-17,19.9C164.1,173.8,163.2,172.7,162,171.6z
		 M168.4,173.1h31c-0.2,5.3-0.4,10.4-0.7,15.5c-0.4,5.8-3.1,8.7-8.2,8.7c-2.5,0-5.2,0-8-0.2c-0.2-1.3-0.4-2.6-0.7-4
		c2.4,0.3,5.1,0.5,8,0.6c3.1,0.1,4.8-1.8,5.1-5.5c0.2-3.4,0.4-7.2,0.6-11.6h-14.3c-0.4,5.2-1.5,9.4-3.2,12.5
		c-2.4,4.2-6.3,7.4-11.9,9.6c-0.8-1.1-1.7-2.1-2.7-3.1c5.2-1.9,8.9-4.7,11.1-8.4c1.6-2.8,2.6-6.3,2.8-10.7h-9V173.1z M187.7,153.7
		l3.4-1.4c3.4,8.3,9.4,14.6,18,18.7c-1.4,1.5-2.4,2.6-3,3.5C197.4,169.6,191.3,162.6,187.7,153.7z"/>
	<path d="M233.3,165.9c0.8,0,1.5,0.3,2.1,0.9c0.6,0.6,0.9,1.3,0.9,2.1c0,0.8-0.3,1.5-0.9,2.1c-0.6,0.6-1.3,0.9-2.1,0.9
		c-0.9,0-1.6-0.3-2.1-0.9s-0.9-1.3-0.9-2.1c0-0.8,0.3-1.5,0.9-2.1C231.7,166.1,232.5,165.9,233.3,165.9z M233.3,186.8
		c0.8,0,1.5,0.3,2.1,0.9s0.9,1.3,0.9,2.1c0,0.8-0.3,1.5-0.9,2.1s-1.3,0.9-2.1,0.9s-1.5-0.3-2.1-0.9s-0.9-1.3-0.9-2.1
		c0-0.8,0.3-1.5,0.9-2.1S232.5,186.8,233.3,186.8z"/>
	<path d="M258.5,166.2v-3.4h4.1c0.5-3.1,0.9-6.5,1.4-10.1l3.7,0.5c-0.5,3.5-1,6.7-1.5,9.6h7.2c0,9.8-1.3,17.6-3.8,23.4
		c1.9,1.7,3.8,3.4,5.8,5.3l-2.7,2.8c-1.6-1.7-3.3-3.3-4.9-4.9c-2.1,3.3-4.7,6.2-8,8.9c-0.7-1-1.4-2-2.1-3c3.2-2.6,5.7-5.4,7.5-8.3
		c-2.1-2.1-4.2-4-6.3-5.8c1.1-4,2.2-9.1,3.2-15.1H258.5z M262.6,180.1c1.4,1.2,2.8,2.4,4.2,3.7c1.8-4.3,2.9-10.1,3.1-17.7h-4.4
		C264.4,172.7,263.4,177.4,262.6,180.1z M276.3,155.6c7.8-0.2,15.9-0.7,24.3-1.8l1.2,3.2c-3.5,0.3-6.9,0.6-10.2,0.8
		c0.2,2.1,0.5,3.9,0.9,5.6h11.1v2.9h-10.3c0.6,1.9,1.4,3.3,2.3,4.3c1.3,1.4,2.6,2.1,3.9,2.1c0.6,0,1-0.5,1.3-1.5
		c0.2-1,0.4-2.2,0.5-3.6c1,0.4,2.1,0.7,3.1,1c-0.3,2.1-0.5,3.5-0.7,4.2c-0.7,2.3-1.9,3.4-3.7,3.4c-2.7,0-4.9-0.9-6.7-2.8
		c-1.5-1.6-2.7-4-3.5-7.1h-10v5.8c3.4-0.7,6.6-1.4,9.6-2.1c-0.1,1.1-0.1,2.3,0,3.5c-7.1,1.5-11.3,2.6-12.6,3.4l-1.4-3.1
		c0.7-0.6,1.1-1.7,1.1-3.3V155.6z M277.5,178h23.4v20.2h-3.4v-2.6h-16.7v2.7h-3.4V178z M279.7,158.6v4.9h9.3
		c-0.3-1.6-0.6-3.4-0.8-5.4C285.3,158.3,282.4,158.5,279.7,158.6z M297.5,180.9h-16.7v4.4h16.7V180.9z M280.9,192.8h16.7v-4.5h-16.7
		V192.8z"/>
	<path d="M307.2,165.2v-3.4h18.5v3.4c-1.8,3.2-4,6.3-6.5,9.3v24h-3.6v-20c-2.7,2.7-5.6,5.3-8.9,7.8c-0.5-1.9-0.9-3.3-1.2-4.1
		c7-5.1,12.4-10.8,16.1-17H307.2z M313.5,154.4l2.9-1.9c1.7,2.1,3.3,4.1,4.9,6.2l-3,2.1C316.7,158.5,315.1,156.4,313.5,154.4z
		 M320.2,176.9l2.1-2.5c2.7,1.9,5.4,3.9,8.1,6.1l-2.3,2.8C325.5,181,322.8,178.9,320.2,176.9z M332.7,153.2h3.7v37.2
		c0,2.1,1.1,3.1,3.3,3.1h3.9c2.3,0,3.5-1.1,3.8-3.3c0.3-2.2,0.5-5.1,0.7-8.8c1.3,0.6,2.6,1.1,3.9,1.4c-0.4,4.4-0.7,7.5-1.1,9.4
		c-0.6,3.2-2.9,4.8-6.9,4.8h-5c-4.2,0-6.2-2-6.2-6.1V153.2z"/>
	<path d="M353.7,185.3h22.7v-8h-17.1v-3.4c2.1-3.7,4-7.4,5.8-10.9h-9.6v-3.4h11.3c1.2-2.5,2.3-5,3.4-7.4l3.5,1.1c-1,2.2-2,4.3-3,6.3
		h26.2v3.4H369c-2.1,4.2-3.9,7.9-5.6,11h13v-9h3.6v9h13.5v3.4h-13.5v8h18.6v3.4h-18.6v9.8h-3.6v-9.8h-22.7V185.3z"/>
	<path d="M418.6,179.3c1,5.6-0.5,8.7-4.7,9.4c-1.3,0.2-2.9,0.2-5,0c-0.2-1.3-0.6-2.6-1.1-4c1.7,0.4,3.2,0.5,4.5,0.4
		c2.5-0.2,3.2-2.2,2.3-6c-0.6-2.6-2-5.4-4.4-8.3c1.7-4.5,3.2-8.7,4.4-12.7h-7.6v40.3h-3.7v-43.6h15.3v3.3c-1.6,4.8-3.1,8.8-4.5,12.1
		C416.7,173.6,418.2,176.6,418.6,179.3z M428.1,153h3.8c0,4.4-0.1,8.4-0.2,11.9c1.8,14.2,7,23.9,15.6,29c-1.1,1.2-2.2,2.4-3.1,3.6
		c-6.9-5-11.5-12.5-13.8-22.6c-1.8,9.5-6.6,17.3-14.6,23.4c-0.7-0.9-1.6-1.9-2.8-3c9.8-6.9,14.7-17.2,14.9-30.7
		C428.1,162,428.1,158.2,428.1,153z"/>
	<path d="M451.5,155.3h40.7V198h-3.9v-3h-32.9v3h-3.9V155.3z M488.3,158.7h-32.9v32.9h32.9V158.7z M461.9,165.9h19.8v20.4h-3.6v-2.6
		h-12.5v2.6h-3.6V165.9z M478.1,169.1h-12.5v11.2h12.5V169.1z"/>
	<path d="M496.3,168.6h7.5c-1.3-2.1-2.6-3.9-3.7-5.4l2.5-1.8c1,1.2,2.3,3,4,5.3l-2.6,1.9h6.2c1.7-2.4,3.3-4.8,4.7-7.2l3.3,1.9
		c-1.5,1.9-2.9,3.7-4.3,5.4h7.1v3h-24.5V168.6z M501.2,182.4l3.2,1.5c-1.7,3.5-3.3,6.7-5,9.5c-0.9-0.6-1.9-1.1-3.1-1.7
		C497.9,189.4,499.5,186.3,501.2,182.4z M497.6,177.3h9.5v-4.4h3.4v4.4h9.1v3h-9.1v12.2c0,3.3-1.6,4.9-4.8,4.9c-1.3,0-2.8,0-4.5,0
		c-0.1-1-0.3-2.2-0.5-3.5c1.8,0.2,3.2,0.3,4.2,0.3c1.5,0,2.2-0.8,2.2-2.4v-11.4h-9.5V177.3z M497.8,157.8h10.1
		c-0.7-1.3-1.4-2.7-2.3-4.1l3-1.4c1,1.6,1.9,3.2,2.7,4.8l-1.6,0.7h9.9v3h-21.8V157.8z M514.7,182.6c1.7,2.4,3.3,4.5,4.6,6.5l-3,2.1
		c-1.4-2.4-2.8-4.6-4.3-6.8L514.7,182.6z M522.5,156.4c6.4-0.1,12.4-0.7,17.8-1.9l1.2,3.6c-6.2,0.8-11.4,1.3-15.7,1.6v10.9h17v3.2
		h-6.7v24.4h-3.4v-24.4h-6.9v2.3c0,9.5-2.3,17-6.8,22.3c-0.7-1-1.6-2-2.5-3c4-4.4,6-10.9,6-19.4V156.4z"/>
	<path d="M549.2,157.4h18c-0.7-1.1-1.5-2.3-2.2-3.4l3.2-1.8c1.2,1.6,2.4,3.3,3.4,5.2H587v12.7h-3.6v-1.4h-30.5v7.3
		c0,9.8-2.2,17.3-6.5,22.4c-0.8-1-1.6-2.1-2.5-3.2c3.6-4.3,5.4-10.8,5.4-19.6V157.4z M554.3,173.7h16c-0.6-0.9-1.3-2-2.1-3.1
		l3.1-1.7c1.2,1.6,2.3,3.3,3.2,4.8H590v3.2h-23.8c-0.1,1.7-0.2,3.2-0.4,4.7h19.3c-0.2,3.3-0.4,6.4-0.7,9.3c-0.4,4.3-2.7,6.4-7,6.4
		c-2.3,0-4.8,0-7.3-0.1c-0.2-1.3-0.4-2.6-0.7-4c3,0.3,5.5,0.5,7.6,0.5c2.3,0,3.6-1.1,3.9-3.3c0.2-1.6,0.3-3.5,0.5-5.6h-16
		c-1,5.7-4.5,10.4-10.5,14c-0.6-0.8-1.4-1.9-2.4-3.1c4-2.5,6.6-5.1,8-8c1.2-2.4,1.9-5.9,2.1-10.7h-8.3V173.7z M583.4,160.6h-30.5
		v4.9h30.5V160.6z"/>
	<path d="M27.1,263.8H6.4v-3.9h8.1v-27.4l-8.3,2.4v-4.2l12.8-3.7v32.9h8.1V263.8z"/>
	<path d="M32.1,246.4c0-6.4,1.1-11.2,3.2-14.5c2.1-3.3,5.2-4.9,9.2-4.9c7.6,0,11.5,6.2,11.5,18.5c0,6.1-1.1,10.7-3.2,14
		c-2.2,3.2-5.2,4.8-9.1,4.8c-3.7,0-6.5-1.5-8.5-4.6C33.1,256.7,32.1,252.3,32.1,246.4z M36.8,246.2c0,9.6,2.4,14.4,7.3,14.4
		c4.8,0,7.2-4.9,7.2-14.6c0-10.1-2.3-15.1-7-15.1C39.2,230.9,36.8,236,36.8,246.2z"/>
	<path d="M81.9,237.4c0.8,0,1.5,0.3,2.1,0.9c0.6,0.6,0.9,1.3,0.9,2.1c0,0.8-0.3,1.5-0.9,2.1c-0.6,0.6-1.3,0.9-2.1,0.9
		c-0.9,0-1.6-0.3-2.1-0.9s-0.9-1.3-0.9-2.1c0-0.8,0.3-1.5,0.9-2.1C80.3,237.7,81.1,237.4,81.9,237.4z M81.9,258.4
		c0.8,0,1.5,0.3,2.1,0.9s0.9,1.3,0.9,2.1c0,0.8-0.3,1.5-0.9,2.1s-1.3,0.9-2.1,0.9s-1.5-0.3-2.1-0.9s-0.9-1.3-0.9-2.1
		c0-0.8,0.3-1.5,0.9-2.1S81.1,258.4,81.9,258.4z"/>
	<path d="M109.8,258.2c2.4,1.6,4.9,2.4,7.6,2.4c2.5,0,4.5-0.7,6-2.1c1.5-1.4,2.3-3.2,2.3-5.5c0-2.3-0.8-4.1-2.3-5.4
		c-1.5-1.3-3.8-1.9-6.7-1.9c-1.4,0-3.3,0.1-5.7,0.3v-18.3h17.8v4h-13.5v10.2c1.4-0.1,2.4-0.1,3.1-0.1c3.8,0,6.8,1,8.9,2.9
		c2.1,1.9,3.2,4.6,3.2,8c0,3.5-1.1,6.3-3.4,8.5c-2.3,2.2-5.4,3.2-9.5,3.2c-3.4,0-5.9-0.5-7.6-1.5V258.2z"/>
	<path d="M143.9,244.8c-4.3-2-6.5-4.9-6.5-8.7c0-2.7,1-4.8,3-6.5c2-1.7,4.6-2.5,7.7-2.5c2.9,0,5.2,0.8,7.1,2.4
		c1.9,1.6,2.8,3.6,2.8,6.1c0,4-2.2,7.1-6.7,9.3v0.1c5.3,1.9,7.9,5.1,7.9,9.7c0,3-1.1,5.4-3.3,7.2c-2.2,1.8-5.2,2.7-9.1,2.7
		c-3.2,0-5.8-0.9-7.8-2.6c-2-1.8-3-4-3-6.8C136.1,250.3,138.7,247,143.9,244.8L143.9,244.8z M147.4,246.9c-4.5,1.8-6.7,4.4-6.7,7.7
		c0,1.7,0.7,3.2,2,4.3c1.3,1.1,3,1.7,5.1,1.7c2,0,3.7-0.6,5-1.7c1.3-1.1,1.9-2.5,1.9-4.2C154.7,251.3,152.2,248.7,147.4,246.9z
		 M153.5,236c0-1.6-0.5-2.9-1.5-3.8c-1-0.9-2.4-1.4-4.1-1.4c-1.6,0-3,0.5-4.1,1.5c-1.1,1-1.7,2.2-1.7,3.7c0,3,1.9,5.3,5.7,6.9
		C151.6,241.3,153.5,239,153.5,236z"/>
	<path d="M162,243.1c6.4-4.5,11.9-10.7,16.4-18.5l3.3,1.8c-4.7,8.3-10.4,14.9-17,19.9C164.1,245.3,163.2,244.3,162,243.1z
		 M168.4,244.7h31c-0.2,5.3-0.4,10.4-0.7,15.5c-0.4,5.8-3.1,8.7-8.2,8.7c-2.5,0-5.2,0-8-0.2c-0.2-1.3-0.4-2.6-0.7-4
		c2.4,0.3,5.1,0.5,8,0.6c3.1,0.1,4.8-1.8,5.1-5.5c0.2-3.4,0.4-7.2,0.6-11.6h-14.3c-0.4,5.2-1.5,9.4-3.2,12.5
		c-2.4,4.2-6.3,7.4-11.9,9.6c-0.8-1.1-1.7-2.1-2.7-3.1c5.2-1.9,8.9-4.7,11.1-8.4c1.6-2.8,2.6-6.3,2.8-10.7h-9V244.7z M187.7,225.3
		l3.4-1.4c3.4,8.3,9.4,14.6,18,18.7c-1.4,1.5-2.4,2.6-3,3.5C197.4,241.1,191.3,234.2,187.7,225.3z"/>
	<path d="M233.3,237.4c0.8,0,1.5,0.3,2.1,0.9c0.6,0.6,0.9,1.3,0.9,2.1c0,0.8-0.3,1.5-0.9,2.1c-0.6,0.6-1.3,0.9-2.1,0.9
		c-0.9,0-1.6-0.3-2.1-0.9s-0.9-1.3-0.9-2.1c0-0.8,0.3-1.5,0.9-2.1C231.7,237.7,232.5,237.4,233.3,237.4z M233.3,258.4
		c0.8,0,1.5,0.3,2.1,0.9s0.9,1.3,0.9,2.1c0,0.8-0.3,1.5-0.9,2.1s-1.3,0.9-2.1,0.9s-1.5-0.3-2.1-0.9s-0.9-1.3-0.9-2.1
		c0-0.8,0.3-1.5,0.9-2.1S232.5,258.4,233.3,258.4z"/>
	<path d="M258.5,237.7v-3.4h4.1c0.5-3.1,0.9-6.5,1.4-10.1l3.7,0.5c-0.5,3.5-1,6.7-1.5,9.6h7.2c0,9.8-1.3,17.6-3.8,23.4
		c1.9,1.7,3.8,3.4,5.8,5.3l-2.7,2.8c-1.6-1.7-3.3-3.3-4.9-4.9c-2.1,3.3-4.7,6.2-8,8.9c-0.7-1-1.4-2-2.1-3c3.2-2.6,5.7-5.4,7.5-8.3
		c-2.1-2.1-4.2-4-6.3-5.8c1.1-4,2.2-9.1,3.2-15.1H258.5z M262.6,251.7c1.4,1.2,2.8,2.4,4.2,3.7c1.8-4.3,2.9-10.1,3.1-17.7h-4.4
		C264.4,244.3,263.4,249,262.6,251.7z M276.3,227.2c7.8-0.2,15.9-0.7,24.3-1.8l1.2,3.2c-3.5,0.3-6.9,0.6-10.2,0.8
		c0.2,2.1,0.5,3.9,0.9,5.6h11.1v2.9h-10.3c0.6,1.9,1.4,3.3,2.3,4.3c1.3,1.4,2.6,2.1,3.9,2.1c0.6,0,1-0.5,1.3-1.5
		c0.2-1,0.4-2.2,0.5-3.6c1,0.4,2.1,0.7,3.1,1c-0.3,2.1-0.5,3.5-0.7,4.2c-0.7,2.3-1.9,3.4-3.7,3.4c-2.7,0-4.9-0.9-6.7-2.8
		c-1.5-1.6-2.7-4-3.5-7.1h-10v5.8c3.4-0.7,6.6-1.4,9.6-2.1c-0.1,1.1-0.1,2.3,0,3.5c-7.1,1.5-11.3,2.6-12.6,3.4l-1.4-3.1
		c0.7-0.6,1.1-1.7,1.1-3.3V227.2z M277.5,249.6h23.4v20.2h-3.4v-2.6h-16.7v2.7h-3.4V249.6z M279.7,230.2v4.9h9.3
		c-0.3-1.6-0.6-3.4-0.8-5.4C285.3,229.9,282.4,230.1,279.7,230.2z M297.5,252.5h-16.7v4.4h16.7V252.5z M280.9,264.3h16.7v-4.5h-16.7
		V264.3z"/>
	<path d="M307.2,236.8v-3.4h18.5v3.4c-1.8,3.2-4,6.3-6.5,9.3v24h-3.6v-20c-2.7,2.7-5.6,5.3-8.9,7.8c-0.5-1.9-0.9-3.3-1.2-4.1
		c7-5.1,12.4-10.8,16.1-17H307.2z M313.5,225.9l2.9-1.9c1.7,2.1,3.3,4.1,4.9,6.2l-3,2.1C316.7,230.1,315.1,228,313.5,225.9z
		 M320.2,248.5l2.1-2.5c2.7,1.9,5.4,3.9,8.1,6.1l-2.3,2.8C325.5,252.6,322.8,250.5,320.2,248.5z M332.7,224.8h3.7V262
		c0,2.1,1.1,3.1,3.3,3.1h3.9c2.3,0,3.5-1.1,3.8-3.3c0.3-2.2,0.5-5.1,0.7-8.8c1.3,0.6,2.6,1.1,3.9,1.4c-0.4,4.4-0.7,7.5-1.1,9.4
		c-0.6,3.2-2.9,4.8-6.9,4.8h-5c-4.2,0-6.2-2-6.2-6.1V224.8z"/>
	<path d="M353.7,256.9h22.7v-8h-17.1v-3.4c2.1-3.7,4-7.4,5.8-10.9h-9.6v-3.4h11.3c1.2-2.5,2.3-5,3.4-7.4l3.5,1.1c-1,2.2-2,4.3-3,6.3
		h26.2v3.4H369c-2.1,4.2-3.9,7.9-5.6,11h13v-9h3.6v9h13.5v3.4h-13.5v8h18.6v3.4h-18.6v9.8h-3.6v-9.8h-22.7V256.9z"/>
	<path d="M418.6,250.9c1,5.6-0.5,8.7-4.7,9.4c-1.3,0.2-2.9,0.2-5,0c-0.2-1.3-0.6-2.6-1.1-4c1.7,0.4,3.2,0.5,4.5,0.4
		c2.5-0.2,3.2-2.2,2.3-6c-0.6-2.6-2-5.4-4.4-8.3c1.7-4.5,3.2-8.7,4.4-12.7h-7.6V270h-3.7v-43.6h15.3v3.3c-1.6,4.8-3.1,8.8-4.5,12.1
		C416.7,245.1,418.2,248.2,418.6,250.9z M428.1,224.6h3.8c0,4.4-0.1,8.4-0.2,11.9c1.8,14.2,7,23.9,15.6,29c-1.1,1.2-2.2,2.4-3.1,3.6
		c-6.9-5-11.5-12.5-13.8-22.6c-1.8,9.5-6.6,17.3-14.6,23.4c-0.7-0.9-1.6-1.9-2.8-3c9.8-6.9,14.7-17.2,14.9-30.7
		C428.1,233.6,428.1,229.7,428.1,224.6z"/>
	<path d="M486,247.6v-1.7h-12.3v18.3h13.7v-13.3h3.9v18.5h-3.9v-1.7h-35v-16.8h4v13.3h13.4v-18.3h-16.1v-16.7h4v13.2h12.1v-17.5h4.1
		v17.5H486v-13.2h4v18.5H486z"/>
	<path d="M502.7,234.6h9.9c0.8-3.2,1.4-6.8,1.9-10.6l4,0.5c-0.5,3.5-1.2,6.9-1.9,10.1h25.7v3.4h-26.6c-0.6,2.1-1.2,4-1.8,5.9h23.1
		v3.2c-2,5.1-5.2,9.5-9.6,13.2c4.4,2.6,9.5,4.5,15.3,5.6c-1.4,1.6-2.5,2.9-3.3,3.9c-5-1.6-10-4.1-15-7.2c-4,2.7-9.8,5.2-17.3,7.5
		c-0.9-1.2-1.8-2.4-2.8-3.4c7.6-2,13.4-4.1,17.1-6.3c-4.1-3.5-7-7.9-8.7-13.2c-3.4,8.5-8,15.5-13.9,21c-0.8-1.2-1.7-2.2-2.5-3.2
		c7-6.3,12.2-15.3,15.4-26.9h-12.9v-3.5c1.3-3,2.4-5.9,3.5-8.9l3.8,1C504.9,229.4,503.8,232.1,502.7,234.6z M532.8,247.2H516
		c1.4,4.3,4.2,8,8.3,11.1C528.3,255,531.2,251.3,532.8,247.2z M525.7,227.2l2.1-2.6c3,1.9,6,3.9,8.8,6l-2.5,3
		C531.2,231.3,528.5,229.2,525.7,227.2z"/>
	<path d="M544.5,231.2h15.1c-1-1.6-2.3-3.4-3.9-5.3l2.9-2c1.9,2.1,3.5,4.1,4.7,5.7l-2.3,1.5h12.7l-1.9-1c1.6-2,3.1-4.1,4.3-6.3
		l3.5,2.1c-1.4,2-2.9,3.7-4.3,5.3h14.7v3.3h-45.6V231.2z M551.1,270h-3.5v-31H568v26c0,3-1.6,4.5-4.7,4.5c-1.3,0-3.1,0-5.4-0.1
		c-0.2-1.2-0.4-2.4-0.7-3.4c1.9,0.2,3.7,0.2,5.3,0.2c1.3,0,2-0.6,2-1.9v-5.9h-13.3V270z M564.5,242.2h-13.3v5h13.3V242.2z
		 M551.1,255.3h13.3v-5h-13.3V255.3z M573.6,239.7h3.5v21h-3.5V239.7z M583.2,237.5h3.6v26c0,3.8-1.8,5.7-5.4,5.8
		c-1.6,0-3.7,0-6.2,0c-0.2-1.3-0.4-2.6-0.7-3.9c2.3,0.2,4.2,0.4,5.6,0.4c2,0,3-1,3-3V237.5z"/>
	<path d="M591.8,251.8c4.9-3.9,9.2-9.1,12.7-15.5l3.4,1.7c-1.6,2.8-3.3,5.3-5.1,7.7v24.2h-3.8v-19.5c-1.8,2-3.7,3.8-5.5,5.4
		C593,254.5,592.5,253.1,591.8,251.8z M592.1,237.2c4.4-3.3,8.1-7.7,11.2-13l3.4,2.1c-3.7,5.9-7.9,10.7-12.7,14.5
		C593.4,239.6,592.7,238.4,592.1,237.2z M606,264h14.4v-13.5h-11.1v-3.4h11.1v-11h-12.6v-3.4h29.1v3.4h-12.6v11h11.1v3.4h-11.1V264
		h13.8v3.4H606V264z M617.4,225.8l3.1-1.9c1.7,2,3.2,4,4.5,6l-3.3,2.1C620.4,229.7,618.9,227.6,617.4,225.8z"/>
	<path d="M641.8,237c3.2,2.3,5.9,4.4,8.1,6.3l-2.7,3.1c-2.6-2.4-5.2-4.6-7.7-6.7L641.8,237z M646.5,250.5c1.2,0.7,2.5,1.4,3.7,1.9
		c-1.9,6.2-3.7,11.9-5.3,17.1l-4-1.9C643.2,262.1,645,256.4,646.5,250.5z M644.1,225c2.4,1.9,5.1,4.1,8.1,6.6l-2.8,3
		c-2.8-2.7-5.3-5-7.7-7L644.1,225z M653.3,235.8h8.9v-6.2h-10v-3.2h33.3v3.2h-11.2v6.2h9.1v34.3h-3.4v-2.7h-23.4v2.7h-3.4V235.8z
		 M671,245.6V239h-5.4v0.9c0,5.7-2.3,10.2-6.8,13.5c-0.5-0.7-1.2-1.5-2.1-2.5v4.3h23.4V251h-4C672.7,251,671,249.2,671,245.6z
		 M656.7,250.5c3.7-2.5,5.5-6.1,5.5-10.8V239h-5.5V250.5z M656.7,264.2h23.4v-5.9h-23.4V264.2z M665.6,235.8h5.4v-6.2h-5.4V235.8z
		 M676.9,247.5c0.7,0,1.8,0,3.3,0V239h-5.8v6.2C674.4,246.7,675.2,247.5,676.9,247.5z"/>
	<path d="M708.7,225.2l3.3-1.6c1.3,1.9,2.4,3.8,3.5,5.8h17.9v3.4h-37.8v15.6c-0.3,9.7-2.4,17-6.3,21.9c-0.7-1-1.6-2-2.7-3.2
		c3.4-4.4,5-11,5.1-19.5v-18.2h19.5C710.4,228,709.6,226.6,708.7,225.2z M711,234.1h3.8v5.8h17.5v3.4h-17.5v6.6h13.8v20h-3.7v-3
		h-21.2v3H700v-20h11V234.1z M724.9,253.3h-21.2v10.3h21.2V253.3z"/>
	<path d="M743.4,257.3c1.5,0,2.8,0.6,4,1.8c1.1,1.2,1.7,2.6,1.7,4.1c0,1.8-0.6,3.2-1.7,4.3c-1.1,1.1-2.5,1.7-4.1,1.7s-3-0.6-4.1-1.7
		c-1.2-1.1-1.7-2.5-1.7-4.2c0-1.7,0.6-3.1,1.8-4.3C740.4,257.9,741.8,257.3,743.4,257.3z M743.3,265.8c0.6,0,1.1-0.2,1.7-0.7
		s0.8-1,0.8-1.7c0-0.8-0.2-1.4-0.7-1.9c-0.5-0.5-1.1-0.7-1.8-0.7c-0.7,0-1.2,0.2-1.7,0.7c-0.5,0.5-0.7,1.1-0.7,1.9
		c0,0.8,0.3,1.4,0.9,1.8C742.1,265.6,742.7,265.8,743.3,265.8z"/>
	<path d="M27.1,335.3H6.4v-3.9h8.1V304l-8.3,2.4v-4.2l12.8-3.7v32.9h8.1V335.3z"/>
	<path d="M55.1,335.3H34.4v-3.9h8.1V304l-8.3,2.4v-4.2l12.8-3.7v32.9h8.1V335.3z"/>
	<path d="M81.9,309c0.8,0,1.5,0.3,2.1,0.9c0.6,0.6,0.9,1.3,0.9,2.1c0,0.8-0.3,1.5-0.9,2.1c-0.6,0.6-1.3,0.9-2.1,0.9
		c-0.9,0-1.6-0.3-2.1-0.9s-0.9-1.3-0.9-2.1c0-0.8,0.3-1.5,0.9-2.1C80.3,309.3,81.1,309,81.9,309z M81.9,330c0.8,0,1.5,0.3,2.1,0.9
		s0.9,1.3,0.9,2.1c0,0.8-0.3,1.5-0.9,2.1s-1.3,0.9-2.1,0.9s-1.5-0.3-2.1-0.9s-0.9-1.3-0.9-2.1c0-0.8,0.3-1.5,0.9-2.1
		S81.1,330,81.9,330z"/>
	<path d="M130.8,335.3h-20.7v-3.9h8.1V304l-8.3,2.4v-4.2l12.8-3.7v32.9h8.1V335.3z"/>
	<path d="M143.9,316.3c-4.3-2-6.5-4.9-6.5-8.7c0-2.7,1-4.8,3-6.5c2-1.7,4.6-2.5,7.7-2.5c2.9,0,5.2,0.8,7.1,2.4
		c1.9,1.6,2.8,3.6,2.8,6.1c0,4-2.2,7.1-6.7,9.3v0.1c5.3,1.9,7.9,5.1,7.9,9.7c0,3-1.1,5.4-3.3,7.2c-2.2,1.8-5.2,2.7-9.1,2.7
		c-3.2,0-5.8-0.9-7.8-2.6c-2-1.8-3-4-3-6.8C136.1,321.9,138.7,318.5,143.9,316.3L143.9,316.3z M147.4,318.5
		c-4.5,1.8-6.7,4.4-6.7,7.7c0,1.7,0.7,3.2,2,4.3c1.3,1.1,3,1.7,5.1,1.7c2,0,3.7-0.6,5-1.7c1.3-1.1,1.9-2.5,1.9-4.2
		C154.7,322.9,152.2,320.3,147.4,318.5z M153.5,307.6c0-1.6-0.5-2.9-1.5-3.8c-1-0.9-2.4-1.4-4.1-1.4c-1.6,0-3,0.5-4.1,1.5
		c-1.1,1-1.7,2.2-1.7,3.7c0,3,1.9,5.3,5.7,6.9C151.6,312.8,153.5,310.6,153.5,307.6z"/>
	<path d="M162,314.7c6.4-4.5,11.9-10.7,16.4-18.5l3.3,1.8c-4.7,8.3-10.4,14.9-17,19.9C164.1,316.9,163.2,315.9,162,314.7z
		 M168.4,316.3h31c-0.2,5.3-0.4,10.4-0.7,15.5c-0.4,5.8-3.1,8.7-8.2,8.7c-2.5,0-5.2,0-8-0.2c-0.2-1.3-0.4-2.6-0.7-4
		c2.4,0.3,5.1,0.5,8,0.6c3.1,0.1,4.8-1.8,5.1-5.5c0.2-3.4,0.4-7.2,0.6-11.6h-14.3c-0.4,5.2-1.5,9.4-3.2,12.5
		c-2.4,4.2-6.3,7.4-11.9,9.6c-0.8-1.1-1.7-2.1-2.7-3.1c5.2-1.9,8.9-4.7,11.1-8.4c1.6-2.8,2.6-6.3,2.8-10.7h-9V316.3z M187.7,296.9
		l3.4-1.4c3.4,8.3,9.4,14.6,18,18.7c-1.4,1.5-2.4,2.6-3,3.5C197.4,312.7,191.3,305.8,187.7,296.9z"/>
	<path d="M233.3,309c0.8,0,1.5,0.3,2.1,0.9c0.6,0.6,0.9,1.3,0.9,2.1c0,0.8-0.3,1.5-0.9,2.1c-0.6,0.6-1.3,0.9-2.1,0.9
		c-0.9,0-1.6-0.3-2.1-0.9s-0.9-1.3-0.9-2.1c0-0.8,0.3-1.5,0.9-2.1C231.7,309.3,232.5,309,233.3,309z M233.3,330
		c0.8,0,1.5,0.3,2.1,0.9s0.9,1.3,0.9,2.1c0,0.8-0.3,1.5-0.9,2.1s-1.3,0.9-2.1,0.9s-1.5-0.3-2.1-0.9s-0.9-1.3-0.9-2.1
		c0-0.8,0.3-1.5,0.9-2.1S232.5,330,233.3,330z"/>
	<path d="M257.7,311.8h7.5c-1.3-2.1-2.6-3.9-3.7-5.4l2.5-1.8c1,1.2,2.3,3,4,5.3l-2.6,1.9h6.2c1.7-2.4,3.3-4.8,4.7-7.2l3.3,1.9
		c-1.5,1.9-2.9,3.7-4.3,5.4h7.1v3h-24.5V311.8z M262.6,325.6l3.2,1.5c-1.7,3.5-3.3,6.7-5,9.5c-0.9-0.6-1.9-1.1-3.1-1.7
		C259.3,332.5,260.9,329.4,262.6,325.6z M259,320.5h9.5v-4.4h3.4v4.4h9.1v3h-9.1v12.2c0,3.3-1.6,4.9-4.8,4.9c-1.3,0-2.8,0-4.5,0
		c-0.1-1-0.3-2.2-0.5-3.5c1.8,0.2,3.2,0.3,4.2,0.3c1.5,0,2.2-0.8,2.2-2.4v-11.4H259V320.5z M259.2,301h10.1
		c-0.7-1.3-1.4-2.7-2.3-4.1l3-1.4c1,1.6,1.9,3.2,2.7,4.8l-1.6,0.7h9.9v3h-21.8V301z M276.1,325.8c1.7,2.4,3.3,4.5,4.6,6.5l-3,2.1
		c-1.4-2.4-2.8-4.6-4.3-6.8L276.1,325.8z M283.9,299.6c6.4-0.1,12.4-0.7,17.8-1.9l1.2,3.6c-6.2,0.8-11.4,1.3-15.7,1.6v10.9h17v3.2
		h-6.7v24.4h-3.4v-24.4h-6.9v2.3c0,9.5-2.3,17-6.9,22.3c-0.7-1-1.6-2-2.5-3c4-4.4,6-10.9,6-19.4V299.6z"/>
	<path d="M318.2,326.6l2.5-2c3.6,3.5,7,7.2,10.3,11l-2.8,2.4c-1.4-1.6-2.8-3.3-4.2-4.9c-8.5,3.6-13.3,6-14.4,7.2l-2.3-3.4
		c0.9-0.8,1.3-2.1,1.3-4.1v-31.9h9.3c-1.1-1.3-2.3-2.5-3.7-3.8l2.6-2.1c1.5,1.4,2.9,2.7,4.1,4l-2.2,1.9h9.3v23.4h-3.5v-1.9h-12.3
		v12.1c2.8-1.1,5.9-2.5,9.3-4.2C320.5,329.1,319.4,327.8,318.2,326.6z M324.6,304.1h-12.3v6h12.3V304.1z M312.3,319.2h12.3v-6.1
		h-12.3V319.2z M351.1,326.2c0,5.7-2.6,8.6-7.9,8.6c-1.3,0-2.9-0.1-4.8-0.3c-0.2-1.1-0.4-2.5-0.6-4c2.5,0.4,4.4,0.6,6,0.6
		c2.4,0,3.6-1.6,3.6-4.9c0-3.8-2.4-7.5-7.2-11c2-4,4.1-8.5,6.2-13.4H337v39.8h-3.5v-43.2h16.8v3.8c-1.2,2.9-3.1,7-5.6,12.2
		C348.9,317.8,351.1,321.8,351.1,326.2z"/>
	<path d="M353.2,311.8h7.5c-1.3-2.1-2.6-3.9-3.7-5.4l2.5-1.8c1,1.2,2.3,3,4,5.3l-2.6,1.9h6.2c1.7-2.4,3.3-4.8,4.7-7.2l3.3,1.9
		c-1.5,1.9-2.9,3.7-4.3,5.4h7.1v3h-24.5V311.8z M358.1,325.6l3.2,1.5c-1.7,3.5-3.3,6.7-5,9.5c-0.9-0.6-1.9-1.1-3.1-1.7
		C354.7,332.5,356.3,329.4,358.1,325.6z M354.5,320.5h9.5v-4.4h3.4v4.4h9.1v3h-9.1v12.2c0,3.3-1.6,4.9-4.8,4.9c-1.3,0-2.8,0-4.5,0
		c-0.1-1-0.3-2.2-0.5-3.5c1.8,0.2,3.2,0.3,4.2,0.3c1.5,0,2.2-0.8,2.2-2.4v-11.4h-9.5V320.5z M354.7,301h10.1
		c-0.7-1.3-1.4-2.7-2.3-4.1l3-1.4c1,1.6,1.9,3.2,2.7,4.8l-1.6,0.7h9.9v3h-21.8V301z M371.5,325.8c1.7,2.4,3.3,4.5,4.6,6.5l-3,2.1
		c-1.4-2.4-2.8-4.6-4.3-6.8L371.5,325.8z M379.3,299.6c6.4-0.1,12.4-0.7,17.8-1.9l1.2,3.6c-6.2,0.8-11.4,1.3-15.7,1.6v10.9h17v3.2
		H393v24.4h-3.4v-24.4h-6.9v2.3c0,9.5-2.3,17-6.9,22.3c-0.7-1-1.6-2-2.5-3c4-4.4,6-10.9,6-19.4V299.6z"/>
	<path d="M418.2,334.2l-2.7,2.8c-1.5-1.6-3.1-3.1-4.6-4.6c-2.1,3.4-4.8,6.4-8.3,9.2c-0.7-1-1.4-2-2.1-3c3.3-2.6,5.9-5.5,7.8-8.8
		c-2.1-2-4.2-3.9-6.2-5.7c1.1-4.1,2.2-9.1,3.2-15.2h-4.1v-3.4h4.7c0.4-3.1,0.9-6.4,1.3-10l3.7,0.5c-0.5,3.4-1,6.6-1.5,9.5h7.5v2.9
		c-0.6,9.2-2,16.1-4.1,20.6C414.6,331,416.5,332.6,418.2,334.2z M413.2,309.1h-4.5c-1.1,6.6-2.1,11.4-3,14.1
		c1.4,1.2,2.8,2.4,4.2,3.6C411.8,322.6,412.9,316.6,413.2,309.1z M443.6,322.9l2.1,2.9c-2.4,1.7-5.4,3.6-9,5.7
		c3,2.7,6.5,4.4,10.7,5.3c-0.8,1-1.6,2.2-2.4,3.6c-8.7-2.7-14.7-8.9-18.1-18.8h-4v14.8c2.5-1,5.4-2.3,8.8-3.9c-0.1,1.2,0,2.5,0,3.6
		c-6.4,2.9-10.3,4.8-11.8,5.7l-2.1-3.1c1.1-0.7,1.6-1.7,1.6-2.9V301h10.8c-0.7-1.5-1.3-2.9-2-4.2l3.3-1.3c0.9,1.8,1.7,3.7,2.5,5.5
		h9.2v21.8h-3.4v-1.2h-9.7c1.2,3,2.7,5.5,4.4,7.6C437.4,327.5,440.4,325.4,443.6,322.9z M439.8,304.1h-17v5.6h17V304.1z
		 M439.8,318.5v-5.7h-17v5.7H439.8z"/>
	<path d="M468,336.8l11.2,0.2l15.8-0.4c-0.3,1-0.8,2.3-1.3,3.7h-15.6l-10.6-0.2c-5.5-0.1-9.3-1.9-11.4-5.4c-1.3,1.2-3.1,3.3-5.6,6.2
		l-1.9-3.9c2.7-2.7,4.7-4.6,6-5.7v-15.7h-5.5v-3.4h9.1v19.9C460,335.1,463.3,336.7,468,336.8z M453.2,296.2c2.5,3,4.8,5.9,6.9,8.9
		l-3.4,2.2c-2.6-3.9-4.7-7-6.4-9L453.2,296.2z M475,321.3c0,1.3,0.1,2.5,0.2,3.6c-3,1.4-5.7,2.8-8.1,4.1c-0.9,0.6-1.6,1.1-2.2,1.7
		l-2.2-3.1c0.9-0.8,1.3-2,1.3-3.6v-25c4-0.7,7.9-1.7,11.7-3l1.4,3.3c-2.9,0.8-6,1.6-9.6,2.4v23C470.2,323.6,472.7,322.5,475,321.3z
		 M476.9,300.1h15.7v23c0,3.9-1.7,5.9-5,6c-1.6,0.1-3.4,0.1-5.5,0c-0.1-1.3-0.3-2.6-0.6-3.8c1.9,0.2,3.5,0.4,4.9,0.4
		c1.8,0,2.7-1.1,2.7-3.3v-18.9h-8.6v31.6h-3.5V300.1z"/>
	<path d="M496.5,327.5h8.8v-18.8c10.6-0.2,20.1-0.8,28.4-2l1.3,3.6c-7,0.7-15.7,1.3-26,1.7v4.8h30.7v3.3h-11v7.5h14.2v3.4h-46.3
		V327.5z M512.6,331.6l2.2,3.1c-4.8,2.5-10,4.8-15.7,7.1c-0.5-1-1.1-2.1-1.9-3.3C502.4,336.6,507.5,334.3,512.6,331.6z M498.5,300.8
		h20.3c-0.7-1.4-1.5-2.8-2.3-4.2l3.3-1.4c1.1,1.8,2.1,3.7,3.2,5.6h18v8.8h-3.5v-5.5H502v5.5h-3.5V300.8z M508.9,327.5H525V320h-16.2
		V327.5z M523.7,334.8l1.7-3c6.3,2.3,11.7,4.4,16.3,6.3l-2,3.6C534.2,339.1,528.9,336.8,523.7,334.8z"/>
	<path d="M27.1,406.9H6.4V403h8.1v-27.4L6.2,378v-4.2l12.8-3.7V403h8.1V406.9z"/>
	<path d="M54.4,406.9H32.5v-4l10.5-10.5c2.9-2.9,4.8-5.2,5.8-6.9c1-1.7,1.5-3.4,1.5-5.2c0-2.1-0.6-3.6-1.7-4.7
		c-1.1-1.1-2.8-1.6-5-1.6c-3.2,0-6.3,1.4-9.2,4.1v-4.6c2.8-2.2,6.2-3.3,9.9-3.3c3.2,0,5.8,0.9,7.7,2.6c1.9,1.8,2.8,4.1,2.8,7.1
		c0,2.2-0.6,4.4-1.8,6.6c-1.2,2.2-3.5,4.9-6.8,8.2l-8.2,8v0.1h16.5V406.9z"/>
	<path d="M81.9,380.6c0.8,0,1.5,0.3,2.1,0.9c0.6,0.6,0.9,1.3,0.9,2.1s-0.3,1.5-0.9,2.1c-0.6,0.6-1.3,0.9-2.1,0.9
		c-0.9,0-1.6-0.3-2.1-0.9c-0.6-0.6-0.9-1.3-0.9-2.1s0.3-1.5,0.9-2.1C80.3,380.9,81.1,380.6,81.9,380.6z M81.9,401.6
		c0.8,0,1.5,0.3,2.1,0.9c0.6,0.6,0.9,1.3,0.9,2.1c0,0.8-0.3,1.5-0.9,2.1c-0.6,0.6-1.3,0.8-2.1,0.8s-1.5-0.3-2.1-0.8
		c-0.6-0.6-0.9-1.3-0.9-2.1c0-0.8,0.3-1.5,0.9-2.1C80.3,401.9,81.1,401.6,81.9,401.6z"/>
	<path d="M107.8,389.6c0-6.4,1.1-11.2,3.2-14.5c2.1-3.3,5.2-4.9,9.2-4.9c7.6,0,11.5,6.2,11.5,18.5c0,6.1-1.1,10.7-3.2,14
		c-2.2,3.2-5.2,4.8-9.1,4.8c-3.7,0-6.5-1.5-8.5-4.6C108.8,399.9,107.8,395.4,107.8,389.6z M112.5,389.4c0,9.6,2.4,14.4,7.3,14.4
		c4.8,0,7.2-4.9,7.2-14.6c0-10.1-2.3-15.1-7-15.1C114.9,374,112.5,379.1,112.5,389.4z"/>
	<path d="M135.8,389.6c0-6.4,1.1-11.2,3.2-14.5c2.1-3.3,5.2-4.9,9.2-4.9c7.6,0,11.5,6.2,11.5,18.5c0,6.1-1.1,10.7-3.2,14
		c-2.2,3.2-5.2,4.8-9.1,4.8c-3.7,0-6.5-1.5-8.5-4.6C136.8,399.9,135.8,395.4,135.8,389.6z M140.5,389.4c0,9.6,2.4,14.4,7.3,14.4
		c4.8,0,7.2-4.9,7.2-14.6c0-10.1-2.3-15.1-7-15.1C142.9,374,140.5,379.1,140.5,389.4z"/>
	<path d="M161.8,392c4-1.6,7.6-3.9,10.9-6.8h-4.2v1.2h-3v-10.1h8.5v-2.8h-10.4v-2.8H174v-3.2h3.1v3.2h10.1v2.8h-10.1v2.8h8.5v10.1
		h-3v-1.2h-5.5v2.8l1.2-1.5c2.8,1.3,5.4,2.6,7.9,4l-1.6,2.6c-2.6-1.6-5.1-2.9-7.5-3.9v5H174v-6.9c-2.9,2.8-6.2,5.3-10.2,7.5
		C163.2,393.9,162.6,393,161.8,392z M162.7,408.7h8.4v-8.4h3.4v8.4h9.8v-10.5h-18.5v-3h39.1v3h-17.3v3.6h15.3v3h-15.3v4h20.7v3
		h-45.6V408.7z M168.5,382.6h5.5v-3.7h-5.5V382.6z M182.6,382.6v-3.7h-5.5v3.7H182.6z M186.7,391.4c3.4-1.3,6.3-2.9,8.6-4.8
		c-1.9-2.1-3.3-4.6-4.3-7.5c-0.7,1.3-1.5,2.6-2.3,3.9l-2.8-2c3-3.9,5.2-8.6,6.8-13.9l3.3,1c-0.6,1.6-1.2,3.1-1.8,4.6h14.2v3h-3.1
		c-1,4.3-2.7,7.8-5,10.7c2.3,1.6,5.1,2.8,8.5,3.7c-0.8,1-1.6,2.2-2.3,3.5c-3.4-1.3-6.4-2.8-8.7-4.7c-2.4,2.1-5.4,3.9-8.9,5.4
		C188.2,393.5,187.5,392.5,186.7,391.4z M201.9,375.8h-8.8c0.9,3.4,2.4,6.3,4.6,8.6C199.7,382,201.1,379.1,201.9,375.8z"/>
	<path d="M233.3,380.6c0.8,0,1.5,0.3,2.1,0.9c0.6,0.6,0.9,1.3,0.9,2.1s-0.3,1.5-0.9,2.1c-0.6,0.6-1.3,0.9-2.1,0.9
		c-0.9,0-1.6-0.3-2.1-0.9c-0.6-0.6-0.9-1.3-0.9-2.1s0.3-1.5,0.9-2.1C231.7,380.9,232.5,380.6,233.3,380.6z M233.3,401.6
		c0.8,0,1.5,0.3,2.1,0.9c0.6,0.6,0.9,1.3,0.9,2.1c0,0.8-0.3,1.5-0.9,2.1c-0.6,0.6-1.3,0.8-2.1,0.8s-1.5-0.3-2.1-0.8
		c-0.6-0.6-0.9-1.3-0.9-2.1c0-0.8,0.3-1.5,0.9-2.1C231.7,401.9,232.5,401.6,233.3,401.6z"/>
	<path d="M258.5,380.9v-3.4h4.1c0.5-3.1,0.9-6.5,1.4-10.1l3.7,0.5c-0.5,3.5-1,6.7-1.5,9.6h7.2c0,9.8-1.3,17.6-3.8,23.4
		c1.9,1.7,3.8,3.4,5.8,5.3l-2.7,2.8c-1.6-1.7-3.3-3.3-4.9-4.9c-2.1,3.3-4.7,6.2-8,8.9c-0.7-1-1.4-2-2.1-3c3.2-2.6,5.7-5.4,7.5-8.3
		c-2.1-2-4.2-4-6.3-5.8c1.1-4,2.2-9.1,3.2-15.1H258.5z M262.6,394.9c1.4,1.2,2.8,2.4,4.2,3.7c1.8-4.3,2.9-10.1,3.1-17.7h-4.4
		C264.4,387.5,263.4,392.1,262.6,394.9z M276.3,370.4c7.8-0.2,15.9-0.7,24.3-1.8l1.2,3.2c-3.5,0.3-6.9,0.6-10.2,0.8
		c0.2,2.1,0.5,3.9,0.9,5.6h11.1v2.9h-10.3c0.6,1.9,1.4,3.3,2.3,4.3c1.3,1.4,2.6,2.1,3.9,2.1c0.6,0,1-0.5,1.3-1.5
		c0.2-1,0.4-2.2,0.5-3.6c1,0.4,2.1,0.7,3.1,1c-0.3,2.1-0.5,3.5-0.7,4.2c-0.7,2.3-1.9,3.4-3.7,3.4c-2.7,0-4.9-0.9-6.7-2.8
		c-1.5-1.6-2.7-4-3.5-7.1h-10v5.8c3.4-0.7,6.6-1.4,9.6-2.1c-0.1,1.1-0.1,2.3,0,3.5c-7.1,1.5-11.3,2.6-12.6,3.4l-1.4-3.1
		c0.7-0.6,1.1-1.7,1.1-3.3V370.4z M277.5,392.8h23.4v20.2h-3.4v-2.6h-16.7v2.7h-3.4V392.8z M279.7,373.3v4.9h9.3
		c-0.3-1.6-0.6-3.4-0.8-5.4C285.3,373.1,282.4,373.2,279.7,373.3z M297.5,395.7h-16.7v4.4h16.7V395.7z M280.9,407.5h16.7V403h-16.7
		V407.5z"/>
	<path d="M307.2,380v-3.4h18.5v3.4c-1.8,3.2-4,6.3-6.5,9.3v24h-3.6v-20c-2.7,2.7-5.6,5.3-8.9,7.8c-0.5-1.9-0.9-3.3-1.2-4.1
		c7-5.1,12.4-10.8,16.1-17H307.2z M313.5,369.1l2.9-1.9c1.7,2,3.3,4.1,4.9,6.2l-3,2.1C316.7,373.3,315.1,371.1,313.5,369.1z
		 M320.2,391.7l2.1-2.5c2.7,1.9,5.4,3.9,8.1,6.1l-2.3,2.8C325.5,395.8,322.8,393.6,320.2,391.7z M332.7,367.9h3.7v37.2
		c0,2,1.1,3.1,3.3,3.1h3.9c2.3,0,3.5-1.1,3.8-3.3c0.3-2.2,0.5-5.1,0.7-8.8c1.3,0.6,2.6,1.1,3.9,1.4c-0.4,4.4-0.7,7.5-1.1,9.4
		c-0.6,3.2-2.9,4.8-6.9,4.8h-5c-4.2,0-6.2-2-6.2-6.1V367.9z"/>
	<path d="M353.2,389.6c4.8-6.5,8.5-13.8,11-22l3.8,1.3c-1.5,4.1-3,7.9-4.8,11.4v32.9h-3.5v-26.4c-1.6,2.6-3.2,4.9-4.9,7.1
		C354.2,392.4,353.7,391,353.2,389.6z M396.6,372.7c-1.3,11.1-4.9,20.3-11,27.4c3.8,3.6,8.5,6.6,14.1,8.8c-1.2,1.5-2.1,2.7-2.9,3.7
		c-5.4-2.6-10.1-5.8-13.9-9.6c-4.2,4.2-9.4,7.6-15.5,10.3c-0.5-0.8-1.3-2-2.3-3.4c6-2.6,11-5.9,15.1-9.9c-6-7.2-9.5-16.1-10.5-26.8
		l3.8-0.7c0.9,10,4,18.2,9.4,24.6c5.6-6.7,8.8-15.1,9.7-25.2L396.6,372.7z M377.7,369.1l3.4-1.4c1.8,3,3.5,6.4,5.1,10.4l-3.5,1.8
		C381,375.9,379.4,372.3,377.7,369.1z"/>
	<path d="M400.9,376.2h25.9c-0.1-2.9-0.2-5.9-0.3-9.1h4c0,3.1,0,6.1,0.1,9.1h16v3.5h-15.9c0.6,15.7,3.2,25.2,7.9,28.5
		c1.7,1.4,2.9,1,3.5-1.1c0.5-1.6,0.9-4,1.3-7.2c1.5,0.5,2.7,0.9,3.8,1.2c-0.6,3.6-1.2,6.6-1.9,8.8c-0.7,2.1-2.2,3.2-4.3,3.2
		c-2.1,0-4.3-1.1-6.4-3.3c-4.4-4.7-7-14.8-7.6-30.2h-26.1V376.2z M401.1,405.7c3.5-0.4,7.1-0.9,10.8-1.4v-13.1h-9.1v-3.5h21.9v3.5
		h-9v12.5c3.6-0.5,7.3-1.1,11.1-1.6c-0.1,1.2-0.1,2.5-0.1,3.8c-9.4,1.3-17.6,2.6-24.7,3.7L401.1,405.7z M434.1,369.8l2.2-2.4
		c2.2,1.6,4.5,3.4,6.8,5.5l-2.7,2.8C438.5,373.6,436.4,371.7,434.1,369.8z"/>
	<path d="M27.1,478.5H6.4v-3.9h8.1v-27.4l-8.3,2.4v-4.2l12.8-3.7v32.9h8.1V478.5z"/>
	<path d="M54.4,478.5H32.5v-4l10.5-10.5c2.9-2.9,4.8-5.2,5.8-6.9c1-1.7,1.5-3.4,1.5-5.2c0-2.1-0.6-3.6-1.7-4.7
		c-1.1-1.1-2.8-1.6-5-1.6c-3.2,0-6.3,1.4-9.2,4.1v-4.6c2.8-2.2,6.2-3.3,9.9-3.3c3.2,0,5.8,0.9,7.7,2.6c1.9,1.8,2.8,4.1,2.8,7.1
		c0,2.2-0.6,4.4-1.8,6.6c-1.2,2.2-3.5,4.9-6.8,8.2l-8.2,8v0.1h16.5V478.5z"/>
	<path d="M81.9,452.2c0.8,0,1.5,0.3,2.1,0.9c0.6,0.6,0.9,1.3,0.9,2.1s-0.3,1.5-0.9,2.1c-0.6,0.6-1.3,0.9-2.1,0.9
		c-0.9,0-1.6-0.3-2.1-0.9c-0.6-0.6-0.9-1.3-0.9-2.1s0.3-1.5,0.9-2.1C80.3,452.5,81.1,452.2,81.9,452.2z M81.9,473.2
		c0.8,0,1.5,0.3,2.1,0.9c0.6,0.6,0.9,1.3,0.9,2.1c0,0.8-0.3,1.5-0.9,2.1c-0.6,0.6-1.3,0.8-2.1,0.8s-1.5-0.3-2.1-0.8
		c-0.6-0.6-0.9-1.3-0.9-2.1c0-0.8,0.3-1.5,0.9-2.1C80.3,473.4,81.1,473.2,81.9,473.2z"/>
	<path d="M130.8,478.5h-20.7v-3.9h8.1v-27.4l-8.3,2.4v-4.2l12.8-3.7v32.9h8.1V478.5z"/>
	<path d="M143.9,459.5c-4.3-2-6.5-4.9-6.5-8.7c0-2.7,1-4.8,3-6.5c2-1.7,4.6-2.5,7.7-2.5c2.9,0,5.2,0.8,7.1,2.4
		c1.9,1.6,2.8,3.6,2.8,6.1c0,4-2.2,7.1-6.7,9.3v0.1c5.3,1.9,7.9,5.1,7.9,9.7c0,3-1.1,5.4-3.3,7.2c-2.2,1.8-5.2,2.7-9.1,2.7
		c-3.2,0-5.8-0.9-7.8-2.6c-2-1.8-3-4-3-6.8C136.1,465,138.7,461.7,143.9,459.5L143.9,459.5z M147.4,461.7c-4.5,1.8-6.7,4.4-6.7,7.7
		c0,1.7,0.7,3.2,2,4.3s3,1.7,5.1,1.7c2,0,3.7-0.6,5-1.7c1.3-1.1,1.9-2.5,1.9-4.2C154.7,466,152.2,463.4,147.4,461.7z M153.5,450.8
		c0-1.6-0.5-2.9-1.5-3.8c-1-0.9-2.4-1.4-4.1-1.4c-1.6,0-3,0.5-4.1,1.5c-1.1,1-1.7,2.2-1.7,3.7c0,3,1.9,5.3,5.7,6.9
		C151.6,456,153.5,453.7,153.5,450.8z"/>
	<path d="M162,457.9c6.4-4.5,11.9-10.7,16.4-18.5l3.3,1.8c-4.7,8.3-10.4,14.9-17,19.9C164.1,460.1,163.2,459,162,457.9z
		 M168.4,459.4h31c-0.2,5.3-0.4,10.4-0.7,15.5c-0.4,5.8-3.1,8.7-8.2,8.7c-2.5,0-5.2,0-8-0.2c-0.2-1.3-0.4-2.6-0.7-4
		c2.4,0.3,5.1,0.5,8,0.6c3.1,0.1,4.8-1.8,5.1-5.5c0.2-3.4,0.4-7.2,0.6-11.6h-14.3c-0.4,5.2-1.5,9.4-3.2,12.5
		c-2.4,4.2-6.3,7.4-11.9,9.6c-0.8-1.1-1.7-2.1-2.7-3.1c5.2-1.9,8.9-4.7,11.1-8.4c1.6-2.8,2.6-6.3,2.8-10.7h-9V459.4z M187.7,440
		l3.4-1.4c3.4,8.3,9.4,14.6,18,18.7c-1.4,1.5-2.4,2.6-3,3.5C197.4,455.9,191.3,448.9,187.7,440z"/>
	<path d="M233.3,452.2c0.8,0,1.5,0.3,2.1,0.9c0.6,0.6,0.9,1.3,0.9,2.1s-0.3,1.5-0.9,2.1c-0.6,0.6-1.3,0.9-2.1,0.9
		c-0.9,0-1.6-0.3-2.1-0.9c-0.6-0.6-0.9-1.3-0.9-2.1s0.3-1.5,0.9-2.1C231.7,452.5,232.5,452.2,233.3,452.2z M233.3,473.2
		c0.8,0,1.5,0.3,2.1,0.9c0.6,0.6,0.9,1.3,0.9,2.1c0,0.8-0.3,1.5-0.9,2.1c-0.6,0.6-1.3,0.8-2.1,0.8s-1.5-0.3-2.1-0.8
		c-0.6-0.6-0.9-1.3-0.9-2.1c0-0.8,0.3-1.5,0.9-2.1C231.7,473.4,232.5,473.2,233.3,473.2z"/>
	<path d="M258.5,452.5v-3.4h4.1c0.5-3.1,0.9-6.5,1.4-10.1l3.7,0.5c-0.5,3.5-1,6.7-1.5,9.6h7.2c0,9.8-1.3,17.6-3.8,23.4
		c1.9,1.7,3.8,3.4,5.8,5.3l-2.7,2.8c-1.6-1.7-3.3-3.3-4.9-4.9c-2.1,3.3-4.7,6.2-8,8.9c-0.7-1-1.4-2-2.1-3c3.2-2.6,5.7-5.4,7.5-8.3
		c-2.1-2-4.2-4-6.3-5.8c1.1-4,2.2-9.1,3.2-15.1H258.5z M262.6,466.4c1.4,1.2,2.8,2.4,4.2,3.7c1.8-4.3,2.9-10.1,3.1-17.7h-4.4
		C264.4,459.1,263.4,463.7,262.6,466.4z M276.3,441.9c7.8-0.2,15.9-0.7,24.3-1.8l1.2,3.2c-3.5,0.3-6.9,0.6-10.2,0.8
		c0.2,2.1,0.5,3.9,0.9,5.6h11.1v2.9h-10.3c0.6,1.9,1.4,3.3,2.3,4.3c1.3,1.4,2.6,2.1,3.9,2.1c0.6,0,1-0.5,1.3-1.5
		c0.2-1,0.4-2.2,0.5-3.6c1,0.4,2.1,0.7,3.1,1c-0.3,2.1-0.5,3.5-0.7,4.2c-0.7,2.3-1.9,3.4-3.7,3.4c-2.7,0-4.9-0.9-6.7-2.8
		c-1.5-1.6-2.7-4-3.5-7.1h-10v5.8c3.4-0.7,6.6-1.4,9.6-2.1c-0.1,1.1-0.1,2.3,0,3.5c-7.1,1.5-11.3,2.6-12.6,3.4l-1.4-3.1
		c0.7-0.6,1.1-1.7,1.1-3.3V441.9z M277.5,464.3h23.4v20.2h-3.4V482h-16.7v2.7h-3.4V464.3z M279.7,444.9v4.9h9.3
		c-0.3-1.6-0.6-3.4-0.8-5.4C285.3,444.6,282.4,444.8,279.7,444.9z M297.5,467.2h-16.7v4.4h16.7V467.2z M280.9,479.1h16.7v-4.5h-16.7
		V479.1z"/>
	<path d="M307.4,481.7c7.1-0.5,13.1-1.6,18.1-3.3c-3.7-1-7.4-2-11.1-2.9c1.1-1.2,2.1-2.4,3.1-3.6h-11.3v-2.9h13.7
		c0.9-1.2,1.8-2.4,2.7-3.6h-5.6v1.5h-3.5v-16.4H344v16.4h-3.5v-1.5h-16.5l2.2,0.9c-0.7,0.9-1.5,1.8-2.1,2.7h27.6v2.9h-10.3
		c-1.8,2.2-4.1,4.2-6.8,5.9c5.2,1.4,10.1,2.7,14.9,4.1l-1.5,3.2c-5.7-1.8-11.5-3.5-17.4-5.1c-5.7,2.6-12.8,4.4-21.6,5.4
		C308.6,484,308.1,482.9,307.4,481.7z M307.3,444.5H328c-0.9-1.3-1.9-2.7-3.2-4.1l3-1.9c1.3,1.5,2.5,3,3.7,4.6l-2.5,1.4H350v7.5
		h-3.4v-4.5h-35.8v4.5h-3.4V444.5z M340.4,453.2h-23.5v3.3h23.5V453.2z M316.9,462.5h23.5v-3.3h-23.5V462.5z M336.9,471.9h-15.4
		c-0.6,0.7-1.2,1.4-1.7,2c3.5,0.9,6.9,1.8,10.3,2.7C332.8,475.2,335.1,473.7,336.9,471.9z"/>
	<path d="M353.2,478h7.6v-25h4v25h11.8v-31.6h-21.3v-3.6h42.4v3.6h-17.1v12.2h15.5v3.6h-15.5V478h19v3.6h-46.4V478z"/>
	<path d="M400.9,447.8h25.9c-0.1-2.9-0.2-5.9-0.3-9.1h4c0,3.1,0,6.1,0.1,9.1h16v3.5h-15.9c0.6,15.7,3.2,25.2,7.9,28.5
		c1.7,1.4,2.9,1,3.5-1.1c0.5-1.6,0.9-4,1.3-7.2c1.5,0.5,2.7,0.9,3.8,1.2c-0.6,3.6-1.2,6.6-1.9,8.8c-0.7,2.1-2.2,3.2-4.3,3.2
		c-2.1,0-4.3-1.1-6.4-3.3c-4.4-4.7-7-14.8-7.6-30.2h-26.1V447.8z M401.1,477.3c3.5-0.4,7.1-0.9,10.8-1.4v-13.1h-9.1v-3.5h21.9v3.5
		h-9v12.5c3.6-0.5,7.3-1.1,11.1-1.6c-0.1,1.2-0.1,2.5-0.1,3.8c-9.4,1.3-17.6,2.6-24.7,3.7L401.1,477.3z M434.1,441.4l2.2-2.4
		c2.2,1.6,4.5,3.4,6.8,5.5l-2.7,2.8C438.5,445.2,436.4,443.3,434.1,441.4z"/>
	<path d="M448.9,459.5h12.2v-13.6H451v-3.7h41.8v3.7h-9.5v13.6h11.5v3.7h-11.5v21.2h-3.8v-21.2h-14.6c-0.1,5.7-0.9,9.9-2.4,12.7
		c-1.5,3-5,6.1-10.5,9.2c-0.8-1.1-1.7-2.2-2.7-3.3c4.8-2.4,7.9-5,9.5-7.6c1.4-2.1,2.2-5.8,2.3-11h-12.1V459.5z M464.9,459.5h14.5
		v-13.6h-14.5V459.5z"/>
	<path d="M515.4,476.8l-2.7,3.1c-1.7-1.7-3.4-3.4-5.1-5c-2.3,3.3-5.3,6.5-9,9.4c-0.7-1-1.4-2-2.1-3c3.6-2.6,6.4-5.6,8.6-8.8
		c-2.2-2.1-4.4-4.1-6.7-6c1.1-4.2,2.1-8.9,3-14h-4.8v-3.5h5.4c0.5-3.1,1-6.4,1.4-9.9l3.8,0.6c-0.5,3.4-1,6.5-1.5,9.4h8.7v3.4
		c-0.7,8.3-2.3,14.7-4.7,19.2C511.7,473.4,513.6,475.2,515.4,476.8z M510.6,452.4h-5.7c-1,5.1-1.9,9.4-2.9,12.8
		c1.7,1.4,3.3,2.7,4.8,4C509,464.9,510.2,459.3,510.6,452.4z M534.6,445.1c3.2,5,5.9,9.9,8.2,14.6l-3.7,1.7c-0.7-1.5-1.3-3-2-4.4
		c-4.9,0.3-10.8,0.8-17.6,1.4c-0.9,0.1-2,0.4-3.3,0.8l-1.7-3.4c1.1-0.7,2-1.5,2.8-2.6c2.5-3.8,5.1-8.6,7.6-14.5l3.9,1.3
		c-2.8,5.4-5.6,10.3-8.4,14.7c6.2-0.4,11.3-0.7,15.1-0.9c-1.3-2.5-2.6-4.9-4-7.3L534.6,445.1z M516.8,463.7h22.5v21h-3.5v-3.3h-15.4
		v3.3h-3.5V463.7z M535.8,467h-15.4v11.3h15.4V467z"/>
</g>
</svg>
