<?xml version="1.0" encoding="utf-8"?>
<!-- Generator: Adobe Illustrator 21.1.0, SVG Export Plug-In . SVG Version: 6.00 Build 0)  -->
<svg version="1.1" id="图层_1" xmlns="http://www.w3.org/2000/svg" xmlns:xlink="http://www.w3.org/1999/xlink" x="0px" y="0px"
	 viewBox="0 0 100 100" style="enable-background:new 0 0 100 100;" xml:space="preserve">
<style type="text/css">
	.st0{fill:#CFD8DC;}
	.st1{fill:#F44336;}
	.st2{fill:#B71C1C;}
	.st3{fill:#B0BEC5;}
	.st4{fill:#90A4AE;}
</style>
<g>
	<path class="st0" d="M1.3,89.7V28.2h97.4v61.5c0,5.6-4.6,10.3-10.3,10.3H11.5C5.9,100,1.3,95.4,1.3,89.7z"/>
	<path class="st1" d="M98.7,17.9v15.4H1.3V17.9c0-5.6,4.6-10.3,10.3-10.3h76.9C94.1,7.7,98.7,12.3,98.7,17.9z"/>
	<g>
		<circle class="st2" cx="73.1" cy="17.9" r="7.7"/>
		<circle class="st2" cx="26.9" cy="17.9" r="7.7"/>
	</g>
	<g>
		<path class="st3" d="M73.1,0c-2.8,0-5.1,2.3-5.1,5.1v12.8c0,2.8,2.3,5.1,5.1,5.1s5.1-2.3,5.1-5.1V5.1C78.2,2.3,75.9,0,73.1,0z"/>
		<path class="st3" d="M26.9,0c-2.8,0-5.1,2.3-5.1,5.1v12.8c0,2.8,2.3,5.1,5.1,5.1s5.1-2.3,5.1-5.1V5.1C32.1,2.3,29.7,0,26.9,0z"/>
	</g>
	<g>
		<rect x="21.8" y="43.6" class="st4" width="10.3" height="10.3"/>
		<rect x="37.2" y="43.6" class="st4" width="10.3" height="10.3"/>
		<rect x="52.6" y="43.6" class="st4" width="10.3" height="10.3"/>
		<rect x="67.9" y="43.6" class="st4" width="10.3" height="10.3"/>
		<rect x="21.8" y="59" class="st4" width="10.3" height="10.3"/>
		<rect x="37.2" y="59" class="st4" width="10.3" height="10.3"/>
		<rect x="52.6" y="59" class="st4" width="10.3" height="10.3"/>
		<rect x="67.9" y="59" class="st4" width="10.3" height="10.3"/>
		<rect x="21.8" y="74.4" class="st4" width="10.3" height="10.3"/>
		<rect x="37.2" y="74.4" class="st4" width="10.3" height="10.3"/>
		<rect x="52.6" y="74.4" class="st4" width="10.3" height="10.3"/>
		<rect x="67.9" y="74.4" class="st4" width="10.3" height="10.3"/>
	</g>
</g>
</svg>
