<?xml version="1.0" encoding="utf-8"?>
<!-- Generator: Adobe Illustrator 21.0.2, SVG Export Plug-In . SVG Version: 6.00 Build 0)  -->
<svg version="1.1" id="图层_1" xmlns="http://www.w3.org/2000/svg" xmlns:xlink="http://www.w3.org/1999/xlink" x="0px" y="0px"
	 viewBox="0 0 700 700" style="enable-background:new 0 0 700 700;" xml:space="preserve">
<style type="text/css">
	.st0{fill:#FF0000;}
</style>
<g>
	<g>
		<g>
			<path class="st0" d="M41.9,2.3c-2-1.1-4.3-1.7-6.7-1.7c-4.3,0-8.1,1.9-10.7,4.8C22,2.6,18.2,0.7,13.9,0.7c-2.4,0-4.7,0.6-6.7,1.7
				C2.9,4.6,0,9,0,14c0,1.4,0.2,2.8,0.7,4.1c2.4,10.3,17.6,23.2,23.9,23.2c6.1,0,21.5-13,23.8-23.2c0.4-1.3,0.7-2.7,0.7-4.1
				C49.1,9,46.2,4.6,41.9,2.3z M44.6,16.9c-0.1,0.4-0.5,0.6-0.9,0.6c-0.1,0-0.2,0-0.3,0c-0.5-0.2-0.7-0.7-0.6-1.2
				c0.3-0.8,0.4-1.6,0.4-2.3c0-2.8-1.6-5.4-4.1-6.7c-1.2-0.7-2.5-1-3.9-1c-0.5,0-0.9-0.4-0.9-0.9c0-0.5,0.4-0.9,0.9-0.9
				c1.7,0,3.3,0.4,4.8,1.2c3.2,1.7,5.1,4.9,5.1,8.4C45.1,15,44.9,16,44.6,16.9z"/>
		</g>
	</g>
	<g>
		<g>
			<path class="st0" d="M41.9,112c-2-1.1-4.3-1.7-6.7-1.7c-4.3,0-8.1,1.9-10.7,4.8c-2.6-2.9-6.4-4.8-10.7-4.8
				c-2.4,0-4.7,0.6-6.7,1.7c-4.3,2.3-7.2,6.6-7.2,11.7c0,1.4,0.2,2.8,0.7,4.1C3.1,138.1,18.2,151,24.5,151c6.1,0,21.5-13,23.8-23.2
				c0.4-1.3,0.7-2.7,0.7-4.1C49.1,118.7,46.2,114.3,41.9,112z M44.6,126.6c-0.1,0.4-0.5,0.6-0.9,0.6c-0.1,0-0.2,0-0.3,0
				c-0.5-0.2-0.7-0.7-0.6-1.2c0.3-0.8,0.4-1.6,0.4-2.3c0-2.8-1.6-5.4-4.1-6.7c-1.2-0.7-2.5-1-3.9-1c-0.5,0-0.9-0.4-0.9-0.9
				c0-0.5,0.4-0.9,0.9-0.9c1.7,0,3.3,0.4,4.8,1.2c3.2,1.7,5.1,4.9,5.1,8.4C45.1,124.7,44.9,125.7,44.6,126.6z"/>
		</g>
	</g>
	<g>
		<g>
			<path class="st0" d="M41.9,221.7c-2-1.1-4.3-1.7-6.7-1.7c-4.3,0-8.1,1.9-10.7,4.8c-2.6-2.9-6.4-4.8-10.7-4.8
				c-2.4,0-4.7,0.6-6.7,1.7C2.9,224,0,228.3,0,233.4c0,1.4,0.2,2.8,0.7,4.1c2.4,10.3,17.6,23.2,23.9,23.2c6.1,0,21.5-13,23.8-23.2
				c0.4-1.3,0.7-2.7,0.7-4.1C49.1,228.3,46.2,224,41.9,221.7z M44.6,236.3c-0.1,0.4-0.5,0.6-0.9,0.6c-0.1,0-0.2,0-0.3,0
				c-0.5-0.2-0.7-0.7-0.6-1.2c0.3-0.8,0.4-1.6,0.4-2.3c0-2.8-1.6-5.4-4.1-6.7c-1.2-0.7-2.5-1-3.9-1c-0.5,0-0.9-0.4-0.9-0.9
				c0-0.5,0.4-0.9,0.9-0.9c1.7,0,3.3,0.4,4.8,1.2c3.2,1.7,5.1,4.9,5.1,8.4C45.1,234.4,44.9,235.4,44.6,236.3z"/>
		</g>
	</g>
	<g>
		<g>
			<path class="st0" d="M41.9,331.4c-2-1.1-4.3-1.7-6.7-1.7c-4.3,0-8.1,1.9-10.7,4.8c-2.6-2.9-6.4-4.8-10.7-4.8
				c-2.4,0-4.7,0.6-6.7,1.7C2.9,333.7,0,338,0,343.1c0,1.4,0.2,2.8,0.7,4.1c2.4,10.3,17.6,23.2,23.9,23.2c6.1,0,21.5-13,23.8-23.2
				c0.4-1.3,0.7-2.7,0.7-4.1C49.1,338,46.2,333.7,41.9,331.4z M44.6,346c-0.1,0.4-0.5,0.6-0.9,0.6c-0.1,0-0.2,0-0.3,0
				c-0.5-0.2-0.7-0.7-0.6-1.2c0.3-0.8,0.4-1.6,0.4-2.3c0-2.8-1.6-5.4-4.1-6.7c-1.2-0.7-2.5-1-3.9-1c-0.5,0-0.9-0.4-0.9-0.9
				c0-0.5,0.4-0.9,0.9-0.9c1.7,0,3.3,0.4,4.8,1.2c3.2,1.7,5.1,4.9,5.1,8.4C45.1,344.1,44.9,345,44.6,346z"/>
		</g>
	</g>
	<g>
		<g>
			<path class="st0" d="M41.9,441.1c-2-1.1-4.3-1.7-6.7-1.7c-4.3,0-8.1,1.9-10.7,4.8c-2.6-2.9-6.4-4.8-10.7-4.8
				c-2.4,0-4.7,0.6-6.7,1.7c-4.3,2.3-7.2,6.6-7.2,11.7c0,1.4,0.2,2.8,0.7,4.1c2.4,10.3,17.6,23.2,23.9,23.2c6.1,0,21.5-13,23.8-23.2
				c0.4-1.3,0.7-2.7,0.7-4.1C49.1,447.7,46.2,443.4,41.9,441.1z M44.6,455.7c-0.1,0.4-0.5,0.6-0.9,0.6c-0.1,0-0.2,0-0.3,0
				c-0.5-0.2-0.7-0.7-0.6-1.2c0.3-0.8,0.4-1.6,0.4-2.3c0-2.8-1.6-5.4-4.1-6.7c-1.2-0.7-2.5-1-3.9-1c-0.5,0-0.9-0.4-0.9-0.9
				c0-0.5,0.4-0.9,0.9-0.9c1.7,0,3.3,0.4,4.8,1.2c3.2,1.7,5.1,4.9,5.1,8.4C45.1,453.7,44.9,454.7,44.6,455.7z"/>
		</g>
	</g>
	<g>
		<g>
			<path class="st0" d="M41.9,550.8c-2-1.1-4.3-1.7-6.7-1.7c-4.3,0-8.1,1.9-10.7,4.8c-2.6-2.9-6.4-4.8-10.7-4.8
				c-2.4,0-4.7,0.6-6.7,1.7c-4.3,2.3-7.2,6.6-7.2,11.7c0,1.4,0.2,2.8,0.7,4.1c2.4,10.3,17.6,23.2,23.9,23.2c6.1,0,21.5-13,23.8-23.2
				c0.4-1.3,0.7-2.7,0.7-4.1C49.1,557.4,46.2,553.1,41.9,550.8z M44.6,565.4c-0.1,0.4-0.5,0.6-0.9,0.6c-0.1,0-0.2,0-0.3,0
				c-0.5-0.2-0.7-0.7-0.6-1.2c0.3-0.8,0.4-1.6,0.4-2.3c0-2.8-1.6-5.4-4.1-6.7c-1.2-0.7-2.5-1-3.9-1c-0.5,0-0.9-0.4-0.9-0.9
				c0-0.5,0.4-0.9,0.9-0.9c1.7,0,3.3,0.4,4.8,1.2c3.2,1.7,5.1,4.9,5.1,8.4C45.1,563.4,44.9,564.4,44.6,565.4z"/>
		</g>
	</g>
	<g>
		<g>
			<path class="st0" d="M41.9,660.5c-2-1.1-4.3-1.7-6.7-1.7c-4.3,0-8.1,1.9-10.7,4.8c-2.6-2.9-6.4-4.8-10.7-4.8
				c-2.4,0-4.7,0.6-6.7,1.7c-4.3,2.3-7.2,6.6-7.2,11.7c0,1.4,0.2,2.8,0.7,4.1c2.4,10.3,17.6,23.2,23.9,23.2c6.1,0,21.5-13,23.8-23.2
				c0.4-1.3,0.7-2.7,0.7-4.1C49.1,667.1,46.2,662.7,41.9,660.5z M44.6,675.1c-0.1,0.4-0.5,0.6-0.9,0.6c-0.1,0-0.2,0-0.3,0
				c-0.5-0.2-0.7-0.7-0.6-1.2c0.3-0.8,0.4-1.6,0.4-2.3c0-2.8-1.6-5.4-4.1-6.7c-1.2-0.7-2.5-1-3.9-1c-0.5,0-0.9-0.4-0.9-0.9
				c0-0.5,0.4-0.9,0.9-0.9c1.7,0,3.3,0.4,4.8,1.2c3.2,1.7,5.1,4.9,5.1,8.4C45.1,673.1,44.9,674.1,44.6,675.1z"/>
		</g>
	</g>
	<g>
		<path d="M80.1,21.2C80.4,11.3,83.8,6,90.6,5.3c6.5,0.7,9.9,6,10.2,15.9c-0.5,9.9-3.9,15.1-10.2,15.5C84,36.2,80.5,31.1,80.1,21.2z
			 M84.4,21.2c0,8.1,2,12.2,6.1,12.5c4-0.2,6-4.4,6.1-12.5c-0.1-8-2.2-12.1-6.1-12.5C86.5,9,84.4,13.2,84.4,21.2z"/>
		<path d="M118.2,8.9h-13.1c-1.1,0-1.7-0.6-1.7-1.7c0-0.8,0.6-1.3,1.7-1.5h15.7c1.3,0.1,1.9,0.5,2,1.2c-0.1,0.6-0.4,1.3-0.9,2.2
			l-11.6,26.5c-0.5,0.8-1.2,1.2-2.2,1.2c-1,0-1.5-0.4-1.5-1.2c-0.1-0.3,0.1-1,0.7-2L118.2,9V8.9z"/>
		<path d="M127.3,20c0.1-1.3,0.9-2,2.2-2.2c1.3,0.2,2,1,2.2,2.2c-0.2,1.5-1,2.3-2.2,2.4C128.1,22.3,127.4,21.5,127.3,20z
			 M127.3,34.7c0.1-1.3,0.9-2,2.2-2.2c1.3,0.2,2,1,2.2,2.2c-0.1,1.4-0.9,2-2.2,2C128,36.7,127.3,36,127.3,34.7z"/>
		<path d="M143,33.5h11.8c0.9,0.1,1.4,0.6,1.5,1.5c-0.1,1.1-0.6,1.7-1.5,1.7h-15.2c-1.4,0-2-0.5-2-1.5c-0.1-0.3,0.2-0.9,0.9-1.7
			l10.8-14.5c1.4-1.7,2.1-3.5,2.2-5.5c-0.2-3-1.9-4.6-5-4.8c-3.6,0.2-5.5,2.6-5.6,7c-0.1,1.1-0.7,1.7-1.7,1.7
			c-1.3,0.1-1.9-0.7-1.9-2.4c0.5-6,3.8-9.3,9.9-9.7c5,0.5,7.8,3.1,8.4,7.9c0.1,2.5-0.6,4.6-2,6.3L143,33.5z"/>
		<path d="M162.1,12.5c0.2-4.3,2.9-6.7,8-7.2c4.9,0.5,7.5,2.8,7.9,7.2c0,3.1-1.4,5.4-4.1,6.8c3.5,1,5.4,3.6,5.6,7.9
			c-0.5,6.1-3.6,9.3-9.4,9.6c-6-0.1-9.2-3.3-9.6-9.6c0.1-4.1,2-6.7,5.6-7.9C163.3,17.8,162,15.5,162.1,12.5z M164.6,27.3
			c0.1,4,1.9,6.1,5.5,6.3c3.3-0.2,5.1-2.3,5.3-6.3c-0.2-3.9-2-5.9-5.3-6.1C166.7,21.4,164.9,23.4,164.6,27.3z M165.7,13.1
			c0,3.1,1.5,4.6,4.4,4.6c2.7,0,4.2-1.5,4.3-4.6c-0.2-2.7-1.7-4.2-4.3-4.4C167.3,8.8,165.8,10.3,165.7,13.1z"/>
		<path d="M199.8,3.9c-3.4,8.4-7.9,14.3-13.5,17.8c-1,0.6-1.9,0.4-2.7-0.5c-0.5-1-0.2-1.9,0.7-2.6c5.2-3.1,9.3-8.5,12.1-16.2
			c0.5-1.1,1.3-1.5,2.6-1.2C200,1.8,200.3,2.7,199.8,3.9z M193.5,16.6h19.3c2.8,0,4.4,1.4,4.6,4.1c0.2,10-0.7,16.2-2.7,18.4
			c-2.6,2.5-7.3,2.6-14,0.3c-1.1-0.5-1.5-1.3-1.2-2.4c0.3-0.8,1.1-1.1,2.4-0.9c6.1,1.8,9.6,1.8,10.4,0c0.5-0.6,0.8-1.9,1-4.1
			c0.3-2.3,0.6-5.6,0.7-9.9c-0.1-1.5-0.9-2.2-2.4-2.2h-9.4c-0.2,11.2-4.7,18-13.3,20.5c-1.4,0.5-2.4,0.2-3.1-0.7
			c-0.5-1.1,0-2,1.4-2.6c7.4-1.8,11.2-7.6,11.4-17.2h-5c-1.1,0-1.8-0.5-1.9-1.5C191.8,17.3,192.4,16.7,193.5,16.6z M207.5,3.6
			c-0.6-1.1-0.3-2,0.7-2.6c1.1-0.3,2,0.1,2.7,1.2c3.2,7.7,7.6,13.3,13.1,16.7c0.9,0.7,1.1,1.5,0.7,2.6c-0.7,0.9-1.5,1.1-2.4,0.5
			C216.5,18.7,211.6,12.6,207.5,3.6z"/>
		<path d="M236.3,24.9c-2,0-3.1-1-3.1-3.1c0.1-1.9,1.1-3,3.1-3.2c1.9,0.2,3,1.3,3.2,3.2C239.5,23.9,238.4,24.9,236.3,24.9z
			 M236.3,39.4c-2-0.1-3.1-1-3.1-2.7c0.1-1.9,1.1-3,3.1-3.2c2,0.1,3.1,1.2,3.2,3.2C239.5,38.4,238.4,39.3,236.3,39.4z"/>
		<path d="M279.7,29.7c-1.3,3.3-3.1,6.2-5.6,8.7c-0.8,0.8-1.7,1-2.6,0.5c-0.8-0.7-0.9-1.4-0.2-2.2c2.2-2.5,3.9-5.2,5.3-8.2
			c0.5-1,1.2-1.4,2.2-1C279.8,27.9,280,28.7,279.7,29.7z M288.1,16.2h4.3c0.9,0.1,1.4,0.6,1.5,1.5c0,1-0.5,1.5-1.4,1.5h-8v4.3h7.9
			c1,0.1,1.6,0.7,1.7,1.7c-0.1,0.9-0.7,1.4-1.9,1.4h-7.7v10.9c0.6,3.8-2,4.8-7.7,3.2c-1.1-0.3-1.7-1-1.5-1.9c0.3-1,1-1.4,2-1.2
			c3.2,1.1,4.6,0.8,4.1-1V26.6h-8c-1,0-1.6-0.5-1.7-1.4c0.1-1,0.7-1.6,1.7-1.7h8v-4.3h-7.9c-1.1,0-1.8-0.5-1.9-1.4
			c0.1-1,0.7-1.6,1.7-1.7h11.1c0.6-0.9,1.4-2.9,2.4-6c0.3-1,1-1.4,2-1c1.1,0.5,1.5,1.1,1.2,2c-0.2,0.5-0.6,1.2-1,2.2
			C288.6,14.9,288.3,15.8,288.1,16.2z M291,8.7h-17.1c-1,0-1.5-0.5-1.5-1.5s0.5-1.6,1.5-1.7h6.7c-0.3-0.7-0.7-1.4-1-2
			c-0.7-1-0.6-1.9,0.3-2.6c1-0.5,1.9-0.2,2.6,0.9c0.8,1.8,1.5,3.1,2,3.8h6.5c0.9,0.1,1.4,0.7,1.5,1.7C292.4,8.2,291.9,8.7,291,8.7z
			 M278.5,10.2c0.3,0.7,0.7,1.5,1.2,2.4c0.1,0.3,0.3,0.6,0.5,0.9c0.3,1,0.1,1.8-0.7,2.4c-0.9,0.3-1.6,0-2-1
			c-0.7-1.3-1.3-2.3-1.7-3.2c-0.5-0.8-0.3-1.5,0.5-2.2C277.2,9,277.9,9.3,278.5,10.2z M288.6,27.8c0.7,0.8,1.6,2,2.7,3.6
			c0.1,0.3,0.3,0.6,0.5,0.7c0.6,0.9,0.5,1.7-0.2,2.4c-0.8,0.6-1.5,0.5-2.2-0.3c-0.3-0.3-0.7-0.8-1.2-1.4c-0.7-1-1.4-2-2-2.9
			c-0.7-0.7-0.7-1.4,0-2C287,27.3,287.8,27.3,288.6,27.8z M298.8,9.7V15h12.5c1.9,1.3,2,2.5,0.2,3.8h-4.1v21.5
			c-0.1,1.1-0.7,1.8-1.7,1.9c-1.1-0.1-1.7-0.7-1.7-1.9V18.8h-5.1v9c-0.5,5.9-3.1,10.4-8,13.5c-1,0.3-1.9,0.1-2.6-0.9
			c-0.5-1-0.2-1.8,0.7-2.4c4.2-2.5,6.4-6.1,6.5-10.8V7.9c0-2.2,1.1-3.2,3.4-3.2c5.2-0.6,8.9-1.1,11.1-1.7c1.1-0.2,1.9,0.1,2.4,1
			c0.2,1.3-0.2,2-1.4,2.2c-3.5,0.7-6.9,1.3-10.2,1.7C299.3,8,298.7,8.6,298.8,9.7z"/>
		<path d="M323.9,7.7h2.9c2.8-0.3,4,1.3,3.6,4.8c-0.5,7.5-1.8,13.3-3.9,17.4c0.2,0.3,0.7,0.9,1.5,1.5c0.7,0.6,1.3,1,1.7,1.4
			c0.9,1,1.1,1.9,0.5,2.7c-0.9,0.8-1.8,0.7-2.7-0.2c-0.5-0.3-1.1-0.9-1.9-1.5c-0.5-0.5-0.7-0.8-0.9-1c-1.1,1.8-3.5,4.2-7,7.2
			c-0.9,0.6-1.8,0.5-2.7-0.2c-0.7-0.9-0.6-1.7,0.2-2.4c2.8-2.2,5.2-4.5,7-7c-0.8-0.6-1.7-1.3-2.7-2.2c-2.5-2-3.6-3.2-3.2-3.6
			c0-0.1,0.2-0.8,0.5-2c0.9-2.2,1.9-5.9,3.1-11.3h-3.2c-1,0-1.5-0.6-1.5-1.7c0-1.1,0.5-1.8,1.5-1.9h3.8c0.1-1.3,0.2-2.2,0.2-2.9
			c0-0.5,0.1-1.1,0.2-1.9c0.1-1.1,0.7-1.7,1.7-1.7c1.1,0.1,1.7,0.7,1.7,1.9c0,0.5-0.1,1.1-0.2,2C323.8,6.3,323.8,7.1,323.9,7.7z
			 M325.8,11.3h-2.7c-0.8,4.2-1.8,7.9-2.9,11.1c-0.3,0.9-0.5,1.4-0.3,1.5c-0.3,0.2,1,1.5,3.9,3.8c2-4.4,3.2-9.4,3.4-14.9
			C327.3,11.8,326.8,11.3,325.8,11.3z M352.2,8.9v11.9c0,2.4-1,3.5-2.9,3.2h-7.2c0.3,2.3,1.3,4.4,2.9,6.5c2-1.1,4.1-2.6,6.1-4.4
			c0.9-0.8,1.7-0.9,2.4-0.2c0.6,0.8,0.5,1.6-0.3,2.4c-1.7,1.6-3.7,3.2-6,4.8c2.2,2.2,4.6,3.8,7.2,5c1,0.5,1.4,1.3,1,2.4
			c-0.5,0.9-1.3,1.1-2.4,0.7c-7.7-3.3-12.5-9-14.2-17.1h-3.8v13c0,0.2,0.2,0.3,0.5,0.2c1.6-0.6,3.1-1.6,4.6-3.1
			c0.9-0.7,1.8-0.6,2.6,0.2c0.7,0.8,0.6,1.6-0.2,2.4c-2.5,1.9-4.8,3.4-6.8,4.4c-2.6,1-3.9,0.1-3.8-2.7V8.9c-0.1-2,1-3.1,3.2-3.1h5
			c-0.2-0.2-0.5-0.7-0.7-1.4c-0.2-0.6-0.4-1-0.5-1.4c-0.5-0.9-0.2-1.6,0.7-2.2c1-0.3,1.8-0.1,2.4,0.7c0,0.1,0.1,0.6,0.3,1.4
			c0.7,1.4,1.1,2.3,1.4,2.9h5.5C351.4,5.7,352.4,6.7,352.2,8.9z M347.8,8.9h-11.1c-1,0-1.5,0.3-1.5,1v3.4h14V9.9
			C349.2,9.2,348.7,8.9,347.8,8.9z M349.2,19.8v-3.4h-14V21h13C348.8,21.1,349.2,20.7,349.2,19.8z"/>
		<path d="M367.9,12.1v28c-0.1,0.8-0.7,1.3-1.7,1.4c-1-0.1-1.5-0.6-1.5-1.4v-22c-0.7,1.3-1.8,2.8-3.4,4.8c-0.8,0.9-1.7,1.1-2.6,0.5
			c-0.8-0.8-0.8-1.6,0-2.6c3.8-4.2,6.6-10.3,8.5-18.3c0.3-1,1-1.4,2-1.2c1,0.3,1.5,1,1.4,2C369.8,7.2,368.9,10.1,367.9,12.1z
			 M380.4,3.1v19.6c6.3-3.6,11.2-8,14.9-13c0.7-0.9,1.5-1.1,2.6-0.5c0.8,0.8,0.8,1.7,0,2.7c-4.9,6.1-10.7,11-17.4,14.5v7.3
			c-0.5,2.4,0.9,3.5,3.9,3.2h6.7c3.6,0.7,5.2-2,4.8-8c0-1,0.5-1.5,1.5-1.5c1,0.1,1.6,0.7,1.9,1.7c0.5,7.7-1.9,11.4-7,11.1h-7.7
			c-5.2,0.1-7.7-1.4-7.3-4.6V28c-0.5,0.2-1.1,0.5-1.9,0.9c-0.8,0.3-1.7,0.7-2.7,1c-1.3,0.5-2.2,0.2-2.7-0.7c-0.2-1,0.3-1.8,1.5-2.4
			c0.3-0.1,0.9-0.3,1.5-0.5c1.9-0.8,3.4-1.5,4.3-2V3.1c0-0.9,0.5-1.4,1.5-1.5C379.7,1.7,380.3,2.2,380.4,3.1z"/>
		<path d="M414.2,2.2v38.4c-0.1,0.9-0.7,1.4-1.7,1.4c-1-0.1-1.5-0.6-1.5-1.5V27.1c-1.6,1.4-3.9,3.1-7,5.1c-1,0.6-1.8,0.5-2.4-0.3
			c-0.6-1-0.4-1.9,0.5-2.6c3.9-2.4,6.8-4.7,8.9-7v-20c0-1.1,0.5-1.8,1.5-1.9C413.5,0.6,414.1,1.2,414.2,2.2z M405.3,5.5
			c1.3,2.3,2.4,4.9,3.6,8c0.1,0.5,0.3,0.9,0.5,1.4c0.3,1.5,0.1,2.5-0.9,3.1c-1.1,0.3-1.9-0.2-2.4-1.7c-0.7-2.4-1.9-5.2-3.6-8.4
			c-0.1-0.2-0.2-0.5-0.3-0.9c-0.5-1-0.2-1.8,0.7-2.2C403.8,4.3,404.6,4.6,405.3,5.5z M428.5,2.4l-1.7,7.3h14.5
			c1.1,0.1,1.8,0.7,1.9,1.7c-0.1,1-0.7,1.5-1.7,1.5h-4.4c-1,8.3-2.7,14.2-5.1,17.8c3.4,1.9,6.7,4.2,9.7,6.8c1,1,1.2,2,0.5,3.1
			c-0.9,0.9-1.9,0.9-2.9,0c-3.5-3.1-6.6-5.5-9.2-7.3c-4,3.5-8.1,6.1-12.5,7.7c-1.3,0.2-2.1-0.1-2.6-0.9c-0.3-1,0.1-1.8,1.2-2.2
			c4.4-1.6,8-3.7,10.8-6.3c-2-1.4-3.9-2.5-5.5-3.4c-2.3-1.4-3.3-2.3-3.1-2.7c-0.1-0.2,0.1-0.9,0.5-2c0.8-1.6,2-5.1,3.6-10.4h-6
			c-1.1,0-1.8-0.5-1.9-1.5c0.1-1,0.7-1.6,1.9-1.7h6.8l1.9-7.9c0.2-0.9,0.9-1.3,1.9-1.2C428.2,0.9,428.7,1.5,428.5,2.4z M433.7,13
			h-7.5c-1.1,3.8-2,6.5-2.7,8.2c-0.6,1.7-0.9,2.8-0.9,3.2c0,0.3,1,1.1,3.1,2.4c1.4,0.9,2.5,1.6,3.4,2
			C431.3,25.4,432.9,20.1,433.7,13z"/>
		<path d="M80.1,130.4c0.2-9.9,3.7-15.2,10.4-15.9c6.5,0.7,9.9,6,10.2,15.9c-0.5,9.9-3.9,15.1-10.2,15.5
			C84,145.5,80.5,140.3,80.1,130.4z M84.4,130.4c0,8.1,2,12.2,6.1,12.5c4-0.2,6-4.4,6.1-12.5c-0.1-8-2.2-12.1-6.1-12.5
			C86.5,118.3,84.4,122.5,84.4,130.4z"/>
		<path d="M117.4,133.7h-0.2c-1.3,0.9-2.9,1.3-5,1.2c-4.9-0.3-7.5-3.7-7.9-10.1c0.5-6.3,3.6-9.7,9.6-10.2c5.8,0.6,8.9,4.2,9.4,10.8
			c-0.1,7.3-3.8,13.9-10.9,20c-0.7,0.5-1.3,0.7-1.7,0.7c-1,0-1.5-0.5-1.5-1.5c-0.2-0.5,0.3-1.1,1.5-2
			C113.2,140.1,115.4,137.2,117.4,133.7z M119.4,125c-0.1-4.4-1.9-6.7-5.5-6.8c-3.5,0.2-5.3,2.5-5.5,6.8c0,4.4,1.8,6.7,5.5,6.7
			C117.4,131.6,119.2,129.4,119.4,125z"/>
		<path d="M128.8,129.2c0.1-1.3,0.9-2,2.2-2.2c1.3,0.2,2,1,2.2,2.2c-0.2,1.5-1,2.3-2.2,2.4C129.6,131.5,128.9,130.7,128.8,129.2z
			 M128.8,143.9c0.1-1.3,0.9-2,2.2-2.2c1.3,0.2,2,1,2.2,2.2c-0.1,1.4-0.9,2-2.2,2C129.5,145.9,128.8,145.3,128.8,143.9z"/>
		<path d="M143.6,144.2v-26.1h-4.1c-1,0-1.5-0.6-1.5-1.7c0-0.9,0.5-1.4,1.5-1.5h6.8c0.8,0,1.2,0.3,1.2,1v28.3
			c-0.1,1.1-0.8,1.7-2,1.7C144.3,145.9,143.6,145.4,143.6,144.2z"/>
		<path d="M160,121.7c0.2-4.3,2.9-6.7,8-7.2c4.9,0.5,7.5,2.8,7.9,7.2c0,3.1-1.4,5.4-4.1,6.8c3.5,1,5.4,3.6,5.6,7.9
			c-0.5,6.1-3.6,9.3-9.4,9.6c-6-0.1-9.2-3.3-9.6-9.6c0.1-4.1,2-6.7,5.6-7.9C161.2,127.1,159.9,124.8,160,121.7z M162.5,136.6
			c0.1,4,1.9,6.1,5.5,6.3c3.3-0.2,5.1-2.3,5.3-6.3c-0.2-3.9-2-5.9-5.3-6.1C164.6,130.6,162.8,132.7,162.5,136.6z M163.6,122.4
			c0,3.1,1.5,4.6,4.4,4.6c2.7,0,4.2-1.5,4.3-4.6c-0.2-2.7-1.7-4.2-4.3-4.4C165.1,118.1,163.7,119.6,163.6,122.4z"/>
		<path d="M197.7,113.2c-3.4,8.4-7.9,14.3-13.5,17.8c-1,0.6-1.9,0.4-2.7-0.5c-0.5-1-0.2-1.9,0.7-2.6c5.2-3.1,9.3-8.5,12.1-16.2
			c0.5-1.1,1.3-1.5,2.6-1.2C197.9,111,198.1,111.9,197.7,113.2z M191.4,125.8h19.3c2.8,0,4.4,1.4,4.6,4.1c0.2,10-0.7,16.2-2.7,18.4
			c-2.6,2.5-7.3,2.6-14,0.3c-1.1-0.5-1.5-1.3-1.2-2.4c0.3-0.8,1.1-1.1,2.4-0.9c6.1,1.8,9.6,1.8,10.4,0c0.5-0.6,0.8-1.9,1-4.1
			c0.3-2.3,0.6-5.6,0.7-9.9c-0.1-1.5-0.9-2.2-2.4-2.2h-9.4c-0.2,11.2-4.7,18-13.3,20.5c-1.4,0.5-2.4,0.2-3.1-0.7
			c-0.5-1.1,0-2,1.4-2.6c7.4-1.8,11.2-7.6,11.4-17.2h-5c-1.1,0-1.8-0.5-1.9-1.5C189.7,126.5,190.2,125.9,191.4,125.8z M205.4,112.8
			c-0.6-1.1-0.3-2,0.7-2.6c1.1-0.3,2,0.1,2.7,1.2c3.2,7.7,7.6,13.3,13.1,16.7c0.9,0.7,1.1,1.5,0.7,2.6c-0.7,0.9-1.5,1.1-2.4,0.5
			C214.4,128,209.5,121.8,205.4,112.8z"/>
		<path d="M234.2,134.2c-2,0-3.1-1-3.1-3.1c0.1-1.9,1.1-3,3.1-3.2c1.9,0.2,3,1.3,3.2,3.2C237.3,133.1,236.3,134.2,234.2,134.2z
			 M234.2,148.7c-2-0.1-3.1-1-3.1-2.7c0.1-1.9,1.1-3,3.1-3.2c2,0.1,3.1,1.2,3.2,3.2C237.3,147.7,236.3,148.6,234.2,148.7z"/>
		<path d="M277.6,139c-1.3,3.3-3.1,6.2-5.6,8.7c-0.8,0.8-1.7,1-2.6,0.5c-0.8-0.7-0.9-1.4-0.2-2.2c2.2-2.5,3.9-5.2,5.3-8.2
			c0.5-1,1.2-1.4,2.2-1C277.6,137.2,277.9,137.9,277.6,139z M285.9,125.5h4.3c0.9,0.1,1.4,0.6,1.5,1.5c0,1-0.5,1.5-1.4,1.5h-8v4.3
			h7.9c1,0.1,1.6,0.7,1.7,1.7c-0.1,0.9-0.7,1.4-1.9,1.4h-7.7v10.9c0.6,3.8-2,4.8-7.7,3.2c-1.1-0.3-1.7-1-1.5-1.9c0.3-1,1-1.4,2-1.2
			c3.2,1.1,4.6,0.8,4.1-1v-10.1h-8c-1,0-1.6-0.5-1.7-1.4c0.1-1,0.7-1.6,1.7-1.7h8v-4.3h-7.9c-1.1,0-1.8-0.5-1.9-1.4
			c0.1-1,0.7-1.6,1.7-1.7h11.1c0.6-0.9,1.4-2.9,2.4-6c0.3-1,1-1.4,2-1c1.1,0.5,1.5,1.1,1.2,2c-0.2,0.5-0.6,1.2-1,2.2
			C286.5,124.1,286.2,125,285.9,125.5z M288.8,118h-17.1c-1,0-1.5-0.5-1.5-1.5s0.5-1.6,1.5-1.7h6.7c-0.3-0.7-0.7-1.4-1-2
			c-0.7-1-0.6-1.9,0.3-2.6c1-0.5,1.9-0.2,2.6,0.9c0.8,1.8,1.5,3.1,2,3.8h6.5c0.9,0.1,1.4,0.7,1.5,1.7
			C290.3,117.4,289.8,118,288.8,118z M276.4,119.5c0.3,0.7,0.7,1.5,1.2,2.4c0.1,0.3,0.3,0.6,0.5,0.9c0.3,1,0.1,1.8-0.7,2.4
			c-0.9,0.3-1.6,0-2-1c-0.7-1.3-1.3-2.3-1.7-3.2c-0.5-0.8-0.3-1.5,0.5-2.2C275.1,118.3,275.8,118.6,276.4,119.5z M286.5,137.1
			c0.7,0.8,1.6,2,2.7,3.6c0.1,0.3,0.3,0.6,0.5,0.7c0.6,0.9,0.5,1.7-0.2,2.4c-0.8,0.6-1.5,0.5-2.2-0.3c-0.3-0.3-0.7-0.8-1.2-1.4
			c-0.7-1-1.4-2-2-2.9c-0.7-0.7-0.7-1.4,0-2C284.9,136.5,285.7,136.5,286.5,137.1z M296.7,119v5.3h12.5c1.9,1.3,2,2.5,0.2,3.8h-4.1
			v21.5c-0.1,1.1-0.7,1.8-1.7,1.9c-1.1-0.1-1.7-0.7-1.7-1.9V128h-5.1v9c-0.5,5.9-3.1,10.4-8,13.5c-1,0.3-1.9,0.1-2.6-0.9
			c-0.5-1-0.2-1.8,0.7-2.4c4.2-2.5,6.4-6.1,6.5-10.8v-19.5c0-2.2,1.1-3.2,3.4-3.2c5.2-0.6,8.9-1.1,11.1-1.7c1.1-0.2,1.9,0.1,2.4,1
			c0.2,1.3-0.2,2-1.4,2.2c-3.5,0.7-6.9,1.3-10.2,1.7C297.2,117.2,296.6,117.8,296.7,119z"/>
		<path d="M332.9,117.4v11.6c0.1,2-1,3-3.4,2.7h-11.3v13.3c0,0.3,0.1,0.5,0.2,0.5c0.1,0.1,0.3,0.1,0.5-0.2c2.5-1.3,5.1-2.8,7.7-4.8
			c-0.6-0.7-1.7-2.2-3.4-4.6c-0.8-0.9-0.7-1.8,0.2-2.6c1-0.5,2-0.3,2.9,0.5c3.1,4.2,5.5,7.7,7.3,10.6c0.6,1,0.3,1.9-0.7,2.6
			c-1.1,0.3-2,0-2.7-1c-0.7-1-1.2-1.8-1.5-2.4c-2.3,1.5-5.5,3.3-9.6,5.5c-2.7,1.1-4.2,0.2-4.3-2.7v-28.8c-0.1-2,0.9-3.1,2.9-3.1h4.1
			c-0.1-0.1-0.3-0.4-0.5-0.9c-0.2-0.5-0.4-0.9-0.5-1.4c-0.5-1-0.2-1.8,0.7-2.4c1-0.3,1.9,0,2.6,1c0.1,0.2,0.7,1.4,1.7,3.6h4.4
			C332,114.7,332.9,115.6,332.9,117.4z M318.2,119.1v2.4h11.3v-2c0-1.4-0.5-2-1.4-1.9h-8.4C318.6,117.6,318.1,118.1,318.2,119.1z
			 M329.5,127.3v-2.7h-11.3v4.1h9.9C328.9,128.7,329.4,128.3,329.5,127.3z M346.4,115.7h-6.1c-0.7,0-1,0.3-1,0.9v32.3
			c-0.1,0.9-0.7,1.4-1.7,1.5c-1.1-0.1-1.7-0.6-1.7-1.5v-32.3c0-2.8,1.3-4.3,3.9-4.3h7.3c2.3,0,3.6,0.3,4.1,0.9
			c0.6,0.7,0.6,1.9,0,3.6c-0.2,0.3-0.3,0.7-0.3,1c-2.3,5.8-3.3,9-3.1,9.6c0,0.2,0.3,0.9,1,1.9c2.6,3.9,4,7,4.3,9.4
			c0,8.3-3.8,10.8-11.4,7.5c-1.1-0.5-1.5-1.2-1-2.2c0.7-0.9,1.6-1.1,2.7-0.7c1.9,1,3.5,1.1,4.8,0.3c1-0.9,1.4-2.6,1.2-4.9
			c-0.5-3-1.8-5.7-4.1-8.4c-1.4-1.1-1.7-2.7-0.9-4.6c0.3-1.4,1.2-3.9,2.6-7.7C347.4,116.5,347.3,115.7,346.4,115.7z"/>
		<path d="M365,131.1v9.6c0.7,3.3,3.4,5.1,8,5.5h23.2c0.9,0,1.4,0.5,1.4,1.5c-0.1,1-0.6,1.6-1.5,1.7h-22.4c-4.4,0-7.7-1.2-9.9-3.6
			c-1.3,1.4-3,2.6-5.1,3.8c-1.3,0.5-2.2,0.2-2.7-0.7c-0.5-1.3-0.1-2.1,1.2-2.6c2.7-1.3,4.3-2.4,4.6-3.6v-10.4
			c-0.1-0.8-0.5-1.2-1.2-1.2h-3.4c-1,0-1.5-0.6-1.5-1.7c0-1,0.5-1.6,1.5-1.7h4.6C364,127.6,365.1,128.7,365,131.1z M360.4,113.3
			c1.4,1.4,3.1,3.4,5.3,6c0.7,1.3,0.6,2.2-0.2,2.9c-1,0.7-1.9,0.5-2.7-0.7c-1.8-2.5-3.5-4.4-5-5.8c-0.9-0.8-1-1.6-0.2-2.4
			C358.4,112.7,359.3,112.7,360.4,113.3z M371.3,117.3v20c0,0.3,0.1,0.5,0.2,0.5c0.1,0.1,0.3,0.1,0.5-0.2c1.3-0.7,2.9-2.2,4.9-4.4
			c0.8-0.7,1.6-0.7,2.4,0c0.7,0.7,0.7,1.5,0,2.4c-1.9,2.3-4.2,4.3-6.8,6c-3.1,1.6-4.6,0.7-4.6-2.7v-22.2c-0.2-2.3,0.7-3.5,2.9-3.8
			c2.6-0.3,5-0.9,7-1.7c1.1-0.3,1.9,0.1,2.4,1.2c0.2,1.1-0.2,1.9-1.4,2.2c-1.6,0.7-3.8,1.2-6.5,1.5
			C371.5,116.2,371.2,116.6,371.3,117.3z M394.5,116.4v21.8c0,4.2-2.7,5.1-8.2,2.6c-0.9-0.5-1.1-1.3-0.7-2.4c0.5-1,1.2-1.3,2.2-0.9
			c2.3,1.4,3.4,1.3,3.2-0.2v-19.8c0-1.1-0.5-1.7-1.4-1.7h-4.4c-0.8,0.1-1.2,0.7-1.2,1.7v25.9c-0.1,1.1-0.7,1.7-1.7,1.7
			c-1.1,0-1.7-0.6-1.7-1.7v-26.3c-0.1-3.1,1.4-4.6,4.4-4.6h5.1C392.9,112.8,394.3,114,394.5,116.4z"/>
		<path d="M427.1,124.6h11.9c0.9,0.1,1.4,0.7,1.4,1.7c-0.1,1-0.6,1.5-1.5,1.5h-17.6v4.1h15.2c0.9,0.1,1.4,0.7,1.4,1.7
			c-0.1,1-0.6,1.5-1.5,1.5h-15v10.8c0.7,4.7-2.4,6.1-9.4,4.3c-1.3-0.5-1.8-1.2-1.5-2.2c0.3-1,1.1-1.4,2.4-1.2
			c3.9,1.1,5.6,0.9,5.1-0.9v-10.8H403c-1.3,0-1.9-0.5-2-1.5c0.1-1,0.8-1.6,2-1.7h14.9v-4.1h-17.1c-1.1,0-1.7-0.5-1.7-1.5
			c0-1,0.6-1.6,1.7-1.7h11.9c-0.2-0.1-0.5-0.4-0.7-0.9c-0.6-1-1.5-2.4-2.7-4.1c-0.7-0.8-0.6-1.5,0.2-2c0.8-0.5,1.5-0.3,2.2,0.3
			c0.9,1.1,1.9,2.7,2.9,4.6c0.3,0.9,0.2,1.6-0.3,2h9c1.3-1.7,2.2-3.6,2.9-5.8c0.3-1.1,1-1.6,2-1.4c1,0.5,1.4,1.3,1,2.4
			C428.6,121.8,427.9,123.4,427.1,124.6z M407.3,137.2c0.3-1.1,1.1-1.5,2.2-1.2c0.9,0.5,1.2,1.3,0.9,2.4c-1.5,3.9-3.7,7.2-6.7,9.9
			c-1.1,0.9-2.1,1-2.9,0.3c-0.8-0.9-0.7-1.8,0.3-2.7C404,143.8,406.1,140.9,407.3,137.2z M421.1,114h15.2c0.9,0.1,1.4,0.7,1.5,1.7
			c-0.1,1-0.6,1.5-1.5,1.5h-32.9c-1.1,0-1.7-0.5-1.7-1.5c0-1,0.6-1.6,1.7-1.7h14c-0.1,0-0.3-0.2-0.5-0.7c-0.3-0.6-0.6-1-0.7-1.4
			c-0.6-0.8-0.5-1.5,0.3-2.2c0.9-0.5,1.7-0.3,2.4,0.5C420.2,112.4,420.9,113.7,421.1,114z M429.7,137.2c3.2,2.6,5.9,5.4,8,8.2
			c0.8,0.9,0.9,1.8,0.2,2.7c-0.8,0.6-1.7,0.4-2.6-0.5c-0.5-0.5-1-1-1.5-1.7c-2-2.3-4.2-4.3-6.3-6.1c-1-0.9-1.3-1.8-0.7-2.7
			C427.6,136.4,428.5,136.4,429.7,137.2z"/>
		<path d="M85.9,253.5v-26.1h-4.1c-1,0-1.5-0.6-1.5-1.7c0-0.9,0.5-1.4,1.5-1.5h6.8c0.8,0,1.2,0.3,1.2,1v28.3c-0.1,1.1-0.8,1.7-2,1.7
			C86.6,255.2,85.9,254.6,85.9,253.5z"/>
		<path d="M98.1,239.7c0.2-9.9,3.7-15.2,10.4-15.9c6.5,0.7,9.9,6,10.2,15.9c-0.5,9.9-3.9,15.1-10.2,15.5
			C101.9,254.7,98.5,249.6,98.1,239.7z M102.4,239.7c0,8.1,2,12.2,6.1,12.5c4-0.2,6-4.4,6.1-12.5c-0.1-8-2.2-12.1-6.1-12.5
			C104.4,227.5,102.4,231.7,102.4,239.7z"/>
		<path d="M123.4,238.5c0.1-1.3,0.9-2,2.2-2.2c1.3,0.2,2,1,2.2,2.2c-0.2,1.5-1,2.3-2.2,2.4C124.2,240.7,123.5,239.9,123.4,238.5z
			 M123.4,253.1c0.1-1.3,0.9-2,2.2-2.2c1.3,0.2,2,1,2.2,2.2c-0.1,1.4-0.9,2-2.2,2C124.1,255.2,123.4,254.5,123.4,253.1z"/>
		<path d="M139.1,252h11.8c0.9,0.1,1.4,0.6,1.5,1.5c-0.1,1.1-0.6,1.7-1.5,1.7h-15.2c-1.4,0-2-0.5-2-1.5c-0.1-0.3,0.2-0.9,0.9-1.7
			l10.8-14.5c1.4-1.7,2.1-3.5,2.2-5.5c-0.2-3-1.9-4.6-5-4.8c-3.6,0.2-5.5,2.6-5.6,7c-0.1,1.1-0.7,1.7-1.7,1.7
			c-1.3,0.1-1.9-0.7-1.9-2.4c0.5-6,3.8-9.3,9.9-9.7c5,0.5,7.8,3.1,8.4,7.9c0.1,2.5-0.6,4.6-2,6.3L139.1,252z"/>
		<path d="M158.2,231c0.2-4.3,2.9-6.7,8-7.2c4.9,0.5,7.5,2.8,7.9,7.2c0,3.1-1.4,5.4-4.1,6.8c3.5,1,5.4,3.6,5.6,7.9
			c-0.5,6.1-3.6,9.3-9.4,9.6c-6-0.1-9.2-3.3-9.6-9.6c0.1-4.1,2-6.7,5.6-7.9C159.5,236.3,158.1,234,158.2,231z M160.8,245.8
			c0.1,4,1.9,6.1,5.5,6.3c3.3-0.2,5.1-2.3,5.3-6.3c-0.2-3.9-2-5.9-5.3-6.1C162.8,239.9,161,241.9,160.8,245.8z M161.8,231.6
			c0,3.1,1.5,4.6,4.4,4.6c2.7,0,4.2-1.5,4.3-4.6c-0.2-2.7-1.7-4.2-4.3-4.4C163.4,227.3,161.9,228.8,161.8,231.6z"/>
		<path d="M195.9,222.4c-3.4,8.4-7.9,14.3-13.5,17.8c-1,0.6-1.9,0.4-2.7-0.5c-0.5-1-0.2-1.9,0.7-2.6c5.2-3.1,9.3-8.5,12.1-16.2
			c0.5-1.1,1.3-1.5,2.6-1.2C196.1,220.3,196.4,221.2,195.9,222.4z M189.6,235.1h19.3c2.8,0,4.4,1.4,4.6,4.1
			c0.2,10-0.7,16.2-2.7,18.4c-2.6,2.5-7.3,2.6-14,0.3c-1.1-0.5-1.5-1.3-1.2-2.4c0.3-0.8,1.1-1.1,2.4-0.9c6.1,1.8,9.6,1.8,10.4,0
			c0.5-0.6,0.8-1.9,1-4.1c0.3-2.3,0.6-5.6,0.7-9.9c-0.1-1.5-0.9-2.2-2.4-2.2h-9.4c-0.2,11.2-4.7,18-13.3,20.5
			c-1.4,0.5-2.4,0.2-3.1-0.7c-0.5-1.1,0-2,1.4-2.6c7.4-1.8,11.2-7.6,11.4-17.2h-5c-1.1,0-1.8-0.5-1.9-1.5
			C187.9,235.8,188.5,235.2,189.6,235.1z M203.6,222.1c-0.6-1.1-0.3-2,0.7-2.6c1.1-0.3,2,0.1,2.7,1.2c3.2,7.7,7.6,13.3,13.1,16.7
			c0.9,0.7,1.1,1.5,0.7,2.6c-0.7,0.9-1.5,1.1-2.4,0.5C212.7,237.2,207.7,231.1,203.6,222.1z"/>
		<path d="M232.5,243.4c-2,0-3.1-1-3.1-3.1c0.1-1.9,1.1-3,3.1-3.2c1.9,0.2,3,1.3,3.2,3.2C235.6,242.4,234.5,243.4,232.5,243.4z
			 M232.5,257.9c-2-0.1-3.1-1-3.1-2.7c0.1-1.9,1.1-3,3.1-3.2c2,0.1,3.1,1.2,3.2,3.2C235.6,256.9,234.5,257.8,232.5,257.9z"/>
		<path d="M274.8,225.8h4.6c1.8,0.1,2.7,1.3,2.6,3.4c-0.7,7.6-2.2,13.9-4.4,18.9c2.8,2.8,4.6,4.7,5.3,5.5c0.6,0.9,0.5,1.6-0.3,2
			c-0.8,0.5-1.5,0.3-2.2-0.3c-0.8-0.6-2.3-2-4.4-4.3c-2.2,2.7-4.3,5-6.3,6.7c-0.9,0.7-1.7,0.7-2.4,0c-0.6-0.8-0.5-1.6,0.3-2.4
			c2-1.8,4-4,6-6.5c-0.2-0.1-0.6-0.5-1.2-1c-3-2.7-4.4-4.3-4.3-4.6c-0.1-0.8,0.2-2.4,0.9-4.8c0.8-3.3,1.5-6.4,2.2-9.4h-2.7
			c-0.9,0-1.4-0.5-1.5-1.5c0.1-1,0.7-1.6,1.7-1.7h3.1c0-0.7,0-1.5,0-2.6c0.1-1.1,0.2-2,0.3-2.7c0.1-0.8,0.7-1.2,1.7-1.2
			c1,0.1,1.5,0.6,1.5,1.4c-0.1,0.6-0.2,1.5-0.2,2.7C274.9,224.7,274.8,225.5,274.8,225.8z M277.9,229.1h-3.4
			c-0.8,3.8-1.7,7.3-2.6,10.6c-0.5,1.4-0.6,2.2-0.5,2.4c0,0.5,0.9,1.5,2.7,3.1c0.5,0.5,0.7,0.7,0.9,0.7c1.7-3.4,3-8.5,3.8-15.4
			C278.6,229.7,278.3,229.2,277.9,229.1z M298.4,228.2h7.3c0.8,0.1,1.3,0.7,1.4,1.7c-0.1,0.9-0.6,1.4-1.5,1.4h-6.3
			c1.1,3.5,2.9,6,5.3,7.5c0.3,0.3,0.6-0.9,0.9-3.6c0-0.8,0.5-1.2,1.4-1.2c0.9,0.1,1.4,0.6,1.5,1.4c0,5.1-1.3,7.5-3.9,7
			c-2.8-0.8-5.7-4.5-8.7-11.1h-9.2v6.3c-0.1,0.6-0.1,0.9,0,1c0.1,0.1,0.4,0.1,0.9-0.2c1.6-0.5,3.5-1.4,5.8-2.9
			c1-0.6,1.9-0.5,2.6,0.3c0.5,0.9,0.2,1.7-0.7,2.4c-2.7,1.9-5.4,3.2-8,3.8c-2.6,0.7-3.9-0.5-3.8-3.6v-14.2c-0.2-2,0.7-3,2.7-2.9
			c2.7,0,5.8-0.1,9.2-0.3c3.8-0.2,6.8-0.5,9-0.9c1-0.1,1.7,0.3,2,1.2c0.1,1-0.3,1.7-1.4,1.9c-0.8,0.2-2,0.4-3.6,0.5
			c-1.6,0.1-2.9,0.2-3.9,0.2C297.7,225.9,298,227.3,298.4,228.2z M305.9,246.7v8.7c0,2.4-1.2,3.6-3.6,3.6h-14.5
			c-2.5,0-3.7-1.3-3.6-3.8v-9c-0.2-2.4,0.9-3.5,3.2-3.4h14.3C304.6,242.6,306,243.9,305.9,246.7z M286.4,225.5v2.7h8.5
			c-0.5-1.4-0.7-2.7-0.9-3.9c-1.7,0.1-3.9,0.2-6.7,0.2C286.6,224.5,286.3,224.8,286.4,225.5z M302.6,252.5h-15.4v2.2
			c-0.1,0.8,0.5,1.2,1.7,1.2h12.1c1,0,1.5-0.4,1.5-1.2V252.5z M300.9,245.6H289c-1.1,0.1-1.7,0.7-1.7,1.7v2h15.4v-2
			C302.6,246.2,302.1,245.6,300.9,245.6z"/>
		<path d="M322.6,226h2.4c2.8,0,3.6,1.7,2.2,5.1c-1.4,2.7-3,5.1-4.8,7.2v20.3c-0.1,0.9-0.7,1.4-1.7,1.4c-1-0.1-1.5-0.6-1.5-1.5
			v-16.9c-1.7,1.5-3.5,2.9-5.5,4.3c-1.1,0.9-2.1,1-2.9,0.2c-0.5-0.8-0.2-1.7,0.9-2.7c6.1-4.7,10.2-8.9,12.3-12.6
			c0.2-0.7-0.2-1.1-1.2-1.2h-10.1c-1,0-1.5-0.6-1.5-1.7c0.1-1,0.7-1.6,1.7-1.7h8c-0.3,0-0.7-0.3-1-0.9l-2-3.6
			c-0.7-0.9-0.6-1.7,0.2-2.4c0.9-0.5,1.8-0.3,2.6,0.5c1.1,1.9,1.9,3.2,2.2,3.8C323.3,224.7,323.3,225.6,322.6,226z M326.7,238.5
			c0.3,0.5,1,1.2,1.9,2.2c1.3,1.4,2,2.3,2.4,2.7c0.6,1.1,0.5,2-0.3,2.7c-0.9,0.6-1.7,0.3-2.4-0.7c-0.3-0.6-1.4-1.8-3.2-3.8
			c-0.3-0.5-0.6-0.9-0.9-1.2c-0.8-0.8-0.8-1.6,0-2.4C325,237.6,325.9,237.7,326.7,238.5z M336.3,221.1v33.1
			c-0.1,0.9,0.5,1.4,1.7,1.4h7.3c1.9,0.3,2.9-1.1,2.9-4.4c0.1-1,0.7-1.6,1.9-1.7c1.1,0.1,1.7,0.7,1.7,1.9c-0.2,3.2-0.7,5.2-1.5,6
			c-0.7,1-2.3,1.5-4.9,1.5h-8.7c-2.7,0.1-4-1.1-3.8-3.6v-34c0-1.1,0.5-1.8,1.5-1.9C335.5,219.5,336.1,220,336.3,221.1z"/>
		<path d="M373.1,221.1l-1.5,3.9h20.8c1.3,0.1,1.9,0.7,2,1.7c-0.1,1.1-0.8,1.7-2,1.7h-22.2l-5,9.9h9.7v-5.8c0-0.9,0.6-1.4,1.7-1.5
			c1.1,0.1,1.8,0.6,1.9,1.5v5.8h12.1c1.1,0.1,1.8,0.7,1.9,1.7c-0.1,1.1-0.7,1.7-1.7,1.7h-12.3v5.5H394c1.3,0.1,1.9,0.7,1.9,1.9
			c-0.1,1-0.8,1.5-2,1.5h-15.2v8c-0.1,1.1-0.7,1.8-1.7,2c-1.3,0.1-1.9-0.3-1.9-1.4v-8.7h-19.1c-1,0-1.5-0.6-1.4-1.7
			c0.1-1,0.7-1.6,1.7-1.7H375v-5.6h-11.9c-2.2-0.1-2.7-1.3-1.7-3.4l5-9.7h-8.9c-0.9,0-1.4-0.6-1.5-1.7c0.1-1,0.6-1.6,1.5-1.7h10.2
			l2.2-5.1c0.5-1,1.2-1.4,2.2-1C373.1,219.3,373.5,220,373.1,221.1z"/>
		<path d="M402.7,221.4h5.8c2.5,0.1,3.4,1.4,2.7,3.9c-0.2,0.6-0.5,1.4-0.9,2.4c-1.3,3.9-1.9,6.3-1.9,7.2c0,0.6,0.4,1.5,1.2,2.9
			c1.8,3.1,2.8,5.6,2.9,7.5c-0.3,4.2-2.8,6-7.3,5.3c-1.1-0.1-1.8-0.6-1.9-1.5c0.1-1,0.7-1.5,1.9-1.5c2.8,0.3,4.2-0.6,4.1-2.7
			c0-1.4-0.8-3.4-2.4-6c-1-1.8-1.5-3.1-1.5-3.8c0-0.7,0.3-2.2,1-4.4c0.6-1.8,1-3.3,1.4-4.4c0.2-1-0.1-1.6-1-1.7H404
			c-0.9,0-1.3,0.5-1.2,1.5v32.4c-0.1,0.9-0.7,1.4-1.7,1.5c-1-0.1-1.5-0.6-1.5-1.5v-34C399.6,222.4,400.6,221.4,402.7,221.4z
			 M421.9,221.2c0-1,0.6-1.6,1.7-1.7c1,0.1,1.6,0.7,1.7,1.7c0,0.1-0.1,0.4-0.2,0.9c0,3.3,0.1,5.6,0.3,7c1.6,11.7,6.1,21.1,13.5,28
			c0.9,0.9,0.9,1.8,0,2.7c-0.8,0.7-1.7,0.6-2.7-0.3c-6-5.9-10.2-13.6-12.6-23c-2.6,10.2-7.5,17.9-14.5,23c-1.3,0.7-2.2,0.6-2.9-0.2
			c-0.6-0.9-0.3-1.8,0.7-2.6c8.9-6.9,13.9-16.9,15-29.9C421.9,224.9,421.9,223.1,421.9,221.2z"/>
		<path d="M480.5,225.2V255c0,2.2-1.1,3.2-3.4,3.2h-30c-2.6,0-3.9-1.2-3.9-3.6v-29.5c0-2.3,1.1-3.5,3.4-3.6h30.6
			C479.5,221.5,480.6,222.7,480.5,225.2z M446.5,227v25.3c-0.2,2,0.6,3,2.6,2.9h26.1c1.5,0,2.1-0.8,1.9-2.4v-25.6
			c0.1-1.6-0.5-2.3-1.9-2.2h-26.6C447.1,225,446.4,225.7,446.5,227z M454.4,229.4h15.2c1.8,0,2.7,1.4,2.7,4.1v13
			c0.1,2.4-1,3.5-3.4,3.2h-14c-2.6,0.1-3.9-1-3.8-3.4v-13.5C450.9,230.4,452,229.3,454.4,229.4z M467.2,232.8h-10.6
			c-1.5,0-2.2,0.7-2,2v9.6c-0.1,1.3,0.5,1.9,1.7,1.9h11.1c1,0.1,1.5-0.6,1.5-2v-9.4C468.9,233.4,468.3,232.7,467.2,232.8z"/>
		<path d="M494.3,248.2c-1.3,3.3-3.1,6.2-5.6,8.7c-0.8,0.8-1.7,1-2.6,0.5c-0.8-0.7-0.9-1.4-0.2-2.2c2.2-2.5,3.9-5.2,5.3-8.2
			c0.5-1,1.2-1.4,2.2-1C494.4,246.4,494.7,247.2,494.3,248.2z M502.7,234.7h4.3c0.9,0.1,1.4,0.6,1.5,1.5c0,1-0.5,1.5-1.4,1.5h-8v4.3
			h7.9c1,0.1,1.6,0.7,1.7,1.7c-0.1,0.9-0.7,1.4-1.9,1.4h-7.7v10.9c0.6,3.8-2,4.8-7.7,3.2c-1.1-0.3-1.7-1-1.5-1.9c0.3-1,1-1.4,2-1.2
			c3.2,1.1,4.6,0.8,4.1-1v-10.1h-8c-1,0-1.6-0.5-1.7-1.4c0.1-1,0.7-1.6,1.7-1.7h8v-4.3h-7.9c-1.1,0-1.8-0.5-1.9-1.4
			c0.1-1,0.7-1.6,1.7-1.7h11.1c0.6-0.9,1.4-2.9,2.4-6c0.3-1,1-1.4,2-1c1.1,0.5,1.5,1.1,1.2,2c-0.2,0.5-0.6,1.2-1,2.2
			C503.3,233.3,502.9,234.3,502.7,234.7z M505.6,227.2h-17.1c-1,0-1.5-0.5-1.5-1.5s0.5-1.6,1.5-1.7h6.7c-0.3-0.7-0.7-1.4-1-2
			c-0.7-1-0.6-1.9,0.3-2.6c1-0.5,1.9-0.2,2.6,0.9c0.8,1.8,1.5,3.1,2,3.8h6.5c0.9,0.1,1.4,0.7,1.5,1.7
			C507,226.7,506.5,227.2,505.6,227.2z M493.1,228.7c0.3,0.7,0.7,1.5,1.2,2.4c0.1,0.3,0.3,0.6,0.5,0.9c0.3,1,0.1,1.8-0.7,2.4
			c-0.9,0.3-1.6,0-2-1c-0.7-1.3-1.3-2.3-1.7-3.2c-0.5-0.8-0.3-1.5,0.5-2.2C491.8,227.5,492.6,227.8,493.1,228.7z M503.2,246.3
			c0.7,0.8,1.6,2,2.7,3.6c0.1,0.3,0.3,0.6,0.5,0.7c0.6,0.9,0.5,1.7-0.2,2.4c-0.8,0.6-1.5,0.5-2.2-0.3c-0.3-0.3-0.7-0.8-1.2-1.4
			c-0.7-1-1.4-2-2-2.9c-0.7-0.7-0.7-1.4,0-2C501.6,245.8,502.4,245.8,503.2,246.3z M513.4,228.2v5.3h12.5c1.9,1.3,2,2.5,0.2,3.8H522
			v21.5c-0.1,1.1-0.7,1.8-1.7,1.9c-1.1-0.1-1.7-0.7-1.7-1.9v-21.5h-5.1v9c-0.5,5.9-3.1,10.4-8,13.5c-1,0.3-1.9,0.1-2.6-0.9
			c-0.5-1-0.2-1.8,0.7-2.4c4.2-2.5,6.4-6.1,6.5-10.8v-19.5c0-2.2,1.1-3.2,3.4-3.2c5.2-0.6,8.9-1.1,11.1-1.7c1.1-0.2,1.9,0.1,2.4,1
			c0.2,1.3-0.2,2-1.4,2.2c-3.5,0.7-6.9,1.3-10.2,1.7C514,226.5,513.3,227.1,513.4,228.2z"/>
		<path d="M537.3,223.3h11.1c-0.1-0.1-0.3-0.4-0.5-0.9c-0.2-0.6-0.4-1.1-0.5-1.5c-0.6-0.9-0.4-1.6,0.5-2.2c1-0.3,1.9-0.1,2.6,0.9
			c0.6,1,1.1,2.3,1.5,3.8h12.5c2.3,0.2,3.5,1.3,3.8,3.2v6.3c-0.1,1.8-1.1,2.7-2.9,2.7h-29.5v4.1c0,8.2-1,14.2-2.9,17.9
			c-0.8,1.1-1.7,1.5-2.7,1c-1-0.6-1.3-1.5-0.7-2.7c2-3.9,3.1-9.3,3.1-16.4v-12.3C532.1,224.4,533.7,223.1,537.3,223.3z M568.2,243.2
			h-17.8l-0.3,3.9H564c1.7,0.2,2.7,1.3,2.9,3.2c-0.1,4.3-1.1,7.2-2.9,8.7c-2.4,1.3-5.9,1-10.6-0.7c-0.8-0.5-1-1.2-0.7-2.2
			c0.5-0.7,1.1-1,2-0.9c5.5,2.3,8.3,1.3,8.5-2.9c0.1-1.4-0.4-2.1-1.5-2.2h-12.8c-1.9,4.1-5.6,7.1-11.1,8.9c-1.3,0.2-2-0.2-2.4-1.2
			c-0.3-1.1,0.1-1.9,1.4-2.2c6.5-1.7,9.9-5.9,10.2-12.5h-9c-0.9,0-1.4-0.5-1.5-1.5c0.1-0.9,0.6-1.4,1.5-1.5h12.3
			c-0.2-0.1-0.5-0.5-0.7-1.2c-0.1-0.3-0.2-0.6-0.2-0.7c-0.5-0.9-0.2-1.6,0.9-2.2c1-0.3,1.8-0.1,2.4,0.9c0.2,0.6,0.7,1.7,1.4,3.2
			h14.5c0.9,0.1,1.3,0.7,1.2,1.7C569.7,242.8,569.1,243.2,568.2,243.2z M564,226.3h-27.1c-0.8,0-1.1,0.3-1,1v5.1H564
			c0.7,0.1,1-0.2,1-0.9v-4.4C565,226.6,564.7,226.3,564,226.3z"/>
		<path d="M85.9,362.7v-26.1h-4.1c-1,0-1.5-0.6-1.5-1.7c0-0.9,0.5-1.4,1.5-1.5h6.8c0.8,0,1.2,0.3,1.2,1v28.3c-0.1,1.1-0.8,1.7-2,1.7
			C86.6,364.4,85.9,363.9,85.9,362.7z"/>
		<path d="M97.3,348.9c0.2-9.9,3.7-15.2,10.4-15.9c6.5,0.7,9.9,6,10.2,15.9c-0.5,9.9-3.9,15.1-10.2,15.5
			C101.1,364,97.6,358.8,97.3,348.9z M101.5,348.9c0,8.1,2,12.2,6.1,12.5c4-0.2,6-4.4,6.1-12.5c-0.1-8-2.2-12.1-6.1-12.5
			C103.6,336.8,101.5,340.9,101.5,348.9z"/>
		<path d="M122.5,347.7c0.1-1.3,0.9-2,2.2-2.2c1.3,0.2,2,1,2.2,2.2c-0.2,1.5-1,2.3-2.2,2.4C123.4,350,122.6,349.2,122.5,347.7z
			 M122.5,362.4c0.1-1.3,0.9-2,2.2-2.2c1.3,0.2,2,1,2.2,2.2c-0.1,1.4-0.9,2-2.2,2C123.3,364.4,122.5,363.8,122.5,362.4z"/>
		<path d="M140.1,336.6l-1.2,8.5c1.1-0.6,2.5-0.9,4.1-1c4.8,0.6,7.5,3.8,8,9.6c-0.3,7.1-3.8,10.6-10.2,10.8c-4.8-0.1-7.7-1.8-8.7-5
			c0-0.9,0.5-1.4,1.4-1.5c0.3,0,1,0.4,1.9,1.2c1.8,1.4,3.7,2,5.6,2c3.6-0.2,5.6-2.5,6-6.8c-0.2-4.2-2-6.4-5.5-6.7
			c-1.3,0-2.6,0.3-4.1,0.9c-0.6,0.2-1,0.3-1.2,0.3c-0.9,0-1.4-0.4-1.4-1.2c0-0.3,0.1-1.2,0.3-2.6l1.7-10.8c-0.1-0.7,0.3-1,1.4-1H149
			c1,0.1,1.6,0.6,1.7,1.5c-0.1,1.1-0.7,1.7-1.7,1.7H140.1z"/>
		<path d="M157.3,340.2c0.2-4.3,2.9-6.7,8-7.2c4.9,0.5,7.5,2.8,7.9,7.2c0,3.1-1.4,5.4-4.1,6.8c3.5,1,5.4,3.6,5.6,7.9
			c-0.5,6.1-3.6,9.3-9.4,9.6c-6-0.1-9.2-3.3-9.6-9.6c0.1-4.1,2-6.7,5.6-7.9C158.6,345.6,157.2,343.3,157.3,340.2z M159.9,355.1
			c0.1,4,1.9,6.1,5.5,6.3c3.3-0.2,5.1-2.3,5.3-6.3c-0.2-3.9-2-5.9-5.3-6.1C162,349.1,160.1,351.2,159.9,355.1z M160.9,340.9
			c0,3.1,1.5,4.6,4.4,4.6c2.7,0,4.2-1.5,4.3-4.6c-0.2-2.7-1.7-4.2-4.3-4.4C162.5,336.6,161,338,160.9,340.9z"/>
		<path d="M195.1,331.7c-3.4,8.4-7.9,14.3-13.5,17.8c-1,0.6-1.9,0.4-2.7-0.5c-0.5-1-0.2-1.9,0.7-2.6c5.2-3.1,9.3-8.5,12.1-16.2
			c0.5-1.1,1.3-1.5,2.6-1.2C195.2,329.5,195.5,330.4,195.1,331.7z M188.8,344.3H208c2.8,0,4.4,1.4,4.6,4.1c0.2,10-0.7,16.2-2.7,18.4
			c-2.6,2.5-7.3,2.6-14,0.3c-1.1-0.5-1.5-1.3-1.2-2.4c0.3-0.8,1.1-1.1,2.4-0.9c6.1,1.8,9.6,1.8,10.4,0c0.5-0.6,0.8-1.9,1-4.1
			c0.3-2.3,0.6-5.6,0.7-9.9c-0.1-1.5-0.9-2.2-2.4-2.2h-9.4c-0.2,11.2-4.7,18-13.3,20.5c-1.4,0.5-2.4,0.2-3.1-0.7
			c-0.5-1.1,0-2,1.4-2.6c7.4-1.8,11.2-7.6,11.4-17.2h-5c-1.1,0-1.8-0.5-1.9-1.5C187,345,187.6,344.4,188.8,344.3z M202.8,331.3
			c-0.6-1.1-0.3-2,0.7-2.6c1.1-0.3,2,0.1,2.7,1.2c3.2,7.7,7.6,13.3,13.1,16.7c0.9,0.7,1.1,1.5,0.7,2.6c-0.7,0.9-1.5,1.1-2.4,0.5
			C211.8,346.5,206.8,340.3,202.8,331.3z"/>
		<path d="M231.6,352.7c-2,0-3.1-1-3.1-3.1c0.1-1.9,1.1-3,3.1-3.2c1.9,0.2,3,1.3,3.2,3.2C234.7,351.6,233.6,352.7,231.6,352.7z
			 M231.6,367.2c-2-0.1-3.1-1-3.1-2.7c0.1-1.9,1.1-3,3.1-3.2c2,0.1,3.1,1.2,3.2,3.2C234.7,366.2,233.6,367.1,231.6,367.2z"/>
		<path d="M273.9,335.1h4.6c1.8,0.1,2.7,1.3,2.6,3.4c-0.7,7.6-2.2,13.9-4.4,18.9c2.8,2.8,4.6,4.7,5.3,5.5c0.6,0.9,0.5,1.6-0.3,2
			c-0.8,0.5-1.5,0.3-2.2-0.3c-0.8-0.6-2.3-2-4.4-4.3c-2.2,2.7-4.3,5-6.3,6.7c-0.9,0.7-1.7,0.7-2.4,0c-0.6-0.8-0.5-1.6,0.3-2.4
			c2-1.8,4-4,6-6.5c-0.2-0.1-0.6-0.5-1.2-1c-3-2.7-4.4-4.3-4.3-4.6c-0.1-0.8,0.2-2.4,0.9-4.8c0.8-3.3,1.5-6.4,2.2-9.4h-2.7
			c-0.9,0-1.4-0.5-1.5-1.5c0.1-1,0.7-1.6,1.7-1.7h3.1c0-0.7,0-1.5,0-2.6c0.1-1.1,0.2-2,0.3-2.7c0.1-0.8,0.7-1.2,1.7-1.2
			c1,0.1,1.5,0.6,1.5,1.4c-0.1,0.6-0.2,1.5-0.2,2.7C274,333.9,273.9,334.7,273.9,335.1z M277,338.3h-3.4c-0.8,3.8-1.7,7.3-2.6,10.6
			c-0.5,1.4-0.6,2.2-0.5,2.4c0,0.5,0.9,1.5,2.7,3.1c0.5,0.5,0.7,0.7,0.9,0.7c1.7-3.4,3-8.5,3.8-15.4
			C277.7,338.9,277.5,338.4,277,338.3z M297.5,337.5h7.3c0.8,0.1,1.3,0.7,1.4,1.7c-0.1,0.9-0.6,1.4-1.5,1.4h-6.3
			c1.1,3.5,2.9,6,5.3,7.5c0.3,0.3,0.6-0.9,0.9-3.6c0-0.8,0.5-1.2,1.4-1.2c0.9,0.1,1.4,0.6,1.5,1.4c0,5.1-1.3,7.5-3.9,7
			c-2.8-0.8-5.7-4.5-8.7-11.1h-9.2v6.3c-0.1,0.6-0.1,0.9,0,1c0.1,0.1,0.4,0.1,0.9-0.2c1.6-0.5,3.5-1.4,5.8-2.9
			c1-0.6,1.9-0.5,2.6,0.3c0.5,0.9,0.2,1.7-0.7,2.4c-2.7,1.9-5.4,3.2-8,3.8c-2.6,0.7-3.9-0.5-3.8-3.6v-14.2c-0.2-2,0.7-3,2.7-2.9
			c2.7,0,5.8-0.1,9.2-0.3c3.8-0.2,6.8-0.5,9-0.9c1-0.1,1.7,0.3,2,1.2c0.1,1-0.3,1.7-1.4,1.9c-0.8,0.2-2,0.4-3.6,0.5
			c-1.6,0.1-2.9,0.2-3.9,0.2C296.8,335.1,297.1,336.6,297.5,337.5z M305,355.9v8.7c0,2.4-1.2,3.6-3.6,3.6h-14.5
			c-2.5,0-3.7-1.3-3.6-3.8v-9c-0.2-2.4,0.9-3.5,3.2-3.4h14.3C303.7,351.9,305.1,353.2,305,355.9z M285.5,334.7v2.7h8.5
			c-0.5-1.4-0.7-2.7-0.9-3.9c-1.7,0.1-3.9,0.2-6.7,0.2C285.8,333.7,285.4,334.1,285.5,334.7z M301.8,361.7h-15.4v2.2
			c-0.1,0.8,0.5,1.2,1.7,1.2h12.1c1,0,1.5-0.4,1.5-1.2V361.7z M300,354.9h-11.9c-1.1,0.1-1.7,0.7-1.7,1.7v2h15.4v-2
			C301.8,355.5,301.2,354.9,300,354.9z"/>
		<path d="M321.7,335.3h2.4c2.8,0,3.6,1.7,2.2,5.1c-1.4,2.7-3,5.1-4.8,7.2v20.3c-0.1,0.9-0.7,1.4-1.7,1.4c-1-0.1-1.5-0.6-1.5-1.5
			v-16.9c-1.7,1.5-3.5,2.9-5.5,4.3c-1.1,0.9-2.1,1-2.9,0.2c-0.5-0.8-0.2-1.7,0.9-2.7c6.1-4.7,10.2-8.9,12.3-12.6
			c0.2-0.7-0.2-1.1-1.2-1.2h-10.1c-1,0-1.5-0.6-1.5-1.7c0.1-1,0.7-1.6,1.7-1.7h8c-0.3,0-0.7-0.3-1-0.9l-2-3.6
			c-0.7-0.9-0.6-1.7,0.2-2.4c0.9-0.5,1.8-0.3,2.6,0.5c1.1,1.9,1.9,3.2,2.2,3.8C322.5,333.9,322.4,334.8,321.7,335.3z M325.8,347.7
			c0.3,0.5,1,1.2,1.9,2.2c1.3,1.4,2,2.3,2.4,2.7c0.6,1.1,0.5,2-0.3,2.7c-0.9,0.6-1.7,0.3-2.4-0.7c-0.3-0.6-1.4-1.8-3.2-3.8
			c-0.3-0.5-0.6-0.9-0.9-1.2c-0.8-0.8-0.8-1.6,0-2.4C324.2,346.8,325,346.9,325.8,347.7z M335.4,330.3v33.1
			c-0.1,0.9,0.5,1.4,1.7,1.4h7.3c1.9,0.3,2.9-1.1,2.9-4.4c0.1-1,0.7-1.6,1.9-1.7c1.1,0.1,1.7,0.7,1.7,1.9c-0.2,3.2-0.7,5.2-1.5,6
			c-0.7,1-2.3,1.5-4.9,1.5h-8.7c-2.7,0.1-4-1.1-3.8-3.6v-34c0-1.1,0.5-1.8,1.5-1.9C334.6,328.7,335.3,329.3,335.4,330.3z"/>
		<path d="M372.3,330.3l-1.5,3.9h20.8c1.3,0.1,1.9,0.7,2,1.7c-0.1,1.1-0.8,1.7-2,1.7h-22.2l-5,9.9h9.7v-5.8c0-0.9,0.6-1.4,1.7-1.5
			c1.1,0.1,1.8,0.6,1.9,1.5v5.8h12.1c1.1,0.1,1.8,0.7,1.9,1.7c-0.1,1.1-0.7,1.7-1.7,1.7h-12.3v5.5h15.4c1.3,0.1,1.9,0.7,1.9,1.9
			c-0.1,1-0.8,1.5-2,1.5h-15.2v8c-0.1,1.1-0.7,1.8-1.7,2c-1.3,0.1-1.9-0.3-1.9-1.4v-8.7H355c-1,0-1.5-0.6-1.4-1.7
			c0.1-1,0.7-1.6,1.7-1.7h18.8v-5.6h-11.9c-2.2-0.1-2.7-1.3-1.7-3.4l5-9.7h-8.9c-0.9,0-1.4-0.6-1.5-1.7c0.1-1,0.6-1.6,1.5-1.7h10.2
			l2.2-5.1c0.5-1,1.2-1.4,2.2-1C372.3,328.5,372.6,329.3,372.3,330.3z"/>
		<path d="M401.8,330.6h5.8c2.5,0.1,3.4,1.4,2.7,3.9c-0.2,0.6-0.5,1.4-0.9,2.4c-1.3,3.9-1.9,6.3-1.9,7.2c0,0.6,0.4,1.5,1.2,2.9
			c1.8,3.1,2.8,5.6,2.9,7.5c-0.3,4.2-2.8,6-7.3,5.3c-1.1-0.1-1.8-0.6-1.9-1.5c0.1-1,0.7-1.5,1.9-1.5c2.8,0.3,4.2-0.6,4.1-2.7
			c0-1.4-0.8-3.4-2.4-6c-1-1.8-1.5-3.1-1.5-3.8c0-0.7,0.3-2.2,1-4.4c0.6-1.8,1-3.3,1.4-4.4c0.2-1-0.1-1.6-1-1.7h-2.7
			c-0.9,0-1.3,0.5-1.2,1.5v32.4c-0.1,0.9-0.7,1.4-1.7,1.5c-1-0.1-1.5-0.6-1.5-1.5v-34C398.7,331.7,399.7,330.6,401.8,330.6z
			 M421.1,330.5c0-1,0.6-1.6,1.7-1.7c1,0.1,1.6,0.7,1.7,1.7c0,0.1-0.1,0.4-0.2,0.9c0,3.3,0.1,5.6,0.3,7c1.6,11.7,6.1,21.1,13.5,28
			c0.9,0.9,0.9,1.8,0,2.7c-0.8,0.7-1.7,0.6-2.7-0.3c-6-5.9-10.2-13.6-12.6-23c-2.6,10.2-7.5,17.9-14.5,23c-1.3,0.7-2.2,0.6-2.9-0.2
			c-0.6-0.9-0.3-1.8,0.7-2.6c8.9-6.9,13.9-16.9,15-29.9C421.1,334.2,421.1,332.3,421.1,330.5z"/>
		<path d="M462.6,330.1v13.7h11.8c0.7,0,1.1-0.5,1.2-1.5v-9.6c0-1,0.6-1.5,1.7-1.5c1.1,0,1.8,0.5,1.9,1.5v10.9
			c0,2.5-1.4,3.7-4.1,3.6h-12.5v17.2h12.8c0.7,0,1.1-0.4,1.2-1.2v-10.6c0-1,0.6-1.5,1.7-1.5c1.1,0,1.8,0.5,1.9,1.5v11.3
			c0,2.5-1.5,3.8-4.4,3.8h-30.6c-2.2-0.1-3.2-1.2-3.2-3.2v-11.8c0-1.1,0.6-1.8,1.9-1.9c1.1,0.1,1.8,0.7,1.9,1.9v10.2
			c0,1,0.4,1.5,1.2,1.5H459v-17.2h-12.3c-2.6,0-3.9-1.2-3.9-3.6v-11.4c1.3-1.8,2.5-1.8,3.8,0v9.6c-0.1,1.5,0.4,2.2,1.5,2H459v-13.7
			C460.1,328.3,461.3,328.3,462.6,330.1z"/>
		<path d="M504.4,336.8h12.3c-3.2-2.6-4.8-4-5-4.3c-0.8-0.7-0.9-1.4-0.2-2.2c0.7-0.7,1.5-0.8,2.4-0.3c2.4,1.8,4.1,3.3,5.1,4.4
			c0.7,0.9,0.7,1.7,0,2.4h5.6c0.9,0.1,1.4,0.7,1.5,1.7c-0.1,1.1-0.6,1.7-1.4,1.7h-21.5l-1.5,3.9H518c2.2,0.2,2.8,1.6,1.9,4.1
			c-1.7,4.6-4.4,8.8-8.2,12.8c2.7,1.7,7.2,3.1,13.3,4.3c1,0.2,1.4,0.9,1.2,2c-0.2,0.9-0.9,1.4-1.9,1.4c-6.1-1.3-11.4-3.1-15.7-5.5
			c-5.7,3.5-12.5,5.7-20.5,6.7c-1.1,0-1.8-0.5-2-1.5c-0.1-1.1,0.4-1.8,1.5-1.9c9-1.4,15.1-3.2,18.3-5.5c-3.4-3.1-5.9-6.7-7.3-10.9
			c-3.3,5.5-6.9,10-10.8,13.5c-1.3,0.7-2.3,0.7-3.2,0.2c-0.6-0.9-0.3-1.9,0.9-2.9c5.9-5.3,10.7-12.2,14.3-20.7h-8.9
			c-1.6-0.1-2.2-1-1.7-2.6c0.7-1.4,1.7-3.8,3.1-7.2c0.5-1,1.1-1.4,2-1.2c1,0.3,1.4,1,1,2c-0.1,0.2-0.9,2-2.2,5.5h7.5
			c1-4,1.6-6.4,1.9-7.3c0.2-1,0.9-1.5,1.9-1.5c1,0.3,1.5,1,1.5,2C505.5,332,504.9,334.3,504.4,336.8z M516.2,347.5h-14.9
			c1.3,4.4,3.7,8.2,7.3,11.3C512.6,355.3,515.1,351.5,516.2,347.5z"/>
		<path d="M557.3,330.3l-1,3.1H567c1,0.1,1.6,0.7,1.7,1.7c0,1-0.5,1.5-1.5,1.5h-36.9c-1,0-1.5-0.5-1.5-1.5c0.1-1,0.7-1.6,1.7-1.7
			h9.9l-1.2-2.4c-0.5-0.9-0.3-1.6,0.5-2c1-0.3,1.8-0.1,2.4,0.7l2.2,3.8h8.4l1.5-3.8c0.3-1,1-1.5,2-1.4
			C557.3,328.6,557.6,329.3,557.3,330.3z M549.1,343.3v21.2c0.2,4.2-2.9,5.3-9.4,3.2c-1.3-0.5-1.8-1.3-1.5-2.4
			c0.3-0.9,1.1-1.2,2.4-0.9c3.8,1.3,5.6,1.1,5.5-0.5v-5.8h-12.1v9.2c-0.1,1-0.7,1.6-1.7,1.7c-1-0.1-1.5-0.7-1.5-1.7v-24.1
			c0.1-2.3,1.4-3.5,3.9-3.8h10.1C547.6,339.6,549.1,340.9,549.1,343.3z M544.3,342.6h-9c-0.9,0.1-1.4,0.7-1.4,1.7v3.2H546v-3.4
			C546,343.1,545.5,342.6,544.3,342.6z M533.9,355.1H546v-4.6h-12.1V355.1z M557.3,343.6v15.7c-0.1,1.3-0.7,2-1.7,2.2
			c-1.1-0.1-1.7-0.8-1.7-2v-15.9c0-1,0.6-1.6,1.7-1.7C556.6,342,557.2,342.6,557.3,343.6z M566.2,341.2v24.1c0.1,4.2-3.3,4.9-10.2,2
			c-0.9-0.5-1.2-1.2-0.9-2.2c0.3-0.7,1-0.9,2-0.7c4.3,1.8,6.3,1.6,5.8-0.7v-22.5c0-1,0.5-1.5,1.5-1.5
			C565.5,339.7,566.1,340.2,566.2,341.2z"/>
		<path d="M581.4,348.2v19.3c-0.1,0.8-0.7,1.3-1.7,1.4c-1-0.1-1.5-0.6-1.5-1.4v-15.7l-0.7,0.7c-1,1-1.8,1.7-2.2,2
			c-1,0.8-1.9,0.8-2.7,0c-0.5-0.9-0.2-1.8,0.7-2.7c4.1-3.6,7-7.3,8.7-10.9c0.6-1.1,1.4-1.4,2.4-0.9c1,0.6,1.3,1.4,0.7,2.6
			C583.9,344.4,582.7,346.3,581.4,348.2z M584.4,332.2c-1.9,3.9-4.4,7.3-7.3,10.2c-1.1,1-2.2,1.2-3.2,0.5c-0.8-1-0.7-2,0.3-3.1
			c3.1-2.8,5.3-5.9,6.8-9.2c0.6-1.1,1.4-1.5,2.6-1C584.6,330.2,584.9,331,584.4,332.2z M612.1,338.5h-11.8v9.4h9.6
			c0.9,0.1,1.4,0.7,1.5,1.9c-0.1,1.1-0.6,1.7-1.5,1.7h-9.6v12.8h11.9c1.8,1.1,1.8,2.3,0,3.6h-26.5c-1.9-1.3-1.9-2.4,0-3.6h10.8
			v-12.8h-9.2c-1.7-1.1-1.7-2.3,0-3.6h9.2v-9.4h-10.1c-1.7-1.1-1.7-2.3,0-3.6h9.9c-0.3-0.5-0.7-1.1-1.2-2c-0.3-0.7-0.6-1.2-0.7-1.5
			c-0.7-1-0.5-1.9,0.5-2.6c1-0.6,1.9-0.3,2.7,0.7c0.1,0.5,0.5,1.2,1,2.2c0.2,0.5,0.5,1,0.9,1.5c0.3,0.7,0.4,1.3,0.2,1.7h12.3
			C613.6,336.2,613.6,337.4,612.1,338.5z"/>
		<path d="M623.4,352.3c0.2-1,0.9-1.4,1.9-1.2c1,0.3,1.5,1,1.4,2c-1.6,5.1-3.9,9.7-7,13.8c-0.9,0.9-1.9,1-2.9,0.2
			c-0.8-0.8-0.7-1.7,0.2-2.6C619.6,362,621.8,357.9,623.4,352.3z M619.6,340.9c1.8,1.3,3.7,2.6,5.6,3.9c0.8,0.8,1,1.7,0.5,2.6
			c-0.8,0.8-1.6,0.8-2.4,0c-1.8-1.4-3.6-2.6-5.5-3.8c-1-0.7-1.3-1.5-0.9-2.4C617.7,340.4,618.6,340.3,619.6,340.9z M620.5,330.1
			c2.2,1.4,4.1,2.8,5.8,4.3c0.6,0.9,0.6,1.8,0,2.6c-0.8,0.6-1.6,0.5-2.4-0.2c-1.1-1.1-2.9-2.4-5.3-3.9c-0.8-0.5-1-1.2-0.5-2.2
			C618.7,329.9,619.5,329.7,620.5,330.1z M628.6,330h26.6c1.4,0.1,2.1,0.7,2.2,1.9c-0.2,1-1,1.5-2.4,1.5h-8.4v3.9h5
			c2.5,0.1,3.8,1.3,3.9,3.6v23.7c-0.1,2.4-1.4,3.6-3.8,3.6h-20.5c-2.6,0.1-3.8-1.1-3.6-3.8v-23.4c0-2.5,1.3-3.8,3.9-3.8h3.6v-3.9
			h-6.7c-1.3,0-1.9-0.6-2-1.7C626.7,330.6,627.4,330.1,628.6,330z M631,342.3v15.2h21.3v-4.3h-5.5c-2.4,0.1-3.5-1.2-3.4-3.9v-8.5
			h-4.8c-0.1,7.7-1.5,12.2-4.3,13.5c-1,0.6-1.8,0.5-2.4-0.3c-0.7-1-0.6-1.8,0.3-2.4c2-0.9,3-4.5,2.9-10.8h-3.1
			C631.3,340.7,630.9,341.2,631,342.3z M631,360.9v3.1c0,0.6,0.3,0.9,1,0.9h19.1c0.8,0,1.2-0.3,1.2-1v-2.9H631z M643.5,333.4h-5v3.9
			h5V333.4z M651.4,340.7h-4.6v7.9c-0.1,0.9,0.3,1.3,1.4,1.2h4.3v-8C652.4,341.1,652,340.7,651.4,340.7z"/>
		<path d="M697.6,335.9h-15.4v5.1h16.2c0.9,0.1,1.4,0.7,1.5,1.7c-0.1,1.1-0.6,1.7-1.5,1.7h-16.2v6h11.4c2.5-0.1,3.7,1,3.6,3.4v10.9
			c0.1,2.6-1,3.9-3.2,3.8h-22.9c-2.5,0.1-3.6-1-3.4-3.4v-11.3c-0.3-2.4,1-3.5,3.9-3.4h7.2v-14.5h-11.8c-1.1,0-1.7,0.5-1.5,1.5v15.2
			c-0.2,5.7-1.4,10.3-3.4,13.8c-0.7,0.8-1.5,1-2.4,0.7c-0.9-0.6-1.1-1.3-0.7-2.2c2-3.5,3.1-7.6,3.1-12.3v-16.6
			c-0.2-2.5,0.9-3.7,3.2-3.6h14.2c-0.1-0.2-0.3-0.6-0.5-1.2c-0.2-0.3-0.4-0.7-0.5-1.2c-0.5-1-0.2-1.8,0.7-2.2
			c0.9-0.3,1.7-0.1,2.4,0.9c0.7,1.4,1.2,2.6,1.5,3.8h14.5c0.8,0.1,1.3,0.7,1.4,1.7C698.9,335.4,698.4,335.9,697.6,335.9z
			 M671.3,355.1v8.9c-0.1,0.8,0.4,1.2,1.5,1.2h18.9c1.4,0,2-0.5,1.9-1.4v-8.7c0-0.8-0.4-1.2-1.2-1.2h-19.8
			C671.7,353.9,671.2,354.3,671.3,355.1z"/>
		<path d="M85.9,472v-26.1h-4.1c-1,0-1.5-0.6-1.5-1.7c0-0.9,0.5-1.4,1.5-1.5h6.8c0.8,0,1.2,0.3,1.2,1V472c-0.1,1.1-0.8,1.7-2,1.7
			C86.6,473.7,85.9,473.1,85.9,472z"/>
		<path d="M108.7,472v-26.1h-4.1c-1,0-1.5-0.6-1.5-1.7c0-0.9,0.5-1.4,1.5-1.5h6.8c0.8,0,1.2,0.3,1.2,1V472c-0.1,1.1-0.8,1.7-2,1.7
			C109.4,473.7,108.7,473.1,108.7,472z"/>
		<path d="M121.9,457c0.1-1.3,0.9-2,2.2-2.2c1.3,0.2,2,1,2.2,2.2c-0.2,1.5-1,2.3-2.2,2.4C122.8,459.2,122,458.4,121.9,457z
			 M121.9,471.6c0.1-1.3,0.9-2,2.2-2.2c1.3,0.2,2,1,2.2,2.2c-0.1,1.4-0.9,2-2.2,2C122.7,473.7,121.9,473,121.9,471.6z"/>
		<path d="M138.5,472v-26.1h-4.1c-1,0-1.5-0.6-1.5-1.7c0-0.9,0.5-1.4,1.5-1.5h6.8c0.8,0,1.2,0.3,1.2,1V472c-0.1,1.1-0.8,1.7-2,1.7
			C139.1,473.7,138.5,473.1,138.5,472z"/>
		<path d="M154.8,449.5c0.2-4.3,2.9-6.7,8-7.2c4.9,0.5,7.5,2.8,7.9,7.2c0,3.1-1.4,5.4-4.1,6.8c3.5,1,5.4,3.6,5.6,7.9
			c-0.5,6.1-3.6,9.3-9.4,9.6c-6-0.1-9.2-3.3-9.6-9.6c0.1-4.1,2-6.7,5.6-7.9C156.1,454.8,154.7,452.5,154.8,449.5z M157.4,464.3
			c0.1,4,1.9,6.1,5.5,6.3c3.3-0.2,5.1-2.3,5.3-6.3c-0.2-3.9-2-5.9-5.3-6.1C159.5,458.4,157.6,460.4,157.4,464.3z M158.4,450.1
			c0,3.1,1.5,4.6,4.4,4.6c2.7,0,4.2-1.5,4.3-4.6c-0.2-2.7-1.7-4.2-4.3-4.4C160,445.8,158.5,447.3,158.4,450.1z"/>
		<path d="M192.6,440.9c-3.4,8.4-7.9,14.3-13.5,17.8c-1,0.6-1.9,0.4-2.7-0.5c-0.5-1-0.2-1.9,0.7-2.6c5.2-3.1,9.3-8.5,12.1-16.2
			c0.5-1.1,1.3-1.5,2.6-1.2C192.7,438.8,193,439.7,192.6,440.9z M186.3,453.6h19.3c2.8,0,4.4,1.4,4.6,4.1c0.2,10-0.7,16.2-2.7,18.4
			c-2.6,2.5-7.3,2.6-14,0.3c-1.1-0.5-1.5-1.3-1.2-2.4c0.3-0.8,1.1-1.1,2.4-0.9c6.1,1.8,9.6,1.8,10.4,0c0.5-0.6,0.8-1.9,1-4.1
			c0.3-2.3,0.6-5.6,0.7-9.9c-0.1-1.5-0.9-2.2-2.4-2.2H195c-0.2,11.2-4.7,18-13.3,20.5c-1.4,0.5-2.4,0.2-3.1-0.7
			c-0.5-1.1,0-2,1.4-2.6c7.4-1.8,11.2-7.6,11.4-17.2h-5c-1.1,0-1.8-0.5-1.9-1.5C184.5,454.3,185.1,453.7,186.3,453.6z M200.3,440.6
			c-0.6-1.1-0.3-2,0.7-2.6c1.1-0.3,2,0.1,2.7,1.2c3.2,7.7,7.6,13.3,13.1,16.7c0.9,0.7,1.1,1.5,0.7,2.6c-0.7,0.9-1.5,1.1-2.4,0.5
			C209.3,455.7,204.3,449.6,200.3,440.6z"/>
		<path d="M229.1,461.9c-2,0-3.1-1-3.1-3.1c0.1-1.9,1.1-3,3.1-3.2c1.9,0.2,3,1.3,3.2,3.2C232.2,460.9,231.1,461.9,229.1,461.9z
			 M229.1,476.4c-2-0.1-3.1-1-3.1-2.7c0.1-1.9,1.1-3,3.1-3.2c2,0.1,3.1,1.2,3.2,3.2C232.2,475.4,231.1,476.3,229.1,476.4z"/>
		<path d="M272.5,466.7c-1.3,3.3-3.1,6.2-5.6,8.7c-0.8,0.8-1.7,1-2.6,0.5c-0.8-0.7-0.9-1.4-0.2-2.2c2.2-2.5,3.9-5.2,5.3-8.2
			c0.5-1,1.2-1.4,2.2-1C272.5,464.9,272.8,465.7,272.5,466.7z M280.8,453.2h4.3c0.9,0.1,1.4,0.6,1.5,1.5c0,1-0.5,1.5-1.4,1.5h-8v4.3
			h7.9c1,0.1,1.6,0.7,1.7,1.7c-0.1,0.9-0.7,1.4-1.9,1.4h-7.7v10.9c0.6,3.8-2,4.8-7.7,3.2c-1.1-0.3-1.7-1-1.5-1.9c0.3-1,1-1.4,2-1.2
			c3.2,1.1,4.6,0.8,4.1-1v-10.1h-8c-1,0-1.6-0.5-1.7-1.4c0.1-1,0.7-1.6,1.7-1.7h8v-4.3h-7.9c-1.1,0-1.8-0.5-1.9-1.4
			c0.1-1,0.7-1.6,1.7-1.7h11.1c0.6-0.9,1.4-2.9,2.4-6c0.3-1,1-1.4,2-1c1.1,0.5,1.5,1.1,1.2,2c-0.2,0.5-0.6,1.2-1,2.2
			C281.4,451.8,281,452.8,280.8,453.2z M283.7,445.7h-17.1c-1,0-1.5-0.5-1.5-1.5s0.5-1.6,1.5-1.7h6.7c-0.3-0.7-0.7-1.4-1-2
			c-0.7-1-0.6-1.9,0.3-2.6c1-0.5,1.9-0.2,2.6,0.9c0.8,1.8,1.5,3.1,2,3.8h6.5c0.9,0.1,1.4,0.7,1.5,1.7
			C285.1,445.2,284.6,445.7,283.7,445.7z M271.3,447.2c0.3,0.7,0.7,1.5,1.2,2.4c0.1,0.3,0.3,0.6,0.5,0.9c0.3,1,0.1,1.8-0.7,2.4
			c-0.9,0.3-1.6,0-2-1c-0.7-1.3-1.3-2.3-1.7-3.2c-0.5-0.8-0.3-1.5,0.5-2.2C270,446,270.7,446.3,271.3,447.2z M281.3,464.8
			c0.7,0.8,1.6,2,2.7,3.6c0.1,0.3,0.3,0.6,0.5,0.7c0.6,0.9,0.5,1.7-0.2,2.4c-0.8,0.6-1.5,0.5-2.2-0.3c-0.3-0.3-0.7-0.8-1.2-1.4
			c-0.7-1-1.4-2-2-2.9c-0.7-0.7-0.7-1.4,0-2C279.7,464.3,280.5,464.3,281.3,464.8z M291.6,446.7v5.3H304c1.9,1.3,2,2.5,0.2,3.8h-4.1
			v21.5c-0.1,1.1-0.7,1.8-1.7,1.9c-1.1-0.1-1.7-0.7-1.7-1.9v-21.5h-5.1v9c-0.5,5.9-3.1,10.4-8,13.5c-1,0.3-1.9,0.1-2.6-0.9
			c-0.5-1-0.2-1.8,0.7-2.4c4.2-2.5,6.4-6.1,6.5-10.8v-19.5c0-2.2,1.1-3.2,3.4-3.2c5.2-0.6,8.9-1.1,11.1-1.7c1.1-0.2,1.9,0.1,2.4,1
			c0.2,1.3-0.2,2-1.4,2.2c-3.5,0.7-6.9,1.3-10.2,1.7C292.1,445,291.5,445.6,291.6,446.7z"/>
		<path d="M327.8,445.2v11.6c0.1,2-1,3-3.4,2.7h-11.3v13.3c0,0.3,0.1,0.5,0.2,0.5c0.1,0.1,0.3,0.1,0.5-0.2c2.5-1.3,5.1-2.8,7.7-4.8
			c-0.6-0.7-1.7-2.2-3.4-4.6c-0.8-0.9-0.7-1.8,0.2-2.6c1-0.5,2-0.3,2.9,0.5c3.1,4.2,5.5,7.7,7.3,10.6c0.6,1,0.3,1.9-0.7,2.6
			c-1.1,0.3-2,0-2.7-1c-0.7-1-1.2-1.8-1.5-2.4c-2.3,1.5-5.5,3.3-9.6,5.5c-2.7,1.1-4.2,0.2-4.3-2.7v-28.8c-0.1-2,0.9-3.1,2.9-3.1h4.1
			c-0.1-0.1-0.3-0.4-0.5-0.9c-0.2-0.5-0.4-0.9-0.5-1.4c-0.5-1-0.2-1.8,0.7-2.4c1-0.3,1.9,0,2.6,1c0.1,0.2,0.7,1.4,1.7,3.6h4.4
			C326.9,442.4,327.8,443.4,327.8,445.2z M313.1,446.9v2.4h11.3v-2c0-1.4-0.5-2-1.4-1.9h-8.4C313.5,445.4,313,445.9,313.1,446.9z
			 M324.3,455.1v-2.7h-11.3v4.1h9.9C323.8,456.5,324.2,456,324.3,455.1z M341.2,443.5h-6.1c-0.7,0-1,0.3-1,0.9v32.3
			c-0.1,0.9-0.7,1.4-1.7,1.5c-1.1-0.1-1.7-0.6-1.7-1.5v-32.3c0-2.8,1.3-4.3,3.9-4.3h7.3c2.3,0,3.6,0.3,4.1,0.9
			c0.6,0.7,0.6,1.9,0,3.6c-0.2,0.3-0.3,0.7-0.3,1c-2.3,5.8-3.3,9-3.1,9.6c0,0.2,0.3,0.9,1,1.9c2.6,3.9,4,7,4.3,9.4
			c0,8.3-3.8,10.8-11.4,7.5c-1.1-0.5-1.5-1.2-1-2.2c0.7-0.9,1.6-1.1,2.7-0.7c1.9,1,3.5,1.1,4.8,0.3c1-0.9,1.4-2.6,1.2-5
			c-0.5-3-1.8-5.7-4.1-8.4c-1.4-1.1-1.7-2.7-0.9-4.6c0.3-1.4,1.2-3.9,2.6-7.7C342.3,444.2,342.2,443.5,341.2,443.5z"/>
		<path d="M359.9,466.7c-1.3,3.3-3.1,6.2-5.6,8.7c-0.8,0.8-1.7,1-2.6,0.5c-0.8-0.7-0.9-1.4-0.2-2.2c2.2-2.5,3.9-5.2,5.3-8.2
			c0.5-1,1.2-1.4,2.2-1C359.9,464.9,360.2,465.7,359.9,466.7z M368.2,453.2h4.3c0.9,0.1,1.4,0.6,1.5,1.5c0,1-0.5,1.5-1.4,1.5h-8v4.3
			h7.9c1,0.1,1.6,0.7,1.7,1.7c-0.1,0.9-0.7,1.4-1.9,1.4h-7.7v10.9c0.6,3.8-2,4.8-7.7,3.2c-1.1-0.3-1.7-1-1.5-1.9c0.3-1,1-1.4,2-1.2
			c3.2,1.1,4.6,0.8,4.1-1v-10.1h-8c-1,0-1.6-0.5-1.7-1.4c0.1-1,0.7-1.6,1.7-1.7h8v-4.3h-7.9c-1.1,0-1.8-0.5-1.9-1.4
			c0.1-1,0.7-1.6,1.7-1.7h11.1c0.6-0.9,1.4-2.9,2.4-6c0.3-1,1-1.4,2-1c1.1,0.5,1.5,1.1,1.2,2c-0.2,0.5-0.6,1.2-1,2.2
			C368.8,451.8,368.4,452.8,368.2,453.2z M371.1,445.7h-17.1c-1,0-1.5-0.5-1.5-1.5s0.5-1.6,1.5-1.7h6.7c-0.3-0.7-0.7-1.4-1-2
			c-0.7-1-0.6-1.9,0.3-2.6c1-0.5,1.9-0.2,2.6,0.9c0.8,1.8,1.5,3.1,2,3.8h6.5c0.9,0.1,1.4,0.7,1.5,1.7
			C372.5,445.2,372,445.7,371.1,445.7z M358.7,447.2c0.3,0.7,0.7,1.5,1.2,2.4c0.1,0.3,0.3,0.6,0.5,0.9c0.3,1,0.1,1.8-0.7,2.4
			c-0.9,0.3-1.6,0-2-1c-0.7-1.3-1.3-2.3-1.7-3.2c-0.5-0.8-0.3-1.5,0.5-2.2C357.4,446,358.1,446.3,358.7,447.2z M368.7,464.8
			c0.7,0.8,1.6,2,2.7,3.6c0.1,0.3,0.3,0.6,0.5,0.7c0.6,0.9,0.5,1.7-0.2,2.4c-0.8,0.6-1.5,0.5-2.2-0.3c-0.3-0.3-0.7-0.8-1.2-1.4
			c-0.7-1-1.4-2-2-2.9c-0.7-0.7-0.7-1.4,0-2C367.1,464.3,367.9,464.3,368.7,464.8z M379,446.7v5.3h12.5c1.9,1.3,2,2.5,0.2,3.8h-4.1
			v21.5c-0.1,1.1-0.7,1.8-1.7,1.9c-1.1-0.1-1.7-0.7-1.7-1.9v-21.5H379v9c-0.5,5.9-3.1,10.4-8,13.5c-1,0.3-1.9,0.1-2.6-0.9
			c-0.5-1-0.2-1.8,0.7-2.4c4.2-2.5,6.4-6.1,6.5-10.8v-19.5c0-2.2,1.1-3.2,3.4-3.2c5.2-0.6,8.9-1.1,11.1-1.7c1.1-0.2,1.9,0.1,2.4,1
			c0.2,1.3-0.2,2-1.4,2.2c-3.5,0.7-6.9,1.3-10.2,1.7C379.5,445,378.9,445.6,379,446.7z"/>
		<path d="M404.1,444.7h2.9c2.8-0.3,4,1.3,3.6,4.8c-0.5,7.5-1.8,13.3-3.9,17.4c0.2,0.3,0.7,0.9,1.5,1.5c0.7,0.6,1.3,1,1.7,1.4
			c0.9,1,1.1,1.9,0.5,2.7c-0.9,0.8-1.8,0.7-2.7-0.2c-0.5-0.3-1.1-0.9-1.9-1.5c-0.5-0.5-0.7-0.8-0.9-1c-1.1,1.8-3.5,4.2-7,7.2
			c-0.9,0.6-1.8,0.5-2.7-0.2c-0.7-0.9-0.6-1.7,0.2-2.4c2.8-2.2,5.2-4.5,7-7c-0.8-0.6-1.7-1.3-2.7-2.2c-2.5-2-3.6-3.2-3.2-3.6
			c0-0.1,0.2-0.8,0.5-2c0.9-2.2,1.9-5.9,3.1-11.3h-3.2c-1,0-1.5-0.6-1.5-1.7c0-1.1,0.5-1.8,1.5-1.9h3.8c0.1-1.3,0.2-2.2,0.2-2.9
			c0-0.5,0.1-1.1,0.2-1.9c0.1-1.1,0.7-1.7,1.7-1.7c1.1,0.1,1.7,0.7,1.7,1.9c0,0.5-0.1,1.1-0.2,2C404,443.3,404,444.1,404.1,444.7z
			 M405.9,448.3h-2.7c-0.8,4.2-1.8,7.9-2.9,11.1c-0.3,0.9-0.5,1.4-0.3,1.5c-0.3,0.2,1,1.5,3.9,3.8c2-4.4,3.2-9.4,3.4-14.9
			C407.4,448.8,407,448.3,405.9,448.3z M432.4,445.9v11.9c0,2.4-1,3.5-2.9,3.2h-7.2c0.3,2.3,1.3,4.4,2.9,6.5c2-1.1,4.1-2.6,6.1-4.4
			c0.9-0.8,1.7-0.9,2.4-0.2c0.6,0.8,0.5,1.6-0.3,2.4c-1.7,1.6-3.7,3.2-6,4.8c2.2,2.2,4.6,3.8,7.2,5c1,0.5,1.4,1.3,1,2.4
			c-0.5,0.9-1.3,1.1-2.4,0.7c-7.7-3.3-12.5-9-14.2-17.1h-3.8v13c0,0.2,0.2,0.3,0.5,0.2c1.6-0.6,3.1-1.6,4.6-3.1
			c0.9-0.7,1.8-0.6,2.6,0.2c0.7,0.8,0.6,1.6-0.2,2.4c-2.5,1.9-4.8,3.4-6.8,4.4c-2.6,1-3.9,0.1-3.8-2.7v-29.5c-0.1-2,1-3.1,3.2-3.1h5
			c-0.2-0.2-0.5-0.7-0.7-1.4c-0.2-0.6-0.4-1-0.5-1.4c-0.5-0.9-0.2-1.6,0.7-2.2c1-0.3,1.8-0.1,2.4,0.7c0,0.1,0.1,0.6,0.3,1.4
			c0.7,1.4,1.1,2.3,1.4,2.9h5.5C431.5,442.7,432.5,443.7,432.4,445.9z M428,445.9h-11.1c-1,0-1.5,0.3-1.5,1v3.4h14v-3.4
			C429.3,446.2,428.9,445.9,428,445.9z M429.3,456.8v-3.4h-14v4.6h13C429,458.1,429.3,457.7,429.3,456.8z"/>
		<path d="M447.3,458.8v9.6c0.7,3.3,3.4,5.1,8,5.5h23.2c0.9,0,1.4,0.5,1.4,1.5c-0.1,1-0.6,1.6-1.5,1.7H456c-4.4,0-7.7-1.2-9.9-3.6
			c-1.3,1.4-3,2.6-5.1,3.8c-1.3,0.5-2.2,0.2-2.7-0.7c-0.5-1.3-0.1-2.1,1.2-2.6c2.7-1.3,4.3-2.4,4.6-3.6V460
			c-0.1-0.8-0.5-1.2-1.2-1.2h-3.4c-1,0-1.5-0.6-1.5-1.7c0-1,0.5-1.6,1.5-1.7h4.6C446.3,455.3,447.4,456.5,447.3,458.8z M442.6,441.1
			c1.4,1.4,3.1,3.4,5.3,6c0.7,1.3,0.6,2.2-0.2,2.9c-1,0.7-1.9,0.5-2.7-0.7c-1.8-2.5-3.5-4.4-5-5.8c-0.9-0.8-1-1.6-0.2-2.4
			C440.7,440.4,441.6,440.4,442.6,441.1z M453.6,445v20c0,0.3,0.1,0.5,0.2,0.5c0.1,0.1,0.3,0.1,0.5-0.2c1.3-0.7,2.9-2.2,4.9-4.4
			c0.8-0.7,1.6-0.7,2.4,0c0.7,0.7,0.7,1.5,0,2.4c-1.9,2.3-4.2,4.3-6.8,6c-3.1,1.6-4.6,0.7-4.6-2.7v-22.2c-0.2-2.3,0.7-3.5,2.9-3.8
			c2.6-0.3,5-0.9,7-1.7c1.1-0.3,1.9,0.1,2.4,1.2c0.2,1.1-0.2,1.9-1.4,2.2c-1.6,0.7-3.8,1.2-6.5,1.5
			C453.8,443.9,453.5,444.3,453.6,445z M476.8,444.2V466c0,4.2-2.7,5.1-8.2,2.6c-0.9-0.5-1.1-1.3-0.7-2.4c0.5-1,1.2-1.3,2.2-0.9
			c2.3,1.4,3.4,1.3,3.2-0.2v-19.8c0-1.1-0.5-1.7-1.4-1.7h-4.4c-0.8,0.1-1.2,0.7-1.2,1.7v25.9c-0.1,1.1-0.7,1.7-1.7,1.7
			c-1.1,0-1.7-0.6-1.7-1.7V445c-0.1-3.1,1.4-4.6,4.4-4.6h5.1C475.1,440.5,476.6,441.8,476.8,444.2z"/>
		<path d="M491.6,453.7v2.2h27.5c0.9,0.1,1.4,0.7,1.5,1.7c-0.1,1-0.6,1.5-1.5,1.5h-8.2v6.1h10.4c1,0.1,1.5,0.7,1.5,1.7
			c-0.1,1-0.7,1.5-1.7,1.5h-37.7c-1.1,0-1.7-0.5-1.7-1.5c0.1-1,0.7-1.6,1.9-1.7h4.6v-12.6c0-2.2,1-3.3,2.9-3.4
			c4.6-0.1,8.6-0.3,12.1-0.7c3.2-0.2,6.7-0.7,10.4-1.5c1.1-0.1,1.9,0.3,2.2,1.4c0.1,1.1-0.3,1.8-1.4,2c-5.5,1.1-12.7,1.8-21.8,1.9
			C492,452.5,491.6,452.9,491.6,453.7z M495.4,469.9c1-0.6,1.9-0.4,2.6,0.5c0.5,0.9,0.2,1.7-0.7,2.4c-4.7,2.8-9.1,4.8-13.3,5.8
			c-1,0.1-1.7-0.3-2-1.2c-0.1-0.9,0.3-1.5,1.4-1.9C488.1,474.1,492.1,472.2,495.4,469.9z M517.8,444.5h-30.2c-0.8,0-1.1,0.4-1,1.2
			v2.6c-0.1,1-0.7,1.6-1.7,1.7c-1,0-1.5-0.5-1.5-1.5v-4.3c0-1.8,1.2-2.8,3.6-2.9h13.8c-0.3-0.5-0.6-1.2-0.9-2.2
			c-0.5-1-0.1-1.8,1-2.2c1.1-0.2,1.9,0.2,2.4,1.2c0.3,1,0.7,2.1,1.2,3.2h15.4c2-0.1,2.9,0.9,2.6,3.1c-0.3,1.8-0.9,3.5-1.7,5
			c-0.7,1-1.5,1.4-2.4,1.2c-1-0.6-1.3-1.4-0.7-2.4C518.8,445.7,518.9,444.5,517.8,444.5z M491.6,459.2v6.1h15.9v-6.1H491.6z
			 M508,469.9c4.9,1.9,8.8,3.8,11.6,5.6c1,0.7,1.2,1.5,0.5,2.6c-0.8,0.8-1.7,0.9-2.7,0.2c-1.8-1.3-5.5-3.1-10.9-5.5
			c-0.9-0.3-1.2-1-0.9-2C506.2,470,507,469.7,508,469.9z"/>
		<path d="M85.9,581.2v-26.1h-4.1c-1,0-1.5-0.6-1.5-1.7c0-0.9,0.5-1.4,1.5-1.5h6.8c0.8,0,1.2,0.3,1.2,1v28.3c-0.1,1.1-0.8,1.7-2,1.7
			C86.6,582.9,85.9,582.4,85.9,581.2z"/>
		<path d="M102.2,579.7h11.8c0.9,0.1,1.4,0.6,1.5,1.5c-0.1,1.1-0.6,1.7-1.5,1.7H98.8c-1.4,0-2-0.5-2-1.5c-0.1-0.3,0.2-0.9,0.9-1.7
			l10.8-14.5c1.4-1.7,2.1-3.5,2.2-5.5c-0.2-3-1.9-4.6-5-4.8c-3.6,0.2-5.5,2.6-5.6,7c-0.1,1.1-0.7,1.7-1.7,1.7
			c-1.3,0.1-1.9-0.7-1.9-2.4c0.5-6,3.8-9.3,9.9-9.7c5,0.5,7.8,3.1,8.4,7.9c0.1,2.5-0.6,4.6-2,6.3L102.2,579.7z"/>
		<path d="M120.8,566.2c0.1-1.3,0.9-2,2.2-2.2c1.3,0.2,2,1,2.2,2.2c-0.2,1.5-1,2.3-2.2,2.4C121.6,568.5,120.9,567.7,120.8,566.2z
			 M120.8,580.9c0.1-1.3,0.9-2,2.2-2.2c1.3,0.2,2,1,2.2,2.2c-0.1,1.4-0.9,2-2.2,2C121.5,582.9,120.8,582.3,120.8,580.9z"/>
		<path d="M129.8,567.4c0.2-9.9,3.7-15.2,10.4-15.9c6.5,0.7,9.9,6,10.2,15.9c-0.5,9.9-3.9,15.1-10.2,15.5
			C133.6,582.5,130.2,577.3,129.8,567.4z M134.1,567.4c0,8.1,2,12.2,6.1,12.5c4-0.2,6-4.4,6.1-12.5c-0.1-8-2.2-12.1-6.1-12.5
			C136.1,555.3,134.1,559.4,134.1,567.4z"/>
		<path d="M153.2,567.4c0.2-9.9,3.7-15.2,10.4-15.9c6.5,0.7,9.9,6,10.2,15.9c-0.5,9.9-3.9,15.1-10.2,15.5
			C157,582.5,153.5,577.3,153.2,567.4z M157.5,567.4c0,8.1,2,12.2,6.1,12.5c4-0.2,6-4.4,6.1-12.5c-0.1-8-2.2-12.1-6.1-12.5
			C159.5,555.3,157.5,559.4,157.5,567.4z"/>
		<path d="M193.3,550.2c-3.4,8.4-7.9,14.3-13.5,17.8c-1,0.6-1.9,0.4-2.7-0.5c-0.5-1-0.2-1.9,0.7-2.6c5.2-3.1,9.3-8.5,12.1-16.2
			c0.5-1.1,1.3-1.5,2.6-1.2C193.5,548,193.8,548.9,193.3,550.2z M187,562.8h19.3c2.8,0,4.4,1.4,4.6,4.1c0.2,10-0.7,16.2-2.7,18.4
			c-2.6,2.5-7.3,2.6-14,0.3c-1.1-0.5-1.5-1.3-1.2-2.4c0.3-0.8,1.1-1.1,2.4-0.9c6.1,1.8,9.6,1.8,10.4,0c0.5-0.6,0.8-1.9,1-4.1
			c0.3-2.3,0.6-5.6,0.7-9.9c-0.1-1.5-0.9-2.2-2.4-2.2h-9.4c-0.2,11.2-4.7,18-13.3,20.5c-1.4,0.5-2.4,0.2-3.1-0.7
			c-0.5-1.1,0-2,1.4-2.6c7.4-1.8,11.2-7.6,11.4-17.2h-5c-1.1,0-1.8-0.5-1.9-1.5C185.3,563.5,185.9,562.9,187,562.8z M201,549.8
			c-0.6-1.1-0.3-2,0.7-2.6c1.1-0.3,2,0.1,2.7,1.2c3.2,7.7,7.6,13.3,13.1,16.7c0.9,0.7,1.1,1.5,0.7,2.6c-0.7,0.9-1.5,1.1-2.4,0.5
			C210,565,205.1,558.8,201,549.8z"/>
		<path d="M229.8,571.2c-2,0-3.1-1-3.1-3.1c0.1-1.9,1.1-3,3.1-3.2c1.9,0.2,3,1.3,3.2,3.2C233,570.1,231.9,571.2,229.8,571.2z
			 M229.8,585.7c-2-0.1-3.1-1-3.1-2.7c0.1-1.9,1.1-3,3.1-3.2c2,0.1,3.1,1.2,3.2,3.2C233,584.7,231.9,585.6,229.8,585.7z"/>
		<path d="M272.2,553.6h4.6c1.8,0.1,2.7,1.3,2.6,3.4c-0.7,7.6-2.2,13.9-4.4,18.9c2.8,2.8,4.6,4.7,5.3,5.5c0.6,0.9,0.5,1.6-0.3,2
			c-0.8,0.5-1.5,0.3-2.2-0.3c-0.8-0.6-2.3-2-4.4-4.3c-2.2,2.7-4.3,5-6.3,6.7c-0.9,0.7-1.7,0.7-2.4,0c-0.6-0.8-0.5-1.6,0.3-2.4
			c2-1.8,4-4,6-6.5c-0.2-0.1-0.6-0.5-1.2-1c-3-2.7-4.4-4.3-4.3-4.6c-0.1-0.8,0.2-2.4,0.9-4.8c0.8-3.3,1.5-6.4,2.2-9.4h-2.7
			c-0.9,0-1.4-0.5-1.5-1.5c0.1-1,0.7-1.6,1.7-1.7h3.1c0-0.7,0-1.5,0-2.6c0.1-1.1,0.2-2,0.3-2.7c0.1-0.8,0.7-1.2,1.7-1.2
			c1,0.1,1.5,0.6,1.5,1.4c-0.1,0.6-0.2,1.5-0.2,2.7C272.2,552.4,272.2,553.2,272.2,553.6z M275.3,556.8h-3.4
			c-0.8,3.8-1.7,7.3-2.6,10.6c-0.5,1.4-0.6,2.2-0.5,2.4c0,0.5,0.9,1.5,2.7,3.1c0.5,0.5,0.7,0.7,0.9,0.7c1.7-3.4,3-8.5,3.8-15.4
			C276,557.4,275.7,556.9,275.3,556.8z M295.7,556h7.3c0.8,0.1,1.3,0.7,1.4,1.7c-0.1,0.9-0.6,1.4-1.5,1.4h-6.3
			c1.1,3.5,2.9,6,5.3,7.5c0.3,0.3,0.6-0.9,0.9-3.6c0-0.8,0.5-1.2,1.4-1.2c0.9,0.1,1.4,0.6,1.5,1.4c0,5.1-1.3,7.5-3.9,7
			c-2.8-0.8-5.7-4.5-8.7-11.1h-9.2v6.3c-0.1,0.6-0.1,0.9,0,1c0.1,0.1,0.4,0.1,0.9-0.2c1.6-0.5,3.5-1.4,5.8-2.9
			c1-0.6,1.9-0.5,2.6,0.3c0.5,0.9,0.2,1.7-0.7,2.4c-2.7,1.9-5.4,3.2-8,3.8c-2.6,0.7-3.9-0.5-3.8-3.6V552c-0.2-2,0.7-3,2.7-2.9
			c2.7,0,5.8-0.1,9.2-0.3c3.8-0.2,6.8-0.5,9-0.9c1-0.1,1.7,0.3,2,1.2c0.1,1-0.3,1.7-1.4,1.9c-0.8,0.2-2,0.4-3.6,0.5
			c-1.6,0.1-2.9,0.2-3.9,0.2C295.1,553.6,295.4,555.1,295.7,556z M303.3,574.4v8.7c0,2.4-1.2,3.6-3.6,3.6h-14.5
			c-2.5,0-3.7-1.3-3.6-3.8v-9c-0.2-2.4,0.9-3.5,3.2-3.4h14.3C302,570.4,303.4,571.7,303.3,574.4z M283.8,553.2v2.7h8.5
			c-0.5-1.4-0.7-2.7-0.9-3.9c-1.7,0.1-3.9,0.2-6.7,0.2C284,552.2,283.7,552.6,283.8,553.2z M300,580.2h-15.4v2.2
			c-0.1,0.8,0.5,1.2,1.7,1.2h12.1c1,0,1.5-0.4,1.5-1.2V580.2z M298.3,573.4h-11.9c-1.1,0.1-1.7,0.7-1.7,1.7v2H300v-2
			C300,574,299.4,573.4,298.3,573.4z"/>
		<path d="M320,553.8h2.4c2.8,0,3.6,1.7,2.2,5.1c-1.4,2.7-3,5.1-4.8,7.2v20.3c-0.1,0.9-0.7,1.4-1.7,1.4c-1-0.1-1.5-0.6-1.5-1.5
			v-16.9c-1.7,1.5-3.5,2.9-5.5,4.3c-1.1,0.9-2.1,1-2.9,0.2c-0.5-0.8-0.2-1.7,0.9-2.7c6.1-4.7,10.2-8.9,12.3-12.6
			c0.2-0.7-0.2-1.1-1.2-1.2h-10.1c-1,0-1.5-0.6-1.5-1.7c0.1-1,0.7-1.6,1.7-1.7h8c-0.3,0-0.7-0.3-1-0.9l-2-3.6
			c-0.7-0.9-0.6-1.7,0.2-2.4c0.9-0.5,1.8-0.3,2.6,0.5c1.1,1.9,1.9,3.2,2.2,3.8C320.7,552.4,320.7,553.3,320,553.8z M324.1,566.2
			c0.3,0.5,1,1.2,1.9,2.2c1.3,1.4,2,2.3,2.4,2.7c0.6,1.1,0.5,2-0.3,2.7c-0.9,0.6-1.7,0.3-2.4-0.7c-0.3-0.6-1.4-1.8-3.2-3.8
			c-0.3-0.5-0.6-0.9-0.9-1.2c-0.8-0.8-0.8-1.6,0-2.4C322.4,565.3,323.3,565.4,324.1,566.2z M333.6,548.8v33.1
			c-0.1,0.9,0.5,1.4,1.7,1.4h7.3c1.9,0.3,2.9-1.1,2.9-4.4c0.1-1,0.7-1.6,1.9-1.7c1.1,0.1,1.7,0.7,1.7,1.9c-0.2,3.2-0.7,5.2-1.5,6
			c-0.7,1-2.3,1.5-4.9,1.5H334c-2.7,0.1-4-1.1-3.8-3.6v-34c0-1.1,0.5-1.8,1.5-1.9C332.9,547.2,333.5,547.8,333.6,548.8z"/>
		<path d="M360.9,557.5V586c-0.1,1.1-0.7,1.8-1.9,1.9c-1.1-0.1-1.7-0.7-1.7-1.9v-22.7c-0.5,0.8-1.2,1.9-2.2,3.2
			c-0.1,0.1-0.2,0.3-0.3,0.5c-0.9,1-1.8,1.2-2.6,0.5c-0.8-0.8-0.8-1.7,0-2.7c4-4.7,6.7-10.1,8.2-16.2c0.3-1.1,1-1.6,2-1.4
			c1,0.3,1.4,1.1,1.2,2.2C363,552,362.1,554.7,360.9,557.5z M388.9,549.3c-0.5,12.1-3.5,21.4-9.2,28c3.3,2.8,7.3,5.1,11.9,6.7
			c1,0.5,1.3,1.3,0.9,2.4c-0.5,1-1.2,1.4-2.2,1c-4.9-2.2-9.2-4.7-13-7.7c-3.1,2.7-7,5.4-11.8,8c-1.1,0.6-2,0.4-2.6-0.5
			c-0.3-1,0-1.8,1-2.4c0.2-0.2,0.5-0.5,0.9-0.7c4.2-2.2,7.7-4.4,10.4-6.8c-5.8-7.3-8.8-15.9-8.9-25.8c0-0.9,0.5-1.4,1.5-1.5
			c1,0,1.6,0.5,1.7,1.4c0.6,9.6,3.2,17.3,7.9,23.2c4.8-5.7,7.5-14.1,8-25.3c0-1,0.6-1.6,1.7-1.7
			C388.3,547.7,388.8,548.3,388.9,549.3z M377,549c1.3,4.1,2.2,8.7,2.9,13.7c0,1.4-0.5,2.2-1.4,2.6c-1.1,0.1-1.8-0.5-2-1.9
			c-0.7-4.7-1.7-9.2-2.9-13.5c-0.3-1,0.1-1.8,1.2-2.2C375.8,547.5,376.5,547.9,377,549z"/>
		<path d="M398.5,563.7h17.4c1.3,0.1,1.9,0.7,2,1.7c-0.1,1-0.8,1.5-2,1.5h-7V580c2.8-0.6,5.9-1.4,9-2.6c1-0.2,1.8,0.1,2.2,1
			c0.2,1-0.2,1.7-1.2,2c-4,1.5-10.9,3.2-20.7,5.1c-1.5,0.1-2.4-0.3-2.7-1.2c-0.1-1,0.5-1.6,1.9-1.9c3.3-0.6,6-1.1,8-1.7v-14h-7
			c-1.1,0-1.8-0.5-1.9-1.5C396.7,564.3,397.4,563.8,398.5,563.7z M421.5,553.9h11.9c0.9,0.1,1.4,0.7,1.5,1.7c-0.1,1-0.6,1.5-1.5,1.5
			h-11.6c2.5,15.3,5.3,24,8.5,26.3c0.8,0.3,1.4-2,1.7-7.2c0.1-1,0.7-1.6,1.7-1.7c1,0.2,1.5,0.9,1.5,1.9c-0.5,7.6-2,11.4-4.6,11.3
			c-4.8-0.6-8.9-10.8-12.3-30.6h-20.8c-1.4,0-2-0.5-2-1.5c0-1,0.7-1.6,2-1.7H418c-0.1-0.6-0.3-2.3-0.5-5.3c-0.1-1,0.3-1.6,1.4-1.7
			c1.1,0,1.8,0.5,2,1.5c0,0.3,0,0.7,0,1.2C421.1,551.7,421.3,553.1,421.5,553.9z M425,547.9c0.3,0.2,1,0.5,1.9,0.9
			c1.6,0.5,2.7,0.8,3.4,1c0.9,0.5,1.3,1.1,1,2c-0.5,0.9-1.1,1.1-2,0.7c-1.9-0.7-3.6-1.3-5.1-1.7c-1.1-0.3-1.6-1-1.4-1.9
			C423.1,548.1,423.8,547.7,425,547.9z"/>
		<path d="M85.9,690.5v-26.1h-4.1c-1,0-1.5-0.6-1.5-1.7c0-0.9,0.5-1.4,1.5-1.5h6.8c0.8,0,1.2,0.3,1.2,1v28.3c-0.1,1.1-0.8,1.7-2,1.7
			C86.6,692.2,85.9,691.6,85.9,690.5z"/>
		<path d="M105.7,688.9h11.8c0.9,0.1,1.4,0.6,1.5,1.5c-0.1,1.1-0.6,1.7-1.5,1.7h-15.2c-1.4,0-2-0.5-2-1.5c-0.1-0.3,0.2-0.9,0.9-1.7
			l10.8-14.5c1.4-1.7,2.1-3.5,2.2-5.5c-0.2-3-1.9-4.6-5-4.8c-3.6,0.2-5.5,2.6-5.6,7c-0.1,1.1-0.7,1.7-1.7,1.7
			c-1.3,0.1-1.9-0.7-1.9-2.4c0.5-6,3.8-9.3,9.9-9.7c5,0.5,7.8,3.1,8.4,7.9c0.1,2.5-0.6,4.6-2,6.3L105.7,688.9z"/>
		<path d="M124.3,675.5c0.1-1.3,0.9-2,2.2-2.2c1.3,0.2,2,1,2.2,2.2c-0.2,1.5-1,2.3-2.2,2.4C125.1,677.7,124.4,676.9,124.3,675.5z
			 M124.3,690.1c0.1-1.3,0.9-2,2.2-2.2c1.3,0.2,2,1,2.2,2.2c-0.1,1.4-0.9,2-2.2,2C125,692.2,124.3,691.5,124.3,690.1z"/>
		<path d="M139.1,690.5v-26.1H135c-1,0-1.5-0.6-1.5-1.7c0-0.9,0.5-1.4,1.5-1.5h6.8c0.8,0,1.2,0.3,1.2,1v28.3c-0.1,1.1-0.8,1.7-2,1.7
			C139.7,692.2,139.1,691.6,139.1,690.5z"/>
		<path d="M155.4,668c0.2-4.3,2.9-6.7,8-7.2c4.9,0.5,7.5,2.8,7.9,7.2c0,3.1-1.4,5.4-4.1,6.8c3.5,1,5.4,3.6,5.6,7.9
			c-0.5,6.1-3.6,9.3-9.4,9.6c-6-0.1-9.2-3.3-9.6-9.6c0.1-4.1,2-6.7,5.6-7.9C156.7,673.3,155.3,671,155.4,668z M158,682.8
			c0.1,4,1.9,6.1,5.5,6.3c3.3-0.2,5.1-2.3,5.3-6.3c-0.2-3.9-2-5.9-5.3-6.1C160,676.9,158.2,678.9,158,682.8z M159,668.6
			c0,3.1,1.5,4.6,4.4,4.6c2.7,0,4.2-1.5,4.3-4.6c-0.2-2.7-1.7-4.2-4.3-4.4C160.6,664.3,159.1,665.8,159,668.6z"/>
		<path d="M193.2,659.4c-3.4,8.4-7.9,14.3-13.5,17.8c-1,0.6-1.9,0.4-2.7-0.5c-0.5-1-0.2-1.9,0.7-2.6c5.2-3.1,9.3-8.5,12.1-16.2
			c0.5-1.1,1.3-1.5,2.6-1.2C193.3,657.3,193.6,658.2,193.2,659.4z M186.8,672h19.3c2.8,0,4.4,1.4,4.6,4.1c0.2,10-0.7,16.2-2.7,18.4
			c-2.6,2.5-7.3,2.6-14,0.3c-1.1-0.5-1.5-1.3-1.2-2.4c0.3-0.8,1.1-1.1,2.4-0.9c6.1,1.8,9.6,1.8,10.4,0c0.5-0.6,0.8-1.9,1-4.1
			c0.3-2.3,0.6-5.6,0.7-9.9c-0.1-1.5-0.9-2.2-2.4-2.2h-9.4c-0.2,11.2-4.7,18-13.3,20.5c-1.4,0.5-2.4,0.2-3.1-0.7
			c-0.5-1.1,0-2,1.4-2.6c7.4-1.8,11.2-7.6,11.4-17.2h-5c-1.1,0-1.8-0.5-1.9-1.5C185.1,672.8,185.7,672.2,186.8,672z M200.8,659.1
			c-0.6-1.1-0.3-2,0.7-2.6c1.1-0.3,2,0.1,2.7,1.2c3.2,7.7,7.6,13.3,13.1,16.7c0.9,0.7,1.1,1.5,0.7,2.6c-0.7,0.9-1.5,1.1-2.4,0.5
			C209.9,674.2,204.9,668.1,200.8,659.1z"/>
		<path d="M229.7,680.4c-2,0-3.1-1-3.1-3.1c0.1-1.9,1.1-3,3.1-3.2c1.9,0.2,3,1.3,3.2,3.2C232.8,679.4,231.7,680.4,229.7,680.4z
			 M229.7,694.9c-2-0.1-3.1-1-3.1-2.7c0.1-1.9,1.1-3,3.1-3.2c2,0.1,3.1,1.2,3.2,3.2C232.8,693.9,231.7,694.8,229.7,694.9z"/>
		<path d="M272,662.8h4.6c1.8,0.1,2.7,1.3,2.6,3.4c-0.7,7.6-2.2,13.9-4.4,18.9c2.8,2.8,4.6,4.7,5.3,5.5c0.6,0.9,0.5,1.6-0.3,2
			c-0.8,0.5-1.5,0.3-2.2-0.3c-0.8-0.6-2.3-2-4.4-4.3c-2.2,2.7-4.3,5-6.3,6.7c-0.9,0.7-1.7,0.7-2.4,0c-0.6-0.8-0.5-1.6,0.3-2.4
			c2-1.8,4-4,6-6.5c-0.2-0.1-0.6-0.5-1.2-1c-3-2.7-4.4-4.3-4.3-4.6c-0.1-0.8,0.2-2.4,0.9-4.8c0.8-3.3,1.5-6.4,2.2-9.4h-2.7
			c-0.9,0-1.4-0.5-1.5-1.5c0.1-1,0.7-1.6,1.7-1.7h3.1c0-0.7,0-1.5,0-2.6c0.1-1.1,0.2-2,0.3-2.7c0.1-0.8,0.7-1.2,1.7-1.2
			c1,0.1,1.5,0.6,1.5,1.4c-0.1,0.6-0.2,1.5-0.2,2.7C272.1,661.7,272,662.5,272,662.8z M275.1,666.1h-3.4c-0.8,3.8-1.7,7.3-2.6,10.6
			c-0.5,1.4-0.6,2.2-0.5,2.4c0,0.5,0.9,1.5,2.7,3.1c0.5,0.5,0.7,0.7,0.9,0.7c1.7-3.4,3-8.5,3.8-15.4
			C275.8,666.6,275.6,666.2,275.1,666.1z M295.6,665.2h7.3c0.8,0.1,1.3,0.7,1.4,1.7c-0.1,0.9-0.6,1.4-1.5,1.4h-6.3
			c1.1,3.5,2.9,6,5.3,7.5c0.3,0.3,0.6-0.9,0.9-3.6c0-0.8,0.5-1.2,1.4-1.2c0.9,0.1,1.4,0.6,1.5,1.4c0,5.1-1.3,7.5-3.9,7
			c-2.8-0.8-5.7-4.5-8.7-11.1h-9.2v6.3c-0.1,0.6-0.1,0.9,0,1c0.1,0.1,0.4,0.1,0.9-0.2c1.6-0.5,3.5-1.4,5.8-2.9
			c1-0.6,1.9-0.5,2.6,0.3c0.5,0.9,0.2,1.7-0.7,2.4c-2.7,1.9-5.4,3.2-8,3.8c-2.6,0.7-3.9-0.5-3.8-3.6v-14.2c-0.2-2,0.7-3,2.7-2.9
			c2.7,0,5.8-0.1,9.2-0.3c3.8-0.2,6.8-0.5,9-0.9c1-0.1,1.7,0.3,2,1.2c0.1,1-0.3,1.7-1.4,1.9c-0.8,0.2-2,0.4-3.6,0.5
			c-1.6,0.1-2.9,0.2-3.9,0.2C294.9,662.9,295.2,664.3,295.6,665.2z M303.1,683.7v8.7c0,2.4-1.2,3.6-3.6,3.6H285
			c-2.5,0-3.7-1.3-3.6-3.8v-9c-0.2-2.4,0.9-3.5,3.2-3.4H299C301.8,679.6,303.2,680.9,303.1,683.7z M283.6,662.5v2.7h8.5
			c-0.5-1.4-0.7-2.7-0.9-3.9c-1.7,0.1-3.9,0.2-6.7,0.2C283.9,661.5,283.5,661.8,283.6,662.5z M299.9,689.5h-15.4v2.2
			c-0.1,0.8,0.5,1.2,1.7,1.2h12.1c1,0,1.5-0.4,1.5-1.2V689.5z M298.1,682.6h-11.9c-1.1,0.1-1.7,0.7-1.7,1.7v2h15.4v-2
			C299.9,683.2,299.3,682.6,298.1,682.6z"/>
		<path d="M341.3,667.6v7.5c0,1.9-0.9,2.8-2.6,2.7H328c-0.3,0.5-0.7,1-1,1.5c-0.3,0.6-0.6,1-0.9,1.4h21.2c0.8,0.1,1.3,0.6,1.4,1.5
			c-0.1,1-0.6,1.5-1.4,1.5h-6.7c-1.7,3.4-3.5,5.8-5.3,7.2c4.7,0.8,8.9,1.6,12.6,2.6c0.9,0.2,1.3,0.9,1,1.9c-0.3,0.9-1,1.3-1.9,1.2
			c-4.7-1.1-9.6-2.2-14.9-3.2c-3.4,1.3-6.8,2.2-10.2,2.7c-3.4,0.5-7.6,0.6-12.5,0.5c-1-0.2-1.5-0.8-1.4-1.7c0.1-0.9,0.7-1.4,1.7-1.4
			c4.7,0,8.3-0.1,10.8-0.3c2.7-0.3,5-0.7,6.7-1c-4.6-0.7-8.4-1.5-11.4-2.4c-0.7-0.1-1-0.3-1-0.7c0-0.2,0.3-0.7,1-1.4
			c0.8-0.9,2-2.2,3.8-3.9h-11.1c-1,0-1.5-0.5-1.5-1.5c0-0.9,0.5-1.4,1.5-1.5h13.7c0.3-0.5,0.9-1.3,1.5-2.4c0,0.1,0.1-0.1,0.3-0.5
			h-6.1c-2.4,0.1-3.5-0.7-3.4-2.6v-7.9c-0.1-1.5,0.8-2.2,2.7-2.2h20.8C340.5,665.1,341.6,665.9,341.3,667.6z M343.7,663h-30.9
			c-1,0-1.5,0.5-1.5,1.5h0.2v3.4c-0.1,0.9-0.6,1.4-1.5,1.5c-1-0.1-1.5-0.6-1.5-1.5v-4.8c0.1-2,1.4-3.1,3.8-3.2H326
			c-0.3-0.7-0.7-1.3-1-1.9c-0.7-1-0.6-1.8,0.3-2.4c1-0.6,1.9-0.3,2.6,0.7c0.2,0.3,0.9,1.5,2,3.6h14.5c2.5,0.1,3.8,1.4,3.9,3.8
			c-0.1,0.9-0.3,2-0.7,3.2c-0.1,0.3-0.2,0.7-0.2,1c-0.5,1.1-1.2,1.7-2.2,1.5c-1-0.3-1.4-1.1-1-2.2C345.1,664.4,345,663,343.7,663z
			 M317.3,670.2h21.3v-1.4c0-0.7-0.3-1-1-1h-19.3c-0.9,0-1.3,0.3-1,0.9V670.2z M317.3,672.7v1.7c-0.1,0.7,0.3,1,1.2,0.9h19.1
			c0.7,0.1,1-0.3,1-1.2v-1.4H317.3z M336.6,683.8h-12.8c-1.4,1.6-2.4,2.7-3.1,3.4c-0.5,0.5-0.7,0.7-0.7,0.9c0,0.1,0.3,0.2,0.9,0.2
			c2.3,0.3,5.7,1,10.2,1.9C333.7,688.3,335.5,686.2,336.6,683.8z"/>
		<path d="M355,659.1h34.3c1,0.1,1.5,0.7,1.5,1.7c0,1.1-0.5,1.7-1.5,1.7H375v11.4h14c0.9,0.1,1.4,0.7,1.5,1.7
			c-0.1,1.1-0.6,1.7-1.5,1.7h-14v14h16c0.9,0.1,1.4,0.6,1.5,1.5c-0.1,1-0.6,1.6-1.5,1.7h-37.6c-1.1-0.1-1.8-0.7-1.9-1.7
			c0.1-0.9,0.7-1.4,1.9-1.5h4.3v-21.8c0-1,0.6-1.6,1.7-1.7c1.1,0.1,1.8,0.7,1.9,1.7v21.8h10.1v-28.8H355c-1.1,0-1.7-0.6-1.7-1.7
			C353.3,659.8,353.8,659.2,355,659.1z"/>
		<path d="M398.3,672.9h17.4c1.3,0.1,1.9,0.7,2,1.7c-0.1,1-0.8,1.5-2,1.5h-7v13.1c2.8-0.6,5.9-1.4,9-2.6c1-0.2,1.8,0.1,2.2,1
			c0.2,1-0.2,1.7-1.2,2c-4,1.5-10.9,3.2-20.7,5.1c-1.5,0.1-2.4-0.3-2.7-1.2c-0.1-1,0.5-1.6,1.9-1.9c3.3-0.6,6-1.1,8-1.7v-14h-7
			c-1.1,0-1.8-0.5-1.9-1.5C396.6,673.6,397.2,673,398.3,672.9z M421.4,663.2h11.9c0.9,0.1,1.4,0.7,1.5,1.7c-0.1,1-0.6,1.5-1.5,1.5
			h-11.6c2.5,15.3,5.3,24,8.5,26.3c0.8,0.3,1.4-2,1.7-7.2c0.1-1,0.7-1.6,1.7-1.7c1,0.2,1.5,0.9,1.5,1.9c-0.5,7.6-2,11.4-4.6,11.3
			c-4.8-0.6-8.9-10.8-12.3-30.6h-20.8c-1.4,0-2-0.5-2-1.5c0-1,0.7-1.6,2-1.7h20.3c-0.1-0.6-0.3-2.3-0.5-5.3c-0.1-1,0.3-1.6,1.4-1.7
			c1.1,0,1.8,0.5,2,1.5c0,0.3,0,0.7,0,1.2C420.9,661,421.2,662.4,421.4,663.2z M424.8,657.2c0.3,0.2,1,0.5,1.9,0.9
			c1.6,0.5,2.7,0.8,3.4,1c0.9,0.5,1.3,1.1,1,2c-0.5,0.9-1.1,1.1-2,0.7c-1.9-0.7-3.6-1.3-5.1-1.7c-1.1-0.3-1.6-1-1.4-1.9
			C422.9,657.3,423.7,657,424.8,657.2z"/>
		<path d="M442.6,658.1h34.8c1.1,0.1,1.8,0.7,2,1.7c-0.1,1.1-0.7,1.7-1.9,1.7h-6v11.4h7.5c0.9,0.1,1.4,0.7,1.5,1.7
			c-0.1,1.1-0.6,1.7-1.4,1.7h-7.7v18.8c-0.1,1.3-0.7,1.9-1.9,2c-1.1-0.1-1.7-0.8-1.7-2v-18.8h-15c-0.7,9.3-4,15.9-10.1,19.8
			c-1.4,0.8-2.4,0.8-3.2,0c-0.7-1.1-0.4-2.2,0.9-3.1c5.2-3.1,8.1-8.6,8.7-16.7h-8.4c-1.1,0-1.7-0.6-1.7-1.7c0-1,0.6-1.6,1.7-1.7h8.5
			c0-2.6,0.1-6.4,0.3-11.4h-7c-1.3,0-2-0.5-2.2-1.5C440.6,658.8,441.3,658.2,442.6,658.1z M453.5,661.5l-0.3,11.4H468v-11.4H453.5z"
			/>
		<path d="M491.9,662.1h4.3c1.9,0.1,2.8,1.5,2.6,4.3c-0.8,7.6-2.3,14.1-4.4,19.3c0.9,1,1.8,2,2.7,3.1c0.5,0.6,0.9,1,1.2,1.2
			c0.6,0.9,0.5,1.7-0.2,2.2c-0.9,0.6-1.7,0.6-2.4,0c-0.8-0.8-1.8-1.8-2.9-3.1c-2,2.7-4.4,5.2-7,7.5c-0.8,0.3-1.5,0-2.2-1
			c-0.6-0.9-0.5-1.7,0.3-2.2c2.6-2.2,4.7-4.4,6.3-6.8c-1.1-1.1-2.2-2.1-3.1-2.9c-2-1.8-3-3-2.7-3.6c0-0.5,0.2-1.4,0.7-2.9
			c1.1-3.4,2.1-7.2,2.9-11.4h-2.9c-1.9-1.1-1.9-2.3,0-3.6h3.2c0.1-1,0.2-2.5,0.3-4.4c0-1,0.6-1.6,1.7-1.7c1.1,0.1,1.8,0.7,1.9,1.9
			C492.1,659.8,492,661.2,491.9,662.1z M493.9,665.7h-2.6c-0.8,4.7-1.8,8.7-3.1,11.9c-0.3,1-0.5,1.7-0.5,1.9c0,0.5,0.5,1,1.4,1.7
			c0.7,0.5,1.5,1.1,2.6,2c1.7-4.3,2.9-9.5,3.6-15.5C495.5,666.3,495.1,665.6,493.9,665.7z M499.4,669.3c2.7-3.1,5.1-7.1,7-12.1
			c0.3-1,1.1-1.4,2.2-1c0.9,0.6,1.2,1.4,0.9,2.4c-1.9,4.3-4,8-6.3,11.1c6,0,11-0.2,14.9-0.7c-1-2-2.2-4.1-3.4-6.1
			c-0.7-0.9-0.6-1.6,0.3-2.2c0.9-0.5,1.7-0.3,2.4,0.5c2.4,4.1,4.6,8.3,6.5,12.5c0.3,1,0.1,1.8-0.7,2.2c-0.9,0.3-1.6,0.1-2-0.9
			c-0.1-0.1-0.3-0.5-0.7-1.2c-0.5-0.9-0.7-1.5-0.9-1.9c-4.9,0.6-11.2,0.9-18.8,0.9c-1.1,0-1.9-0.3-2.2-1
			C498.3,671.1,498.6,670.3,499.4,669.3z M503.8,677h14.5c2.2,0.1,3.3,1.6,3.4,4.4v10.8c0.1,2.6-1.1,3.9-3.6,3.8h-14.3
			c-2.4,0.2-3.5-1.2-3.2-4.3v-11.1C500.6,678.3,501.7,677.1,503.8,677z M503.8,683v7.3c-0.1,1.4,0.5,2,1.7,2h11.3
			c1.1,0,1.7-0.6,1.7-1.9v-7.7c0-1.6-0.6-2.3-1.7-2.2h-11.1C504.4,680.5,503.7,681.3,503.8,683z"/>
	</g>
</g>
</svg>
