<?xml version="1.0" encoding="utf-8"?>
<!-- Generator: Adobe Illustrator 21.1.0, SVG Export Plug-In . SVG Version: 6.00 Build 0)  -->
<svg version="1.1" id="图层_1" xmlns="http://www.w3.org/2000/svg" xmlns:xlink="http://www.w3.org/1999/xlink" x="0px" y="0px"
	 viewBox="0 0 700 400" enable-background="new 0 0 700 400" xml:space="preserve">
<g>
	<path d="M224.2,46.6c0.1,1,0.3,2.2,0.5,3.5c-1.7,1.2-3.2,2.5-4.6,4l-1.8-2.3c0.4-0.5,0.7-1.2,0.7-2.1v-8.7h-2.1v-3.3h5.2v10.5
		C222.6,47.8,223.3,47.2,224.2,46.6z M220.1,29.7c1.2,1.5,2.3,3.1,3.3,4.7c-0.9,0.5-2,1.1-3,1.8c-0.9-1.7-2-3.3-3-4.8L220.1,29.7z
		 M240.6,47.2h-6.2v1.1h5.8v2h-5.8v1.1h7.6v2.4h-18.6v-2.4h7.6v-1.1h-5.7v-2h5.7v-1.1h-6.2v-2.1h6.2v-1h-6.6v-5.8h6.6v-1h-4.1v-3.5
		h-3.2v-2.4h3.2v-1.7h3.3v1.7h5v-1.7h3.3v1.7h3.2v2.4h-3.2v3.5h-4.1v1h6.6v5.8h-6.6v1h6.2V47.2z M227.7,42.1h3.3v-1.7h-3.3V42.1z
		 M235.2,35.2v-1.4h-5v1.4H235.2z M237.8,40.3h-3.3v1.7h3.3V40.3z"/>
	<path d="M266,44.1v3.1h-8.5v3.4c2.8,0.1,6.2,0,10.4-0.1c-0.5,1.4-0.8,2.5-1.1,3.4c-6,0-10.4-0.1-13.1-0.3c-2.7-0.2-4.6-1.3-5.8-3.4
		c-0.9,1.7-1.9,3.2-3.1,4.4c-0.8-1.1-1.5-2.1-2.1-2.9c2.1-2.1,3.5-5.2,4.1-9.1l3.4,0.4c-0.2,1.3-0.5,2.5-0.8,3.6
		c0.9,2.2,2.4,3.5,4.5,3.8v-9.1h-10.5v-3.1h23.9v3.1h-9.8v2.7H266z M252.8,30.4l3.9-0.9c0.3,0.9,0.7,1.8,1.1,2.9h9.1v5h-3.5v-1.9
		h-16.1v1.9h-3.5v-5h9.8L252.8,30.4z"/>
	<path d="M269,39.6h10.7v-5h-8.8V31h21v3.6h-8.3v5h10.1v3.6h-10.1v5.5c0,1.7-0.3,3-1,3.8c-0.7,0.8-1.7,1.3-3,1.3
		c-1.3,0-3.1,0-5.3,0.1c-0.2-1.3-0.5-2.5-0.9-3.9c1.5,0.2,2.9,0.2,4.3,0.2c1.4,0,2.1-0.7,2.1-2.1v-5H269V39.6z"/>
	<path d="M307.2,36.9c0.6,0,1.2,0.2,1.6,0.6s0.7,0.9,0.7,1.5c0,0.6-0.2,1.1-0.7,1.5c-0.4,0.4-1,0.6-1.7,0.6c-0.7,0-1.2-0.2-1.6-0.6
		c-0.4-0.4-0.7-0.9-0.7-1.5c0-0.6,0.2-1.1,0.7-1.5S306.5,36.9,307.2,36.9z M307.2,47.3c0.6,0,1.2,0.2,1.6,0.6s0.7,0.9,0.7,1.5
		c0,0.6-0.2,1.1-0.7,1.5s-1,0.6-1.6,0.6s-1.2-0.2-1.6-0.6s-0.7-0.9-0.7-1.5c0-0.6,0.2-1.1,0.7-1.5S306.5,47.3,307.2,47.3z"/>
	<path d="M239.8,60.8c-1.2,0.9-2.5,2.4-3.8,4.4s-2,4.5-2,7.6c0,4.8,1.9,9.1,5.6,12.8H231V60.8H239.8z"/>
	<path d="M242.7,72.7c3.8-3.1,6.6-6.7,8.4-10.9l2,0.8c-2.3,4.7-5.2,8.6-8.8,11.7C243.8,73.8,243.3,73.2,242.7,72.7z M259.2,75.8
		c2.4,3.2,4.5,6,6.2,8.6l-1.9,1.3c-0.5-0.8-1-1.6-1.5-2.4c-5.6,0.3-10.1,0.5-13.6,0.8c-0.6,0.1-1.4,0.2-2.3,0.4l-1.1-2.2
		c0.8-0.3,1.5-0.8,2.1-1.4c2-2.3,4.1-5.6,6.4-10.1l2.2,1c-2.1,3.6-4.3,7-6.7,10.1c3.5-0.1,7.4-0.3,11.8-0.5c-1-1.5-2-3-3.2-4.6
		L259.2,75.8z M257,62.2l1.9-0.7c1.6,4.4,4.7,7.9,9.1,10.5c-0.5,0.5-1,1.1-1.6,2C261.8,70.7,258.6,66.8,257,62.2z"/>
	<path d="M273.7,71.1c0,3.7-0.3,6.6-0.7,8.6c-0.5,2.1-1.4,4.1-2.8,6c-0.4-0.6-0.9-1.1-1.5-1.7c1.1-1.7,1.9-3.3,2.3-5
		c0.4-1.6,0.6-4.1,0.6-7.4v-9.2h22.1v2h-19.9V71.1z M275.1,69.8h5.5c0-1.5,0.1-3.1,0.1-4.6h2.1c0,1.5,0,3.1-0.1,4.6h9.1
		c-0.2,4.5-0.4,8.2-0.6,11.1c-0.3,2.6-1.6,3.9-3.9,4c-1.3,0-2.8,0-4.5-0.1c-0.1-0.6-0.2-1.4-0.4-2.3c1.7,0.2,3.1,0.3,4.4,0.3
		c1.4,0,2.1-0.8,2.3-2.3c0.2-2.4,0.3-5.3,0.5-8.7h-7c-0.1,3.4-0.7,6-1.6,7.8c-1.2,2.3-3.4,4.4-6.6,6.2c-0.5-0.6-1-1.1-1.5-1.7
		c3.1-1.9,5.1-3.8,6.1-5.5c0.9-1.6,1.4-3.8,1.5-6.7h-5.4V69.8z"/>
	<path d="M296.8,60.8h8.8v24.8H297c1.2-1.2,2.2-2.5,3.1-4c0.9-1.5,1.5-2.8,1.9-4.2c0.4-1.3,0.6-2.9,0.6-4.6c0-3.1-0.7-5.7-2-7.7
		C299.3,63.2,298,61.7,296.8,60.8z"/>
	<path d="M331,67.8c0-1.1-0.3-1.9-1-2.5c-0.7-0.6-1.6-0.9-2.7-0.9c-0.8,0-1.6,0.2-2.5,0.6c-0.8,0.4-1.6,1-2.3,1.8v-2.4
		c0.6-0.7,1.4-1.2,2.2-1.5s1.8-0.5,2.9-0.5c1.8,0,3.2,0.5,4.3,1.4c1.1,0.9,1.6,2.2,1.6,3.9c0,1.4-0.3,2.7-1,3.7
		c-0.7,1.1-1.8,2.1-3.4,3.2c-1.6,1.1-2.7,1.9-3.3,2.4c-0.6,0.5-0.9,1-1.2,1.4c-0.2,0.4-0.3,1-0.3,1.6h9.8v2.2h-12.3v-1
		c0-1.1,0.2-2.1,0.5-2.9s0.8-1.6,1.5-2.3s1.8-1.6,3.3-2.7c1.5-1.1,2.6-2,3.1-2.8C330.7,69.8,331,68.8,331,67.8z"/>
	<path d="M336.5,72.9c0-3.5,0.6-6.1,1.7-7.9s2.8-2.7,5-2.7c4.2,0,6.2,3.4,6.2,10.1c0,3.3-0.6,5.8-1.8,7.6c-1.2,1.8-2.8,2.6-4.9,2.6
		c-2,0-3.5-0.8-4.6-2.5C337.1,78.4,336.5,76,336.5,72.9z M339.1,72.7c0,5.2,1.3,7.8,4,7.8c2.6,0,3.9-2.6,3.9-7.9
		c0-5.5-1.3-8.2-3.8-8.2C340.4,64.4,339.1,67.2,339.1,72.7z"/>
	<path d="M357.8,82.3V65.5c-0.4,0.4-1,0.8-2,1.3c-0.9,0.5-1.8,0.8-2.6,1v-2.4c1-0.3,2.1-0.7,3.3-1.4s2.1-1.2,2.7-1.8h0.9v20H357.8z"
		/>
	<path d="M379.7,64.2c-2.1,3.6-3.7,6.9-4.9,10c-1.2,3.1-1.9,5.8-2.2,8.1h-2.6c0.3-2.3,1.1-4.9,2.2-7.9c1.2-3,2.7-6.1,4.7-9.5h-9.7
		v-2.2h12.5V64.2z"/>
	<path d="M381.5,77.1h4.1v-7.2h9v-4.5h-7.4c-1.1,2.1-2.4,3.9-3.8,5.7c-0.4-0.5-1-0.9-1.6-1.4c2.4-2.7,4.2-5.7,5.4-9.1l2.1,0.6
		c-0.4,0.8-0.7,1.6-1.1,2.4h17.4v1.8h-8.9v4.5h8.5v1.8h-8.5v5.5h10v1.8h-10v6.8h-2.1v-6.8h-13V77.1z M387.6,77.1h7v-5.5h-7V77.1z"/>
	<path d="M421.9,82.3V65.5c-0.4,0.4-1,0.8-2,1.3c-0.9,0.5-1.8,0.8-2.6,1v-2.4c1-0.3,2.1-0.7,3.3-1.4s2.1-1.2,2.7-1.8h0.9v20H421.9z"
		/>
	<path d="M431,72.9c0-3.5,0.6-6.1,1.7-7.9s2.8-2.7,5-2.7c4.2,0,6.2,3.4,6.2,10.1c0,3.3-0.6,5.8-1.8,7.6c-1.2,1.8-2.8,2.6-4.9,2.6
		c-2,0-3.5-0.8-4.6-2.5C431.5,78.4,431,76,431,72.9z M433.5,72.7c0,5.2,1.3,7.8,4,7.8c2.6,0,3.9-2.6,3.9-7.9c0-5.5-1.3-8.2-3.8-8.2
		C434.9,64.4,433.5,67.2,433.5,72.7z"/>
	<path d="M451.6,77.1c-0.4,3.3-1.7,6.2-3.8,8.8c-0.5-0.5-1.1-1-1.7-1.5c1.6-1.8,2.7-3.9,3.3-6.3c0.4-1.8,0.6-4.3,0.6-7.5v-8.8h16.9
		v19.8c0,2.5-1.2,3.7-3.6,3.7c-1,0-2.3,0-3.8-0.1c-0.1-0.6-0.2-1.3-0.4-2.1c1.6,0.1,2.8,0.2,3.7,0.2c1.4,0,2.1-0.7,2.1-2v-4.2H451.6
		z M451.8,75.2h13v-4.9h-12.8C451.9,72,451.9,73.7,451.8,75.2z M451.9,63.7v4.8h12.8v-4.8H451.9z"/>
	<path d="M492,76.2c0,1.9-0.6,3.5-1.9,4.6c-1.3,1.2-3,1.8-5.1,1.8c-1.8,0-3.2-0.3-4.1-0.8v-2.5c1.3,0.9,2.7,1.3,4.1,1.3
		c1.4,0,2.5-0.4,3.3-1.1c0.8-0.8,1.3-1.8,1.3-3c0-1.2-0.4-2.2-1.3-2.9c-0.9-0.7-2.1-1-3.7-1c-1.2,0-2.3,0.1-3.3,0.2l0.7-10h9.2v2.2
		H484l-0.4,5.6l1.8-0.1c2.1,0,3.7,0.5,4.9,1.6C491.4,72.9,492,74.4,492,76.2z"/>
	<path d="M497.8,62.4h18.1v23h-2.2v-1.8H500v1.8h-2.2V62.4z M500,64.3v7.6h13.8v-7.6H500z M500,73.8v8h13.8v-8H500z"/>
	<path d="M528.6,82.8h11.5v-2.5h-8.3v-1.8h8.3v-2.3h-7.4c-1,1.4-2.1,2.8-3.2,4c-0.4-0.5-0.9-1-1.5-1.5c1.9-1.9,3.6-4.2,4.8-6.7
		l1.9,0.8c-0.3,0.6-0.6,1.1-0.9,1.6h6.2v-2.3h2v2.3h9.5v1.8h-9.5v2.3h8.8v1.8h-8.8v2.5h10.7v1.8h-24.2V82.8z M531.1,61.8h19v10.6
		h-1.9v-0.9h-17.1V61.8z M548.3,63.6h-15.2v2.2h15.2V63.6z M533.1,69.8h15.2v-2.3h-15.2V69.8z"/>
	<path d="M558.2,79.9l1.5,1.2c-1.7,1.8-3.3,3.4-4.7,4.6c-0.4-0.4-0.8-0.9-1.3-1.3C555.3,83,556.8,81.5,558.2,79.9z M553.9,77.7h2.4
		V65.9h-2.1v-1.7h2.1v-3.1h1.9v3.1h5.3V61h1.9v3.2h2.1v1.7h-2.1v11.7h2v1.7h-13.4V77.7z M558.2,68.8h5.3v-2.8h-5.3V68.8z
		 M558.2,73.2h5.3v-2.8h-5.3V73.2z M558.2,77.7h5.3v-2.8h-5.3V77.7z M561.5,81l1.2-1.2c1.2,0.9,2.3,1.8,3.3,2.7l-1.3,1.4
		C563.8,83,562.7,82,561.5,81z M568.7,61.7h9v20.5c0,2-0.9,3-2.8,3c-0.9,0-1.9,0-2.8-0.1c-0.1-0.6-0.2-1.2-0.3-2
		c1.2,0.1,2.1,0.2,2.7,0.2c0.9,0,1.4-0.5,1.4-1.4v-5.3h-5.4c-0.2,3.7-1.3,6.8-3.4,9.2c-0.5-0.5-1-0.9-1.5-1.4
		c1.4-1.6,2.2-3.2,2.6-4.9c0.4-1.6,0.6-4.4,0.6-8.5V61.7z M570.5,75h5.3v-5h-5.2C570.6,72.3,570.6,73.9,570.5,75z M575.8,63.5h-5.2
		v4.9h5.2V63.5z"/>
	<path d="M581.7,62.6h21.8v22.9h-2.1V84h-17.6v1.5h-2.1V62.6z M598.1,75.2c0.8,0,1.8,0,3-0.1l-0.4,2.1h-2.9c-2.2,0-3.4-1-3.4-3.1
		v-9.5h-3.6c0,4.8-0.3,7.9-0.8,9.4c-0.6,1.9-2,3.6-4.5,5.2c-0.4-0.5-1-1.1-1.6-1.6c2.3-1.4,3.6-2.8,4.1-4.4c0.4-1.1,0.7-3.9,0.7-8.5
		h-4.9V82h17.6V64.6h-4.9v9.3C596.5,74.8,597,75.2,598.1,75.2z"/>
	<path d="M239.8,91.9c-1.2,0.9-2.5,2.4-3.8,4.4s-2,4.5-2,7.6c0,4.8,1.9,9.1,5.6,12.8H231V91.9H239.8z"/>
	<path d="M242.5,109.8c4.9-3.3,8.5-7.5,10.7-12.6h-7v3.7h-1.9v-5.5h9.7c0.4-1.1,0.8-2.2,1-3.4l2.1,0.2c-0.3,1.1-0.6,2.2-1,3.2h10.7
		v4.8h-1.9v-3h-9.4c0,0.1-0.1,0.2-0.1,0.3c0.7,3.1,1.8,5.7,3.2,8c1.7-1,3.7-2.3,5.9-3.9l1.3,1.7c-1.9,1.2-3.9,2.5-6,3.7
		c2.1,2.6,4.8,4.6,8.2,6c-0.6,0.6-1.1,1.2-1.6,1.9c-6.1-2.9-10.1-7.9-12.2-14.9c-0.9,1.7-1.9,3.2-3,4.7v8.8c1.8-0.8,4-1.8,6.5-3
		c0,0.7,0.1,1.4,0.2,2.1c-2.6,1.2-4.8,2.2-6.7,3.1c-0.6,0.3-1.2,0.7-1.8,1.1l-1.1-1.9c0.7-0.5,1-1.2,1-2.2V107
		c-1.7,1.8-3.5,3.3-5.6,4.8C243.3,111.1,242.9,110.5,242.5,109.8z"/>
	<path d="M273.7,102.2c0,3.7-0.3,6.6-0.7,8.6c-0.5,2.1-1.4,4.1-2.8,6c-0.4-0.6-0.9-1.1-1.5-1.7c1.1-1.7,1.9-3.3,2.3-5
		c0.4-1.6,0.6-4.1,0.6-7.4v-9.2h22.1v2h-19.9V102.2z M275.1,100.9h5.5c0-1.5,0.1-3.1,0.1-4.6h2.1c0,1.5,0,3.1-0.1,4.6h9.1
		c-0.2,4.5-0.4,8.2-0.6,11.1c-0.3,2.6-1.6,3.9-3.9,4c-1.3,0-2.8,0-4.5-0.1c-0.1-0.6-0.2-1.4-0.4-2.3c1.7,0.2,3.1,0.3,4.4,0.3
		c1.4,0,2.1-0.8,2.3-2.3c0.2-2.4,0.3-5.3,0.5-8.7h-7c-0.1,3.4-0.7,6-1.6,7.8c-1.2,2.3-3.4,4.4-6.6,6.2c-0.5-0.6-1-1.1-1.5-1.7
		c3.1-1.9,5.1-3.8,6.1-5.5c0.9-1.6,1.4-3.8,1.5-6.7h-5.4V100.9z"/>
	<path d="M296.8,91.9h8.8v24.8H297c1.2-1.2,2.2-2.5,3.1-4c0.9-1.5,1.5-2.8,1.9-4.2c0.4-1.3,0.6-2.9,0.6-4.6c0-3.1-0.7-5.7-2-7.7
		C299.3,94.3,298,92.9,296.8,91.9z"/>
	<path d="M320.9,94h24.4v2h-10v16.5c0,2.5-1.3,3.7-3.9,3.7c-1.2,0-2.8,0-4.9-0.1c-0.1-0.7-0.2-1.5-0.4-2.5c1.5,0.1,3,0.2,4.6,0.2
		c1.6,0.1,2.3-0.7,2.3-2.3V96h-12.2V94z"/>
	<path d="M348.9,98.4h6.3v-3.2h-8.4v-1.8h24.7v1.8h-8.8v3.2h6.5v18.3h-1.9V115h-16.5v1.8h-1.9V98.4z M350.8,108.7h16.5v-2.5h-3.9
		c-1.7,0-2.6-1-2.6-2.9v-3.1H357c-0.3,3-1.8,5.5-4.6,7.4c-0.4-0.6-0.9-1.1-1.4-1.6c2.4-1.4,3.7-3.3,4.1-5.8h-4.3V108.7z
		 M350.8,113.2h16.5v-2.8h-16.5V113.2z M357.1,98.4h3.8v-3.2h-3.8V98.4z M367.3,100.2h-4.6v2.9c0,0.9,0.4,1.3,1.1,1.3h3.5V100.2z"/>
	<path d="M372.5,108.2h4.1V101h9v-4.5h-7.4c-1.1,2.1-2.4,3.9-3.8,5.7c-0.4-0.5-1-0.9-1.6-1.4c2.4-2.7,4.2-5.7,5.4-9.1l2.1,0.6
		c-0.4,0.8-0.7,1.6-1.1,2.4h17.4v1.8h-8.9v4.5h8.5v1.8h-8.5v5.5h10v1.8h-10v6.8h-2.1V110h-13V108.2z M378.6,108.2h7v-5.5h-7V108.2z"
		/>
	<path d="M413.6,93.2l2.3,0.2c-0.3,5.3-1,9.6-2.1,13.1c-1.4,4-3.5,7.3-6.3,10c-0.5-0.6-1-1.2-1.6-1.7c2.5-2.4,4.4-5.5,5.7-9.1
		C412.7,102.2,413.4,98,413.6,93.2z M420.7,92.9l2.2-0.1c0.5,10.9,3.3,18,8.4,21.2c-0.7,0.8-1.3,1.5-1.8,2.1
		C424.1,112.3,421.2,104.6,420.7,92.9z"/>
	<path d="M438.1,108.2c-0.4,3.3-1.7,6.2-3.8,8.8c-0.5-0.5-1.1-1-1.7-1.5c1.6-1.8,2.7-3.9,3.3-6.3c0.4-1.8,0.6-4.3,0.6-7.5v-8.8h16.9
		v19.8c0,2.5-1.2,3.7-3.6,3.7c-1,0-2.3,0-3.9-0.1c-0.1-0.6-0.2-1.3-0.4-2.1c1.6,0.1,2.8,0.2,3.7,0.2c1.4,0,2.1-0.7,2.1-2v-4.2H438.1
		z M438.3,106.3h13v-4.9h-12.8C438.5,103.2,438.4,104.8,438.3,106.3z M438.5,94.8v4.8h12.8v-4.8H438.5z"/>
	<path d="M465.9,101.3H477V92h2.3v9.3h11.2v2.1h-11.2v13.4H477v-13.4h-11.2V101.3z"/>
	<path d="M499.5,103.4l2.2,1.1c-2.3,4.1-4.9,8-8,11.7c-0.5-0.5-1.2-1-1.9-1.6C494.8,111.5,497.3,107.8,499.5,103.4z M491.9,98.4
		h24.6v2h-24.6V98.4z M501.5,93l1.8-1c0.8,1.1,1.8,2.7,2.9,4.6l-2.1,1.1C503.2,95.6,502.3,94.1,501.5,93z M506.4,104.9l1.7-1.3
		c2.8,3.5,5.5,7.1,8.1,10.8l-2.1,1.6C511.2,111.4,508.6,107.7,506.4,104.9z"/>
	<path d="M218,302.2v-21.9h10V302h-3.3v-1.7h-3.3v1.9H218z M224.7,283.7h-3.3v5h3.3V283.7z M221.4,296.9h3.3v-5h-3.3V296.9z
		 M231,287.7c1.1,1.4,2.7,3.5,4.6,6.1l-3.1,2c-1.5-2.5-2.9-4.7-4.1-6.4L231,287.7z M228.7,283h7.5v-4.3h3.6v4.3h2.1v3.4h-2.1v12.5
		c0,1.4-0.3,2.5-0.9,3.2c-0.6,0.7-1.5,1.1-2.6,1.2c-1.1,0-2.8,0.1-5,0.1c-0.3-1.5-0.6-2.8-0.9-3.7c2.4,0.1,3.7,0.1,4,0.1
		c1.2,0,1.8-0.6,1.8-1.9v-11.4h-7.5V283z"/>
	<path d="M243.8,281.8h3.5v21.6h-3.5V281.8z M246.8,279.7l3.3-1.2c0.8,1.2,1.6,2.6,2.4,4.1l-3.5,1.3
		C248.2,282.3,247.5,280.9,246.8,279.7z M249.6,284.9h11.3v13.3h-8.1v1.4h-3.2V284.9z M257.7,287.7h-4.9v2.4h4.9V287.7z
		 M257.7,295.4V293h-4.9v2.4H257.7z M266.9,298.8c0,1.2-0.2,2.2-0.6,2.9c-0.4,0.7-1.1,1.2-2,1.5s-2.9,0.3-6,0.3
		c-0.2-1.3-0.5-2.4-0.8-3.5c1.1,0.1,2.5,0.1,4.1,0.1c1.1,0,1.7-0.5,1.7-1.5v-15.7h-10v-3.1h13.5V298.8z"/>
	<path d="M281.2,285.9c0.6,0,1.2,0.2,1.6,0.6c0.5,0.4,0.7,0.9,0.7,1.5c0,0.6-0.2,1.1-0.7,1.5c-0.4,0.4-1,0.6-1.7,0.6
		c-0.7,0-1.2-0.2-1.6-0.6c-0.4-0.4-0.7-0.9-0.7-1.5c0-0.6,0.2-1.1,0.7-1.5S280.6,285.9,281.2,285.9z M281.2,296.3
		c0.6,0,1.2,0.2,1.6,0.6s0.7,0.9,0.7,1.5c0,0.6-0.2,1.1-0.7,1.5c-0.5,0.4-1,0.6-1.6,0.6s-1.2-0.2-1.6-0.6c-0.4-0.4-0.7-0.9-0.7-1.5
		c0-0.6,0.2-1.1,0.7-1.5S280.6,296.3,281.2,296.3z"/>
	<path d="M301.5,300.2v-16.8c-0.4,0.4-1,0.8-2,1.3c-0.9,0.5-1.8,0.8-2.6,1v-2.4c1-0.3,2.1-0.7,3.3-1.4s2.1-1.2,2.7-1.8h0.9v20H301.5
		z"/>
	<path d="M320.3,285.7c0-1.1-0.3-1.9-1-2.5s-1.6-0.9-2.7-0.9c-0.8,0-1.6,0.2-2.5,0.6c-0.8,0.4-1.6,1-2.3,1.8v-2.4
		c0.6-0.7,1.4-1.2,2.2-1.5s1.8-0.5,2.9-0.5c1.8,0,3.2,0.5,4.3,1.4c1.1,1,1.6,2.2,1.6,3.9c0,1.4-0.3,2.7-1,3.7
		c-0.7,1.1-1.8,2.1-3.4,3.2c-1.6,1.1-2.7,1.9-3.3,2.4c-0.6,0.5-0.9,1-1.2,1.4c-0.2,0.4-0.3,1-0.3,1.6h9.8v2.2H311v-1
		c0-1.1,0.2-2.1,0.5-2.9c0.3-0.8,0.8-1.6,1.5-2.3c0.7-0.7,1.8-1.6,3.3-2.7c1.5-1.1,2.6-2,3.1-2.8C320,287.6,320.3,286.7,320.3,285.7
		z"/>
	<path d="M326.2,287.5c0-0.5,0.2-0.8,0.5-1.1c0.3-0.3,0.7-0.5,1.2-0.5c0.5,0,0.8,0.2,1.2,0.5c0.3,0.3,0.5,0.7,0.5,1.1
		s-0.2,0.8-0.5,1.1s-0.7,0.5-1.2,0.5c-0.5,0-0.8-0.2-1.2-0.5S326.2,287.9,326.2,287.5z M326.2,298.9c0-0.5,0.2-0.8,0.5-1.2
		s0.7-0.5,1.2-0.5c0.5,0,0.9,0.2,1.2,0.5c0.3,0.3,0.5,0.7,0.5,1.1c0,0.4-0.2,0.8-0.5,1.1s-0.7,0.5-1.2,0.5c-0.5,0-0.9-0.2-1.2-0.5
		S326.2,299.3,326.2,298.9z"/>
	<path d="M332.1,290.7c0-3.5,0.6-6.1,1.7-7.9c1.1-1.8,2.8-2.7,5-2.7c4.2,0,6.2,3.4,6.2,10.1c0,3.3-0.6,5.8-1.8,7.6s-2.8,2.6-4.9,2.6
		c-2,0-3.5-0.8-4.6-2.5C332.6,296.3,332.1,293.9,332.1,290.7z M334.6,290.6c0,5.2,1.3,7.8,4,7.8c2.6,0,3.9-2.6,3.9-7.9
		c0-5.5-1.3-8.2-3.8-8.2C335.9,282.3,334.6,285.1,334.6,290.6z"/>
	<path d="M347.3,290.7c0-3.5,0.6-6.1,1.7-7.9c1.1-1.8,2.8-2.7,5-2.7c4.2,0,6.2,3.4,6.2,10.1c0,3.3-0.6,5.8-1.8,7.6s-2.8,2.6-4.9,2.6
		c-2,0-3.5-0.8-4.6-2.5C347.8,296.3,347.3,293.9,347.3,290.7z M349.8,290.6c0,5.2,1.3,7.8,4,7.8c2.6,0,3.9-2.6,3.9-7.9
		c0-5.5-1.3-8.2-3.8-8.2C351.1,282.3,349.8,285.1,349.8,290.6z"/>
	<path d="M218.9,316.5c1.9,1.4,3.4,2.6,4.4,3.6l-2.4,2.6c-1.5-1.4-2.9-2.6-4.2-3.7L218.9,316.5z M219.9,323.6
		c1.4,0.5,2.5,0.9,3.4,1.1c-0.9,3.7-1.8,6.9-2.7,9.6c-1.2-0.4-2.4-0.7-3.5-1C218.1,330.7,219,327.5,219.9,323.6z M219.7,310.1
		c1.7,1.2,3,2.2,4,3v-2.3h18.1v2.8h-5.6v2.4h4.8v18.8h-3.2v-1.3h-10.4v1.3h-3.2V316h4.8v-2.4h-5.3v-0.3l-2.3,2.4
		c-1.4-1.3-2.7-2.4-3.8-3.3L219.7,310.1z M231.8,318.7c-0.1,2.7-0.9,5.1-2.3,7c-0.8-0.8-1.5-1.5-2.1-2v2.6h10.4v-1.4h-1.5
		c-1.9,0-2.9-1-2.9-3.1v-3.1H231.8z M227.4,323.2c1-1.4,1.5-2.9,1.6-4.5h-1.6V323.2z M227.4,330.7h10.4v-1.8h-10.4V330.7z
		 M231.9,316h1.5v-2.4h-1.5V316z M237.2,322.2h0.6v-3.5h-1.6v2.5C236.3,321.8,236.6,322.2,237.2,322.2z"/>
	<path d="M248.3,321.2c0,6.4-0.9,10.9-2.6,13.6c-0.9-0.9-1.9-1.7-2.9-2.5c1.5-2.6,2.2-6.4,2.1-11.6v-8.4h9.8
		c-0.3-0.6-0.5-1.2-0.8-1.8l4.1-1c0.4,0.9,0.7,1.8,1.1,2.8h8.5v3.1h-19.4V321.2z M255.1,315.9h3.5v2.1h8.6v3h-8.6v2.3h7.5v11.2h-3.4
		v-1.6h-9.5v1.6h-3.4v-11.2h5.3V315.9z M262.7,326.4h-9.5v3.5h9.5V326.4z"/>
	<path d="M281.2,317.1c0.6,0,1.2,0.2,1.6,0.6c0.5,0.4,0.7,0.9,0.7,1.5c0,0.6-0.2,1.1-0.7,1.5c-0.4,0.4-1,0.6-1.7,0.6
		c-0.7,0-1.2-0.2-1.6-0.6c-0.4-0.4-0.7-0.9-0.7-1.5c0-0.6,0.2-1.1,0.7-1.5S280.6,317.1,281.2,317.1z M281.2,327.4
		c0.6,0,1.2,0.2,1.6,0.6s0.7,0.9,0.7,1.5c0,0.6-0.2,1.1-0.7,1.5c-0.5,0.4-1,0.6-1.6,0.6s-1.2-0.2-1.6-0.6c-0.4-0.4-0.7-0.9-0.7-1.5
		c0-0.6,0.2-1.1,0.7-1.5S280.6,327.4,281.2,327.4z"/>
	<path d="M295.8,316.9c1.2,0.8,2.6,1.9,4.4,3.4l-1.4,1.6c-1.8-1.6-3.2-2.8-4.2-3.6L295.8,316.9z M297.6,324.2
		c0.6,0.3,1.2,0.6,1.9,0.8c-0.7,3-1.4,6.2-2.1,9.5l-2.1-0.7C296.1,331.2,296.8,327.9,297.6,324.2z M296.5,310.3
		c1.3,1,2.8,2.3,4.3,3.7l-1.4,1.5c-1.5-1.5-2.9-2.8-4.1-3.8L296.5,310.3z M299.2,327.3c2.1-3.4,3.6-7,4.5-10.6h-3.1v-1.8h3.3v-5.1
		h1.8v5.1h3v1.8h-3v3.6l1.1-0.7c0.9,1.3,1.8,2.5,2.5,3.6l-1.4,0.9c-0.7-1.2-1.4-2.3-2.2-3.3v13.9h-1.8V321c-0.9,3.1-2.1,5.7-3.4,8
		C300,328.3,299.6,327.8,299.2,327.3z M309.3,311.5h9.3v23.2h-1.8V333h-5.8v1.8h-1.8V311.5z M316.9,313.3h-5.8v4.9h5.8V313.3z
		 M311.1,324.7h5.8v-4.9h-5.8V324.7z M311.1,331.2h5.8v-4.9h-5.8V331.2z"/>
	<path d="M321.7,316.8c1.6,1.2,3.1,2.3,4.4,3.4l-1.5,1.7c-1.4-1.3-2.8-2.5-4.2-3.6L321.7,316.8z M324.2,324.1
		c0.7,0.4,1.3,0.7,1.9,0.9c-1,3.2-2,6.4-2.9,9.3l-2-0.9C322.4,330.6,323.4,327.5,324.2,324.1z M322.9,310.2c1.4,1,2.8,2.1,4.1,3.2
		l-1.5,1.6c-1.3-1.2-2.6-2.4-3.9-3.4L322.9,310.2z M326.5,330.5h8.9v-1.9h-4.6v0.8H329v-8.1h14.5v8.1h-1.8v-0.8h-4.6v1.9h8.6v1.4
		h-8.6v2.9h-1.8V332h-8.9V330.5z M327.7,314.5h5.2v-1.9h-6v-1.4h18.6v1.4h-5.9v1.9h5.2v6.2h-1.7v-0.9h-13.8v0.9h-1.7V314.5z
		 M329.4,318.4h3.5v-2.6h-3.5V318.4z M341.7,322.6h-10.9v1.7h10.9V322.6z M330.8,327.3h10.9v-1.7h-10.9V327.3z M334.5,314.5h3.5
		v-1.9h-3.5V314.5z M334.5,318.4h3.5v-2.6h-3.5V318.4z M343.2,315.8h-3.5v2.6h3.5V315.8z"/>
	<path d="M346.7,317.4c3-2.1,5.4-4.7,7.2-7.8l1.8,0.9c-0.7,1.2-1.5,2.3-2.4,3.4v9.9h-2v-7.7c-1.1,1.1-2.3,2.2-3.6,3.1
		C347.4,318.6,347,318,346.7,317.4z M346.8,326.5H358v-3.4h2v3.4h11.2v1.8h-11.2v6.5h-2v-6.5h-11.2V326.5z M354,318.5
		c2.2-0.6,4.2-1.3,6.1-2.1v-6.4h2v5.5c2.5-1.2,4.7-2.7,6.6-4.3l1.3,1.5c-2.3,1.8-4.9,3.4-7.9,4.8v2.1c0,1.1,0.7,1.7,2.1,1.7h2.7
		c1.3,0,2-0.5,2.2-1.6c0.2-0.9,0.3-1.9,0.4-2.9c0.8,0.4,1.5,0.6,2,0.8c-0.2,1.1-0.3,2-0.5,2.8c-0.3,1.9-1.5,2.8-3.6,2.8h-3.8
		c-2.2,0-3.4-1-3.4-3.1v-1.5c-1.6,0.7-3.2,1.3-5,1.9C354.8,319.8,354.5,319.1,354,318.5z"/>
	<path d="M381.5,328.9c0,0.7,0.1,1.4,0.1,2.1c-1.2,0.7-2.6,1.5-4,2.5c-0.4,0.3-0.8,0.6-1.2,1l-1.3-1.7c0.6-0.5,0.8-1.2,0.8-1.9v-5.6
		h-3.5v-1.7h3.5v-3.7h-1.7v-1.7c-0.3,0.4-0.5,0.8-0.8,1.2c-0.3-0.6-0.7-1.2-1.1-1.7c1.7-2.3,3-4.9,3.9-7.8l1.8,0.6
		c-0.4,1.1-0.9,2.2-1.4,3.3h4.7v1.7h-5.5c-0.5,0.9-1,1.8-1.6,2.7h6.5v1.7h-3v3.7h3.7v1.7h-3.7v6
		C378.8,330.6,380.1,329.8,381.5,328.9z M395.4,324.1l1.3,1.5c-1.7,1.2-3.3,2.2-4.9,3.2c1.5,1.6,3.5,2.8,5.9,3.4
		c-0.5,0.7-1,1.4-1.3,1.9c-4.9-1.8-8.1-5.5-9.5-10.8h-2.4v8.3c1.4-0.6,2.8-1.4,4.4-2.3c0,0.8,0.1,1.5,0.1,2.1
		c-1.3,0.6-2.9,1.5-4.8,2.6c-0.2,0.2-0.6,0.4-1.1,0.9l-1.3-1.7c0.5-0.6,0.8-1.2,0.8-1.9V311h12.5v13h-1.8v-0.6h-4.6
		c0.5,1.6,1.2,3,2,4.2C392.4,326.4,394,325.3,395.4,324.1z M393.3,312.7h-8.8v3.6h8.8V312.7z M393.3,321.6V318h-8.8v3.6H393.3z"/>
	<path d="M399.9,311h22.2v23.6h-2v-1.3h-18.3v1.3h-2V311z M420.1,312.8h-18.3v18.8h18.3V312.8z M403,327.2h7v-5h-6.1v-1.7h6.1v-3.4
		h-6.6v-1.7h15.1v1.7h-6.6v3.4h6.1v1.7h-6.1v5h7v1.7H403V327.2z M413.2,323.8l1.4-1.1c0.9,1,1.7,1.9,2.4,2.7l-1.5,1.1
		C414.7,325.5,413.9,324.6,413.2,323.8z"/>
	<path d="M433.1,324.5c0.4,3.2-0.4,5-2.4,5.4c-0.7,0.1-1.5,0.1-2.6,0c-0.1-0.7-0.3-1.4-0.6-2.1c0.9,0.2,1.7,0.3,2.4,0.2
		c1.2-0.1,1.6-1.3,1.2-3.6c-0.2-1.3-1-2.9-2.4-4.7c0.7-2.1,1.4-4.3,2.1-6.7h-3.4v21.6h-1.9v-23.5h7.4v1.8c-0.8,2.5-1.5,4.7-2.1,6.6
		C432.1,321.4,432.9,323.1,433.1,324.5z M436,322.8l1.9,0.7c-1.2,3.2-2.5,6.1-3.8,8.7c-0.7-0.4-1.3-0.7-1.8-0.9
		C433.7,328.6,434.9,325.7,436,322.8z M432.6,318.2h16.5v1.9h-7.3v11.1c0,2.1-1,3.1-3,3.1c-0.8,0-1.8,0-3,0
		c-0.2-0.9-0.3-1.6-0.4-2.2c1.3,0.1,2.3,0.2,3,0.2c1,0,1.5-0.5,1.5-1.5v-10.7h-7.2V318.2z M434,311.8h13.8v1.9H434V311.8z
		 M443.8,323.7l1.7-0.9c1.4,2.8,2.7,5.6,3.9,8.2l-1.8,0.9C446.7,329.8,445.4,327,443.8,323.7z"/>
	<path d="M450.2,332.7c7-3.1,10.7-7.8,11.3-14h-10.8v-2h10.9c0-2.3,0.1-4.6,0.1-6.9h2.2c0,2.3,0,4.6-0.1,6.9H475v2h-11.3
		c1.2,6.7,5.1,11.2,11.8,13.3c-0.9,0.8-1.5,1.5-1.9,2.1c-5.5-2.2-9.1-6.2-10.8-11.8c-1.3,5.1-5,9.2-11.1,12.3
		C451.5,334.2,450.9,333.5,450.2,332.7z"/>
	<path d="M477.4,316.7c1.7,1.3,3.2,2.4,4.4,3.4l-1.5,1.7c-1.4-1.3-2.8-2.5-4.2-3.6L477.4,316.7z M480,324.1c0.7,0.4,1.4,0.7,2,1
		c-1,3.4-2,6.5-2.9,9.3l-2.2-1C478.2,330.4,479.2,327.3,480,324.1z M478.6,310.2c1.3,1,2.8,2.2,4.4,3.6l-1.5,1.6
		c-1.5-1.5-2.9-2.7-4.2-3.8L478.6,310.2z M483.7,316.1h4.8v-3.3h-5.4V311h18.1v1.7h-6.1v3.3h5v18.6h-1.8v-1.4h-12.7v1.4h-1.8V316.1z
		 M493.3,321.4v-3.6h-2.9v0.5c0,3.1-1.2,5.6-3.7,7.3c-0.3-0.4-0.7-0.8-1.2-1.3v2.3h12.7v-2.3h-2.2
		C494.2,324.3,493.3,323.4,493.3,321.4z M485.5,324.1c2-1.4,3-3.3,3-5.9v-0.4h-3V324.1z M485.5,331.6h12.7v-3.2h-12.7V331.6z
		 M490.3,316.1h2.9v-3.3h-2.9V316.1z M496.5,322.5c0.4,0,1,0,1.8,0v-4.6h-3.1v3.3C495.1,322,495.6,322.5,496.5,322.5z"/>
	<path d="M513.8,310.3l1.8-0.9c0.7,1,1.3,2.1,1.9,3.2h9.7v1.9h-20.6v8.5c-0.2,5.3-1.3,9.2-3.4,11.9c-0.4-0.5-0.9-1.1-1.4-1.7
		c1.8-2.4,2.7-6,2.8-10.6v-9.9h10.6C514.7,311.8,514.3,311.1,513.8,310.3z M515,315.2h2.1v3.2h9.5v1.8h-9.5v3.6h7.5v10.9h-2V333
		h-11.5v1.6h-2v-10.9h6V315.2z M522.6,325.6h-11.5v5.6h11.5V325.6z"/>
	<path d="M542.6,335.7c-3-3.3-4.5-7.3-4.5-12c0-4.7,1.5-8.8,4.5-12.1h2.2c-3,3.4-4.5,7.4-4.5,12.1c0,4.6,1.5,8.6,4.5,12H542.6z"/>
	<path d="M554,320.3h25.2v2.2H554V320.3z"/>
	<path d="M579.9,325.7c1.7-2.8,2.9-5.8,3.6-8.9h-3.2V315h3.5v-5.2h1.8v5.2h2.9v1.8h-2.9v2.4l0.7-0.7c1.2,1.1,2.1,2,2.8,2.8l-1.3,1.2
		c-0.6-0.8-1.3-1.6-2.2-2.5v14.9h-1.8v-14.1c-0.8,3-1.9,5.4-3,7.2C580.5,327.2,580.2,326.5,579.9,325.7z M587.4,333
		c3.3-0.4,5.8-1.1,7.7-2.1c-1.6-0.7-3.2-1.4-4.8-2c0.7-0.8,1.3-1.7,2-2.6h-4.3v-1.6h5.3c0.4-0.6,0.8-1.2,1.2-1.9l1.8,0.7
		c-0.3,0.4-0.5,0.8-0.8,1.2h9.5v1.6h-3.7c-0.8,1.8-1.7,3.2-2.7,4.3c2,0.8,4.1,1.7,6.1,2.6l-1,1.7c-2.2-1.1-4.5-2.1-6.6-3.1
		c-2,1.4-4.9,2.5-8.7,3.1C588,334.2,587.7,333.5,587.4,333z M589.3,315.8h6.4v-6.1h1.8v6.1h6.9v1.6h-5.8c1.8,2,4,3.4,6.5,4.4
		c-0.4,0.5-0.9,1-1.3,1.7c-2.6-1.4-4.7-3.2-6.3-5.5v4.9h-1.8v-5c-1.8,2.4-3.8,4.3-6,5.9c-0.3-0.5-0.7-0.9-1.2-1.5
		c2.4-1.5,4.4-3.1,6-4.9h-5.1V315.8z M589.9,311.9l1.2-1.1c1.2,1.1,2.3,2.1,3.2,3.2l-1.4,1.2C592.1,314.2,591.1,313.1,589.9,311.9z
		 M592.8,328.2c1.3,0.5,2.6,1,3.9,1.5c1-0.9,1.9-2.1,2.6-3.5h-5C593.8,326.9,593.3,327.5,592.8,328.2z M603.4,311.9
		c-1,1.2-2.1,2.4-3.3,3.5l-1.3-1.1c1.2-1.1,2.2-2.3,3-3.4L603.4,311.9z"/>
	<path d="M607.1,316.8c1.3,1,2.7,2.2,4.1,3.4c-0.6,0.7-1.1,1.2-1.5,1.6c-1-1-2.3-2.2-3.9-3.6L607.1,316.8z M609.2,324.1
		c0.8,0.4,1.5,0.7,2,0.9c-0.5,1.9-1.4,5-2.5,9.3l-2.1-1C607.7,330.5,608.5,327.4,609.2,324.1z M608.2,310.3c1.4,1.1,2.7,2.2,4,3.4
		c-0.6,0.5-1.1,1-1.5,1.5c-0.9-1-2.2-2.3-3.7-3.6L608.2,310.3z M612.6,320.7h2.8v-4.2h-3.5v-1.7h3.5v-5.1h1.8v5.1h3.5v1.7h-3.5v4.2
		h2.6v8.9h-5.4v1.8h-1.8V320.7z M618,327.9v-5.5h-3.7v5.5H618z M621.9,311h7.4v20.7c0,1.6-0.8,2.4-2.5,2.4c-1,0-2,0-2.9-0.1
		c0-0.5-0.2-1.1-0.3-1.9c1.3,0.1,2.2,0.2,2.8,0.2c0.7,0,1.1-0.4,1.1-1.1v-5.8h-4c-0.1,3.3-1.5,6.4-4.2,9.2c-0.5-0.5-1-0.9-1.6-1.4
		c1.7-1.6,2.9-3.3,3.4-5c0.5-1.6,0.8-4.3,0.8-8.1V311z M623.6,323.9h3.9V319h-3.8C623.7,320.6,623.6,322.2,623.6,323.9z
		 M627.5,312.7h-3.8v4.8h3.8V312.7z"/>
	<path d="M632.1,312.8h11.4V310h2.1v2.9h11.1v1.8h-11.1v2.6h9.7v14.4c0,2-1,3-2.9,3c-1.1,0-2.5,0-4.2-0.1c-0.1-0.6-0.2-1.3-0.4-2.1
		c1.7,0.1,2.9,0.2,3.8,0.2c1.1,0,1.7-0.5,1.7-1.5V319h-17.5v15.7h-2v-17.5h9.8v-2.6h-11.4V312.8z M636.7,327.6h6.8v-2.8h-6v-1.7h8
		c0.8-1.2,1.6-2.5,2.5-4l1.9,1c-0.8,1.1-1.6,2.1-2.3,3h3.9v1.7h-6v2.8h6.8v1.7h-6.8v4.9h-2v-4.9h-6.8V327.6z M639.2,320.2l1.5-1
		c0.9,1,1.6,2,2.4,2.9l-1.7,1C640.7,322.1,640,321.2,639.2,320.2z"/>
	<path d="M662.6,319.9c0,3.6-0.2,6.5-0.7,8.6c-0.5,2.2-1.4,4.2-2.7,6.1c-0.5-0.7-1-1.2-1.5-1.7c1.1-1.6,1.9-3.3,2.3-5.2
		c0.4-1.6,0.6-4,0.6-7.3v-9h22.1v1.9h-20V319.9z M663.6,317.5h19v1.9h-8.4v11.5c0,2.1-1.1,3.2-3.2,3.3c-1,0-2.2,0-3.5,0
		c-0.1-0.9-0.3-1.6-0.4-2.2c1.3,0.1,2.4,0.2,3.3,0.2c1.2,0,1.7-0.6,1.7-1.8v-10.9h-8.5V317.5z"/>
	<path d="M694.3,335.7h-2.2c3-3.4,4.5-7.4,4.5-12.1c0-4.6-1.5-8.6-4.5-12h2.2c3,3.3,4.5,7.3,4.5,12
		C698.8,328.4,697.3,332.4,694.3,335.7z"/>
	<path d="M231.4,340.8h3.4v5.3l5.9-1.4l-0.1,4.8c-0.1,3.9-0.3,6.1-0.5,6.5c-0.2,0.5-0.5,0.9-0.9,1.2s-1.5,0.6-3.5,0.8
		c-0.2-1.1-0.5-2.2-0.8-3.4c0.4,0,0.7,0.1,1,0.1c0.5,0,0.9,0,1-0.1c0.2-0.1,0.3-0.2,0.3-0.4c0.1-0.2,0.1-0.7,0.1-1.6
		c0-0.9,0.1-2.2,0.1-3.9l-2.7,0.7v11.4h-3.4v-10.6l-2.4,0.6v10c0,0.9,0.6,1.4,1.7,1.4h5c0.6,0,1.1-0.1,1.5-0.3s0.7-0.5,0.8-0.9
		c0.1-0.4,0.3-1.4,0.5-3c1.4,0.6,2.5,1.1,3.4,1.4c-0.5,2.1-0.8,3.4-1.2,4c-0.3,0.6-0.8,1-1.3,1.3c-0.6,0.3-1.2,0.5-2,0.5H230
		c-2.9,0-4.3-1.3-4.3-3.9v-9.7L224,352l-0.2-0.8h-1.2v7.7l2.2-0.7c-0.1,0.7-0.1,1.9,0,3.6l-7.4,2.6l-0.7-3.8l2.5-0.7v-8.7h-2v-3.5h2
		v-6.8h3.4v6.8h1.5v0.8l1.6-0.4V343h3.4v4.3l2.4-0.5V340.8z"/>
	<path d="M243.3,362.8l-0.7-3.6l3-0.7v-8.3h-2.8v-3.5h2.8v-5.9h3.4v5.9h2.8v3.5h-2.8v7.5l2.9-0.7c0,0.7,0,1.9,0,3.6L243.3,362.8z
		 M250,361.3h3.2V346h3.3v15.3h2.2v-20.4h3.5v7.3h4.9v3.4h-4.9v9.8h5.7v3.4h-18V361.3z"/>
	<path d="M281.2,348.2c0.6,0,1.2,0.2,1.6,0.6c0.5,0.4,0.7,0.9,0.7,1.5c0,0.6-0.2,1.1-0.7,1.5c-0.4,0.4-1,0.6-1.7,0.6
		c-0.7,0-1.2-0.2-1.6-0.6c-0.4-0.4-0.7-0.9-0.7-1.5c0-0.6,0.2-1.1,0.7-1.5S280.6,348.2,281.2,348.2z M281.2,358.5
		c0.6,0,1.2,0.2,1.6,0.6s0.7,0.9,0.7,1.5c0,0.6-0.2,1.1-0.7,1.5c-0.5,0.4-1,0.6-1.6,0.6s-1.2-0.2-1.6-0.6c-0.4-0.4-0.7-0.9-0.7-1.5
		c0-0.6,0.2-1.1,0.7-1.5S280.6,358.5,281.2,358.5z"/>
	<path d="M295.8,348c1.2,0.8,2.6,1.9,4.4,3.4l-1.4,1.6c-1.8-1.6-3.2-2.8-4.2-3.6L295.8,348z M297.6,355.3c0.6,0.3,1.2,0.6,1.9,0.8
		c-0.7,3-1.4,6.2-2.1,9.5l-2.1-0.7C296.1,362.3,296.8,359.1,297.6,355.3z M296.5,341.4c1.3,1,2.8,2.3,4.3,3.7l-1.4,1.5
		c-1.5-1.5-2.9-2.8-4.1-3.8L296.5,341.4z M299.2,358.4c2.1-3.4,3.6-7,4.5-10.6h-3.1v-1.8h3.3V341h1.8v5.1h3v1.8h-3v3.6l1.1-0.7
		c0.9,1.3,1.8,2.5,2.5,3.6l-1.4,0.9c-0.7-1.2-1.4-2.3-2.2-3.3v13.9h-1.8v-13.7c-0.9,3.1-2.1,5.7-3.4,8
		C300,359.4,299.6,358.9,299.2,358.4z M309.3,342.7h9.3v23.2h-1.8v-1.8h-5.8v1.8h-1.8V342.7z M316.9,344.4h-5.8v4.9h5.8V344.4z
		 M311.1,355.8h5.8v-4.9h-5.8V355.8z M311.1,362.4h5.8v-4.9h-5.8V362.4z"/>
	<path d="M321.7,347.9c1.6,1.2,3.1,2.3,4.4,3.4l-1.5,1.7c-1.4-1.3-2.8-2.5-4.2-3.6L321.7,347.9z M324.2,355.3
		c0.7,0.4,1.3,0.7,1.9,0.9c-1,3.2-2,6.4-2.9,9.3l-2-0.9C322.4,361.8,323.4,358.7,324.2,355.3z M322.9,341.3c1.4,1,2.8,2.1,4.1,3.2
		l-1.5,1.6c-1.3-1.2-2.6-2.4-3.9-3.4L322.9,341.3z M326.5,361.7h8.9v-1.9h-4.6v0.8H329v-8.1h14.5v8.1h-1.8v-0.8h-4.6v1.9h8.6v1.4
		h-8.6v2.9h-1.8v-2.9h-8.9V361.7z M327.7,345.6h5.2v-1.9h-6v-1.4h18.6v1.4h-5.9v1.9h5.2v6.2h-1.7v-0.9h-13.8v0.9h-1.7V345.6z
		 M329.4,349.5h3.5v-2.6h-3.5V349.5z M341.7,353.8h-10.9v1.7h10.9V353.8z M330.8,358.5h10.9v-1.7h-10.9V358.5z M334.5,345.6h3.5
		v-1.9h-3.5V345.6z M334.5,349.5h3.5v-2.6h-3.5V349.5z M343.2,346.9h-3.5v2.6h3.5V346.9z"/>
	<path d="M351,363.2h-2v-13.1h9v-3.5h-11.2v-1.9h11.8c-0.5-1.1-1.1-2.1-1.8-3.2l2-0.9c0.7,1.1,1.4,2.2,2,3.3l-1.7,0.8h12.3v1.9
		h-11.3v3.5h9.2v9.5c0,2.1-1,3.2-3,3.2c-0.9,0-2.1,0-3.6-0.1c-0.1-0.6-0.2-1.2-0.4-2c1.4,0.1,2.5,0.1,3.4,0.1c1.1,0,1.6-0.6,1.6-1.7
		V352h-7.2v13.9h-2V352H351V363.2z"/>
	<path d="M372.4,349.6h3.4c-0.3-0.8-0.9-1.9-1.5-3.1l1.5-0.8c0.6,0.9,1.2,2,1.8,3.2l-1.3,0.7h3.2c0.7-1.3,1.3-2.6,1.8-3.9l1.8,0.7
		c-0.7,1.3-1.3,2.4-1.8,3.2h3.7v1.7h-12.7V349.6z M372.9,343.5h4.9c-0.2-0.6-0.5-1.3-0.9-2.1l1.7-0.7c0.5,1.1,0.8,2,1.1,2.8h4.7v1.7
		h-11.6V343.5z M373.6,353.4h10.3v12.2h-1.8V364h-6.6v1.6h-1.8V353.4z M382.1,355.1h-6.6v2.8h6.6V355.1z M375.5,362.3h6.6v-2.8h-6.6
		V362.3z M385.5,343.8v-1.7h11.1c0,4.5-0.2,7.3-0.4,8.4c-0.3,1.7-1.3,2.5-2.7,2.5c-0.8,0-1.6,0-2.5-0.1c-0.1-0.8-0.2-1.5-0.3-2.1
		c0.9,0.2,1.7,0.3,2.4,0.3c0.7,0,1.2-0.4,1.4-1.3c0.2-0.9,0.3-2.9,0.3-6h-4c-0.1,2.1-0.4,3.9-1,5.4c-0.8,1.8-2.2,3.3-4,4.6
		c-0.3-0.4-0.7-0.9-1.2-1.5c1.6-1,2.8-2.3,3.6-3.9c0.5-1.3,0.8-2.8,0.9-4.5H385.5z M385.9,354.7h10.6v11h-1.8v-1.7h-7v1.7h-1.8
		V354.7z M394.7,356.4h-7v5.9h7V356.4z"/>
	<path d="M419.2,365.6V364h-18.6v-18.2h2.2v16.2h7.1v-20.9h2.2v20.9h7.2v-16.2h2.2v19.8H419.2z"/>
	<path d="M430.5,356.3l1.7,1.3c-1.9,2.3-4.1,4.6-6.6,7c-0.4-0.5-0.9-0.9-1.4-1.4C426.4,361,428.5,358.7,430.5,356.3z M426.8,354.8
		v-1.9l2.9-6.7h-5v-1.9h5.8l1.5-3.5l2.2,0.5l-1.3,3h16.2v1.9h-17l-2.9,6.7h7.6v-5.5h2.1v5.5h9v1.9h-9v7.5c0,2.1-1.1,3.2-3.3,3.2
		c-1.1,0-2.4,0-3.8,0c-0.1-0.7-0.2-1.4-0.4-2.3c1.1,0.1,2.3,0.2,3.6,0.2c1.2,0,1.7-0.6,1.7-1.8v-6.8H426.8z M441.3,358l1.4-1.4
		c2.3,1.9,4.7,3.9,7,6.1l-1.6,1.6C445.8,362,443.6,359.9,441.3,358z"/>
	<path d="M451.8,352.6h1.7v9.4c0.7-0.1,1.4-0.2,2.1-0.3v-11.6h-2v0.8h-1.8v-8.6h8.3v7.8h-2.7v4.3h2.6v1.7h-2.6v5.3
		c1.1-0.2,2.1-0.3,3.2-0.5c0,0.6-0.1,1.2-0.1,1.8c-3.3,0.6-6.6,1.1-9.8,1.7l-0.5-2c0.5-0.1,1-0.1,1.5-0.2V352.6z M458.2,348.4v-4.3
		h-4.7v4.3H458.2z M460.3,348.5c1.8-2.2,3.3-4.8,4.6-7.8l1.9,0.7c-0.4,0.8-0.7,1.5-1.1,2.2h8v1.7c-1.1,2.1-2.6,4-4.4,5.8
		c1.7,1.1,3.7,2,6.1,2.6c-0.3,0.7-0.6,1.4-0.8,2.1c-2.7-0.9-4.9-2-6.8-3.4c-1.8,1.4-4.1,2.7-6.7,3.8c-0.2-0.3-0.5-0.9-1-1.8
		c2.3-0.8,4.4-1.9,6.2-3.3c-1-1-1.9-2.3-2.8-3.8c-0.7,1.1-1.4,2-2,2.8C461.2,349.5,460.7,349,460.3,348.5z M462.2,356h11v9.9h-1.9
		v-1.2h-7.2v1.2h-1.9V356z M471.3,357.8h-7.2v5.1h7.2V357.8z M471.5,345.3h-6.8c-0.1,0.1-0.1,0.2-0.2,0.3c0.9,1.7,1.9,3.1,3.2,4.3
		C469.3,348.5,470.6,347,471.5,345.3z"/>
	<path d="M488.7,345.3c-1-0.5-2.1-0.8-3.2-0.8c-1.7,0-3.1,0.7-4.1,2.2s-1.6,3.5-1.6,6.1h0.1c0.9-1.8,2.4-2.7,4.4-2.7
		c1.7,0,3.1,0.6,4.1,1.7c1,1.1,1.5,2.6,1.5,4.4c0,1.9-0.6,3.5-1.8,4.7c-1.2,1.2-2.7,1.8-4.5,1.8c-2,0-3.6-0.8-4.7-2.3
		c-1.1-1.6-1.7-3.8-1.7-6.6c0-3.5,0.7-6.2,2.2-8.3c1.5-2,3.5-3.1,5.9-3.1c1.4,0,2.5,0.2,3.3,0.6V345.3z M480,356
		c0,1.3,0.3,2.4,1,3.3c0.7,0.9,1.6,1.4,2.7,1.4c1.1,0,2-0.4,2.6-1.2s1-1.8,1-3.1c0-1.4-0.3-2.4-1-3.2c-0.6-0.8-1.5-1.1-2.7-1.1
		c-1.1,0-2,0.4-2.7,1.1S480,355,480,356z"/>
	<path d="M492.3,356.9c0-1.1,0.3-2.2,1-3.1c0.7-1,1.5-1.6,2.6-2c-0.9-0.5-1.5-1.1-2-1.8c-0.5-0.8-0.7-1.6-0.7-2.4
		c0-0.9,0.2-1.8,0.7-2.5c0.5-0.8,1.1-1.4,2-1.8c0.8-0.4,1.8-0.7,2.8-0.7c1,0,2,0.2,2.8,0.7c0.9,0.4,1.5,1,2,1.8
		c0.5,0.8,0.7,1.6,0.7,2.6c0,0.9-0.2,1.7-0.7,2.4c-0.5,0.8-1.2,1.4-2,1.9c1.1,0.4,1.9,1.1,2.6,2.1c0.7,1,1,2,1,3.1
		c0,1.1-0.3,2.1-0.8,3c-0.5,0.9-1.3,1.6-2.3,2.1c-1,0.5-2.1,0.7-3.3,0.7c-1.2,0-2.3-0.2-3.3-0.7c-1-0.5-1.7-1.2-2.3-2.1
		S492.3,358,492.3,356.9z M494.7,356.8c0,1.2,0.4,2.1,1.1,2.8s1.7,1.1,2.9,1.1c1.2,0,2.1-0.4,2.9-1.1c0.7-0.7,1.1-1.6,1.1-2.8
		c0-1.1-0.4-2-1.1-2.7c-0.7-0.7-1.7-1.1-2.8-1.1c-1.1,0-2.1,0.4-2.8,1.1C495.1,354.8,494.7,355.7,494.7,356.8z M495.4,347.7
		c0,0.9,0.3,1.6,0.9,2.3s1.4,0.9,2.3,0.9c0.9,0,1.7-0.3,2.3-1c0.6-0.6,1-1.4,1-2.3c0-0.9-0.3-1.6-0.9-2.3c-0.6-0.6-1.4-0.9-2.3-0.9
		c-0.9,0-1.7,0.3-2.3,0.9C495.7,346,495.4,346.8,495.4,347.7z"/>
	<path d="M511.1,358.1v-1.8l1.1-2.6h-5.5v-1.8h25.1v1.8h-17.5l-1.1,2.6h15.1c-0.2,2-0.4,3.6-0.6,4.8c-0.4,2.8-2,4.1-4.8,4.1
		c-1.9,0-4,0-6.2-0.1c-0.1-0.6-0.2-1.3-0.4-2.2c2.4,0.2,4.5,0.3,6.3,0.3c1.8,0,2.9-0.8,3.1-2.5c0.1-0.7,0.2-1.6,0.4-2.7H511.1z
		 M510.6,342h17.2v8.4h-2v-1h-13.2v1.2h-2V342z M525.8,343.9h-13.2v3.7h13.2V343.9z"/>
	<path d="M547.1,366.9c-3-3.3-4.5-7.3-4.5-12c0-4.7,1.5-8.8,4.5-12.1h2.2c-3,3.4-4.5,7.4-4.5,12.1c0,4.6,1.5,8.6,4.5,12H547.1z"/>
	<path d="M558.5,354.3c1.2-0.3,2.4-0.7,3.7-1v-5.8h-3.4v-1.7h3.4v-4.8h2v4.8h3.2v1.7h-3.2v5.3c1-0.3,2.1-0.6,3.2-0.9
		c0,0.8,0,1.5,0,2c-1.1,0.3-2.1,0.6-3.2,1v7.8c0,1.8-0.9,2.7-2.7,2.8c-0.6,0-1.4,0-2.3,0c-0.1-0.7-0.2-1.4-0.4-2.1
		c1,0.1,1.8,0.1,2.3,0.1c0.7,0,1.1-0.4,1.1-1.2v-6.8c-1.1,0.4-2.3,0.7-3.5,1.1L558.5,354.3z M573.2,341.8l1.7-1.1
		c0.7,0.8,1.5,1.8,2.3,2.9l-1.6,1.1h6.9V356h-2v-1.2h-9.8c-0.2,4.5-1.4,8.1-3.6,11c-0.4-0.4-1-0.9-1.6-1.4c2.2-2.7,3.3-6.7,3.3-11.8
		v-7.9h6.5C574.5,343.7,573.8,342.7,573.2,341.8z M570.7,346.6v6.4h9.7v-6.4H570.7z"/>
	<path d="M585.6,347.9c1.6,1.2,3.1,2.3,4.4,3.4l-1.5,1.7c-1.4-1.3-2.8-2.5-4.2-3.6L585.6,347.9z M588.1,355.3
		c0.7,0.4,1.3,0.7,1.9,0.9c-1,3.2-2,6.4-2.9,9.3l-2-0.9C586.2,361.8,587.2,358.7,588.1,355.3z M586.8,341.3c1.4,1,2.8,2.1,4.1,3.2
		l-1.5,1.6c-1.3-1.2-2.6-2.4-3.9-3.4L586.8,341.3z M590.3,361.7h8.9v-1.9h-4.6v0.8h-1.8v-8.1h14.5v8.1h-1.8v-0.8H601v1.9h8.6v1.4
		H601v2.9h-1.8v-2.9h-8.9V361.7z M591.6,345.6h5.2v-1.9h-6v-1.4h18.6v1.4h-5.9v1.9h5.2v6.2H607v-0.9h-13.8v0.9h-1.7V345.6z
		 M593.2,349.5h3.5v-2.6h-3.5V349.5z M605.6,353.8h-10.9v1.7h10.9V353.8z M594.7,358.5h10.9v-1.7h-10.9V358.5z M598.4,345.6h3.5
		v-1.9h-3.5V345.6z M598.4,349.5h3.5v-2.6h-3.5V349.5z M607,346.9h-3.5v2.6h3.5V346.9z"/>
	<path d="M613.9,344.6H624c-0.5-0.8-1.1-1.8-1.9-2.9l1.8-1.1c0.8,1.1,1.6,2.1,2.2,3.1l-1.4,0.8h10.4v2.1h-19v6.3
		c0,5.3-1.4,9.5-4.1,12.7c-0.4-0.4-1-1-1.8-1.6c2.5-2.7,3.7-6.5,3.7-11.3V344.6z"/>
	<path d="M636.3,359.6c1.2-0.5,2.5-1,3.7-1.6v-8.8h-3.4v-1.8h3.4v-6.3h1.9v6.3h3.1v1.8h-3.1v7.9c0.9-0.4,1.9-0.9,2.9-1.3
		c0,0.7,0.1,1.3,0.2,1.9c-2.5,1.1-5.1,2.4-7.9,3.8L636.3,359.6z M655.4,344.2h-9.9v-1.8H659v1.8l-10,6.3h11.5
		c-0.2,4.7-0.4,8.3-0.6,10.8c-0.2,2.6-1.4,3.9-3.6,3.9c-0.7,0-1.9,0-3.4-0.1c-0.1-0.8-0.3-1.6-0.4-2.2c1.2,0.2,2.3,0.3,3.5,0.3
		s1.9-0.7,2-2.2c0.2-2.1,0.3-5,0.5-8.7h-2.7c-0.8,5.7-3.4,10.2-7.9,13.5c-0.5-0.6-0.9-1.1-1.4-1.5c4.2-2.9,6.7-6.9,7.4-12h-3.2
		c-1,4.2-3.4,7.7-7.2,10.5c-0.4-0.5-0.8-1-1.3-1.5c3.5-2.4,5.7-5.4,6.6-9h-3v-1.9L655.4,344.2z"/>
	<path d="M672.9,366.9h-2.2c3-3.4,4.5-7.4,4.5-12.1c0-4.6-1.5-8.6-4.5-12h2.2c3,3.3,4.5,7.3,4.5,12
		C677.3,359.5,675.9,363.6,672.9,366.9z"/>
</g>
<g>
	<g>
		<path d="M257.3,149.7c0.7,0.6,1.4,1.4,2.4,2.6c0.2,0.1,0.4,0.3,0.4,0.3c0.2,0.8,0,1.1-0.8,1c-0.4-0.1-0.9-0.1-1.7-0.2
			c-0.9,0.2-1.9,0.4-2.8,0.4c-0.9,0.1-1.8,0.1-2.8,0c0,0.1,0,0.3,0,0.4v5.6h3.6c0.9-1.4,1.5-2.1,1.8-2.2c0.9,0.3,1.8,1,2.9,2.2
			c0.1,0.6,0,0.9-0.3,0.9h-2.9v6.9c0,1.6,0.1,3.5,0.2,5.9c0.1,0.9-0.1,1.4-0.9,1.6c-0.8,0.1-1.7,0.3-2.6,0.4c-0.7,0-0.9-0.4-0.9-1.2
			c0.1-2.2,0.1-4.8,0.2-8v-5.6H252c-0.1,4.6-0.7,7.8-1.8,9.6c-1,1.7-3.3,3.4-6.9,4.9c-0.4,0.1-0.6,0.1-0.7,0
			c-0.1-0.1-0.1-0.2,0.2-0.4c2-1.8,3.3-3.3,3.9-4.5c-0.1,0.1-0.1,0.1-0.2,0.1c0,0.1-0.1,0.2-0.2,0.3c-1.5,0.7-2.4,0.3-2.7-1.4
			c-0.1-0.9-0.4-2.1-1.1-3.4v1.8c-0.1,0.4-0.1,1,0,2.1c0.1,1,0.1,1.7,0.1,2c0.1,1.4-0.3,2.3-1.2,2.7c-0.7,0.4-1.6,0.7-2.5,0.9
			c-1.1,0.3-1.6,0.1-1.6-0.7c-0.1-1.2-0.8-1.8-1.8-2.1c-0.4-0.1-0.6-0.3-0.5-0.5c0.1-0.1,0.4-0.2,0.9-0.2c2.2,0.1,3.2-0.4,2.8-1.5
			v-3.3c-0.2,0.1-0.4,0.3-0.4,0.5c-1.3,2.7-2.8,4.6-4.6,5.6c-0.3,0.1-0.5,0.2-0.5,0.1c-0.1-0.1,0-0.3,0.1-0.5c0.6-1.4,1-2.9,1.3-4.5
			c0.1-0.4,0.1-0.9,0.2-1.4c0-0.5,0-1,0.1-1.5c-0.1-0.4,0.2-0.6,0.9-0.4c0.5,0.1,1.5,0.3,2.9,0.7v-1.3h-2.6c-0.5,0.1-1,0.1-1.6,0.2
			c-0.2,0.1-0.4,0-0.5-0.2c-0.1-0.1-0.3-0.2-0.3-0.3c-0.1-0.1-0.1-0.3-0.2-0.4c-0.1-0.1-0.2-0.1-0.1-0.2l0.3-0.1
			c0.6,0.2,1.6,0.3,3,0.2h2.1v-3.1h-2.6c-0.5,0.1-1,0.1-1.6,0.2c-0.2,0.1-0.4,0-0.5-0.2c-0.1-0.1-0.3-0.2-0.3-0.3
			c-0.1-0.1-0.1-0.3-0.2-0.4c-0.2-0.2-0.1-0.3,0.2-0.2c0.6,0.1,1.6,0.2,3,0.1h1.2c-0.7-0.1-1-0.7-1-1.5c0-1-0.3-2.1-0.9-3.3
			c-0.1-0.2-0.2-0.4-0.1-0.4c0.1-0.1,0.3-0.1,0.5-0.1c2.2,0.6,3.6,1.6,4,2.9c0.1,1.4-0.4,2.2-1.6,2.4h2.1c0.6-1.4,1-3.3,1.2-5.5
			h-5.4c-0.5,0.1-1,0.1-1.6,0.2c-0.3,0.1-0.5,0.1-0.5-0.1c-0.1-0.1-0.3-0.2-0.3-0.4c-0.1-0.1-0.3-0.3-0.3-0.4
			c-0.1-0.2-0.1-0.3,0.2-0.2c0.4,0.1,0.9,0.1,1.5,0.2c0.7,0,1.2,0,1.5,0h2.4c-0.6-0.1-0.9-0.7-1-1.5c-0.1-1.1-0.5-2-1-2.7
			c-0.2-0.1-0.3-0.3-0.2-0.3c0-0.1,0.1-0.1,0.4-0.2c2.5,0.1,4,0.8,4.7,2c0.3,1.4-0.2,2.4-1.4,2.7l-0.2,0.1h2.1
			c0.7-1.5,1.3-2.4,1.6-2.5c0.7,0.2,1.9,1,3.7,2.5c-0.2-0.7-0.3-1.2-0.2-1.3c-0.1-0.4-0.1-0.6,0-0.8c0.1-0.1,0.3-0.2,0.8-0.1
			c1.4,0.4,2.6,0.9,3.6,1.3c0.1,0.1,0.2,0.2,0.3,0.2c1.5-0.9,2.9-1.8,4-2.8C256.7,149.5,257,149.5,257.3,149.7z M247.4,154.1h-3.3
			c0.4,0.2,0.9,0.4,1.3,0.5c0.3,0.1,0.5,0.2,0.8,0.2c0.3,0.2,0.4,0.5,0.4,0.8c0,0.2-0.1,0.3-0.4,0.3c-0.6,0.1-1,0.3-1.2,0.5
			c-1.1,1.4-2,2.5-2.8,3.1h1.1c0.7-1.4,1.2-2.1,1.7-2.2c0.7,0.3,1.7,1,3,2.1v-2.6c0-0.4,0-0.9-0.1-1.6c0-0.7,0-1.2,0-1.5
			C247.8,153.9,247.7,154.1,247.4,154.1z M247.7,160.5h-4.8c0.1,0.3,0,0.5-0.2,0.5c-0.1,0.1-0.2,0.4-0.2,0.9v1.7h0.9
			c0.7-1.4,1.2-2.1,1.7-2.2c0.9,0.4,1.8,1,2.9,2.1c0-0.4,0-0.8,0-1.2c0.1-0.4,0.1-1,0.1-1.8C247.9,160.5,247.8,160.5,247.7,160.5z
			 M246.9,167.4c0.2,0.4,0.4,0.9,0.4,1.4c0.3-1.2,0.5-2.6,0.7-4.3c-0.1,0-0.3,0-0.3,0h-5.2v0.7h0.1
			C244.4,165.5,245.9,166.3,246.9,167.4z"/>
		<path d="M271.2,169.7c-0.1-0.2-0.3-0.8-0.7-1.6l-0.2,0.2c-1.7,1.5-3.1,2.7-4.5,3.6c-0.4,0.1-0.6,0.4-0.7,0.9
			c-0.3,0.8-0.8,1-1.4,0.5c-1.2-1.2-1.8-1.9-2-2.2c-0.6-0.7-0.5-1.2,0.1-1.6c0.6-0.2,0.8-1,0.8-2.3v-9.3c0-1.4,0-2.4-0.1-3.1
			c0-0.9,0-1.7-0.1-2.4c-0.1-0.7,0.2-1,0.9-0.8c0.5,0.1,1.2,0.4,2.1,0.8c0.3,0.1,0.7,0.3,1.1,0.3c0.2,0.1,0.4,0.3,0.4,0.4h0.9
			c-0.7-0.2-1.1-0.8-1.2-1.6c-0.1-1-0.4-1.8-0.9-2.4c-0.3-0.4-0.1-0.6,0.4-0.7c2.1,0.2,3.4,0.8,4,1.7c0.6,1.5,0.1,2.5-1.5,2.9h1.4
			c0.7-1.1,1.3-1.7,1.6-1.7c0.6,0,1.6,0.6,3,1.7c0.5,0.4,0.5,0.8,0.1,1.3c-0.4,0.3-0.5,0.7-0.4,1.2v2.9c0,0.1,0,0.5,0,1.2
			c0.1,1.4,0.1,2.5,0.1,3c0.1,0.9-0.1,1.4-0.7,1.5c-0.7,0.3-1.4,0.5-2.1,0.5c-0.9,0.3-1.4,0-1.3-0.9v-1.1h-3.9v5.4
			c1.2-0.3,2.2-0.6,3-1c0.1,0.1,0.2,0,0.3-0.1c-0.6-0.7-1.2-1.3-1.7-1.7c-0.2-0.1-0.3-0.3-0.3-0.4c0.1-0.1,0.3-0.3,0.5-0.3
			c2.5,0,4.5,0.6,6,1.8c1.3,1.6,1.4,3,0.2,4.3C273.1,171.8,271.9,171.4,271.2,169.7z M270.6,153.9h-3.9v3.4h3.9V153.9z M266.7,158.2
			v3.8h3.9v-3.8H266.7z M276.1,159.9v-4.1c-0.1-1.8-0.1-3.5-0.2-5.1c-0.1-0.4-0.1-0.7,0-0.9c0.1-0.1,0.4-0.2,0.8-0.1
			c0.9,0.3,2.1,0.7,3.7,1.3c0.1,0.1,0.1,0.2,0.2,0.2c0.1,0.1,0.1,0.1,0.2,0.2h1c0.4-1,0.9-1.6,1.3-1.7c1,0.1,2.3,0.8,3.9,2.2
			c0.6,0.7,0.5,1.2-0.2,1.5c-0.4,0.1-0.7,0.4-0.9,0.7c-1.2,2.2-2.5,4-3.7,5.5c3.5,2.2,5.4,4.5,5.4,7.1c-0.1,2.5-1.4,4.1-4,4.8
			c-0.7,0.2-1.2,0-1.3-0.8c-0.4-1.2-1.1-1.9-2.2-2.2c-0.1,0.1-0.1,0-0.2-0.1v5.4c0,0.5-0.3,0.9-0.8,1.2c-0.4,0.1-0.9,0.2-1.7,0.3
			c-0.1,0-0.3,0-0.3,0.1c-1,0.1-1.5-0.3-1.4-1.2C275.8,171.3,276,166.5,276.1,159.9z M281,159.9l1.3-7.6h-2.1
			c-0.2,0.3-0.3,0.6-0.3,0.9v14.4h0.2c2.3,0.2,3.5-0.5,3.5-2.1C283.5,163.6,282.6,161.7,281,159.9z"/>
		<path d="M293,161.8c0.1-1.4,0.9-2.1,2.4-2.3c1.4,0.1,2.1,0.9,2.3,2.3c-0.1,1.4-0.9,2.2-2.3,2.3C293.9,164,293.1,163.2,293,161.8z
			 M293,170.7c0.1-1.4,0.9-2.1,2.4-2.3c1.4,0.1,2.1,0.9,2.3,2.3c-0.1,1.2-0.9,1.8-2.3,2.1C293.9,172.6,293.1,171.9,293,170.7z"/>
		<path d="M333.4,168.6c0.1,0.1,0.1,0.2,0.1,0.2s0,0-0.2,0h-14c-0.5,0-1.1,0.1-1.5,0.3l-0.6-0.8c0.5,0.1,1.1,0.1,1.6,0.1h3.4v-2.6
			h-1.9c-0.5,0-1.1,0.1-1.5,0.3l-0.6-0.8c0.5,0.1,1.1,0.1,1.6,0.1h2.3c0-1,0-1.7-0.1-2.6l1.9,0.7c0.1,0.1,0.2,0.1,0.2,0.2
			c0,0.1-0.1,0.1-0.1,0.2l-0.6,0.4v1.1h3.9c0-1,0-1.7-0.1-2.5l1.8,0.6c0.1,0,0.1,0.1,0.1,0.1s-0.4,0.3-0.6,0.5v1.3h1.9l0.9-1.2
			l1.1,1.4c0.1,0.1,0.1,0.2,0.1,0.2s0,0-0.3,0h-3.9v2.6h2.4l1.1-1.3L333.4,168.6z M342.3,166.9c-0.2,1.3-0.2,2.3-0.2,3.2
			c0,1.5,0.2,2.4,0.4,2.9c0.3,0.6,0.4,0.9,0.4,1.1c0,0.1,0,0.3-0.2,0.3c-1,0-4.4-2.8-6.1-5.8c-1.5,2.3-3.3,4.2-5.8,5.9l-0.2-0.3
			c2.2-1.8,4-4.2,5.4-6.8c-1.3-3-1.7-6.9-1.9-12.3h-14.3c-0.6,0-1.3,0.1-1.8,0.3l-0.7-0.8c0.6,0.1,1.3,0.1,1.9,0.1h5.8v-2.7h-4
			c-0.5,0-1.1,0.1-1.5,0.3l-0.6-0.8c0.5,0.1,1.1,0.1,1.6,0.1h4.5V150c0-0.8,0-1.5-0.1-1.9l1.9,0.8c0.2,0.1,0.3,0.1,0.3,0.2
			c0,0.1-0.1,0.1-0.2,0.2l-0.6,0.4v1.7h3.6l1-1.4l1.4,1.6c0.1,0.1,0.1,0.2,0.1,0.2s0,0-0.2,0h-5.9v2.7h7.8c0-1.9-0.1-4.1-0.1-6.4
			l2.1,1.1c0.1,0.1,0.2,0.1,0.2,0.2s-0.1,0.1-0.2,0.2l-0.8,0.6c-0.1,1.4-0.1,2.9-0.1,4.3h4.9l1-1.4l1.6,1.6c0.1,0.1,0.2,0.2,0.2,0.2
			s0,0-0.3,0h-7.5c0,4.9,0.5,8.3,1.4,10.9c1.4-2.8,2.3-5.8,2.7-8.5l1.9,1c0.1,0.1,0.2,0.1,0.2,0.2c0,0.1-0.1,0.1-0.3,0.2
			c-0.6,0.3-0.9,0.5-1.1,1.2c-0.9,2.8-1.8,5.2-2.9,7.2c0.9,1.8,2.1,3.1,3.6,4.2l1-4.6L342.3,166.9z M324.6,170.6
			c0.1,0.1,0.1,0.1,0.1,0.1c0,0.1-0.1,0.1-0.2,0.1c-0.9,0.2-1,0.2-1.3,0.4c-2.9,1.7-4.3,2.5-5.4,3.1l-0.2-0.3c2.5-1.8,4-2.9,5.5-4.4
			L324.6,170.6z M331.9,157.2c0.1,0.1,0.2,0.2,0.2,0.2s0,0.1-0.1,0.1l-0.6,0.3v2.3c0,1,0.1,1.6,0.1,2.1v0.1c0,0.4-1.1,0.8-1.2,0.8
			c-0.1,0-0.1-0.1-0.1-0.8h-9v0.4c0,0.5-1.1,0.7-1.1,0.7c-0.2,0-0.2-0.1-0.2-0.4c0-0.3,0.1-1.8,0.1-2.1v-3.1c0-0.8,0-1.4-0.1-2
			l1.6,1.1h8.2l0.7-0.9L331.9,157.2z M325.1,159.4v-2.1h-4v2.1H325.1z M325.1,162v-2.1h-4v2.1H325.1z M327.4,168.4v-2.6h-3.9v2.6
			H327.4z M330.1,159.4v-2.1h-3.8v2.1H330.1z M330.1,162v-2.1h-3.8v2.1H330.1z M326.9,169.8c2.3,0.4,3.9,1.1,3.9,2.3
			c0,0.5-0.3,1-0.5,1s-0.4-0.1-0.6-0.5c-0.6-1-1.4-1.8-2.9-2.5L326.9,169.8z M337.1,149.7c1.4,0.4,2.9,1.3,3.1,1.9
			c0.1,0.2,0.1,0.4,0.1,0.5c0,0.6-0.3,1.2-0.7,1.2c-0.2,0-0.5-0.2-0.6-0.5c-0.3-0.9-1-2.1-2.1-2.8L337.1,149.7z"/>
		<path d="M357.2,153.3c0.1,0.1,0.2,0.2,0.2,0.3s-0.1,0.1-0.2,0.1h-7v5.9l6-2.5l0.1,0.3l-5.2,3c-1.1,0.7-1.5,1-1.7,1.3
			c-0.1,0.1-0.1,0.1-0.2,0.1s-0.1,0-0.2-0.1l-1.3-1.3c0.7-0.3,1.1-0.6,1.1-1.2v-5.5h-1.3c-0.5,0-1.2,0.1-1.6,0.3l-0.9-1
			c0.7,0.1,1.5,0.1,2.1,0.1h7.5l0.9-1.4L357.2,153.3z M370.3,172.4c0.1,0.1,0.2,0.3,0.2,0.3s-0.1,0.1-0.3,0.1H348
			c-0.6,0-1.4,0.1-1.9,0.3l-0.8-1c0.7,0.1,1.4,0.1,2,0.1h10v-3.7h-6.1c-0.6,0-1.4,0.1-1.9,0.3l-0.8-1c0.7,0.1,1.4,0.1,2,0.1h6.7
			v-3.2h-8.1c-0.6,0-1.4,0.1-1.9,0.3l-0.8-1c0.7,0.1,1.4,0.1,2,0.1h18.4l1.3-1.4l1.6,1.5c0.1,0.1,0.2,0.3,0.2,0.3
			c0,0.1-0.1,0.1-0.3,0.1h-11.1v3.2h5.9l1.1-1.5l1.7,1.6c0.1,0.1,0.2,0.3,0.2,0.3c0,0.1-0.1,0.1-0.3,0.1h-8.6v3.7h8.5l1.3-1.6
			L370.3,172.4z M349.6,148.6c2.1,1,3.1,1.9,3.3,2.6c0,0.1,0.1,0.3,0.1,0.4c0,0.6-0.5,1.3-0.9,1.3c-0.3,0-0.4-0.1-0.6-1.1
			c-0.1-0.7-0.7-1.7-2.1-2.9L349.6,148.6z M368.5,150.4c0.2,0.1,0.3,0.2,0.3,0.3c0,0.1-0.1,0.2-0.2,0.3l-0.8,0.6v8
			c0,1.9-0.1,2.3-1.8,3.2c-0.1,0.1-0.1,0.1-0.2,0.1c-0.1,0-0.2-0.1-0.2-0.3c-0.1-0.7-0.6-1.1-2.8-1.7l0-0.4c1.3,0.2,2.1,0.3,2.6,0.3
			c1,0,1.1-0.3,1.1-1.1v-1.6h-7.3c-0.7,2.4-2.2,4.3-4.9,5.9l-0.2-0.3c3.9-3.3,4.4-5.7,4.4-9.1v-3.2c0-0.7,0-1.3-0.1-1.9l1.5,0.9h6.2
			l0.8-1.2L368.5,150.4z M366.5,157.4v-2.8h-6.9c0,1-0.1,1.9-0.3,2.8H366.5z M366.5,154v-3.1h-6.9v3.1H366.5z"/>
		<path d="M381.1,149.4c0.2,0.1,0.3,0.1,0.3,0.2c0,0.1-0.1,0.1-0.3,0.3l-0.7,0.4v8.8c0,7.3-0.7,10.9-7.3,15l-0.3-0.3
			c5.4-4.5,6.3-7,6.3-14.7v-7.3c0-1.2,0-2.9-0.1-3.6L381.1,149.4z M376.4,155.9c0.1,0.9,0.1,1.7,0.1,2.4c0,1.7-0.3,2.8-0.6,3.3
			c-0.4,0.6-1,0.9-1.5,0.9c-0.4,0-0.7-0.3-0.7-0.5c0-0.2,0.1-0.4,0.5-0.9c1.3-1.6,1.6-2.3,1.8-5.2H376.4z M382,155.9
			c2.2,2.1,2.8,3.4,2.8,4.4c0,0.7-0.5,1.5-1.2,1.5c-0.4,0-0.4-0.5-0.4-1.3c0-1.2-0.3-2.6-1.4-4.3L382,155.9z M388.4,150.3
			c0.3,0.1,0.4,0.2,0.4,0.3s-0.1,0.2-0.4,0.3l-0.6,0.3v13.2c0,2.8,0,4.2,0.1,5.4v0.3c0,0.4-0.1,0.5-0.6,0.7
			c-0.3,0.1-0.4,0.2-0.6,0.2c-0.2,0-0.3-0.2-0.3-0.6V170c0.1-1.6,0.1-4.1,0.1-5.7v-11c0-1.8-0.1-3-0.1-4.1L388.4,150.3z
			 M389.6,156.1c1.9,2,2.7,3.3,2.7,4.4c0,0.9-0.7,1.4-1.1,1.4c-0.5,0-0.5-0.2-0.5-1.3c0-1.1-0.4-2.7-1.4-4.4L389.6,156.1z
			 M396.1,149.4c0.2,0.2,0.3,0.3,0.3,0.3s-0.1,0.2-0.3,0.3l-0.6,0.3V167c0,2.7,0,4.2,0.1,5.4v0.2c0,0.4-0.1,0.6-0.6,0.8
			c-0.3,0.1-0.5,0.2-0.6,0.2c-0.2,0-0.3-0.2-0.3-0.7v-0.3c0.1-1.6,0.1-4.1,0.1-5.7v-14.8c0-1.9-0.1-3-0.1-4.1L396.1,149.4z"/>
		<path d="M550.7,149.7c0.7,0.6,1.4,1.4,2.4,2.6c0.2,0.1,0.4,0.3,0.4,0.3c0.2,0.8,0,1.1-0.8,1c-0.4-0.1-0.9-0.1-1.7-0.2
			c-0.9,0.2-1.9,0.4-2.8,0.4c-0.9,0.1-1.8,0.1-2.8,0c0,0.1,0,0.3,0,0.4v5.6h3.6c0.9-1.4,1.5-2.1,1.8-2.2c0.9,0.3,1.8,1,2.9,2.2
			c0.1,0.6,0,0.9-0.3,0.9h-2.9v6.9c0,1.6,0.1,3.5,0.2,5.9c0.1,0.9-0.1,1.4-0.9,1.6c-0.8,0.1-1.7,0.3-2.6,0.4c-0.7,0-0.9-0.4-0.9-1.2
			c0.1-2.2,0.1-4.8,0.2-8v-5.6h-1.2c-0.1,4.6-0.7,7.8-1.8,9.6c-1,1.7-3.3,3.4-6.9,4.9c-0.4,0.1-0.6,0.1-0.7,0
			c-0.1-0.1-0.1-0.2,0.2-0.4c2-1.8,3.3-3.3,3.9-4.5c-0.1,0.1-0.1,0.1-0.2,0.1c0,0.1-0.1,0.2-0.2,0.3c-1.5,0.7-2.4,0.3-2.7-1.4
			c-0.1-0.9-0.4-2.1-1.1-3.4v1.8c-0.1,0.4-0.1,1,0,2.1c0.1,1,0.1,1.7,0.1,2c0.1,1.4-0.3,2.3-1.2,2.7c-0.7,0.4-1.6,0.7-2.5,0.9
			c-1.1,0.3-1.6,0.1-1.6-0.7c-0.1-1.2-0.8-1.8-1.8-2.1c-0.4-0.1-0.6-0.3-0.5-0.5c0.1-0.1,0.4-0.2,0.9-0.2c2.2,0.1,3.2-0.4,2.8-1.5
			v-3.3c-0.2,0.1-0.4,0.3-0.4,0.5c-1.3,2.7-2.8,4.6-4.6,5.6c-0.3,0.1-0.5,0.2-0.5,0.1c-0.1-0.1,0-0.3,0.1-0.5c0.6-1.4,1-2.9,1.3-4.5
			c0.1-0.4,0.1-0.9,0.2-1.4c0-0.5,0-1,0.1-1.5c-0.1-0.4,0.2-0.6,0.9-0.4c0.5,0.1,1.5,0.3,2.9,0.7v-1.3h-2.6c-0.5,0.1-1,0.1-1.6,0.2
			c-0.2,0.1-0.4,0-0.5-0.2c-0.1-0.1-0.3-0.2-0.3-0.3c-0.1-0.1-0.1-0.3-0.2-0.4c-0.1-0.1-0.2-0.1-0.1-0.2l0.3-0.1
			c0.6,0.2,1.6,0.3,3,0.2h2.1v-3.1h-2.6c-0.5,0.1-1,0.1-1.6,0.2c-0.2,0.1-0.4,0-0.5-0.2c-0.1-0.1-0.3-0.2-0.3-0.3
			c-0.1-0.1-0.1-0.3-0.2-0.4c-0.2-0.2-0.1-0.3,0.2-0.2c0.6,0.1,1.6,0.2,3,0.1h1.2c-0.7-0.1-1-0.7-1-1.5c0-1-0.3-2.1-0.9-3.3
			c-0.1-0.2-0.2-0.4-0.1-0.4c0.1-0.1,0.3-0.1,0.5-0.1c2.2,0.6,3.6,1.6,4,2.9c0.1,1.4-0.4,2.2-1.6,2.4h2.1c0.6-1.4,1-3.3,1.2-5.5
			h-5.4c-0.5,0.1-1,0.1-1.6,0.2c-0.3,0.1-0.5,0.1-0.5-0.1c-0.1-0.1-0.3-0.2-0.3-0.4c-0.1-0.1-0.3-0.3-0.3-0.4
			c-0.1-0.2-0.1-0.3,0.2-0.2c0.4,0.1,0.9,0.1,1.5,0.2c0.7,0,1.2,0,1.5,0h2.4c-0.6-0.1-0.9-0.7-1-1.5c-0.1-1.1-0.5-2-1-2.7
			c-0.2-0.1-0.3-0.3-0.2-0.3c0-0.1,0.1-0.1,0.4-0.2c2.5,0.1,4,0.8,4.7,2c0.3,1.4-0.2,2.4-1.4,2.7l-0.2,0.1h2.1
			c0.7-1.5,1.3-2.4,1.6-2.5c0.7,0.2,1.9,1,3.7,2.5c-0.2-0.7-0.3-1.2-0.2-1.3c-0.1-0.4-0.1-0.6,0-0.8c0.1-0.1,0.3-0.2,0.8-0.1
			c1.4,0.4,2.6,0.9,3.6,1.3c0.1,0.1,0.2,0.2,0.3,0.2c1.5-0.9,2.9-1.8,4-2.8C550,149.5,550.3,149.5,550.7,149.7z M540.8,154.1h-3.3
			c0.4,0.2,0.9,0.4,1.3,0.5c0.3,0.1,0.5,0.2,0.8,0.2c0.3,0.2,0.4,0.5,0.4,0.8c0,0.2-0.1,0.3-0.4,0.3c-0.6,0.1-1,0.3-1.2,0.5
			c-1.1,1.4-2,2.5-2.8,3.1h1.1c0.7-1.4,1.2-2.1,1.7-2.2c0.7,0.3,1.7,1,3,2.1v-2.6c0-0.4,0-0.9-0.1-1.6c0-0.7,0-1.2,0-1.5
			C541.2,153.9,541,154.1,540.8,154.1z M541,160.5h-4.8c0.1,0.3,0,0.5-0.2,0.5c-0.1,0.1-0.2,0.4-0.2,0.9v1.7h0.9
			c0.7-1.4,1.2-2.1,1.7-2.2c0.9,0.4,1.8,1,2.9,2.1c0-0.4,0-0.8,0-1.2c0.1-0.4,0.1-1,0.1-1.8C541.3,160.5,541.1,160.5,541,160.5z
			 M540.2,167.4c0.2,0.4,0.4,0.9,0.4,1.4c0.3-1.2,0.5-2.6,0.7-4.3c-0.1,0-0.3,0-0.3,0h-5.2v0.7h0.1
			C537.8,165.5,539.2,166.3,540.2,167.4z"/>
		<path d="M570.9,151.7c-0.1-0.9-0.5-1.8-1.2-2.7c-0.2-0.2-0.3-0.4-0.2-0.4c0.1-0.1,0.3-0.2,0.5-0.2c2.7,0.1,4.2,0.9,4.7,2.2
			c0.3,1.1,0,1.9-0.9,2.5h0.7c0.7-1.1,1.2-1.6,1.5-1.6c0.9,0.1,2,0.7,3.3,1.6c0.5,0.4,0.5,0.9,0.1,1.3c-0.3,0.3-0.4,0.6-0.4,0.9v1.6
			c-0.1,0.7,0,2.1,0.2,4.5c0,0.8-0.3,1.3-1,1.5c-0.1,0-0.1,0-0.2,0c0.2,0.1,0.8,0.6,1.6,1.3c0.2,0.2,0.3,0.4,0.2,0.7
			c-0.1,0.2-0.3,0.3-0.5,0.2c-0.4,0.1-0.7,0.1-1,0.2c-1.4,0.8-2.6,1.3-3.4,1.5c1.4,2.2,3.4,3.7,5.9,4.5c0.4,0.2,0.7,0.4,0.7,0.5
			c0,0.1-0.2,0.3-0.7,0.3c-1.2,0.4-2.1,1.3-2.6,2.5c-0.2,0.4-0.5,0.5-1,0.2c-1.7-1.3-2.9-2.7-3.7-4.1c-1.2,0.9-2.8,2-4.8,3.5
			c-0.5,0.2-0.8,0.5-1,0.9c-0.4,0.5-0.8,0.5-1.2,0.1c-0.7-0.8-1.3-1.7-1.7-2.8c-0.1-0.1-0.1-0.1-0.1-0.2l-0.1-0.1
			c-1.2,0.8-2.2,0.5-2.9-1c-0.1-0.1-0.3-0.3-0.3-0.5c-0.1-0.2-0.1-0.4-0.2-0.7c-1.2,1.4-2.9,2.7-5.1,3.8c-0.6,0.2-0.9,0.3-1,0.2
			c-0.2-0.1-0.1-0.5,0.4-1c1.5-1.5,2.8-3.3,3.8-5.3c-0.3-0.2-0.6-0.4-0.9-0.7c-0.2,0.1-0.4,0.1-0.7,0c-0.7,0-1.4-0.2-2.2-0.5
			c-0.2-0.1-0.4-0.1-0.4-0.2c-0.4-0.1-0.4-0.4-0.1-0.9c0.5-1.4,1.1-4.2,1.8-8.6c-0.3,0.1-0.7,0.2-1.3,0.1c-0.3,0.1-0.5,0.1-0.7-0.1
			c-0.1,0-0.2-0.2-0.3-0.7l-0.1-0.2c0-0.1,0.1-0.1,0.2-0.1c0.9,0.1,1.6,0.2,2.3,0.2c0.4-2.5,0.7-4.7,0.9-6.6
			c-0.1-0.6,0.2-0.8,1.1-0.7c0.6,0,1.6,0.2,2.9,0.5c0.3,0.1,0.5,0.2,0.5,0.4c0.1,0.3,0,0.5-0.2,0.7c-0.4,0.2-0.6,0.6-0.7,1.1
			c-0.1,0.6-0.3,1.3-0.4,2.3c-0.1,1-0.3,1.8-0.3,2.3h1c0.4-0.9,0.9-1.4,1.3-1.5c0.7,0.1,1.7,0.6,3.3,1.6c-0.1-1.2-0.1-2.3-0.2-3.4
			c-0.1-0.8,0.3-1.1,1-0.9c0.7,0.1,1.9,0.6,3.8,1.3h0.5C571,152.7,570.9,152.3,570.9,151.7z M562.1,156.6h-1.5
			c-0.5,3-1.1,5.9-1.7,8.8c0.4,0.1,0.9,0.3,1.3,0.3C561,163,561.7,160,562.1,156.6z M565.3,171.3c0.7-0.2,1-0.7,1-1.3v-12.7
			c-0.4,0.4-0.7,0.7-0.7,1.1c-0.6,3.3-1.4,6.2-2.6,8.5c0.2,0.1,0.5,0.4,1,0.8c0.1,0.1,0.3,0.1,0.4,0.2c1,1.1,1.3,2.2,0.8,3.5
			C565.1,171.3,565.2,171.3,565.3,171.3z M574.9,153.8H571c-0.5,0-0.7,0.1-0.7,0.4v2.6h4.6V153.8z M570.3,157.8v3.3h4.6v-3.3H570.3z
			 M570.3,170c0.1,0,0.4,0,0.7-0.1c0.9-0.2,1.5-0.4,2-0.7c-0.9-2-1.3-4.5-1.2-7.4h-1.4V170z M575.5,163.3c-0.4,0.1-0.7-0.2-0.7-0.8
			v-0.7h-2.1c0.4,1.3,0.8,2.5,1.4,3.6C574.7,164.9,575.1,164.2,575.5,163.3z"/>
		<path d="M586.4,161.8c0.1-1.4,0.9-2.1,2.4-2.3c1.4,0.1,2.1,0.9,2.3,2.3c-0.1,1.4-0.9,2.2-2.3,2.3
			C587.2,164,586.5,163.2,586.4,161.8z M586.4,170.7c0.1-1.4,0.9-2.1,2.4-2.3c1.4,0.1,2.1,0.9,2.3,2.3c-0.1,1.2-0.9,1.8-2.3,2.1
			C587.2,172.6,586.5,171.9,586.4,170.7z"/>
		<path d="M626.2,154.1c0.2,0.2,0.3,0.3,0.3,0.4s-0.1,0.2-0.4,0.2h-3.3c-0.6,3.9-1.5,6.6-2.6,9c2,2.5,3.7,4.9,3.7,6.3
			c0,0.9-0.5,1.4-0.9,1.4c-0.4,0-0.6-0.2-0.8-1.1c-0.3-1.3-1.2-3.1-2.6-5.4c-1.8,3.1-5.1,6.7-8.5,8.5l-0.2-0.4c3.3-2.5,6-5.6,8-9.3
			c-1.2-1.8-2.8-3.9-4.8-6.3l0.3-0.3c1.9,1.7,3.6,3.6,5.1,5.4c0.9-2.1,1.6-4.8,2-8h-7.6c-0.6,0-1.4,0.1-1.9,0.3l-0.8-1
			c0.7,0.1,1.4,0.1,2,0.1h10.5l1.1-1.5L626.2,154.1z M616.8,148.6c1.2,0.6,3.4,2.1,3.4,3.3c0,0.8-0.5,1.6-1,1.6
			c-0.3,0-0.4-0.1-0.6-1.2c-0.1-0.8-0.7-2.1-2-3.4L616.8,148.6z M629.7,152.7c0.2,0.1,0.3,0.2,0.3,0.3c0,0.1-0.1,0.2-0.3,0.3
			l-0.7,0.5v8c0,1.9,0,2.9,0.1,4v0.1c0,0.6-1.1,1-1.2,1c-0.2,0-0.3-0.2-0.3-0.8V166c0.1-1.5,0.1-2.8,0.1-4.2v-6.4
			c0-1-0.1-2.7-0.1-3.6L629.7,152.7z M634.9,149.7c0.2,0.1,0.3,0.2,0.3,0.3c0,0.1-0.1,0.2-0.3,0.4l-0.7,0.5v19.9
			c0,1.9-0.3,2.6-1.9,3.3c-0.1,0-0.1,0.1-0.2,0.1c-0.1,0-0.2-0.1-0.2-0.2c-0.3-1.1-1.1-1.4-4-2.2l0.1-0.5c1.8,0.3,2.9,0.5,3.7,0.5
			c1.3,0,1.3-0.4,1.3-1.3v-17.8c0-1.1-0.1-3-0.1-4.1L634.9,149.7z"/>
		<path d="M663.9,170.3c0.2,0.1,0.3,0.3,0.3,0.4c0,0.1-0.1,0.2-0.4,0.2H652v2.2c0,0.6-1.1,1-1.1,1c-0.2,0-0.3-0.2-0.3-0.7
			c0-0.7,0.1-4.1,0.1-4.9v-11.3c-1,1.8-2.1,3.3-3.3,4.8l-0.3-0.2c0.7-1,1.3-2,1.8-2.9h-3.1v12.5c0,1.4-0.4,1.8-1.7,2.5
			c-0.1,0.1-0.2,0.1-0.2,0.1c-0.1,0-0.3-0.1-0.3-0.3c-0.1-0.8-0.8-1.2-3.3-1.9l0.1-0.4c1.7,0.4,2.7,0.6,3.3,0.6
			c0.8,0,0.8-0.3,0.8-0.9v-10.2c-1.7,3.6-3.1,5.8-6,9.1l-0.3-0.3c2.9-4,4.3-6.5,5.9-10.7h-2.9l-0.6,0.7c-0.1,0.1-0.1,0.1-0.3,0.1
			c-0.1,0-0.1,0-0.3-0.1l-1.4-0.9l1-0.8l0.6-2.9c0.1-0.7,0.3-1.4,0.3-2l1.6,0.9c0.1,0.1,0.2,0.1,0.2,0.2c0,0.1-0.1,0.1-0.8,0.5
			l-0.7,3.6h3.5v-6.7H641c-0.6,0-1.4,0.1-1.9,0.3l-0.8-1c0.7,0.1,1.4,0.1,2,0.1h7.1l0.9-1.3l1.5,1.3c0.2,0.2,0.3,0.3,0.3,0.4
			c0,0.1-0.1,0.2-0.3,0.2h-4v6.7h1.1l0.9-1.2l1.4,1.3c1.5-2.8,2.5-5.6,3.9-9.6l1.7,0.9c0.2,0.1,0.3,0.2,0.3,0.3s-0.1,0.2-0.3,0.3
			c-0.6,0.2-0.8,0.4-1,1.1c-0.4,0.8-0.7,1.6-1.1,2.3h8.2l1.1-1.6l1.8,1.6c0.2,0.1,0.3,0.3,0.3,0.4c0,0.1-0.1,0.2-0.4,0.2h-6v4.8h2.6
			l1-1.4l1.6,1.4c0.2,0.2,0.3,0.3,0.3,0.4c0,0.1-0.1,0.2-0.4,0.2h-5.1v4.7h2.5l1-1.4l1.6,1.4c0.2,0.2,0.3,0.3,0.3,0.4
			s-0.1,0.2-0.4,0.2h-5v5.7h3.4l1.1-1.6L663.9,170.3z M656.3,158.7v-4.8h-3.9c-0.2,0.3-0.3,0.6-0.5,0.9v3.8H656.3z M656.3,164v-4.7
			H652v4.7H656.3z M656.3,170.3v-5.7H652v5.7H656.3z M656,148.5c2.3,1.3,2.9,2,2.9,3c0,0.7-0.5,1.1-0.8,1.1s-0.4-0.1-0.5-0.8
			c-0.2-1-0.6-1.9-1.8-3L656,148.5z"/>
		<path d="M678.4,158.1c0.2,0.2,0.3,0.3,0.3,0.4c0,0.1-0.1,0.2-0.4,0.2h-9.7c-0.6,0-1.4,0.1-1.9,0.3l-0.8-1c0.7,0.1,1.4,0.1,2,0.1h4
			v-2.6H670c-0.6,0-1.4,0.1-1.9,0.3l-0.8-1c0.7,0.1,1.4,0.1,2,0.1h2.4v-2.5h-3c-0.6,0-1.4,0.1-1.9,0.3l-0.8-1c0.7,0.1,1.4,0.1,2,0.1
			h3.6c0-1.1-0.1-2.6-0.1-3.5l2,0.9c0.2,0.1,0.2,0.1,0.2,0.2c0,0.1-0.1,0.1-0.2,0.2l-0.7,0.4v1.9h2.6l1-1.3l1.4,1.4
			c0.2,0.2,0.3,0.3,0.3,0.4c0,0.1-0.1,0.2-0.4,0.2h-4.9v2.5h2.3l0.8-1.2l1,1.2c0.2,0.2,0.3,0.3,0.3,0.4c0,0.1-0.1,0.2-0.4,0.2h-4
			v2.6h3.2l0.8-1.2L678.4,158.1z M676.8,161c0.2,0.1,0.3,0.2,0.3,0.3s-0.1,0.2-0.3,0.3l-0.6,0.4v9.7c0,1.5-0.1,1.6-1.4,2.3
			c-0.1,0-0.1,0.1-0.2,0.1c-0.1,0-0.2-0.1-0.2-0.3c-0.1-0.7-0.3-0.9-2.4-1.4l0.1-0.3c1.1,0.1,1.8,0.2,2.2,0.2c0.6,0,0.7-0.2,0.7-0.5
			v-3.8h-5.6v5.3c0,0.4-0.1,0.5-0.6,0.7c-0.2,0.1-0.4,0.2-0.5,0.2c-0.2,0-0.2-0.2-0.2-0.6c0-0.6,0.1-3.7,0.1-3.9v-5.5
			c0-1.1-0.1-3-0.1-4.1l1.5,1.1h5l0.6-1L676.8,161z M675,164.1v-2.5h-5.6v2.5H675z M675,167.3v-2.6h-5.6v2.6H675z M691.9,161.1
			c0.2,0.2,0.2,0.3,0.2,0.4c0,0.1-0.1,0.2-0.4,0.2h-2.9c0,1.9,0.1,3.6,0.1,4.7v0.2c0,0.4-0.1,0.5-0.6,0.8c-0.3,0.1-0.4,0.2-0.6,0.2
			c-0.2,0-0.2-0.1-0.2-1h-3.6v5.4c0,1.5-0.1,1.6-1.9,2.4c-0.1,0-0.1,0.1-0.2,0.1c-0.1,0-0.1-0.1-0.2-0.3c-0.1-0.7-0.4-1-3.1-1.7
			l0.1-0.4c1.7,0.3,2.6,0.4,3.2,0.4c0.8,0,0.8-0.3,0.8-0.9v-5.1h-2.1c-0.6,0-1.4,0.1-1.9,0.3l-0.8-1c0.7,0.1,1.4,0.1,2,0.1h2.7v-4.2
			h-2.9c-0.6,0-1.4,0.1-1.9,0.3l-0.8-1c0.7,0.1,1.4,0.1,2,0.1h3.6v-3.9h-1.5c-0.6,0-1.4,0.1-1.9,0.3l-0.8-1c0.7,0.1,1.4,0.1,2,0.1
			h2.3l2.6-4.1h-4.6c-1,1.4-2.3,2.9-3.4,4.1l-0.3-0.2c2.1-2.8,3.8-5.6,4.7-8l1.6,1c0.2,0.1,0.3,0.2,0.3,0.3c0,0.1-0.1,0.1-0.4,0.2
			c-0.7,0.1-0.9,0.2-1.1,0.6c-0.3,0.4-0.6,0.9-1,1.5h4.3l0.6-0.7l1.8,1.3c0.1,0.1,0.2,0.2,0.2,0.3c0,0.1-0.1,0.1-0.3,0.1
			c-1,0.1-1.8,0.6-4.4,3.7h3.7l0.8-1.2l1.7,1.2c0.1,0.1,0.2,0.1,0.2,0.2c0,0.1-0.1,0.1-0.2,0.2l-0.8,0.4v3.7h0.6l1-1.4L691.9,161.1z
			 M687.7,161v-3.9h-3.6v3.9H687.7z M687.7,165.8v-4.2h-3.6v4.2H687.7z"/>
		<path d="M404.3,210.2h-9v2.1c0,0.5,0,1,0,1.5c0.1,0.7,0.1,1.4,0.1,2.1c0.1,0.7-0.3,1.1-1,1.3c-0.6,0.1-1.6,0.2-2.9,0.3
			c-0.6,0-0.8-0.3-0.7-1c0-0.5,0-1.1,0-1.8c0.1-1.3,0.2-2.6,0.2-3.9v-0.5h-6.2c-0.5,0.1-1,0.1-1.5,0.2c-0.3,0.1-0.5,0-0.5-0.2
			c-0.2-0.1-0.4-0.4-0.4-0.8c-0.1-0.1-0.1-0.1-0.1-0.2c0-0.1,0.1-0.1,0.3-0.1c0.7,0.2,1.7,0.3,2.8,0.3h5.6v-3.8h-3.1
			c-0.7,0-1.3,0-1.6,0.1c-0.2,0.1-0.4,0-0.4-0.2c-0.1-0.1-0.3-0.2-0.3-0.3c-0.9,0.7-2.5,1.5-4.7,2.3c-0.4,0.2-0.7,0.3-0.9,0.1
			c-0.1-0.2,0.1-0.5,0.4-0.8c2.9-2.3,5-5,6.2-8.1h-1.4c-1.4,0.1-2.8,0.1-3.9,0.2c-0.2,0.1-0.4,0.1-0.5-0.1c-0.1-0.1-0.3-0.2-0.3-0.4
			c-0.1-0.1-0.2-0.3-0.2-0.4c-0.1-0.1-0.2-0.1-0.2-0.2c0.1-0.1,0.2-0.1,0.3-0.1c1.1,0.2,3,0.3,5.8,0.2h9.6c1-2.2,1.7-4.5,2.1-7.1
			c0-0.5,0.3-0.7,0.9-0.5c1.8,0.6,3.3,1.1,4.6,1.6c0.2,0.1,0.3,0.4,0.3,0.7c0,0.2-0.1,0.3-0.4,0.3c-0.4,0.1-0.9,0.4-1.3,0.9
			c-2,2-3.4,3.4-4.2,4.1h3.5c1.2-1.6,2-2.4,2.4-2.4s1.4,0.8,2.9,2.4c0.1,0.3,0.2,0.5,0.1,0.8c-0.1,0.1-0.2,0.2-0.4,0.2
			c-0.7,0-1.5,0-2.6,0c-0.9-0.1-2.3-0.1-4.1-0.1H398c1.1,2.5,3.9,4,8.4,4.7c0.5,0.1,0.8,0.3,0.8,0.3c0,0.2-0.2,0.4-0.7,0.7
			c-1,0.4-1.7,1.3-2.2,2.7c-0.1,0.2-0.3,0.3-0.5,0.3c-0.1,0.1-0.3,0.1-0.5,0c-0.1-0.1-0.3-0.1-0.3-0.2c-0.9-0.5-1.6-1-2.3-1.6
			c-0.1,0-0.1,0-0.2,0.1c-0.1,0.1-0.1,0.1-0.1,0h-5v3.8h4.2c1-1.4,1.7-2.2,2.2-2.3c0.6,0.1,1.5,0.8,2.8,2.3c0.1,0.2,0.2,0.4,0.1,0.5
			C404.6,210.1,404.5,210.2,404.3,210.2z M385.5,195.4c-0.2-1.3-0.5-2.4-1-3.1c-0.2-0.6-0.1-0.8,0.3-0.8c2.6,0.4,4.2,1.4,4.7,3
			c0.2,1.4-0.3,2.4-1.6,2.9C386.5,197.9,385.8,197.2,385.5,195.4z M395.3,203.2v1.5h1c0.9-1.3,1.6-2,1.8-2l0.1,0.1
			c0,0.1,0,0.1,0.1,0c-0.8-1.3-1.3-2.7-1.6-4.2h-4.8c-0.4,0.3-0.7,0.6-0.9,0.9c-2,2.6-3.5,4.3-4.8,5.1c0.6,0.1,1.3,0.2,2.2,0.1h2.6
			v-0.2c-0.1-1.2-0.1-2.3-0.2-3.4c-0.1-0.7,0.2-1,1-0.9c1.2,0.1,2.4,0.4,3.8,0.8c0.3,0.1,0.5,0.3,0.5,0.5c0,0.3-0.1,0.5-0.4,0.7
			C395.4,202.5,395.2,202.8,395.3,203.2z M391.1,194.9c-0.1-1.3-0.4-2.5-1-3.5c-0.2-0.6-0.1-0.8,0.3-0.8c2.9,0.7,4.6,2,5,3.8
			c0.1,1.7-0.5,2.6-2,2.9C391.9,197.7,391.1,196.9,391.1,194.9z"/>
		<path d="M415.6,195.6c0.5,0.3,1.4,0.8,2.6,1.4c0.2,0.1,0.4,0.3,0.7,0.3c0.3,0.2,0.4,0.5,0.4,0.8c0,0.2-0.2,0.4-0.5,0.4
			c-0.5,0.1-0.9,0.4-1.2,0.8c-0.2,0.3-0.4,0.5-0.7,0.8c-0.1,0.2-0.4,0.6-0.9,1.1l0.1,0.1c0.1,0.1,0.1,0.1,0.2,0
			c0.6,0.3,0.7,0.7,0.3,1.1c-0.4,0.1-0.6,0.5-0.5,1v7.3c-0.1,0.6-0.1,1.3,0,2.2c0.1,0.7,0.1,1.4,0.1,2c0.1,1-0.3,1.7-1,2
			c-0.7,0.1-1.4,0.3-2.2,0.4c-0.7,0.1-1,0-1.2-0.1c-0.1-0.1-0.2-0.5-0.1-1c0.1-2,0.1-3.8,0.2-5.2V205c-1.2,0.9-2.3,1.6-3.5,2.3
			c-0.3,0.1-0.5,0.2-0.5,0.1c-0.1-0.1,0-0.3,0.2-0.5c2.8-3,5-6.5,6.5-10.6C414.8,195.7,415.1,195.5,415.6,195.6z M415.3,190.1
			c1.2,0.9,2.2,1.6,2.9,2.2c0.2,0.3,0.3,0.6,0.2,0.9c-0.1,0.2-0.3,0.3-0.5,0.3c-0.5,0-0.9,0.1-1.2,0.4c-2.6,2.2-5.3,4-8.1,5.4
			c-0.3,0.1-0.4,0.1-0.4,0c-0.1-0.1,0-0.3,0.2-0.5c2.7-2.6,4.7-5.4,6-8.4C414.4,190.1,414.8,190,415.3,190.1z M425.4,211.8v-10.4
			h-4.9c-0.7,0.1-1.4,0.1-2.1,0.2c-0.1,0.1-0.3,0.1-0.5,0v-0.1c-0.3-0.2-0.5-0.5-0.5-0.8c-0.1-0.1-0.2-0.1-0.2-0.2
			c0.1-0.1,0.2-0.1,0.3-0.1c0.8,0.1,1.9,0.2,3.4,0.2h9c1-1.4,1.7-2.2,2-2.2c0.7,0.2,1.5,0.9,2.6,2.2c0.2,0.3,0.3,0.5,0.2,0.8
			c-0.1,0.1-0.3,0.2-0.5,0.1c-1.4,0.1-2.6,0-3.6-0.1c0.1,0.2,0,0.4-0.3,0.7c-0.4,0.1-0.5,0.4-0.5,0.8v5.5c0,0.9,0,2,0,3.3
			c0.1,1.2,0.1,2.1,0.2,2.5c0.1,1.3-0.3,2.1-1.1,2.4c-0.1,0-0.1,0-0.2,0c-1.2,0.4-2.1,0.7-2.8,0.8c-0.9,0.1-1.4-0.1-1.5-0.7
			c-0.1-1.1-0.7-1.8-2-2.3c-0.7-0.3-1-0.5-0.8-0.8l1.1-0.1C424.6,213.5,425.5,213,425.4,211.8z M427.2,194.3h-4.9
			c-0.8,0.1-1.5,0.1-2.1,0.2c-0.1,0-0.3,0-0.4-0.1c-0.1,0-0.1,0-0.1-0.1c-0.2-0.2-0.4-0.4-0.4-0.7l-0.1-0.2c0.1-0.1,0.2-0.1,0.3-0.1
			c0.9,0.1,1.9,0.2,3.1,0.2h5.4c0.9-1.4,1.5-2.1,1.8-2.1c0.7,0.2,1.6,0.9,2.7,2.1c0.2,0.3,0.3,0.5,0.2,0.7c-0.1,0.1-0.3,0.2-0.7,0.2
			c-0.4,0-1,0-1.8,0C429.6,194.4,428.5,194.4,427.2,194.3z"/>
		<path d="M446.3,206.2c-3.8,1.3-6.2,2.4-7.3,3.1c-0.7,0.6-1.1,0.5-1.4-0.2c-0.1-0.1-0.2-0.5-0.4-1c-0.2-0.7-0.4-1.4-0.5-2.2
			c-0.1-0.2-0.1-0.4,0-0.7h0.1c0.1-0.1,0.4-0.1,0.7-0.2c0.7-0.1,1.3-0.6,1.8-1.3c0.6-0.7,1.2-1.5,1.7-2.5c-0.7,0.3-1.4,0.5-2,0.8
			c-0.6,0.3-0.9,0.4-1.1,0.4c-0.7,0.7-1.2,0.6-1.4-0.2c-0.1-0.2-0.2-0.5-0.4-1c-0.2-0.5-0.4-1-0.4-1.5c-0.1-0.2-0.1-0.4,0-0.5
			c0.1-0.1,0.3-0.3,0.5-0.4c0.9-0.3,1.5-0.9,1.8-1.7c0.8-2.1,1.4-4.1,1.8-6c0-0.7,0.4-1,1.2-0.8c1.6,0.4,2.9,0.9,4,1.5
			c0.3,0.3,0.4,0.6,0.4,0.9c-0.1,0.4-0.3,0.5-0.7,0.5c-0.5,0.2-0.9,0.5-1.3,1c-1.5,2-3.1,3.6-4.8,5c0.7,0,1.8,0.1,3.4,0.2
			c0.8-1.4,1.4-2.6,1.7-3.6c0.1-0.7,0.6-0.9,1.3-0.7c0,0.1,0.1,0.1,0.2,0.2c1.1,0.4,1.9,0.7,2.5,1h3.3v-1.3c-0.1-1.1-0.1-2-0.1-2.8
			c0-0.5,0-0.8,0-1c-0.1-0.4-0.1-0.7,0-0.8c0.1-0.1,0.4-0.2,1-0.2c0.3,0.1,0.6,0.1,0.9,0.2c1.4,0.1,2.4,0.3,2.9,0.5
			c0.6,0.3,0.7,0.7,0.2,1.1c-0.4,0.3-0.5,0.7-0.5,1.1v3.1h1.8c0.7-1.2,1.4-1.9,2-2.3c1.2,0.5,2.3,1.3,3.1,2.3
			c0.2,0.6,0.1,0.9-0.3,0.9c-0.8,0-2.6,0-5.3,0h-1.3v5.2h1c0.9-1.4,1.5-2.2,2-2.4c1.1,0.4,2.2,1.2,3.4,2.4c0.2,0.6,0.1,0.9-0.4,0.9
			c-0.5,0-1.2,0-2.2,0c-1-0.1-1.8-0.1-2.4-0.1h-7.1c-0.9,0.1-1.7,0.1-2.3,0.2c-0.3,0.1-0.5,0-0.5-0.1c-0.1-0.1-0.2-0.2-0.3-0.3
			c-0.1-0.1-0.2-0.3-0.2-0.4l-0.2-0.2c0-0.1,0.1-0.1,0.3-0.1c1.2,0.2,2.5,0.3,4.1,0.2h0.5v-5.2h-2c0.4,0.7,0.3,1.2-0.4,1.3
			c-0.7,0.1-1.2,0.3-1.6,0.8c-1.8,2.1-4,4.1-6.6,6c1.7-0.1,3.6-0.1,5.6-0.2c0.4,0.1,0.7,0.3,0.8,0.5
			C447,205.9,446.8,206.1,446.3,206.2z M439.1,215.2c-0.4,0.2-0.6,0.5-0.8,0.9c-0.4,0.5-0.8,0.4-1.2-0.4c-0.1-0.2-0.6-1.3-1.3-3.1
			c-0.3-0.6-0.1-0.9,0.7-1c2.1-0.3,5.5-1,10.2-2.2c0.4-0.1,0.6-0.1,0.8,0.1c0,0.2-0.1,0.4-0.4,0.7c-0.7,0.4-1.7,1.1-3,2.1
			C442.1,213.2,440.5,214.2,439.1,215.2z M451.5,214.4v0.9c0.1,1.2-0.9,1.8-3,2c-0.9,0.1-1.4-0.1-1.3-0.7c0.1-1.8,0.1-3.5,0.2-5.2
			c0.1-0.9,0.1-1.7,0.1-2.2c-0.1-1.6-0.1-2.6-0.2-3c-0.2-0.8,0.1-1.1,1.1-1c1.7,0.6,2.9,1.1,3.7,1.6h3.9c0.6-1.1,1-1.7,1.4-1.7
			c1.9,0.7,3.1,1.4,3.8,2.2c0.1,0.3-0.1,0.6-0.4,0.9l-0.1,0.1c-0.2,0.1-0.3,0.4-0.2,0.7c0,1.7,0.1,3.8,0.2,6.2
			c0.2,1.1-0.9,1.8-3.3,2.1c-0.9,0.1-1.2-0.2-1.1-0.9v-1.8H451.5z M456.3,207.6h-4c-0.4,0.1-0.7,0.3-0.7,0.8v5.2h4.7V207.6z"/>
		<path d="M471.2,213.4c-0.4-0.7-0.7-1.4-1.1-2.2c-1.4,1.7-3.3,3.1-5.8,4.5c-0.5,0.2-0.8,0.3-1,0.2c-0.1-0.2,0.1-0.5,0.4-1
			c1.7-1.7,3.1-3.7,4.2-5.9c-0.1,0-0.1,0-0.2,0c0-0.1,0-0.1,0-0.2c-0.1,0.3-0.3,0.4-0.8,0.3c-1-0.1-1.9-0.4-2.7-0.8
			c-0.3-0.1-0.4-0.3-0.2-0.8c0.6-2.1,1.1-5.1,1.5-8.9h-0.1c-0.7,0-1.3,0-1.6,0.1c-0.2,0.1-0.4,0-0.4-0.1c-0.1-0.1-0.3-0.3-0.4-0.5
			c0-0.1,0-0.1,0-0.2l-0.1-0.2c0-0.1,0.1-0.1,0.3-0.1c0.9,0.1,1.7,0.2,2.5,0.2c0.1-1.4,0.3-2.7,0.3-3.9c0.1-1.2,0.1-2.1,0.2-2.8
			c-0.1-0.6,0.2-0.8,1-0.8c0.1,0.1,0.3,0.1,0.5,0.1c0.5,0.1,1.4,0.2,2.6,0.3c0.3,0.1,0.5,0.2,0.5,0.4c0.1,0.3,0,0.5-0.2,0.7
			c-0.4,0.2-0.5,0.6-0.5,1.2c-0.2,1.7-0.4,3.3-0.7,4.8h0.1c0.6-1,1-1.5,1.3-1.5c0.7,0.1,1.9,0.6,3.6,1.6c0.6,0.6,0.5,1.1-0.1,1.5
			c-0.4,0.3-0.5,0.7-0.5,1.1c-0.4,3.2-1.1,5.9-2.3,8.1c0.9,0.5,1.8,1.1,2.5,1.8c1.2,1.3,1.2,2.5,0.2,3.7
			C472.9,215.3,471.8,215,471.2,213.4z M470.2,198.8h-0.8c-0.2,1.4-0.4,2.9-0.7,4.5c-0.3,1.5-0.5,3-0.8,4.5c0.1,0,0.2,0,0.3,0.1
			c0.1,0,0.1,0,0.2,0C469.5,205.4,470.1,202.4,470.2,198.8z M475.3,201.4V196c-0.1-0.9-0.1-1.9-0.2-3.1c-0.1-0.3,0-0.5,0.1-0.7
			c0.1-0.1,0.3-0.1,0.8,0c0.9,0.2,2,0.5,3.3,1c0.1,0.1,0.1,0.1,0.2,0.1c2.5-0.7,4.5-1.6,6.1-2.5c0.4-0.3,0.8-0.3,1.2,0.1
			c0.2,0.3,0.7,0.8,1.3,1.6c0.4,0.4,0.7,0.7,0.9,0.9c0.1,0.3,0.1,0.5,0,0.8c-0.2,0.1-0.4,0.1-0.7,0c-0.2,0-0.6,0-1.1,0
			c-0.3,0-0.8,0-1.4,0.1c-0.7,0.1-1.3,0.1-1.6,0c-0.1,1.4-0.1,2.5,0.2,3.5h1c0.6-1.2,1.2-1.9,1.7-2.2c0.9,0.2,2,0.9,3.3,2.1
			c0.1,0.6,0,0.9-0.3,1h-5.4c0.4,1.2,1,2.3,1.8,3.1c1,1.1,2,0.7,2.8-1.1c0.2-0.5,0.4-0.8,0.7-0.8c0.2,0.1,0.3,0.5,0.1,1
			c-0.5,1.4-0.5,2.5,0.1,3.1c0.4,1,0.3,1.7-0.2,2.1c-0.7,0.4-1.3,0.5-1.7,0.3c-0.1,0.1,0,0.2,0.1,0.1c0.5,0.5,0.5,1,0,1.4
			c-0.2,0.1-0.3,0.4-0.3,0.8c-0.1,2.1,0,4.3,0.1,6.5c0,0.8-0.3,1.3-0.9,1.4c-0.4,0.1-0.9,0.3-1.7,0.4c-0.1,0-0.3,0-0.3,0.1
			c-0.9,0.2-1.3,0-1.2-0.7v-1.6h-4.1v1.1c0,0.5-0.3,0.9-1,1.1c-0.4,0.1-1.1,0.2-2,0.3c-0.7,0.1-0.9-0.2-0.9-1v-7.5
			c-0.1-0.7-0.1-1.5-0.2-2.6c-0.5-0.5-1-1.3-1.4-2.3c-0.2-0.5-0.1-0.9,0.3-1.2C475.1,202.5,475.3,202,475.3,201.4z M483.4,206.5
			c0-0.1,0.1-0.2,0.2-0.3c0.5-0.7,0.9-1,1.1-1.2c-0.9-0.7-1.6-1.6-2.2-2.6c-2.1,1.3-3.7,2.4-4.8,3.3c0.8,0.3,1.7,0.6,2.7,0.9H483.4z
			 M480.5,194.4c-0.5,0-1,0-1.5,0c0,0.1,0,0.1-0.1,0.2c0,0.1,0,0.1,0,0.2v2.8h2.1C480.8,196.8,480.6,195.7,480.5,194.4z
			 M478.9,201.7c1-0.1,2-0.2,3-0.4c-0.4-0.8-0.7-1.7-0.9-2.7h-2.2V201.7z M483.9,207.4h-3.5c-0.5,0-0.7,0.2-0.7,0.5v2.4h4.1V207.4z
			 M479.8,214h4.1v-2.8h-4.1V214z"/>
		<path d="M510.7,203H508c2.4,6,5.5,9.5,9.3,10.4c0.4,0.1,0.6,0.2,0.7,0.3c-0.1,0.2-0.3,0.4-0.5,0.7c-1.2,0.3-2.2,1-3.3,2.2
			c-0.4,0.5-0.8,0.6-1.3,0.3c-2.9-1.9-4.7-5.7-5.3-11.4c-1.2,6.2-5.5,10.1-13.1,11.6c-0.4,0.1-0.7,0-0.8-0.1c0-0.3,0.2-0.5,0.7-0.7
			c5.4-2.7,8.4-7.1,9.2-13.4h-3.3c-0.3,0-0.7,0-1.2,0.1h-0.4c-0.1,0.1-0.3,0.1-0.3,0c-0.4,6.9-2.6,11.5-6.7,13.6
			c-0.3,0.1-0.5,0.2-0.7,0.1c-0.1-0.1-0.1-0.3,0-0.5c2.2-2.6,3.2-7.7,3.1-15.3v-2.1c-0.1-2.2-0.2-3.9-0.4-5.1
			c-0.1-0.9,0.1-1.2,0.9-1c1.8,0.5,3.2,0.9,4.1,1.3c0.1,0.1,0.3,0.2,0.4,0.4h0.1h5.1c-0.4-0.1-0.5-0.5-0.5-1.1
			c-0.1-1.2-0.5-2.1-1-2.7c-0.2-0.1-0.3-0.3-0.2-0.3c0-0.1,0.1-0.2,0.4-0.2c2.6-0.1,4.2,0.5,4.8,1.8c0.4,1.2-0.1,2-1.5,2.5h5.3
			c0.8-1.4,1.5-2.2,2.1-2.6c1.1,0.4,2.3,1.3,3.7,2.7c0.1,0.5,0,0.8-0.4,0.9c-0.7,0-1.5,0-2.5,0c-0.9-0.1-2.2-0.1-3.9-0.1h-11.7
			c-0.3,0.1-0.4,0.4-0.3,0.9v3.3c0,0.4,0,0.8-0.1,1.4c0,0.5,0,0.9,0,1.1c0.5,0.1,1.4,0.2,2.6,0.1h2.6l0.1-1c0.1-1.2,0-2.7-0.1-4.5
			c-0.1-0.7,0.1-0.9,0.9-0.9c0.2,0.1,0.9,0.2,2.1,0.3c1.1,0.1,1.8,0.2,2.1,0.2c0.3,0.1,0.5,0.3,0.5,0.5c0,0.3-0.1,0.5-0.4,0.7
			c-0.3,0.2-0.4,0.7-0.4,1.3c0,0.4,0,1-0.1,1.8c0,0.7,0,1.1,0,1.4h3.1c0.8-1.4,1.4-2.2,2-2.4c1,0.4,2.1,1.3,3.3,2.5
			c0.3,0.6,0.2,0.9-0.3,0.9c-0.4,0-1.1,0-2,0C513.5,203.1,512.3,203,510.7,203z"/>
		<path d="M542.7,208.8h-20c-0.7,0.1-1.3,0.1-1.8,0.1c-0.6,0.1-1,0.1-1.3,0.2c-0.3,0.1-0.5,0-0.5-0.2c-0.1-0.1-0.3-0.2-0.3-0.4
			c-0.1-0.1-0.2-0.3-0.2-0.4c-0.1-0.2,0-0.3,0.2-0.3c0.4,0.2,1.5,0.3,3.3,0.2v-9.1c-0.1-1.4-0.1-2.8-0.2-4c-0.1-0.4,0-0.6,0.1-0.7
			c0.1-0.1,0.3-0.2,0.8-0.1c1.5,0.4,2.8,0.9,3.7,1.3c0,0.1,0,0.1,0.1,0.1c0.1,0.1,0.1,0.1,0.2,0.1h0.7v-0.9
			c-0.1-0.9-0.1-1.8-0.1-2.5c0-0.4,0-0.7,0-0.9c-0.2-0.7,0-1,0.8-1c1.6,0.2,2.8,0.4,3.6,0.7c0.4,0.2,0.5,0.5,0.2,0.9
			c-0.4,0.4-0.6,0.7-0.5,1.1v2.6h1.6v-0.9c-0.1-1.4-0.1-2.5-0.2-3.4c-0.1-0.8,0.1-1.1,0.9-1c1.7,0.2,2.9,0.4,3.6,0.7
			c0.4,0.2,0.5,0.5,0.2,0.9c-0.4,0.3-0.6,0.6-0.5,1v2.7h1c0.7-0.9,1.2-1.4,1.6-1.5c1.7,0.7,2.9,1.5,3.8,2.6c0,0.4-0.2,0.6-0.5,0.8
			c-0.4,0.2-0.5,0.5-0.5,0.8v8.5c0.5-0.6,0.9-0.9,1.1-1c0.4,0.1,1.3,0.9,2.5,2.3c0.1,0.3,0.2,0.5,0.2,0.8c-0.1,0.1-0.2,0.2-0.4,0.1
			C544.4,208.8,543.5,208.8,542.7,208.8z M527.7,209.1c0.7,0.2,2.1,1,4.2,2.3c0.2,0.2,0.3,0.5,0.3,0.8c-0.1,0.2-0.3,0.3-0.5,0.3
			c-0.8,0.1-1.4,0.3-1.8,0.5c-3,2-6.4,3.4-10.4,4.2c-0.4,0-0.6-0.1-0.7-0.2c-0.1-0.1,0-0.3,0.3-0.4c4-2.5,6.5-5,7.7-7.3
			C526.9,209.1,527.1,209,527.7,209.1z M526,197.3v4.3h1.6v-5.2h-1.2C526.1,196.7,526,197,526,197.3z M526,202.4v5.5h1.6v-5.5H526z
			 M531.2,196.4v5.2h1.6v-5.2H531.2z M531.2,202.4v5.5h1.6v-5.5H531.2z M533.5,210.4c-0.4-0.1-0.5-0.3-0.5-0.4
			c0.1-0.1,0.3-0.1,0.7-0.2c3.7,0.2,6.7,1.1,9,2.6c1.6,1.4,1.7,2.9,0.4,4.3c-1.2,0.7-2.1,0.7-2.8-0.2
			C538.2,214,536,211.9,533.5,210.4z M538.1,196.4h-1.6v5.2h1.6V196.4z M536.5,202.4v5.5h1.6v-5.5H536.5z"/>
		<path d="M349.4,250.1v-1.8c0-0.6,0-1.2,0-1.7c-0.1,0.1-0.3,0.3-0.5,0.4c-0.2,0.1-0.4,0.3-0.4,0.3c-0.3,0.2-0.5,0.3-0.5,0.1
			c-0.1-0.1-0.1-0.4,0.1-0.7c1.7-2.5,2.6-4.8,2.7-7.1c0-0.2,0.1-0.3,0.4-0.3v-1.7c-1.1,0-1.8,0-2.3,0.1c-0.4,0.1-0.7,0-0.7-0.1
			c-0.1-0.1-0.3-0.2-0.4-0.4c-0.1-0.1-0.1-0.3-0.1-0.3c0-0.2,0.1-0.3,0.2-0.3c1.1,0.2,2.2,0.3,3.3,0.2v-1.5c0-0.3,0-0.7-0.1-1.2
			c0-0.4,0-0.8,0-1.1c-0.1-0.7,0.1-1,0.9-1c0.5,0.1,1,0.1,1.4,0.2c0.4,0.1,1,0.2,1.7,0.3c0.3,0.1,0.5,0.2,0.5,0.4
			c0.1,0.2,0,0.4-0.3,0.7c-0.2,0.2-0.3,0.5-0.3,0.9v2.3h2.1v-1.3c0-0.7-0.1-1.5-0.2-2.4c-0.2-0.8,0.1-1.1,0.9-1
			c1.1,0.1,2.1,0.3,3.1,0.4c0.6,0.4,0.7,0.8,0.3,1.2c-0.4,0.2-0.5,0.5-0.4,0.9v2c0.8-1.1,1.4-1.7,1.7-1.7c0.5,0.2,1.2,0.8,2.2,1.8
			c0.1-0.6,0.1-1.2,0.1-2c0-0.7,0-1.4,0-2.2c-0.1-0.5,0.2-0.7,0.8-0.7c0.1,0.1,0.3,0.1,0.5,0.2c1.8,0.4,3.1,0.8,3.8,1
			c0.3,0.2,0.4,0.4,0.4,0.7c0,0.3-0.1,0.5-0.4,0.5c-0.7,0.4-1,0.9-1.1,1.3c-0.4,1.2-0.9,2.4-1.4,3.6h2.9c0.9-1.3,1.6-2,2.1-2.1
			c0.5,0,1.4,0.8,2.8,2.4c0.1,0.4,0.1,0.5-0.2,0.5h-3c0.7,0.3,1.2,0.5,1.7,0.8c0.6,0.4,0.6,0.8,0,1.2c-0.6,0.2-0.9,0.6-1.1,1.2
			c-0.9,3.5-2,6.3-3.1,8.4c1.2,1.3,3,2.5,5.3,3.6c0.4,0.1,0.7,0.2,0.7,0.3c0,0.1-0.2,0.3-0.7,0.5c-1.2,0.4-2.2,1.2-3,2.4
			c-0.4,0.5-1,0.4-1.6-0.2c-1.3-1.2-2.4-2.4-3.3-3.5c-1.7,1.2-4.1,2.6-7.2,4c-0.4,0-0.6-0.1-0.8-0.2c-0.1-0.1,0-0.3,0.3-0.4
			c2.9-2.2,5-4.4,6.2-6.4c-0.4-0.9-0.6-1.8-0.8-2.9c-0.2-1.1-0.4-2.4-0.4-4l-0.8,1.2c-0.4,0.4-0.6,0.6-0.8,0.5c-0.1-0.1-0.1-0.5,0-1
			c0-0.1,0.1-0.4,0.2-0.7c0.1-0.4,0.2-0.7,0.3-0.9h-0.1c-0.4,0.2-0.6,0.5-0.7,0.8c-0.1,1.2-0.3,4.4-0.5,9.4
			c-0.1,2.1-1.7,3.4-4.8,3.9c-0.9,0.1-1.4-0.1-1.4-0.7c-0.1-1.2-0.7-1.9-1.8-2.2c-0.5-0.1-0.7-0.2-0.5-0.3c-0.1-0.1,0.2-0.2,0.8-0.2
			c2.5,0.2,3.8-0.4,3.8-1.7c0.2-2,0.4-4.1,0.5-6.2c-0.1,0.1-0.3,0.3-0.4,0.3c-0.4,0.1-0.5,0.5-0.4,1c-0.1,1.4,0,2.5,0.1,3.1
			c0.1,0.9-0.1,1.3-0.7,1.4c-0.1,0.1-0.2,0.1-0.3,0.1c-0.4,0.2-0.9,0.3-1.5,0.3c-0.8,0.1-1.2-0.1-1.1-0.7v-1.1h-1.2v0.2
			c0,1.2-0.3,1.8-0.9,1.8c-0.6,0.2-1.2,0.4-1.7,0.4c-0.8,0.1-1.1-0.3-0.9-1.3C349.4,251.7,349.4,250.9,349.4,250.1z M358.6,242.9
			h-5.3c-0.2,0.2-0.5,0.5-0.9,0.9c-0.3,0.4-0.5,0.7-0.7,0.9c0.4,0.2,0.9,0.4,1.3,0.7l0.1,0.1c0.1,0.1,0.1,0.1,0.2,0h0.7
			c0.4-0.7,0.9-1.1,1.3-1.2c1,0.4,2.1,1,3.1,2.1c0-0.4,0-0.8,0-1.3C358.5,244.5,358.6,243.8,358.6,242.9z M354.1,246.2h-0.8h-0.1
			c-0.3,0.2-0.4,0.5-0.3,1v3.3h1.2V246.2z M355,239c-0.1,0.5-0.4,0.8-1,1c0.3,0.1,0.6,0.3,1,0.3c0.4,0.3,0.4,0.6,0,0.9
			c-0.6,0.2-0.9,0.4-1,0.7c-0.1,0.1-0.1,0.1-0.2,0.2h4.7c0.5-0.9,0.9-1.3,1.3-1.4c1.3,0.4,2.5,1.3,3.7,2.5c0.6-1.9,0.9-3.7,1.1-5.4
			c-1.2,0-2.5,0-3.8,0c-0.1,0.2-0.1,0.4,0,0.7c0.1,0.3,0.1,0.5,0.1,0.7c0,0.7-0.4,1.2-1.1,1.4c-0.1,0.1-0.8,0.2-2,0.3
			c-0.9,0.1-1.2-0.2-1-1.1c0.1-0.7,0.1-1.3,0.1-2h-2V239z M368.8,240H367c-0.6,1.1-1.2,2.2-1.8,3.3c0.5,1.9,1.1,3.5,1.8,5
			C367.7,246.6,368.3,243.9,368.8,240z"/>
		<path d="M383.9,256.9v0.5c0.3,0.8-0.8,1.3-3.3,1.5c-0.9,0.1-1.3-0.2-1.2-0.8c0.2-2.4,0.3-5.2,0.3-8.5c0-0.3,0-0.7-0.1-1.3
			c0-0.4,0-0.7,0-0.9c-1,0.2-2.1,0.4-3.1,0.7c-0.5,0.1-0.7,0.1-0.7-0.2c-0.1-0.2,0-0.4,0.4-0.7c4.6-1.7,8.2-3.5,11-5.6
			c-0.9-1.2-1.7-2.4-2.2-3.8c-2.4,2.5-5,4.4-7.8,5.8c-0.4,0.1-0.6,0.2-0.8,0.1c-0.1-0.1-0.1-0.4,0.2-0.7c2.7-2.8,4.4-5.5,5.2-8
			c0-0.2,0-0.4,0.1-0.7c0.3-0.9,0.5-1.6,0.5-2.1c0.1-0.4,0.4-0.5,0.9-0.5c1.7,0.4,3.3,1,4.9,1.7c0.2,0.1,0.3,0.4,0.3,0.7
			c-0.1,0.2-0.3,0.4-0.5,0.4c-0.4,0.2-0.8,0.5-1.1,0.9c-0.1,0.1-0.1,0.2-0.1,0.1h5.8c0.7-0.9,1.2-1.4,1.5-1.4
			c0.9,0.4,2.2,1.1,3.7,2.3c0.3,0.4,0.4,0.7,0.3,0.9c0,0.3-0.2,0.4-0.5,0.4c-0.4,0.1-0.9,0.5-1.5,1.1c-1,1.1-2,2-2.9,2.8
			c2.6,0.9,5.6,1.5,9,1.7c0.5,0.1,0.8,0.3,0.9,0.5c-0.1,0.2-0.3,0.4-0.5,0.7c-1.1,0.7-1.9,1.8-2.4,3.1c-0.1,0.6-0.5,0.7-1.2,0.4
			c-0.1,0-0.1,0-0.2,0c-0.1,0.4-0.3,0.6-0.5,0.8c-0.2,0.1-0.3,0.4-0.3,0.9c0,0.7,0,1.8,0.1,3.3c0.1,1.7,0.1,3,0.2,3.8
			c0.3,1.2-0.8,1.8-3.4,2.1c-0.9,0.1-1.3-0.2-1.2-0.8v-1.3H383.9z M393.6,246.5c-1.5-0.7-2.8-1.5-3.9-2.4c-1.5,0.9-3.7,1.7-6.5,2.6
			c0.4,0.1,0.8,0.3,1.1,0.5h8.8c0.1-0.1,0.1-0.2,0.2-0.3C393.4,246.7,393.5,246.6,393.6,246.5z M383.9,248.8v2.8h3v-3.6h-2.3
			C384,248.1,383.8,248.3,383.9,248.8z M383.9,252.5v3.5h3v-3.5H383.9z M392.5,236.5h-6.2c-0.1,0.1-0.1,0.2-0.2,0.3
			c-0.1,0.1-0.2,0.1-0.3,0.2c0.9,1.1,2,2.1,3.5,2.9C390.4,238.9,391.5,237.8,392.5,236.5z M393.6,248.1H391c0.3,0.3,0.3,0.5,0,0.8
			c-0.1,0.1-0.2,0.4-0.2,0.7v2.2h2.8V248.1z M390.8,256h2.8v-3.5h-2.8V256z"/>
		<path d="M412.7,249c-0.1-0.7-0.4-1.3-0.8-1.8c-0.7,0.1-1.3,0.2-1.7,0.2c-0.9,0.1-1.3-0.3-1.1-1.1c-0.1-0.1-0.1-0.6,0-1.3
			c0.1-0.7,0.1-1.1,0.1-1.3c-0.1-1.1-0.1-1.8-0.2-2.3c-0.1-0.7,0.2-1,1-0.9c0.4,0.1,1.1,0.2,2.3,0.4c0.5,0.1,0.9,0.2,1.2,0.2
			c0,0.1,0.1,0.1,0.2,0.2c0.1,0.1,0.1,0.1,0.2,0.1h7.1c0.4-0.8,0.9-1.3,1.3-1.5c1.4,0.4,2.8,1.2,3.9,2.3c0.1,0.2-0.1,0.5-0.5,0.8
			c-0.3,0-0.4,0.8-0.2,2.4c0.1,0.8-0.1,1.3-0.9,1.4c-0.1,0.1-0.3,0.1-0.5,0.1c-0.3,0.1-0.5,0.1-0.5,0.1c0.3,0.4,0.2,0.7-0.2,0.9
			c-0.7,0.1-1.2,0.2-1.3,0.4c-0.1,0.1-0.1,0.1-0.2,0.2c-0.9,0.8-1.6,1.3-2.1,1.4h5.3c1.2-1.5,2-2.3,2.4-2.4c0.8,0.3,1.9,1.1,3.4,2.5
			c0.4,0.5,0.3,0.8-0.2,1c-1.8-0.1-4.2-0.1-7.2-0.2h-14.2c-1.7,0.1-3.1,0.1-4.2,0.2c-0.2,0.1-0.4,0.1-0.5-0.2
			c-0.1-0.1-0.3-0.4-0.4-0.8c-0.1-0.1-0.2-0.1-0.2-0.2c0.1,0,0.2,0,0.3-0.1c0.4,0.1,1.2,0.1,2.4,0.2c1.2,0,2.5,0,3.7,0h3.1
			C412.9,249.9,412.7,249.5,412.7,249z M422.1,239.6h-11.4c-1.2,0.1-2.1,0.1-2.7,0.2c-0.3,0.1-0.5,0-0.5-0.1c-0.1,0-0.2-0.1-0.3-0.4
			c-0.1-0.2-0.2-0.4-0.2-0.4c-0.1-0.1-0.1-0.1,0.2-0.2c0.9,0.1,2.2,0.2,4.1,0.2h3.9v-2.7h-4.5c-1.7,0.1-3.1,0.1-4.2,0.2
			c-0.3,0.1-0.5,0-0.5-0.2c-0.1-0.1-0.3-0.4-0.5-0.8l-0.1-0.2c0-0.1,0.1-0.1,0.3-0.1c0.4,0.1,1.2,0.1,2.4,0.2c1.2,0,2.4,0,3.6,0h3.6
			c-0.1-0.4-0.1-0.8-0.1-1.2c-0.1-0.7-0.1-1.1-0.1-1.3c-0.3-0.7,0-1,0.9-1c1.2,0.2,2.6,0.4,4,0.7c0.2,0.1,0.3,0.2,0.3,0.4
			c-0.1,0.2-0.2,0.4-0.4,0.5c-0.3,0.2-0.4,0.6-0.3,1.1v0.8h4.7c1-1.4,1.8-2.2,2.3-2.4c0.6,0.1,1.7,0.9,3.5,2.5
			c0.2,0.3,0.3,0.5,0.2,0.8c-0.1,0.1-0.3,0.2-0.5,0.1c-0.4,0-1.1,0-2.3,0c-2.1-0.1-3.7-0.1-4.8-0.1h-3v2.7h3.6
			c0.6-1.1,1.2-1.8,1.8-2.2c0.9,0.4,2.1,1.1,3.4,2.3c0.1,0.5,0.1,0.8-0.2,0.8c-0.4,0-1.2,0-2.2,0
			C424.7,239.7,423.5,239.6,422.1,239.6z M413.2,252.3l0.3,0.2h7.9c0.4-0.7,0.8-1.2,1.3-1.5c1.7,0.6,3,1.4,4,2.4
			c0,0.2-0.2,0.4-0.7,0.7c-0.1,0.1-0.3,0.4-0.3,0.9c0,0.3,0,1.1,0.1,2.5c0.1,0.7-0.1,1.2-0.9,1.3c-0.7,0.1-1.4,0.3-2.2,0.3
			c-0.9,0.1-1.2-0.2-1.1-0.9v-0.9h-8.7v0.3c0,0.4-0.2,0.8-0.5,1c-0.8,0.2-1.7,0.4-2.6,0.4c-0.9,0.1-1.3-0.3-1.1-1.1
			c-0.1-0.1-0.1-0.7,0-1.7c0.1-0.8,0.1-1.3,0.1-1.4c-0.1-0.7-0.1-1.2-0.1-1.7c0-0.4,0-0.6,0-0.8c-0.1-0.4-0.1-0.6,0-0.7
			c0.1-0.1,0.4-0.1,0.9-0.1C410.8,251.8,412,252,413.2,252.3z M421.7,253.4h-8.5c-0.1,0.2-0.2,0.5-0.2,0.9v2.2h8.7V253.4z
			 M421.3,242.3h-7.8c-0.1,0.1-0.2,0.3-0.1,0.7v2.1h7.9V242.3z M413.4,245.9c0,0.1,0,0.3,0,0.3c1.2,0.2,2,0.6,2.4,1.1
			c0.5,1.3,0.1,2.2-1.1,2.6h3.5c0.5-1.3,0.9-2.5,1.1-3.6c-0.1-0.4,0.3-0.6,1-0.4c0.3,0.1,0.7,0.3,1.1,0.3v-0.4h-7.9V245.9z"/>
		<path d="M436.9,239.9c-0.9,1.6-2.1,2-3.6,1.1c-1.1-0.7-1.2-1.6-0.4-2.7c1.1-0.9,1.7-2.2,2-3.7c0-0.2,0.1-0.4,0.2-0.4
			c0.1,0,0.3,0.1,0.5,0.3c0.3,0.4,0.6,0.9,0.9,1.3h7.2c-0.2-0.2-0.4-0.5-0.4-1c-0.1-0.9-0.6-1.7-1.3-2.5c-0.2-0.1-0.3-0.3-0.2-0.3
			c0-0.1,0.1-0.1,0.4-0.2c2.4-0.2,3.9,0.2,4.6,1.3c0.5,1.2,0.2,2.1-0.9,2.7h6.7c0.7-0.9,1.3-1.5,1.7-1.6c0.8,0.3,2,1.2,3.7,2.8
			c0.3,0.5,0.4,0.9,0.2,1.1c-0.1,0.3-0.5,0.4-1,0.3c-1.4,0-2.7,0.4-3.7,1.1c0.2,0.1,0.4,0.3,0.5,0.4c0.1,0.4,0,0.7-0.3,0.9
			c-0.1,0.1-0.1,0.1-0.2,0.1c-0.4,0.3-0.6,0.5-0.5,0.7c-0.1,2.2,0,3.6,0.1,4.2c0.1,0.8-0.2,1.3-0.9,1.4c-0.9,0.3-1.7,0.4-2.4,0.4
			c-0.8,0.1-1.2-0.3-1.1-1v-0.3h-4.9c0.4,0.2,0.9,0.4,1.4,0.5c0.6,0.2,1,0.3,1.2,0.3c0.4,0.2,0.5,0.5,0.5,0.8
			c-0.1,0.3-0.3,0.4-0.7,0.4c-0.4,0-0.8,0.3-1.1,0.8c-0.1,0.1-0.3,0.3-0.3,0.3h8.6c0.7-1.1,1.4-1.7,2-2c0.9,0.4,2,1.1,3,2.1
			c0.3,0.5,0.2,0.8-0.3,0.9c-0.3,0-0.8,0-1.4,0c-0.5-0.1-1.6-0.1-3.1-0.1h-1c0.1,0.4,0.1,0.6-0.2,0.8c-0.4,0.1-0.8,0.3-1,0.8
			c-0.2,0.6-0.5,1.1-1,1.6c1.4,0.1,2.5,0.4,3.4,0.8c2.3,1.1,2.8,2.5,1.5,4.3c-1.1,0.7-2.5,0.4-4.1-0.8c-0.8-0.6-2-1.2-3.6-1.8
			c-2,1.2-6.6,2.1-13.9,2.6c-0.4,0.1-0.7,0-0.7-0.2c-0.1-0.2,0.1-0.4,0.5-0.4c4.7-1.2,8-2.3,9.9-3.4c-0.7-0.2-1.4-0.4-2.2-0.7
			c-0.1,0.1-0.1,0.1-0.1,0.2h-0.1c-0.2,0.3-0.5,0.4-0.9,0.4c-0.7,0-1.5-0.2-2.5-0.5c-0.5-0.1-0.8-0.3-0.9-0.5c0-0.3,0.2-0.6,0.5-1
			c0.5-0.7,1.1-1.4,1.8-2.2H435c-1.2,0-2,0.1-2.5,0.2c-0.3,0.1-0.5,0.1-0.5-0.2c-0.2-0.1-0.4-0.4-0.4-0.8c-0.1-0.1-0.2-0.2-0.1-0.2
			c0-0.1,0.1-0.1,0.3-0.1c0.3,0.1,0.9,0.1,1.8,0.2c1,0,1.8,0,2.5,0h3.8c0.7-0.9,1.3-1.8,1.8-2.9c-0.1,0,0-0.1,0.1-0.2h-0.3
			c-0.1,0.7-0.5,1.1-1,1.3c-0.2,0.1-0.8,0.2-1.6,0.4c-0.2,0-0.4,0-0.4,0c-1,0.2-1.4-0.3-1.2-1.5c0.1-1.6,0.1-3.1,0.2-4.5
			c-0.1-0.6-0.1-1.1-0.1-1.6c-0.1-0.8-0.1-1.4-0.1-1.7c-0.2-0.7,0-1,0.8-0.9c0,0.1,0.1,0.1,0.2,0.1c1.7,0.4,2.9,0.7,3.6,0.9l0.1,0.1
			c0.1,0.1,0.1,0.1,0.2,0h6.4c0.7-0.9,1.1-1.3,1.3-1.4c0.4,0.1,1.1,0.4,2.2,1l0.5-1.8h-15.6C437.3,237.9,437.3,239,436.9,239.9z
			 M448.8,239.8h-6.9c-0.2,0.1-0.3,0.4-0.3,0.8v1.7h7.3V239.8z M441.5,243.2v2.4h7.3v-2.4H441.5z M444.4,250.4
			c-0.9,1.2-1.6,2-2.2,2.6c0.9,0,1.5,0,1.8,0.1c0.5,0,1,0,1.4,0c0.7-0.8,1.2-1.7,1.6-2.7H444.4z"/>
		<path d="M486.5,234.5v2h0.8c0.9-1.4,1.6-2.3,2.1-2.5c0.9,0.3,2,1.1,3.3,2.5c0.1,0.3,0.2,0.5,0.1,0.8c-0.1,0.1-0.3,0.2-0.5,0.2
			c-0.4,0-0.9,0-1.6,0c-0.7-0.1-1.8-0.1-3.4-0.1h-0.7v5.3h2c1.2-1.7,2-2.6,2.3-2.7c0.7,0.2,1.8,1.1,3.1,2.6c0.2,0.3,0.3,0.5,0.2,0.8
			c-0.1,0.2-0.3,0.3-0.5,0.2c-0.3,0.1-0.8,0.1-1.5,0c-1.1,0-2.2,0-3.5-0.1h-2.9c2.2,2,5,3.3,8.1,3.9c0.5,0.1,0.8,0.3,0.8,0.4
			c0,0.2-0.2,0.4-0.7,0.7c-0.9,0.4-1.7,1.3-2.3,2.7c-0.2,0.5-0.7,0.5-1.3,0.1c-3.4-2.1-5.6-4.7-6.7-7.8h-4.7
			c0.2,0.4,0.2,0.7-0.1,0.9c-0.6,0.1-1,0.3-1.2,0.8c-2.8,3.4-6.1,6-10.1,7.8c-0.3,0.2-0.5,0.2-0.5,0c-0.1-0.1,0-0.3,0.2-0.5
			c3.1-3.2,5.2-6.2,6.3-8.9h-2.5c-1.2,0.1-2.1,0.1-2.7,0.2c-0.3,0.1-0.5,0.1-0.5-0.2c-0.2-0.1-0.4-0.4-0.7-0.8
			c-0.1-0.1-0.1-0.2,0.2-0.2c0.1,0.1,0.1,0.1,0.2,0.1c1.3,0.1,2.6,0.2,3.9,0.1h2.8v-5.3h-3.3c-0.7,0.1-1.3,0.1-1.7,0.1
			c-0.4,0-0.6,0-0.7,0c-0.3,0.1-0.5,0-0.5-0.1c-0.3-0.1-0.5-0.4-0.5-0.8c-0.1-0.1-0.1-0.2,0.1-0.2c1.2,0.1,2.6,0.2,4.3,0.1h2.3
			c0-1.2,0-2.1-0.1-2.5c0-0.6,0-1,0-1.3c-0.1-0.7,0.2-1,1-0.9c1.4,0.1,2.5,0.4,3.5,0.7c0.4,0.3,0.5,0.7,0.1,1.1
			c-0.4,0.2-0.5,0.5-0.4,1v2h4.2v-0.1c-0.1-1.4-0.1-2.7-0.2-3.7c-0.1-0.9,0.2-1.2,1.1-1c0.9,0.1,2.1,0.4,3.4,0.7
			c0.4,0.3,0.5,0.7,0.1,1.1C486.6,233.6,486.5,234,486.5,234.5z M470.9,253.2c1.4-1.1,2.6-2.4,3.4-3.9c0.1-0.2,0.2-0.3,0.3-0.3
			c0.1,0,0.2,0.1,0.3,0.3c0.6,2.4,0.5,4.4-0.2,6h0.1c2.3,0.3,3.3-0.3,3-1.7v-4c-0.1-1.3-0.1-2.5-0.2-3.6c-0.1-0.5,0-0.8,0.1-0.9
			c0.1-0.1,0.5-0.2,1.1-0.1c0.4,0,1.4,0.1,2.8,0.4c0.3,0,0.5,0,0.7,0c0.6,0.4,0.6,0.8,0.1,1.2c-0.4,0.1-0.5,0.4-0.4,0.7v1.6
			c0.1,0.1,0.1,0.2,0.2,0.1c2.2,1.3,3.7,2.9,4.3,4.7c0.7,1.5,0.2,2.6-1.3,3.1c-1.4,0.4-2.1-0.2-2.2-1.6c-0.2-2.4-0.6-4.2-1.1-5.4
			c0,0.9,0,2,0,3.3c0.1,1.2,0.1,1.9,0.2,2.3c0.1,1.4-0.3,2.4-1.1,2.9c-0.7,0.4-1.6,0.7-2.5,0.9c-1.2,0.1-1.7-0.2-1.7-0.8
			c-0.4-1.1-1.2-1.8-2.3-2.3c-0.1-0.1-0.1-0.1-0.2-0.2h-0.2c-1.2,0.9-2.2,1-3.3,0.3C469.8,255.2,469.8,254.2,470.9,253.2z
			 M478.2,237.3v5.3h4.2v-5.3H478.2z M487.6,255.2c-0.3-2-1-3.8-2.2-5.3c-0.3-0.3-0.4-0.5-0.3-0.5c0.1-0.1,0.3-0.1,0.8,0
			c2.5,0.9,4.2,2.4,5.3,4.2c0.5,1.4,0.1,2.4-1.3,3.1C488.6,257.1,487.9,256.6,487.6,255.2z"/>
		<path d="M514.6,234.6v1.1h1.6c0.9-1.5,1.6-2.3,2.1-2.4c0.9,0.4,2,1.3,3.1,2.5c0.2,0.6,0.1,0.8-0.2,0.8c-1.7,0-3.6,0-5.9,0h-0.8
			v2.6h0.8c0.9-1.3,1.4-2,1.7-2.2c0.8,0.3,1.8,1,3.1,2.3c0.1,0.5,0,0.8-0.3,0.8c-0.6-0.1-2.4-0.1-5.3-0.1v2.7h2.4
			c1-1.4,1.6-2.2,1.8-2.2c1,0.4,2,1.2,2.9,2.3c0.3,0.4,0.2,0.7-0.2,0.8c-0.8-0.1-2.8-0.1-5.9-0.1h-8.6c-0.3,0-0.9,0-1.7,0.1
			c-0.6,0-0.9,0-1,0c-0.2,0.1-0.4,0.1-0.5-0.1c-0.1-0.1-0.3-0.2-0.3-0.3c-0.1,0.2-0.3,0.5-0.5,0.8c-0.3,0.1-0.4,0.4-0.4,0.8v7.3
			c0.5-0.2,1.2-0.5,2.2-0.9c0.4-0.1,0.7,0,0.9,0.1v-3.4c-0.1-1-0.1-1.9-0.2-2.7c-0.1-0.7,0.1-1,0.9-0.9c1.1,0.3,2.2,0.6,3.3,0.9
			c0.3,0.1,0.5,0.3,0.5,0.4h5c0.4-0.9,0.8-1.3,1.2-1.4c1.8,0.7,3.2,1.5,4.2,2.3c0.1,0.2-0.1,0.5-0.5,0.8c-0.2,0.1-0.3,0.4-0.3,0.9
			v7.5c0,1.3-0.5,2.2-1.6,2.7c-0.5,0.2-1.3,0.5-2.3,0.8c-0.7,0.1-1.2-0.2-1.3-0.8c-0.4-1-1.1-1.7-2.2-2.2c-0.5-0.4-0.7-0.5-0.5-0.5
			c-0.1-0.1,0.2-0.2,0.8-0.2c2.2,0,3.1-0.3,2.8-0.8v-2.3h-5.6v5.2c0,0.5-0.2,0.8-0.5,0.9c-0.2,0-0.7,0.1-1.3,0.2
			c-0.7,0.1-1.2,0.3-1.3,0.3c-0.9,0.1-1.3-0.3-1.1-1.2c0.1-1.6,0.1-3.5,0.2-5.9c0,0.1,0,0.1-0.1,0.1c-0.1,0.1-0.1,0.1,0,0.1
			c-0.8,1.2-2,2.6-3.6,4.1c-0.6,0.4-0.9,0.9-1.1,1.3c-0.4,0.7-0.9,0.8-1.3,0.3c-0.2-0.2-0.6-0.7-1.2-1.4c-0.6-0.7-0.9-1.1-1.1-1.2
			c-0.5-0.6-0.4-1,0.4-1.3c0.5-0.2,0.8-0.7,0.8-1.3v-9.3h-1.2c-0.7,0-1.1,0-1.4,0.1c-0.2,0.1-0.4,0.1-0.5-0.1
			c-0.1-0.2-0.3-0.5-0.3-0.9c-0.1-0.1-0.1-0.2,0.2-0.2c0.9,0.1,1.8,0.2,2.6,0.2h0.4c0.7-1,1.2-1.6,1.5-1.6c1.1,0.3,2.3,0.9,3.6,2
			c-0.1-0.1-0.1-0.2,0.2-0.2c0.7,0.1,2.1,0.2,4.1,0.2h2.6v-2.7h-1.1c-0.3,0-0.9,0-1.7,0.1c-0.6,0-0.9,0-1,0
			c-0.3,0.1-0.5,0.1-0.5-0.1c-0.1-0.1-0.3-0.4-0.5-0.7l-0.1-0.2c0.1-0.1,0.2-0.1,0.3-0.1c0.2,0.1,0.7,0.1,1.5,0.2c0.9,0,1.7,0,2.5,0
			h0.7v-2.6h-2.2c-1.6,0-2.5,0-2.7,0.1c-0.2,0.1-0.4,0.1-0.5-0.2c-0.1,0-0.1-0.1-0.2-0.2c-0.1-0.1-0.3-0.3-0.3-0.4
			c-0.1-0.2-0.1-0.3,0.2-0.3c0.2,0.1,0.8,0.1,1.6,0.2c0.9,0,1.7,0,2.5,0h1.6c0-1.2-0.1-2.1-0.2-2.8c-0.1-0.4-0.1-0.7,0-0.8
			c0.1-0.1,0.5-0.1,1.1-0.1c0.1,0.1,0.3,0.1,0.5,0.1c1.6,0.1,2.7,0.3,3.4,0.4c0.3,0.1,0.5,0.2,0.5,0.4c0,0.3-0.1,0.5-0.3,0.7
			C514.6,233.9,514.4,234.2,514.6,234.6z M499.6,238c-0.3-1.4-0.9-2.8-1.8-4c-0.2-0.1-0.3-0.3-0.1-0.4c0.1-0.1,0.3-0.1,0.5-0.2
			c2.7,0.3,4.5,1.1,5.3,2.4c0.4,1.6-0.1,2.8-1.5,3.5C500.6,239.5,499.8,239.1,499.6,238z M515.2,246.2h-5.6c0,0.2,0,0.4,0,0.7v1.5
			h5.6V246.2z M509.6,249.2v2.2h5.6v-2.2H509.6z"/>
		<path d="M541,245.6v8.1c-0.1,0.7,0.2,1,0.8,1h2.2c1.3,0.2,2.4-1.4,3.1-4.8c0.1-0.7,0.3-1,0.5-0.9c0.2,0,0.3,0.3,0.3,0.9
			c-0.1,2.1,0.4,3.6,1.3,4.6c1,0.9,1,1.7,0.1,2.6c-1.2,1-2.8,1.5-5,1.5h-4.5c-2.2,0-3.3-1.2-3.3-3.7v-10.3h-1.5
			c-0.2,0.2-0.4,0.5-0.4,1c0,0.1,0,0.3,0,0.3c0.5,7.4-3.3,11.8-11.5,13.1c-0.4,0.1-0.6,0-0.7-0.2c-0.1-0.2,0.1-0.4,0.4-0.5
			c2.9-1.5,4.8-3.1,5.8-4.9c1-1.8,1.5-4.7,1.4-8.8h-2.2c-0.5,0.1-1.1,0.1-1.7,0.1c-0.7,0.1-1.4,0.1-2.1,0.2
			c-0.3,0.1-0.5,0.1-0.7-0.2c-0.2-0.1-0.4-0.4-0.5-0.7c-0.1-0.1-0.2-0.3-0.1-0.3c0-0.1,0.1-0.1,0.3-0.1c0.7,0.2,2.6,0.3,5.8,0.2h4.8
			v-6.5c-0.1-0.9-0.1-1.8-0.1-2.7c-0.1-0.8-0.1-1.4-0.2-1.7c-0.2-0.7,0.1-1,0.9-1c1.2,0.1,2.6,0.4,4.1,0.8c0.8,0.3,0.9,0.7,0.3,1.3
			c-0.5,0.3-0.7,0.6-0.7,0.9v9h0.5c1.8-3.7,3-6.8,3.7-9.3c0.1-0.4,0.4-0.6,1-0.4c1.3,0.4,2.8,1.1,4.3,1.8c0.3,0.3,0.4,0.6,0.3,0.9
			c0,0.3-0.2,0.4-0.5,0.4c-0.9,0.3-1.6,0.7-1.8,1.1c-2.2,2.3-4.1,4.2-5.6,5.5h4.1c0.9-1.7,1.7-2.6,2.2-2.7c0.9,0.3,2,1.2,3.4,2.6
			c0.1,0.3,0.2,0.5,0.1,0.8c-0.1,0.2-0.2,0.3-0.4,0.2c-1,0-2,0-3,0c-0.8-0.1-1.9-0.1-3.3-0.1h-1.5C541,244.9,540.9,245.2,541,245.6z
			 M528,240.8c-0.1-1.9-0.9-3.6-2.4-5.1c-0.3-0.2-0.4-0.4-0.3-0.5c0.1-0.1,0.4-0.2,0.8-0.2c3,0.8,5.1,2,6.2,3.6c0.7,1.8,0.4,3.1-1,4
			C529.3,243.4,528.3,242.8,528,240.8z"/>
		<path d="M551.7,248.6v-8.4c-0.1-1.5-0.1-2.9-0.2-4.1c-0.1-0.6,0.1-0.9,0.9-0.9c0.1,0.1,0.4,0.1,0.7,0.1c1.2,0.1,2.1,0.3,2.6,0.3
			c0.6,0.3,0.7,0.7,0.2,1.2c-0.2,0.2-0.3,0.5-0.3,1v16.9c0,0.4-0.3,0.8-1,1c-0.6,0.1-1.2,0.3-2,0.3c-0.9,0.1-1.2-0.3-1.1-1
			C551.6,253.8,551.6,251.7,551.7,248.6z M556.6,247v-9.1c-0.1-1.9-0.1-3.4-0.2-4.7c-0.1-0.6,0.1-0.9,0.9-0.9
			c1.2,0.1,2.3,0.2,3.4,0.4c0.5,0.3,0.6,0.7,0.2,1.2c-0.3,0.1-0.4,0.4-0.3,0.9v22.5c0,0.7-0.4,1.2-1.2,1.4c-0.2,0.1-0.7,0.1-1.4,0.2
			c-0.2,0.1-0.4,0.1-0.5,0.2c-0.8,0-1.2-0.4-1.1-1.2c0-0.7,0.1-2.4,0.2-4.9C556.5,250.7,556.5,248.7,556.6,247z M566.9,237.2h5.6
			c0.7-1.2,1.3-1.9,1.7-2.1c1,0.4,2,1.2,3,2.2c0.3,0.6,0.2,0.9-0.3,0.9c-1-0.1-2.7-0.1-5-0.1h-5.4c-1.6,2.4-3.4,4.5-5.4,6.2
			c-0.3,0.2-0.5,0.3-0.5,0.2c-0.1-0.1-0.1-0.3,0.1-0.7c1-2.4,1.8-4.8,2.4-7.2c0.3-1.3,0.5-2.7,0.8-4.2c0-0.4,0.3-0.7,0.8-0.7
			c1.8,0.3,3.4,0.7,4.8,1.3c0.6,0.6,0.5,1-0.1,1.4c-0.7,0.1-1.1,0.3-1.3,0.8C567.8,235.8,567.4,236.4,566.9,237.2z M561.5,251v-1.6
			c0-2.1,0-3.5-0.1-4.2c-0.1-0.7,0.2-1,0.9-0.9c1.2,0.4,2.4,0.8,3.5,1.2c0.1,0.1,0.1,0.1,0.2,0.1h5.9c0.7-1,1.2-1.6,1.5-1.7
			c1.7,0.8,3.1,1.6,4,2.5c0,0.4-0.3,0.8-0.8,1.1c-0.3,0.1-0.4,0.4-0.4,0.8v2.1c-0.1,1.1,0,2.7,0.1,4.8c0.1,0.7,0.1,1.2,0.2,1.6
			c0,0.5-0.2,0.9-0.7,1.2c-1.1,0.4-2,0.6-2.6,0.7c-0.8,0.1-1.2-0.3-1.1-1.1v-1.8h-6.7v1.4c0,0.7-0.3,1.1-0.9,1.3
			c-0.7,0.3-1.3,0.5-2,0.5c-0.9,0.1-1.3-0.3-1.2-1.2C561.4,256.5,561.5,254.3,561.5,251z M565.4,247.4v7.6h1.4v-8.6H566l-0.1,0.1
			C565.6,246.8,565.4,247.1,565.4,247.4z M567.8,239c2.1,0.5,3.4,1.4,4,2.8c0.3,1.2-0.2,2.1-1.4,2.7c-1.4,0.4-2.2-0.1-2.4-1.6
			c-0.1-0.1-0.1-0.2-0.1-0.3c-0.3-1.4-0.5-2.4-0.8-2.9c-0.1-0.4-0.2-0.6-0.1-0.7C567.1,238.8,567.3,238.8,567.8,239z M572.1,246.5
			h-1.5v8.6h1.5V246.5z"/>
	</g>
	<g>
		<path fill="#FF0006" d="M484.9,137.5c-2.5-1.3-5.4-2.1-8.5-2.1c-5.4,0-10.3,2.4-13.5,6.1c-3.2-3.7-8.1-6.1-13.6-6.1
			c-3.1,0-6,0.8-8.5,2.1c-5.4,2.9-9.1,8.4-9.1,14.8c0,1.8,0.3,3.6,0.9,5.2c3,13,22.3,29.5,30.3,29.5c7.8,0,27.2-16.5,30.3-29.5
			c0.6-1.6,0.9-3.4,0.9-5.2C494,145.9,490.3,140.4,484.9,137.5z M488.3,156c-0.2,0.5-0.6,0.8-1.1,0.8c-0.1,0-0.3,0-0.4,0
			c-0.6-0.2-1-0.9-0.7-1.5c0.3-1,0.5-2,0.5-3c0-3.5-2-6.8-5.2-8.5c-1.5-0.8-3.2-1.3-4.9-1.3c-0.7,0-1.2-0.5-1.2-1.2
			c0-0.6,0.5-1.2,1.2-1.2c2.1,0,4.2,0.5,6.1,1.5c4,2.1,6.5,6.2,6.5,10.6C488.9,153.5,488.7,154.8,488.3,156z"/>
	</g>
</g>
</svg>
