<?xml version="1.0" encoding="utf-8"?>
<!-- Generator: Adobe Illustrator 21.1.0, SVG Export Plug-In . SVG Version: 6.00 Build 0)  -->
<svg version="1.1" id="图层_1" xmlns="http://www.w3.org/2000/svg" xmlns:xlink="http://www.w3.org/1999/xlink" x="0px" y="0px"
	 viewBox="0 0 700 700" style="enable-background:new 0 0 700 700;" xml:space="preserve">
<style type="text/css">
	.st0{fill:#FF0000;}
</style>
<path d="M189.1,44.5h3.2c1.1,0,1.6,0.5,1.6,1.6v11.4c0,0.2,0,0.3,0.1,0.3c0.1,0.1,0.2,0,0.3-0.1l0.1-0.2c0.5-0.9,0.9-1.5,1.1-2
	c0.3-0.5,0.8-0.7,1.5-0.4c0.5,0.3,0.7,0.9,0.4,1.5c-1.2,1.9-2.2,3.2-2.9,3.8c-0.7,0.4-1.3,0.7-1.9,0.5c-0.5-0.3-0.8-0.8-0.8-1.5V47
	c-0.1-0.3-0.3-0.4-0.9-0.4h-2.1c-0.7,0-1-0.3-1.1-1.1C188.1,44.8,188.4,44.5,189.1,44.5z M192.5,37.6c1.1,1.3,2,2.5,2.6,3.6
	c0.3,0.7,0.2,1.3-0.3,1.6c-0.7,0.3-1.1,0.2-1.5-0.5c-1.1-1.6-2-2.9-2.5-3.4c-0.5-0.5-0.5-1.1,0-1.5C191.3,37,191.8,37,192.5,37.6z
	 M209.8,37.2v1.1h2.9c0.7,0.1,1,0.4,1.1,1c0,0.5-0.3,0.9-1,0.9h-3v1.9c0.1,1.1-0.4,1.6-1.4,1.5h-2.5v1.2h5.2c1.3,0,1.9,0.5,1.9,1.5
	v2.7c0.1,1-0.5,1.4-1.8,1.3h-5.3v1.6h6.3c0.7,0.1,1,0.4,1,1c0,0.5-0.3,0.9-1,0.9h-6.3v1.8h6.4c0.7,0.1,1,0.4,1,1c0,0.7-0.3,1-1,1
	h-6.4v1.5h7c0.7,0,1,0.3,1.1,1c-0.1,0.5-0.4,0.9-1.1,1h-15.3c-0.7-0.1-1.1-0.4-1.1-1c0-0.7,0.3-1,1.1-1h6.3v-1.5h-5.2
	c-0.7,0-0.9-0.3-0.9-1c0.1-0.5,0.4-0.9,1.1-1h4.9v-1.8h-5.5c-0.7,0-1.1-0.3-1.2-0.9c0.1-0.5,0.4-0.9,1.3-1h5.4v-1.6h-5.1
	c-1.2,0.1-1.8-0.5-1.6-1.8v-1.9c0-1.3,0.5-1.9,1.6-1.9h5.1v-1.2h-2.2c-1.1,0.1-1.5-0.4-1.5-1.6v-2h-3c-0.7,0-1.1-0.3-1.2-0.9
	c0-0.5,0.3-0.9,1.1-1h3.1V37c0-0.5,0.3-0.9,1-1c0.7,0.1,1,0.4,1.1,1v1.3h5.6v-1c0-0.7,0.3-1,1-1.2C209.3,36.2,209.7,36.6,209.8,37.2
	z M203.8,46.7h-4.1c-0.5,0-0.8,0.2-0.8,0.7V48c-0.1,0.5,0.2,0.7,0.8,0.7h4.1V46.7z M202.1,40.1v1c-0.1,0.5,0.1,0.8,0.7,0.8h4.6
	c0.3,0.1,0.4-0.2,0.4-0.9v-0.9H202.1z M205.8,46.7v1.9h4.4c0.4,0.1,0.8-0.1,0.8-0.7v-0.7c0-0.4-0.2-0.7-0.7-0.7h-4.5V46.7z"/>
<path d="M221.2,43.9h14.7c0.5,0.1,0.9,0.4,1,1.1c-0.1,0.7-0.4,1.1-1,1.1H230v4.6h8.6c0.7,0.1,1,0.4,1,1.2c0,0.7-0.3,1.1-1,1.1H230
	v5.8c1.9,0.1,3.5,0.2,4.8,0.2c1.3,0.1,3.1,0.1,5.2,0.1c0.7-0.1,1,0.3,1.1,1.2c-0.1,0.8-0.4,1.2-1.1,1.3c-5.9-0.1-10.1-0.5-12.6-1.3
	c-2.5-0.8-4.6-2.2-6-4.4c-1,1.9-2.2,3.6-3.7,5.1c-0.5,0.4-1,0.4-1.5,0.1c-0.5-0.5-0.5-1-0.1-1.5c3-3,4.6-6.6,5.1-10.9
	c0.1-0.5,0.4-0.9,1.1-0.9c0.7,0.1,1.1,0.4,1.1,1.1c-0.1,1.1-0.3,2.4-0.8,4c1.1,2.7,2.9,4.6,5.4,5.4V46h-6.7c-0.7,0-1.1-0.3-1.1-1.1
	C220.2,44.4,220.5,43.9,221.2,43.9z M237.8,40.9h-18.1c-0.5,0-0.7,0.2-0.7,0.8V44c-0.1,0.7-0.4,1-1.1,1.1c-0.7,0-1.1-0.3-1.1-1v-3.5
	c-0.1-1.3,0.7-2,2.2-2h8.5c-0.1-0.1-0.2-0.4-0.5-1.3c-0.3-0.5-0.1-1,0.4-1.4c0.5-0.2,1.1,0,1.5,0.5c0.4,0.9,0.8,1.6,1,2.1h8.5
	c1.6-0.1,2.5,0.7,2.4,2.2c-0.1,1.4-0.4,2.7-0.9,4c-0.3,0.7-0.9,0.8-1.5,0.5c-0.7-0.3-0.8-0.9-0.5-1.5c0.3-0.7,0.4-1.3,0.7-2.1
	C238.8,41.1,238.4,40.9,237.8,40.9z"/>
<path d="M265.6,39.9H257v7.5h10.1c0.7,0.1,1,0.4,1.1,1.2c-0.1,0.7-0.4,1.1-1.1,1.1H257v9.1c-0.3,2.9-3.2,3.4-8.5,1.8
	c-0.7-0.3-1-0.8-0.9-1.4c0.3-0.4,0.8-0.7,1.5-0.5c3.4,1,5.3,1,5.6,0v-9h-10.3c-0.8,0-1.2-0.3-1.3-1.1c0.1-0.7,0.4-1.1,1.2-1.2h10.4
	v-7.4h-9.3c-0.7,0-1.1-0.3-1.1-1.1c0-0.7,0.3-1.1,1.1-1.2h20.1c0.5,0.1,0.9,0.4,1,1.2C266.5,39.5,266.1,39.9,265.6,39.9z"/>
<path d="M275.8,51.4c-1.3,0-1.9-0.7-1.9-1.9c0.1-1.2,0.7-1.9,1.9-2c1.2,0.1,1.9,0.8,2,2C277.8,50.9,277.1,51.4,275.8,51.4z
	 M275.8,60.4c-1.3-0.1-1.9-0.7-1.9-1.6c0.1-1.2,0.7-1.9,1.9-2c1.3,0.1,2,0.8,2,2C277.8,59.9,277.1,60.4,275.8,60.4z"/>
<path d="M199.2,106.1c-1.6,6-4.6,10.4-8.8,13.1c-0.8,0.4-1.4,0.4-1.9-0.1c-0.3-0.5-0.2-1.1,0.5-1.6c3.7-2.3,6.4-6.4,7.9-12
	c0.3-0.7,0.8-1,1.5-0.9C199.2,104.9,199.4,105.4,199.2,106.1z M200,113.4c0.3-0.7,0.9-0.9,1.5-0.7c0.7,0.3,0.8,0.9,0.4,1.6
	c-2.3,4.4-4.8,8.1-7.7,11.3c-0.2,0.2-0.3,0.3-0.2,0.4c0,0.1,0.2,0.2,0.5,0.1c4.5-0.1,9.2-0.4,14-1.1c-0.8-1.3-2-3.1-3.5-5.3
	c-0.4-0.4-0.3-1,0.2-1.5c0.7-0.4,1.2-0.4,1.5,0.1c2.9,3.8,4.8,7.1,6.2,9.7c0.3,0.7,0.1,1.2-0.5,1.5c-0.7,0.2-1.3,0-1.6-0.7
	c-0.1-0.3-0.5-1-1.2-2c-3.1,0.3-6.2,0.5-9.2,0.8c-3,0.1-5.6,0.2-7.9,0.3c-1.1-0.1-1.8-0.3-2-0.8c-0.2-0.5,0-1,0.8-1.5
	C195.4,121.4,198.2,117.2,200,113.4z M203.3,106.1c-0.3-0.8-0.1-1.3,0.5-1.5c0.7-0.2,1.3,0,1.6,0.8c2.2,5.6,5.1,9.7,8.6,12.1
	c0.7,0.5,0.9,1.2,0.7,1.8c-0.4,0.5-1,0.7-1.8,0.2C209.2,117,205.9,112.6,203.3,106.1z"/>
<path d="M239.8,107.6h-18.5c-0.9,0-1.3,0.3-1.3,1.1v7.8c0.1,5.6-0.5,9.6-1.8,11.8c-0.4,0.7-1,1-1.6,0.8c-0.5-0.3-0.7-0.9-0.3-1.5
	c0.7-1.2,1.1-2.5,1.3-4.2c0.3-1.3,0.4-3.5,0.4-6.6v-8.8c-0.1-1.6,0.8-2.4,2.6-2.3H240c0.7,0.1,1.1,0.4,1.2,1.1
	C240.9,107.2,240.5,107.6,239.8,107.6z M229.9,109.5v3.3h7.3c1.9-0.1,2.7,0.7,2.6,2.3c-0.1,8-0.9,12.2-2.2,12.5
	c-1.1,0.8-3.1,1-5.9,0.7c-0.9-0.1-1.3-0.5-1.3-1.3c0.2-0.5,0.8-0.9,1.6-0.9c2.4,0.3,3.8,0.1,4.4-0.5c0.7-0.4,1.1-3.5,1.3-9.5
	c0.1-0.8-0.4-1.2-1.5-1.3h-6.4c-0.1,6.6-2.3,11.3-6.6,14.1c-0.8,0.4-1.4,0.4-1.8-0.1c-0.3-0.5-0.2-1.2,0.5-1.8
	c3.8-2.4,5.7-6.5,5.7-12.2h-5.3c-0.7,0-1.1-0.3-1.2-1c0-0.7,0.3-1.1,1.1-1.2h5.5v-3c0-0.8,0.3-1.2,1-1.3
	C229.4,108.4,229.9,108.8,229.9,109.5z"/>
<path d="M255.5,119.3c-1.3,0-1.9-0.7-1.9-1.9c0.1-1.2,0.7-1.9,1.9-2c1.2,0.1,1.9,0.8,2,2C257.5,118.7,256.8,119.3,255.5,119.3z
	 M255.5,128.3c-1.3-0.1-1.9-0.7-1.9-1.6c0.1-1.2,0.7-1.9,1.9-2c1.3,0.1,2,0.8,2,2C257.5,127.7,256.8,128.2,255.5,128.3z"/>
<path d="M314.8,124.6h7.4c0.5,0.1,0.9,0.4,1,1c-0.1,0.7-0.4,1.1-1,1.1h-9.5c-0.9,0-1.3-0.3-1.3-1c-0.1-0.2,0.1-0.5,0.5-1.1l6.7-9
	c0.9-1.1,1.3-2.2,1.4-3.4c-0.1-1.9-1.2-2.9-3.1-3c-2.3,0.1-3.4,1.5-3.5,4.4c-0.1,0.7-0.4,1.1-1.1,1.1c-0.8,0.1-1.2-0.4-1.2-1.5
	c0.3-3.7,2.3-5.7,6.2-6c3.1,0.3,4.8,1.9,5.2,4.8c0.1,1.5-0.3,2.9-1.3,4L314.8,124.6z"/>
<path d="M325.2,117c0.1-6.2,2.3-9.5,6.5-9.9c4.1,0.4,6.2,3.7,6.4,9.9c-0.3,6.2-2.4,9.3-6.4,9.7C327.6,126.4,325.4,123.2,325.2,117z
	 M327.8,117c0,5.1,1.3,7.6,3.8,7.7c2.5-0.1,3.7-2.7,3.8-7.7c-0.1-4.9-1.3-7.6-3.8-7.7C329.1,109.4,327.8,112.1,327.8,117z"/>
<path d="M343.3,125.6v-16.3h-2.5c-0.7,0-1-0.3-1-1.1c0-0.5,0.3-0.9,1-1h4.3c0.4,0,0.8,0.2,0.8,0.7v17.6c-0.1,0.7-0.5,1.1-1.3,1.1
	C343.7,126.7,343.3,126.2,343.3,125.6z"/>
<path d="M358.3,109.3h-8.1c-0.7,0-1.1-0.3-1.1-1.1c0-0.4,0.3-0.8,1.1-1h9.8c0.8,0.1,1.2,0.3,1.3,0.8c-0.1,0.3-0.2,0.8-0.5,1.4
	l-7.3,16.5c-0.3,0.5-0.8,0.8-1.4,0.8s-1-0.2-1-0.8c-0.1-0.2,0.1-0.7,0.4-1.3L358.3,109.3L358.3,109.3z"/>
<path d="M370,106.2h17.4c0.7,0.1,1,0.4,1,1.2c-0.1,0.5-0.5,0.9-1.2,0.9h-8.2v4.8h8c0.7,0.1,1,0.4,1,1.1c0,0.7-0.3,1-1,1h-8v6.9h8.8
	c0.7,0.1,1.1,0.4,1.2,1.1c-0.1,0.7-0.4,1-1.2,1h-8.8v4.7c-0.1,0.5-0.4,0.9-1.1,1c-0.7,0-1.1-0.3-1.1-0.9v-4.8H364
	c-0.8,0-1.2-0.3-1.3-1c0.1-0.7,0.4-1,1.2-1.1h3.5v-6.5c-0.1-1.6,0.7-2.5,2.3-2.4h7v-4.8H369c-1.2,1.9-2.5,3.5-4.1,4.6
	c-0.7,0.5-1.2,0.5-1.6,0c-0.5-0.7-0.4-1.2,0.1-1.6c2.2-1.8,3.8-4,4.8-6.7c0.1-0.7,0.7-0.9,1.5-0.8c0.7,0.2,0.9,0.7,0.7,1.5
	C370.4,105.6,370.2,105.9,370,106.2z M376.8,115.1h-6.4c-0.7,0.1-1,0.3-1,0.9v6h7.4L376.8,115.1L376.8,115.1z"/>
<path d="M434.3,125.6v-16.3h-2.5c-0.7,0-1-0.3-1-1.1c0-0.5,0.3-0.9,1-1h4.3c0.4,0,0.8,0.2,0.8,0.7v17.6c-0.1,0.7-0.5,1.1-1.3,1.1
	C434.7,126.7,434.3,126.2,434.3,125.6z"/>
<path d="M440.2,117c0.1-6.2,2.3-9.5,6.5-9.9c4.1,0.4,6.2,3.7,6.4,9.9c-0.3,6.2-2.4,9.3-6.4,9.7C442.6,126.4,440.4,123.2,440.2,117z
	 M443,117c0,5.1,1.3,7.6,3.8,7.7c2.5-0.1,3.7-2.7,3.8-7.7c-0.1-4.9-1.3-7.6-3.8-7.7C444.2,109.4,443,112.1,443,117z"/>
<path d="M459.7,105.9h16.6c1.6,0.1,2.5,0.9,2.5,2.4v18.2c0.3,3.1-2.2,3.8-7.7,2.1c-0.5-0.2-0.8-0.7-0.8-1.3c0.2-0.5,0.7-0.7,1.3-0.7
	c3.6,1,5.4,0.9,4.9-0.3v-5.3h-17c-0.2,3-0.8,5.5-1.8,7.6c-0.4,0.7-1,1-1.5,0.8c-0.7-0.3-0.8-0.9-0.5-1.5c1.1-2.2,1.6-4.9,1.6-8.2
	v-11.2C457.5,106.9,458.2,106,459.7,105.9z M459.6,109.1v3.3h17v-3.6c-0.1-0.5-0.3-0.9-0.8-1h-15.3
	C459.9,107.9,459.6,108.3,459.6,109.1z M459.6,114.6v4.6h17v-4.6H459.6z"/>
<path d="M528,109.3l-0.8,5.3c0.7-0.3,1.5-0.5,2.5-0.7c3,0.3,4.6,2.3,4.9,5.9c-0.2,4.4-2.3,6.6-6.4,6.7c-3-0.1-4.7-1.1-5.4-3.1
	c0-0.5,0.3-0.9,0.9-1c0.2,0,0.5,0.2,1.2,0.8c1.1,0.9,2.3,1.3,3.5,1.3c2.3-0.1,3.5-1.5,3.7-4.3c-0.1-2.6-1.3-4-3.4-4.2
	c-0.8,0-1.6,0.2-2.5,0.5c-0.3,0.1-0.5,0.2-0.8,0.2c-0.5,0-0.9-0.2-0.9-0.8c0-0.2,0.1-0.8,0.2-1.5l1.1-6.7c-0.1-0.4,0.2-0.7,0.9-0.7
	h6.7c0.7,0.1,1,0.4,1.1,1c-0.1,0.7-0.4,1.1-1.1,1.1C533.6,109.3,528,109.3,528,109.3z"/>
<path d="M542.5,105.3H559c1.5,0,2.2,0.9,2.2,2.5v18.8c0.1,1.6-0.9,2.5-2.9,2.4h-16.5c-1.5-0.2-2.4-1-2.5-2.4V108
	C539.2,106.1,540.2,105.3,542.5,105.3z M541.6,108.6v7.7h17.4v-7.7c0.1-0.8-0.3-1.1-1.1-1.1h-15.3
	C541.9,107.3,541.6,107.8,541.6,108.6z M541.6,118.2v7.7c-0.1,0.7,0.4,1,1.5,1H558c0.5-0.1,0.9-0.3,0.9-0.8v-7.8h-17.4V118.2z"/>
<g>
	<path d="M623.6,137.7h16.6c1.2,0.1,1.9,0.5,1.9,1.5v6.2c0.1,1.6-0.7,2.4-2.1,2.2h-6.5v2.5h9.1c0.7,0.1,1,0.4,1.1,1.1
		c-0.1,0.7-0.4,1-1.1,1h-9.1v2.5h8.4c0.7,0.1,1,0.4,1,1.1s-0.3,1.1-1,1.1h-8.4v2.5H644c0.7,0,1,0.3,1,1s-0.3,1-1,1.1h-23.2
		c-0.8-0.1-1.2-0.4-1.3-1.1c0.1-0.7,0.4-1,1.3-1h10.7v-2.5h-8.4c-0.7,0-1.1-0.3-1.1-1.1c0-0.7,0.3-1,1.1-1.1h8.4v-2.5H624
		c-0.9,1-1.9,1.8-2.9,2.4c-0.7,0.4-1.2,0.4-1.5,0.1c-0.5-0.4-0.5-1,0-1.5c1.9-1.3,3.4-3,4.6-4.7c0.3-0.4,0.8-0.4,1.4-0.2
		c0.4,0.3,0.7,0.8,0.4,1.3c-0.1,0.3-0.2,0.5-0.3,0.7h5.8v-2.5h-7.5c-1.4,0-2.1-0.7-2.1-1.9v-6.3
		C621.8,138.3,622.4,137.8,623.6,137.7z M623.9,143.6v1.2c-0.1,0.7,0.2,0.9,0.8,0.9h14.5c0.4,0.1,0.8-0.3,0.8-1.1v-1H623.9z
		 M623.9,140.8v0.9h16v-1c0-0.7-0.3-1.1-0.9-1.1H625C624.2,139.7,623.9,140,623.9,140.8z"/>
	<path d="M650.2,156c0.3-0.4,0.8-0.5,1.4-0.3c0.5,0.4,0.7,0.9,0.4,1.5c-1.3,1.6-2.6,3.2-4.1,4.4c-0.7,0.3-1.2,0.3-1.5-0.1
		c-0.3-0.5-0.2-1.1,0.3-1.5c0.1-0.1,0.2-0.3,0.4-0.5C648.4,158.3,649.5,157.2,650.2,156z M658.8,138.6v1.5h0.9
		c0.7,0.1,1.1,0.4,1.2,1.1c-0.1,0.7-0.4,1-1.2,1h-0.9v10.7h1.2c0.4,0.1,0.8,0.4,0.9,1.1c-0.1,0.7-0.4,1-1,1h-12.3
		c-0.7,0-1.1-0.3-1.1-1c0-0.7,0.3-1,1.1-1.1h1.5v-10.7h-1.5c-0.7,0-1-0.3-1-1c0-0.7,0.3-1,1-1.1h1.5v-1.5c0-0.5,0.3-0.9,1-0.9
		c0.7,0.1,1,0.4,1.1,1v1.5h5.6v-1.5c0-0.7,0.3-1,1-1.1C658.4,137.6,658.7,137.9,658.8,138.6z M651.1,142.1v2.3h5.6v-2.3H651.1z
		 M651.1,146.2v2.3h5.6v-2.3H651.1z M651.1,150.3v2.4h5.6v-2.4H651.1z M656.7,155.6c0.3,0.5,0.7,1,1.1,1.5c0.3,0.4,0.5,0.8,0.9,1
		c0.3,0.7,0.3,1.1-0.2,1.4c-0.7,0.4-1.1,0.4-1.5-0.1c-0.2-0.2-0.5-0.7-1.1-1.3c-0.3-0.3-0.5-0.8-0.9-1.3c-0.3-0.4-0.3-0.9,0.2-1.3
		C655.7,155.3,656.3,155.3,656.7,155.6z M670.6,140.8v18.5c0.4,2.5-1.2,3.4-4.8,2.4c-0.8-0.2-1.1-0.7-1.1-1.4c0.1-0.7,0.5-1,1.4-0.9
		c1.9,0.7,2.7,0.4,2.5-0.7v-4.8h-5.3c-0.3,3.4-1.3,5.9-2.9,7.7c-0.5,0.5-1.2,0.7-1.8,0.3c-0.5-0.5-0.5-1.1,0-1.6
		c1.9-2.1,2.7-4.8,2.6-8.4v-11.1c-0.2-1.6,0.5-2.5,2.3-2.3h4.6C669.9,138.3,670.7,139.1,670.6,140.8z M668.6,145.1v-4.1
		c-0.1-0.3-0.3-0.5-0.7-0.7h-4.1c-0.4,0-0.7,0.2-0.7,0.7v4.1H668.6z M668.6,152v-4.7h-5.3v4.7H668.6z"/>
	<path d="M676.5,138.3h19.9c1.4,0,2.1,0.7,2.1,2.1v18.8c0.1,1.4-0.5,2.1-2,2h-20.7c-1.6,0.1-2.4-0.7-2.2-2.1v-18.2
		C673.4,139.1,674.4,138.2,676.5,138.3z M675.6,141.5v16.6c-0.1,0.8,0.2,1.2,1,1.2h18.9c0.7,0,0.9-0.3,0.9-1v-3.7h-5.1
		c-2.3,0.2-3.3-0.8-3.1-3v-11.2h-4.9v6.2c0.2,5.1-1.6,7.9-5.5,8.6c-0.8,0.2-1.3,0-1.5-0.7c-0.1-0.7,0.1-1.2,0.9-1.5
		c2.9-0.5,4.2-2.7,4.1-6.5v-6h-4.4C676,140.4,675.5,140.8,675.6,141.5z M690.5,140.4V151c-0.1,1.1,0.3,1.6,1.3,1.5h4.6v-11
		c0.1-0.8-0.3-1.1-1.3-1.1H690.5z"/>
</g>
<path d="M201.8,175.8h9c2.6,0.1,2.7,2.1,0.5,5.7c-0.5,0.7-1,0.8-1.5,0.4c-0.5-0.4-0.7-1-0.2-1.6c1-1.5,1.1-2.2,0.3-2.2h-8.6
	c-1.1,3.3-2.7,6-4.9,8.2v8c-0.1,0.1,0.1,0.2,0.4,0.2c1.1-0.4,2.2-1.2,3.3-2.2c0.5-0.4,1.1-0.4,1.5,0c0.4,0.7,0.4,1.2-0.1,1.6
	c-1.3,0.9-2.9,1.9-4.7,2.9c-1.8,0.7-2.6,0-2.6-2v-6.8c-1.1,0.8-2.5,1.5-4.1,2.1c-0.9,0.3-1.5,0.2-1.8-0.5c-0.2-0.8,0.1-1.4,1-1.8
	c5.1-1.9,8.2-5.2,9.8-9.9h-5.6c-0.7,0-1,0.3-1,1v1.8c-0.1,0.7-0.4,1-1.2,1.1c-0.7,0-1.1-0.3-1.1-1v-3.2c-0.2-1.5,0.4-2.2,1.9-2h7.5
	c0.1-0.1,0.3-1,0.5-2.4c0.1-0.8,0.5-1.2,1.3-1.2c0.7,0.1,1,0.5,1,1.4c-0.1,0.4-0.2,1-0.3,1.6C202,175.4,201.8,175.6,201.8,175.8z
	 M202.8,182c0.4,2.6,1.2,4.7,2.4,6.5c1.6-1.1,3.1-2.4,4.5-4.1c0.5-0.5,1.1-0.5,1.5-0.1c0.4,0.5,0.4,1.1-0.1,1.8
	c-1,1.3-2.6,2.7-4.7,4.3c1.5,1.9,3.6,3.3,6.5,4.3c0.8,0.2,1.1,0.7,1,1.4c-0.2,0.7-0.8,0.9-1.5,0.7c-6.2-1.9-10-6.6-11.4-13.8
	c-0.1-0.7,0.1-1.2,0.7-1.4C202.1,181.1,202.6,181.3,202.8,182z"/>
<path d="M239.8,175.5h-18.5c-0.9,0-1.3,0.3-1.3,1.1v7.8c0.1,5.6-0.5,9.6-1.8,11.8c-0.4,0.7-1,1-1.6,0.8c-0.5-0.3-0.7-0.9-0.3-1.5
	c0.7-1.2,1.1-2.5,1.3-4.2c0.3-1.3,0.4-3.5,0.4-6.6v-8.8c-0.1-1.6,0.8-2.4,2.6-2.3H240c0.7,0.1,1.1,0.4,1.2,1.1
	C240.9,175.2,240.5,175.5,239.8,175.5z M229.9,177.5v3.3h7.3c1.9-0.1,2.7,0.7,2.6,2.3c-0.1,8-0.9,12.2-2.2,12.5
	c-1.1,0.8-3.1,1-5.9,0.7c-0.9-0.1-1.3-0.5-1.3-1.3c0.2-0.5,0.8-0.9,1.6-0.9c2.4,0.3,3.8,0.1,4.4-0.5c0.7-0.4,1.1-3.5,1.3-9.5
	c0.1-0.8-0.4-1.2-1.5-1.3h-6.4c-0.1,6.6-2.3,11.3-6.6,14.1c-0.8,0.4-1.4,0.4-1.8-0.1c-0.3-0.5-0.2-1.2,0.5-1.8
	c3.8-2.4,5.7-6.5,5.7-12.2h-5.3c-0.7,0-1.1-0.3-1.2-1c0-0.7,0.3-1.1,1.1-1.2h5.5v-3.2c0-0.8,0.3-1.2,1-1.3
	C229.4,176.3,229.9,176.7,229.9,177.5z"/>
<path d="M248.7,187.2c-1.3,0-1.9-0.7-1.9-1.9c0.1-1.2,0.7-1.9,1.9-2c1.2,0.1,1.9,0.8,2,2C250.6,186.6,250,187.2,248.7,187.2z
	 M248.7,196.3c-1.3-0.1-1.9-0.7-1.9-1.6c0.1-1.2,0.7-1.9,1.9-2c1.3,0.1,2,0.8,2,2C250.6,195.6,250,196.1,248.7,196.3z"/>
<path d="M312.1,173.4h22.5c0.7,0.1,1,0.4,1.1,1.2c-0.1,0.8-0.4,1.2-1.1,1.2h-8.2v17.5c-0.1,3.7-3.5,4.6-10,2.4
	c-0.7-0.3-0.9-0.9-0.7-1.5c0.3-0.7,0.9-1,1.6-0.8c4.3,1.5,6.4,1.3,6.5-0.7v-17h-11.8c-0.7,0-1.1-0.4-1.1-1.2
	C311.1,173.9,311.4,173.5,312.1,173.4z"/>
<path d="M339.3,173.2h22.7c0.7,0.1,1,0.4,1,1.2c-0.1,0.7-0.4,1-1.1,1h-7.3v3.1h4.6c1.6,0,2.4,0.7,2.4,2v14.1c-0.1,1.3-0.9,2-2.3,2
	h-18c-1.6,0.1-2.4-0.5-2.2-2.2v-13.7c-0.1-1.4,0.8-2.1,2.4-2.1h4.5v-3.1h-6.8c-0.8,0-1.2-0.3-1.3-1.1
	C338.2,173.6,338.6,173.3,339.3,173.2z M341.3,191.6v2.4c-0.1,0.3,0.2,0.5,0.8,0.5h17c0.4,0,0.8-0.2,0.8-0.7v-2.3L341.3,191.6
	L341.3,191.6z M341.3,181.3v8.4h18.6v-2.9H355c-1.5-0.1-2.3-0.9-2.3-2.4v-4.1h-4.6c0.1,4.1-1.3,6.4-4.3,7.1
	c-0.7,0.3-1.2,0.2-1.5-0.3c-0.3-0.5-0.1-1,0.4-1.4c2.5-0.7,3.5-2.4,3.3-5.4h-4.2C341.4,180.3,341.2,180.6,341.3,181.3z M352.7,175.4
	h-4.6v3.1h4.6V175.4z M359.1,180.3h-4.4v3.1c0.1,0.9,0.4,1.3,1.1,1.4h4.1V181C359.9,180.5,359.7,180.3,359.1,180.3z"/>
<path d="M372.2,174.2h17.4c0.7,0.1,1,0.4,1,1.2c-0.1,0.5-0.5,0.9-1.2,0.9h-8.2v4.8h8c0.7,0.1,1,0.4,1,1.1c0,0.7-0.3,1-1,1h-8v6.9
	h8.8c0.7,0.1,1.1,0.4,1.2,1.1c-0.1,0.7-0.4,1-1.2,1h-8.8v4.7c-0.1,0.5-0.4,0.9-1.1,1c-0.7,0-1.1-0.3-1.1-0.9v-4.8h-12.7
	c-0.8,0-1.2-0.3-1.3-1c0.1-0.7,0.4-1,1.2-1.1h3.5v-6.5c-0.1-1.6,0.7-2.5,2.3-2.4h7v-4.8h-7.7c-1.2,1.9-2.5,3.5-4.1,4.6
	c-0.7,0.5-1.2,0.5-1.6,0c-0.5-0.7-0.4-1.2,0.1-1.6c2.2-1.8,3.8-4,4.8-6.7c0.1-0.7,0.7-0.9,1.5-0.8c0.7,0.2,0.9,0.7,0.7,1.5
	C372.5,173.5,372.4,173.8,372.2,174.2z M379,183.1h-6.4c-0.7,0.1-1,0.3-1,0.9v6h7.4L379,183.1L379,183.1z"/>
<path d="M434.2,174.3c0.1-0.7,0.4-1.1,1.2-1.1c0.7,0.1,1.1,0.5,1.1,1.3c-0.9,9.5-3.4,16.8-7.5,22c-0.7,0.8-1.3,1-2,0.8
	c-0.7-0.5-0.7-1.1-0.1-1.9C431,190.8,433.4,183.7,434.2,174.3z M444,174.2c0.8,9.1,3.3,16.2,7.5,21.1c0.4,0.7,0.4,1.3-0.1,1.9
	c-0.7,0.3-1.2,0.2-1.8-0.5c-4.3-5.4-6.8-12.7-7.7-22.3c-0.1-0.7,0.2-1.1,1-1.3C443.4,173.1,443.8,173.5,444,174.2z"/>
<path d="M458.1,173.7h16.6c1.6,0.1,2.5,0.9,2.5,2.4v18.2c0.3,3.1-2.2,3.8-7.7,2.1c-0.5-0.2-0.8-0.7-0.8-1.3c0.2-0.5,0.7-0.7,1.3-0.7
	c3.6,1,5.4,0.9,4.9-0.3v-5.3h-17c-0.2,3-0.8,5.5-1.8,7.6c-0.4,0.7-1,1-1.5,0.8c-0.7-0.3-0.8-0.9-0.5-1.5c1.1-2.2,1.6-4.9,1.6-8.2
	v-11.1C455.8,174.7,456.6,173.9,458.1,173.7z M458,177v3.3h17v-3.6c-0.1-0.5-0.3-0.9-0.8-1H459C458.4,175.8,458,176.3,458,177z
	 M458,182.4v4.6h17v-4.6H458z"/>
<path d="M514.6,172.8v8.5h11c0.5,0.1,0.9,0.4,1,1.2c0,0.8-0.3,1.2-0.9,1.2h-11.1v12.7c-0.1,0.9-0.5,1.3-1.3,1.4
	c-0.9,0-1.3-0.4-1.3-1.3v-13h-10.3c-0.9,0-1.3-0.3-1.4-1.1c0-0.8,0.4-1.2,1.2-1.3H512V173c0-0.7,0.4-1,1.2-1.1
	C514.1,172,514.5,172.2,514.6,172.8z"/>
<path d="M535.1,182.5c0.1-0.7,0.5-0.9,1.4-0.7c0.7,0.3,1,0.8,0.9,1.4c-1.5,5.8-4.1,10.3-7.8,13.4c-0.7,0.4-1.3,0.4-1.8,0
	c-0.3-0.5-0.2-1.1,0.2-1.6C531.6,191.7,533.9,187.7,535.1,182.5z M552.7,179.2h-23.3c-0.7,0-1.1-0.4-1.1-1.2c0-0.7,0.3-1.1,1.1-1.2
	h10.4c-0.1-0.4-0.5-1.5-1.4-3.1c-0.3-0.7-0.2-1.2,0.5-1.5c0.7-0.3,1.3-0.1,1.6,0.7c0.1,0.2,0.2,0.5,0.3,0.9c0.7,1.5,1.2,2.5,1.5,3.2
	h10.4c0.5,0.1,0.9,0.5,0.9,1.3C553.5,178.9,553.2,179.2,552.7,179.2z M550.7,196.8c-2.5-5.8-5.1-10.1-7.5-13.1
	c-0.5-0.7-0.4-1.2,0.1-1.8c0.7-0.4,1.3-0.3,1.9,0.2c3.3,4.3,5.9,8.9,7.7,13.8c0.2,0.7-0.1,1.1-0.9,1.4
	C551.4,197.6,551,197.5,550.7,196.8z"/>
<path d="M560.3,173.1h16.5c1.5,0,2.2,0.9,2.2,2.5v18.8c0.1,1.6-0.9,2.5-2.9,2.4h-16.5c-1.5-0.2-2.4-1-2.5-2.4v-18.6
	C557,174.1,558.1,173.1,560.3,173.1z M559.5,176.4v7.7h17.4v-7.7c0.1-0.8-0.3-1.1-1.1-1.1h-15.3
	C559.7,175.3,559.4,175.6,559.5,176.4z M559.5,186.1v7.7c-0.1,0.7,0.4,1,1.5,1H576c0.5-0.1,0.9-0.3,0.9-0.8v-7.8h-17.4V186.1z"/>
<g>
	<path d="M194.2,258.1c-0.8,2.1-2,3.8-3.5,5.4c-0.5,0.4-1,0.5-1.5,0.3c-0.5-0.4-0.5-0.9-0.1-1.4c1.3-1.5,2.4-3.3,3.3-5.1
		c0.3-0.7,0.8-0.9,1.4-0.7C194.2,257,194.4,257.5,194.2,258.1z M199.3,249.7h2.6c0.5,0.1,0.9,0.4,1,1c0,0.7-0.3,1-0.9,1h-4.9v2.6
		h4.8c0.7,0.1,1,0.4,1.1,1.1c-0.1,0.5-0.4,0.9-1.2,0.9h-4.7v6.8c0.3,2.3-1.2,3-4.7,2c-0.7-0.2-1-0.5-1-1.2c0.2-0.7,0.7-0.9,1.3-0.8
		c2,0.7,2.9,0.4,2.5-0.7v-6.3h-5.1c-0.7,0-1-0.3-1.1-0.9c0.1-0.7,0.4-1,1.1-1.1h4.9v-2.6h-4.8c-0.7,0-1.1-0.3-1.2-0.9
		c0.1-0.7,0.4-1,1.1-1.1h6.9c0.3-0.5,0.9-1.8,1.5-3.7c0.2-0.7,0.7-0.9,1.3-0.7c0.7,0.3,1,0.7,0.8,1.3c-0.1,0.3-0.3,0.8-0.7,1.4
		C199.8,248.9,199.5,249.4,199.3,249.7z M201.2,245h-10.7c-0.7,0-1-0.3-1-1c0-0.7,0.3-1,1-1.1h4.2c-0.2-0.4-0.4-0.9-0.7-1.3
		c-0.4-0.7-0.3-1.2,0.2-1.5c0.7-0.3,1.2-0.1,1.5,0.5c0.4,1.1,0.9,1.9,1.3,2.3h4.1c0.5,0.1,0.9,0.4,1,1.1
		C202.1,244.7,201.7,245,201.2,245z M193.4,246c0.2,0.4,0.4,0.9,0.8,1.5c0.1,0.2,0.2,0.4,0.3,0.5c0.2,0.7,0.1,1.1-0.4,1.5
		c-0.5,0.2-1,0-1.3-0.7c-0.4-0.8-0.8-1.4-1.1-2c-0.3-0.4-0.2-1,0.3-1.4C192.6,245.3,193.1,245.5,193.4,246z M199.6,256.9
		c0.4,0.5,1,1.2,1.6,2.2c0.1,0.2,0.2,0.3,0.3,0.4c0.3,0.5,0.3,1.1-0.1,1.5c-0.5,0.3-1,0.3-1.4-0.2c-0.2-0.2-0.4-0.4-0.8-0.9
		c-0.4-0.7-0.9-1.2-1.3-1.8c-0.4-0.4-0.4-0.9,0-1.3C198.7,256.6,199.2,256.6,199.6,256.9z M206,245.7v3.3h7.7
		c1.2,0.8,1.2,1.5,0.1,2.3h-2.5v13.4c-0.1,0.7-0.4,1.1-1.1,1.2c-0.7-0.1-1.1-0.4-1.1-1.2v-13.4h-3.2v5.6c-0.3,3.6-2,6.5-4.9,8.4
		c-0.7,0.2-1.2,0-1.5-0.5c-0.3-0.7-0.1-1.1,0.4-1.5c2.6-1.5,4-3.7,4.1-6.7v-12.1c0-1.3,0.7-2,2.1-2c3.3-0.3,5.6-0.7,6.9-1.1
		c0.7-0.1,1.2,0.1,1.5,0.7c0.1,0.8-0.1,1.2-0.9,1.4c-2.2,0.4-4.3,0.8-6.4,1.1C206.4,244.6,205.9,244.9,206,245.7z"/>
	<path d="M228.6,244.7v7.3c0.1,1.3-0.7,1.9-2.1,1.6h-7v8.2c0,0.2,0,0.3,0.1,0.3c0.1,0.1,0.2,0,0.3-0.1c1.5-0.8,3.2-1.8,4.7-3
		c-0.3-0.4-1.1-1.4-2.1-2.9c-0.5-0.5-0.4-1.1,0.1-1.5c0.7-0.3,1.2-0.2,1.8,0.3c1.9,2.6,3.4,4.8,4.6,6.6c0.3,0.7,0.2,1.2-0.4,1.5
		c-0.7,0.2-1.3,0-1.6-0.7c-0.4-0.7-0.8-1.1-1-1.5c-1.4,0.9-3.4,2.1-5.9,3.4c-1.6,0.7-2.6,0.1-2.6-1.6v-17.9
		c-0.1-1.3,0.5-1.9,1.8-1.9h2.5c-0.1-0.1-0.2-0.2-0.3-0.5c-0.1-0.3-0.2-0.5-0.3-0.9c-0.3-0.7-0.1-1.1,0.4-1.5c0.7-0.2,1.2,0,1.5,0.7
		c0.1,0.1,0.4,0.9,1.1,2.2h2.7C228,243,228.6,243.6,228.6,244.7z M219.4,245.8v1.5h7V246c0-0.9-0.3-1.2-0.9-1.2h-5.2
		C219.7,244.8,219.3,245.2,219.4,245.8z M226.4,250.9v-1.6h-7v2.5h6.2C226,251.8,226.4,251.4,226.4,250.9z M236.9,243.6h-3.8
		c-0.4,0-0.7,0.2-0.7,0.5v20c-0.1,0.5-0.4,0.9-1.1,1c-0.7-0.1-1.1-0.4-1.1-1v-20c0-1.8,0.8-2.6,2.4-2.6h4.6c1.4,0,2.3,0.2,2.5,0.5
		c0.3,0.4,0.3,1.2,0,2.2c-0.1,0.2-0.2,0.4-0.2,0.7c-1.4,3.6-2.1,5.6-1.9,5.9c0,0.1,0.2,0.5,0.7,1.2c1.6,2.4,2.5,4.4,2.6,5.8
		c0,5.2-2.4,6.7-7.1,4.6c-0.7-0.3-0.9-0.8-0.7-1.4c0.4-0.5,1-0.7,1.6-0.4c1.2,0.7,2.2,0.7,3,0.2c0.7-0.5,0.9-1.5,0.8-3.1
		c-0.3-1.9-1.1-3.5-2.5-5.2c-0.9-0.7-1-1.6-0.5-2.9c0.2-0.9,0.8-2.4,1.5-4.7C237.6,244.2,237.5,243.6,236.9,243.6z"/>
	<path d="M248.7,255.2c-1.3,0-1.9-0.7-1.9-1.9c0.1-1.2,0.7-1.9,1.9-2c1.2,0.1,1.9,0.8,2,2C250.6,254.5,250,255.2,248.7,255.2z
		 M248.7,264.2c-1.3-0.1-1.9-0.7-1.9-1.6c0.1-1.2,0.7-1.9,1.9-2c1.3,0.1,2,0.8,2,2C250.6,263.5,250,264.1,248.7,264.2z"/>
	<path d="M279.8,241.2v1.1h4.8c0.3,0.1,0.5,0.3,0.7,0.8c-0.1,0.5-0.3,0.8-0.7,0.8h-4.8v1.5h6.8c-0.1-1.3-0.2-2.5-0.3-3.8
		c0-0.7,0.3-1,1-1.1c0.5,0.1,0.9,0.4,1.1,1.1c0.1,2.3,0.2,3.5,0.3,3.8h5.9c0.5,0.1,0.9,0.3,1,0.9c-0.1,0.5-0.4,0.9-1,0.9h-5.7
		c0.3,3.1,0.8,5.6,1.3,7.7c0.4-1.2,1-2.9,1.5-4.9c0.1-0.7,0.5-1,1.2-0.9c0.7,0.3,0.9,0.8,0.8,1.5c-0.5,2.1-1.5,4.6-2.7,7.4
		c0.9,2.7,1.6,4.3,2.1,4.5c0.1,0,0.2-0.9,0.3-2.5c0-0.1,0-0.3,0.1-0.7c-0.1-0.5,0.2-0.9,0.9-1c0.7,0.1,1,0.4,1.1,1
		c-0.1,4.3-0.8,6.4-2.1,6c-1.1-0.1-2.3-1.8-3.6-4.9c-1.1,1.8-2.1,3.2-3.2,4.3c-0.7,0.4-1.2,0.5-1.8,0.2c-0.5-0.4-0.4-0.9,0.1-1.5
		c1.5-1.4,3-3.2,4.2-5.4c-0.9-2.6-1.5-6.3-2-10.7h-15.7c-0.5,0-0.8-0.3-0.9-0.9c0.1-0.4,0.3-0.8,0.9-0.9h6.9v-1.8H273
		c-0.5,0-0.8-0.2-0.8-0.8c0-0.4,0.2-0.7,0.8-0.8h5.4V241c0-0.5,0.3-0.9,0.9-0.9C279.3,240.3,279.7,240.7,279.8,241.2z M285.7,250.1
		v1.6c0.1,1.5-0.7,2.3-2.1,2.1h-1v1.5h3.1c0.4,0.1,0.7,0.3,0.8,0.8c-0.1,0.5-0.3,0.8-0.8,0.8h-3.1v1.5h3.3c0.4,0.1,0.8,0.3,0.9,0.8
		c-0.1,0.5-0.3,0.8-0.9,0.8h-14.6c-0.5,0-0.9-0.2-1-0.8c0.1-0.4,0.4-0.7,1-0.8h3.7v-1.5H272c-0.5,0-0.8-0.2-0.9-0.8
		c0.1-0.4,0.3-0.7,0.9-0.8h3.1v-1.5h-1.1c-1.5,0.1-2.2-0.5-2-2.1v-1.6c-0.1-1.3,0.5-2,2-2h9.7C285,248,285.8,248.7,285.7,250.1z
		 M276.9,262.4c-1.6,1.1-3.3,1.9-4.8,2.4c-0.7,0.1-1.2-0.1-1.5-0.7c-0.2-0.7,0-1.1,0.8-1.3c1.6-0.3,3.2-1.1,4.6-2.2
		c0.5-0.3,1.1-0.3,1.5,0.2C277.5,261.5,277.3,262,276.9,262.4z M273.5,251.6v0.2c-0.1,0.7,0.2,1,0.9,1h3.6v-1.2L273.5,251.6
		L273.5,251.6z M278,249.3h-3.6c-0.5,0.1-0.9,0.3-0.9,0.9v0.3h4.5L278,249.3L278,249.3z M276.7,254v1.5h4.3V254H276.7z M281,257
		h-4.3v1.5h4.3V257z M283.2,249.3h-3.6v1.2h4.5v-0.2C283.9,249.6,283.6,249.3,283.2,249.3z M279.5,251.6v1.2h3.6
		c0.5,0,0.9-0.3,0.9-0.9v-0.3H279.5z M281.3,260.8c0.1,0.1,0.4,0.3,0.8,0.7c0.9,0.5,1.4,0.8,1.6,1c0.4,0.3,0.5,0.7,0.3,1.3
		c-0.3,0.4-0.8,0.5-1.4,0.2c-0.9-0.7-1.8-1.1-2.4-1.4c-0.5-0.3-0.7-0.8-0.4-1.3C280.1,260.7,280.6,260.5,281.3,260.8z M291.2,241.3
		c0.3,0.3,0.9,0.7,1.5,1.2c0.1,0.1,0.2,0.2,0.4,0.3c0.4,0.5,0.5,1.1,0.2,1.5c-0.4,0.5-0.9,0.5-1.4,0c-0.3-0.2-0.5-0.4-1-0.8
		c-0.3-0.3-0.7-0.5-0.9-0.9c-0.5-0.3-0.5-0.8-0.3-1.3C290.2,241.1,290.6,241.1,291.2,241.3z"/>
	<path d="M308.6,245.7h-7.4v4.8c0,0.5,0.2,0.7,0.7,0.5c1.9-0.4,3.6-1.3,5.3-2.3c0.7-0.3,1.2-0.2,1.5,0.3c0.3,0.7,0.2,1.2-0.4,1.5
		c-2.5,1.4-4.6,2.4-6.6,2.9c-2,0.7-2.9,0.1-2.6-1.6v-6.2h-1.1c-0.8,0-1.2-0.3-1.4-1c0.1-0.7,0.4-1.1,1.3-1.2h4.5
		c-0.3-0.8-0.7-1.3-0.9-1.6c-0.4-0.7-0.3-1.2,0.2-1.5c0.7-0.3,1.3-0.1,1.6,0.4c0.7,1.1,1.1,2.1,1.5,2.9h3.6c0.7,0.1,1.1,0.4,1.2,1.1
		C309.7,245.4,309.2,245.7,308.6,245.7z M321,257h-9.9v2h8.5c0.7,0.1,1.1,0.4,1.2,1.1c-0.1,0.7-0.5,1-1.3,1h-8.4v1.9H322
		c0.5,0,0.9,0.3,1,1c-0.1,0.7-0.4,1-1,1.1h-23.5c-0.7-0.1-1.1-0.4-1.1-1.1c0-0.7,0.3-1,1.1-1H309v-1.9h-8.1c-0.7,0-1.1-0.3-1.2-1
		c0-0.7,0.3-1,1.1-1.1h8.2v-2h-9.8c-0.7,0-1.1-0.3-1.2-1c0-0.7,0.3-1.1,1.1-1.2H321c0.5,0.1,0.9,0.4,1,1.1
		C321.9,256.7,321.5,257,321,257z M312,241.2h7.4c1.6-0.1,2.5,0.8,2.4,2.6v7.9c0.3,2.2-1.3,2.7-4.7,1.8c-0.8-0.1-1.1-0.5-1.1-1.3
		c0.2-0.8,0.7-1.1,1.4-1c1.8,0.7,2.5,0.5,2.3-0.4v-0.4h-7.4c-0.3,1.3-1.1,2.4-2.3,3.5c-0.7,0.5-1.4,0.5-2,0.1
		c-0.5-0.7-0.4-1.3,0.3-1.9c1.1-0.8,1.6-1.8,1.9-2.9c0.3-1.1,0.3-3.2,0.2-6.3C310.3,241.8,310.9,241.2,312,241.2z M312.5,248.5h7.1
		v-1.5h-7C312.6,247.6,312.6,248.1,312.5,248.5z M312.6,244.9h7v-0.8c0-0.7-0.3-1-1-1h-5.4c-0.5,0-0.7,0.2-0.7,0.7V244.9z"/>
	<path d="M328.6,246.8c-0.7,5.1-1.4,8.6-2.2,10.4c-0.4,0.8-1,1-1.5,0.8c-0.5-0.3-0.5-0.9-0.3-1.6c1.1-3.4,1.6-6.6,1.9-9.8
		c0.1-0.8,0.4-1.2,1.3-1.2C328.2,245.5,328.6,246,328.6,246.8z M331.9,241.2v12.5c-0.2,5.2-2,8.8-5.3,11c-0.7,0.3-1.2,0.2-1.5-0.3
		c-0.3-0.7-0.1-1.3,0.4-1.6c2.7-1.9,4.2-4.8,4.3-8.9v-12.5c0-0.5,0.3-0.9,1.1-1C331.4,240.4,331.8,240.8,331.9,241.2z M335.4,246
		c0.4,3.5,0.9,7.3,1.2,11c-0.1,0.7-0.4,1-1,1.1c-0.7,0-1-0.3-1.1-1c-0.1-0.9-0.2-1.8-0.3-2.7c-0.3-3.6-0.5-6.4-0.8-8
		c-0.1-0.7,0.2-1,0.8-1.2C334.7,245.2,335.2,245.5,335.4,246z M340.2,241.9v20.6c-0.1,0.5-0.4,0.9-1.2,1c-0.7-0.1-1.1-0.4-1.1-1
		v-20.7c0-0.5,0.3-0.9,1.1-0.9C339.8,241,340.2,241.3,340.2,241.9z M341.6,246.6c-0.2-0.7,0-1.1,0.7-1.3c0.7-0.1,1.1,0.1,1.3,0.8
		c0.1,0.4,0.1,0.8,0.1,1.2c1,4.9,1.5,8.1,1.5,9.5c0,0.8-0.3,1.2-1,1.3c-0.7,0-1-0.3-1.1-1.1C343,254.3,342.4,250.8,341.6,246.6z
		 M348.9,241.8v22.6c-0.1,0.7-0.4,1-1.2,1c-0.7-0.1-1.1-0.4-1.1-1.1v-22.5c0-0.7,0.3-1,1.1-1S348.9,241.1,348.9,241.8z"/>
</g>
<g>
	<path d="M542.8,258.1c-0.8,2.1-2,3.8-3.5,5.4c-0.5,0.4-1,0.5-1.5,0.3c-0.5-0.4-0.5-0.9-0.1-1.4c1.3-1.5,2.4-3.3,3.3-5.1
		c0.3-0.7,0.8-0.9,1.4-0.7C542.8,257,543,257.5,542.8,258.1z M547.9,249.7h2.6c0.5,0.1,0.9,0.4,1,1c0,0.7-0.3,1-0.9,1h-4.9v2.6h4.8
		c0.7,0.1,1,0.4,1.1,1.1c-0.1,0.5-0.4,0.9-1.2,0.9h-4.7v6.8c0.3,2.3-1.2,3-4.7,2c-0.7-0.2-1-0.5-1-1.2c0.2-0.7,0.7-0.9,1.3-0.8
		c2,0.7,2.9,0.4,2.5-0.7v-6.3h-4.9c-0.7,0-1-0.3-1.1-0.9c0.1-0.7,0.4-1,1.1-1.1h4.9v-2.6H539c-0.7,0-1.1-0.3-1.2-0.9
		c0.1-0.7,0.4-1,1.1-1.1h6.9c0.3-0.5,0.9-1.8,1.5-3.7c0.2-0.7,0.7-0.9,1.3-0.7c0.7,0.3,1,0.7,0.8,1.3c-0.1,0.3-0.3,0.8-0.7,1.4
		C548.4,248.9,548.1,249.4,547.9,249.7z M549.8,245h-10.7c-0.7,0-1-0.3-1-1c0-0.7,0.3-1,1-1.1h4.2c-0.2-0.4-0.4-0.9-0.7-1.3
		c-0.4-0.7-0.3-1.2,0.2-1.5c0.7-0.3,1.2-0.1,1.5,0.5c0.4,1.1,0.9,1.9,1.3,2.3h4.1c0.5,0.1,0.9,0.4,1,1.1
		C550.7,244.7,550.3,245,549.8,245z M542,246c0.2,0.4,0.4,0.9,0.8,1.5c0.1,0.2,0.2,0.4,0.3,0.5c0.2,0.7,0.1,1.1-0.4,1.5
		c-0.5,0.2-1,0-1.3-0.7c-0.4-0.8-0.8-1.4-1.1-2c-0.3-0.4-0.2-1,0.3-1.4C541.2,245.3,541.7,245.5,542,246z M548.3,256.9
		c0.4,0.5,1,1.2,1.6,2.2c0.1,0.2,0.2,0.3,0.3,0.4c0.3,0.5,0.3,1.1-0.1,1.5c-0.5,0.3-1,0.3-1.4-0.2c-0.2-0.2-0.4-0.4-0.8-0.9
		c-0.4-0.7-0.9-1.2-1.3-1.8c-0.4-0.4-0.4-0.9,0-1.3C547.3,256.6,547.8,256.6,548.3,256.9z M554.6,245.7v3.3h7.7
		c1.2,0.8,1.2,1.5,0.1,2.3h-2.5v13.4c-0.1,0.7-0.4,1.1-1.1,1.2c-0.7-0.1-1.1-0.4-1.1-1.2v-13.4h-3.2v5.6c-0.3,3.6-2,6.5-4.9,8.4
		c-0.7,0.2-1.2,0-1.5-0.5c-0.3-0.7-0.1-1.1,0.4-1.5c2.6-1.5,4-3.7,4.1-6.7v-12.1c0-1.3,0.7-2,2.1-2c3.3-0.3,5.6-0.7,6.9-1.1
		c0.7-0.1,1.2,0.1,1.5,0.7c0.1,0.8-0.1,1.2-0.9,1.4c-2.2,0.4-4.3,0.8-6.4,1.1C555,244.6,554.5,244.9,554.6,245.7z"/>
	<path d="M570.2,244.4h1.8c1.8-0.2,2.5,0.8,2.2,3c-0.3,4.6-1.1,8.2-2.4,10.8c0.1,0.2,0.4,0.5,1,1c0.4,0.3,0.8,0.7,1.1,0.9
		c0.5,0.7,0.7,1.2,0.3,1.6c-0.5,0.5-1.1,0.4-1.6-0.1c-0.3-0.2-0.7-0.5-1.2-1c-0.3-0.3-0.4-0.4-0.5-0.7c-0.7,1.1-2.2,2.6-4.4,4.5
		c-0.5,0.3-1.1,0.3-1.6-0.1c-0.4-0.5-0.4-1.1,0.1-1.5c1.8-1.3,3.2-2.7,4.4-4.4c-0.5-0.3-1.1-0.8-1.6-1.4c-1.5-1.3-2.2-2-2-2.2
		c0-0.1,0.1-0.4,0.3-1.3c0.5-1.3,1.2-3.6,1.9-7h-2c-0.7,0-1-0.3-1-1.1c0-0.7,0.3-1.1,1-1.2h2.3c0.1-0.8,0.1-1.4,0.1-1.8
		s0-0.7,0.1-1.2c0.1-0.7,0.4-1.1,1.1-1.1c0.7,0.1,1.1,0.4,1.1,1.2c0,0.3,0,0.7-0.1,1.3C570.1,243.5,570.1,244.1,570.2,244.4z
		 M571.4,246.6h-1.6c-0.5,2.6-1.1,4.9-1.8,6.9c-0.2,0.5-0.3,0.9-0.2,1c-0.2,0.1,0.5,0.9,2.4,2.3c1.3-2.7,2-5.8,2.1-9.2
		C572.3,246.9,572,246.6,571.4,246.6z M587.8,245.2v7.5c0,1.5-0.5,2.2-1.8,2h-4.5c0.2,1.4,0.8,2.7,1.8,4.1c1.3-0.7,2.5-1.6,3.8-2.7
		c0.5-0.4,1.1-0.5,1.5-0.1c0.3,0.5,0.3,1-0.2,1.5c-1.1,1-2.3,2-3.7,3c1.3,1.3,2.9,2.4,4.5,3.1c0.7,0.3,0.9,0.8,0.7,1.5
		c-0.3,0.5-0.8,0.7-1.5,0.4c-4.8-2.1-7.7-5.6-8.8-10.7h-2.3v8c0,0.1,0.1,0.2,0.3,0.1c1-0.3,2-1,2.9-1.9c0.5-0.4,1.1-0.4,1.5,0.1
		c0.4,0.5,0.4,1-0.1,1.5c-1.5,1.2-3,2.1-4.3,2.7c-1.6,0.7-2.4,0.1-2.3-1.6v-18.4c-0.1-1.3,0.5-1.9,2-1.9h3.1
		c-0.1-0.1-0.3-0.4-0.4-0.9c-0.1-0.3-0.2-0.7-0.3-0.9c-0.3-0.5-0.1-1,0.4-1.4c0.7-0.2,1.1-0.1,1.5,0.4c0,0.1,0.1,0.3,0.2,0.9
		c0.4,0.9,0.7,1.4,0.9,1.8h3.4C587.3,243.2,587.9,243.8,587.8,245.2z M585.1,245.2h-6.9c-0.7,0-1,0.2-1,0.7v2.1h8.7v-2.1
		C586,245.4,585.6,245.2,585.1,245.2z M586,252v-2.1h-8.7v2.9h8C585.7,252.7,586,252.5,586,252z"/>
	<path d="M597.3,255.2c-1.3,0-1.9-0.7-1.9-1.9c0.1-1.2,0.7-1.9,1.9-2c1.2,0.1,1.9,0.8,2,2C599.2,254.5,598.6,255.2,597.3,255.2z
		 M597.3,264.2c-1.3-0.1-1.9-0.7-1.9-1.6c0.1-1.2,0.7-1.9,1.9-2c1.3,0.1,2,0.8,2,2C599.2,263.5,598.6,264.1,597.3,264.2z"/>
	<path d="M627.9,244.5h4.6c0.7,0.1,1,0.4,1,1.2c0,0.7-0.3,1.1-1,1.1H631c-0.2,2.9-1,5.6-2.2,8.5c1.3,2.3,2.4,4.3,3.1,5.9
		c0.2,0.9,0,1.4-0.5,1.5c-0.7,0.2-1.1,0-1.5-0.7c-0.7-1.8-1.5-3.3-2.3-4.6c-2,2.9-4.3,5.4-6.9,7.4c-0.7,0.3-1.1,0.3-1.5-0.2
		c-0.3-0.5-0.2-1.1,0.3-1.5c2.7-2,5.1-4.5,6.8-7.7c-0.9-1.3-2-2.7-3.3-4.5c-0.5-0.7-0.9-1.2-1-1.4c-0.4-0.4-0.4-1,0-1.5
		c0.4-0.3,1-0.3,1.5,0.1c1.1,1.3,2.4,3,4,4.9c1-2.7,1.5-4.9,1.5-6.6h-8.2c-0.8,0-1.2-0.3-1.3-1.1c0.1-0.7,0.4-1.1,1.2-1.2h5.1
		c-0.1-0.4-0.3-0.9-0.5-1.5c-0.1-0.3-0.1-0.4-0.1-0.5c-0.3-0.7-0.2-1.2,0.4-1.5c0.7-0.2,1.2,0,1.5,0.8
		C627.4,242.7,627.7,243.6,627.9,244.5z M637.7,243.7v16c-0.1,0.7-0.4,1.1-1.2,1.2c-0.7-0.1-1-0.4-1-1.3v-15.8c0-0.7,0.3-1.1,1-1.3
		C637.3,242.6,637.6,243.1,637.7,243.7z M643.4,241.6v21.4c0,1.9-2,2.5-6,1.9c-0.7-0.1-0.9-0.5-0.9-1.3c0.1-0.7,0.5-0.9,1.2-0.9
		c2.5,0.4,3.7,0.3,3.6-0.7v-20.6c0-0.7,0.3-1.1,1.1-1.2C643,240.5,643.3,241,643.4,241.6z"/>
	<path d="M655.4,250.9h-0.8V262c-0.1,3.3-2,4.1-5.7,2.2c-0.5-0.3-0.8-0.8-0.5-1.4c0.3-0.4,0.8-0.7,1.4-0.5c2.1,1,3.1,0.8,2.9-0.5
		V253c-1.3,2.9-2.9,5.4-4.7,7.7c-0.5,0.7-1,0.8-1.5,0.4c-0.5-0.4-0.5-1-0.1-1.5c2.1-2.3,3.8-5.3,5.4-8.7h-3.2
		c-0.9,0.1-1.4-0.1-1.5-0.4c-0.2-0.2-0.1-0.9,0.2-1.9l1.1-3.7c0.2-0.7,0.7-0.9,1.3-0.8c0.7,0.3,0.9,0.8,0.8,1.4l-1,3
		c-0.1,0.3,0,0.5,0.3,0.4h3.2v-5.5h-4.9c-1.1-0.7-1.1-1.4,0.1-2.1h8.2c0.7,0.1,1,0.4,1,1.1s-0.3,1.1-1,1.1h-1.4v5.5h1.2
		c0.3,0,0.5,0.1,0.9,0.3c1.6-2.3,2.7-4.9,3.5-7.8c0.2-0.7,0.7-1,1.4-0.8c0.7,0.3,0.9,0.8,0.8,1.5c-0.3,0.8-0.5,1.6-1,2.7
		c-0.1,0.3-0.2,0.4-0.2,0.5h3.8c-0.7-1.5-1.1-2.6-1.5-3.3c-0.3-0.5-0.1-1,0.4-1.4c0.5-0.2,1.1,0,1.5,0.5c0.4,0.8,0.9,1.8,1.3,3
		c0.1,0.4,0.1,0.8,0,1.2h4.1c0.5,0.1,0.9,0.4,1,1.1c-0.1,0.7-0.4,1-1,1h-4.4v3.6h4c0.5,0.1,0.9,0.4,1,1.1c0,0.7-0.3,1.1-0.9,1.1
		h-4.1v3.6h4.2c0.4,0.1,0.8,0.4,0.9,1.1c0,0.7-0.2,1-0.8,1h-4.3v3.6h4.5c0.5,0.1,0.9,0.3,1,0.9c-0.1,0.7-0.3,1-0.9,1.1h-10.7v0.1
		c-0.1,0.7-0.4,1-1.1,1s-1-0.3-1-1v-13.7c-0.2,0.3-0.4,0.7-0.8,1.1c-0.5,0.5-1,0.7-1.4,0.4C655.5,251.9,655.3,251.4,655.4,250.9z
		 M664.2,251v-3.6h-3.1c-0.7,0-1,0.3-1,0.9v2.7H664.2z M664.2,253.1h-4.1v3.6h4.1V253.1z M660.2,262.3h4.1v-3.6h-4.1V262.3z"/>
	<path d="M679.9,241.3v0.9h3.5c0.4,0.1,0.7,0.4,0.8,1c-0.1,0.5-0.3,0.9-0.8,0.9h-3.5v1.3h2.5c0.5,0.1,0.9,0.4,1,1
		c-0.1,0.5-0.4,0.9-1,0.9h-2.5v1.3h3.3c0.7,0.1,1,0.4,1,1c0,0.5-0.3,0.9-1,0.9h-9.5c-0.5,0-0.8-0.3-0.8-0.9c0.1-0.5,0.3-0.9,0.9-1
		h4.1V247h-3c-0.7,0-1-0.3-1-0.9c0-0.5,0.3-0.9,1-1h3v-1.3h-3.7c-0.7,0-1-0.3-1-0.9c0-0.5,0.3-0.9,1-1h3.7v-0.9c0-0.5,0.3-0.9,1-1
		C679.5,240.4,679.8,240.8,679.9,241.3z M676.2,251.5h5.3c1.3,0,1.9,0.7,1.9,2.1v8.8c0.1,2.5-1.4,3.1-4.6,1.8
		c-0.5-0.3-0.8-0.7-0.5-1.3c0.3-0.4,0.7-0.5,1.3-0.5c1.3,0.4,1.9,0.4,1.9-0.2v-1.9h-5.5v4.2c-0.1,0.4-0.4,0.8-1,0.9
		c-0.7-0.1-1-0.3-1-0.9v-10.9C674,252.2,674.8,251.5,676.2,251.5z M676,253.8v1.4h5.5V254c-0.1-0.4-0.3-0.8-0.8-0.9h-4.1
		C676.2,253.2,676,253.4,676,253.8z M676,256.8v1.8h5.5v-1.8H676z M692.9,244.1h-4.2c-1.1,1.5-2.2,2.6-3.3,3.6
		c-0.7,0.5-1.3,0.5-1.8,0.1c-0.3-0.5-0.2-1.1,0.4-1.6c1.9-1.6,3.3-3.4,4.3-5.2c0.3-0.5,0.8-0.7,1.4-0.3c0.5,0.4,0.7,0.9,0.4,1.5h3.7
		c2,0.1,2.5,1.1,1.6,3c-0.3,0.3-0.7,1-1.2,1.9c-0.3,0.5-0.5,0.9-0.7,1h1.1c1.3,0,2,0.7,2,1.9v2.5h0.8c0.5,0.1,0.9,0.4,1,1.1
		c-0.1,0.7-0.4,1-1,1h-0.8v2.7c-0.1,1.2-0.7,1.8-1.8,1.6h-3.2v3.7c0.1,2.6-1.6,3.3-5.2,2c-0.7-0.3-1-0.8-0.9-1.5
		c0.3-0.4,0.8-0.5,1.5-0.5c1.6,0.7,2.4,0.5,2.4-0.3v-3.4h-4c-0.7,0-1-0.3-1-1s0.3-1,1-1.1h4v-2.4h-4.7c-0.5,0-0.9-0.3-1-1
		c0.1-0.7,0.4-1,1-1.1h4.7v-2.4h-4c-0.5,0-0.9-0.3-1-1c0.1-0.7,0.4-1,1-1.1h5.2c1.1-1.3,1.8-2.4,2.1-3.3c0.1-0.1,0.1-0.2,0-0.3
		C693.1,244.3,693,244.2,692.9,244.1z M691.8,249.9v2.4h3v-1.5c0-0.5-0.2-0.9-0.8-0.9H691.8z M694.9,254.4h-3.1v2.4h2.2
		c0.4,0,0.8-0.3,0.9-1V254.4z"/>
</g>
<g>
	<path d="M377.5,363.1c0,0.4-0.2,0.8-0.5,1c-0.3,0.2-0.8,0.3-1.3,0.3c-0.4,0-0.9-0.1-1.2-0.3c-0.3-0.2-0.5-0.5-0.5-1v-3.4h-8.2
		c-0.4,0-0.8-0.2-1-0.5c-0.2-0.3-0.3-0.8-0.3-1.3c0-0.4,0.1-0.9,0.3-1.2c0.2-0.3,0.5-0.5,1.1-0.5h8.2v-1.2h-4c-0.4,0-0.8-0.2-1-0.5
		c-0.2-0.3-0.3-0.8-0.3-1.3c0-0.1,0-0.1,0-0.1c-0.4,0.3-1,0.7-1.4,1c-0.9,0.5-1.6,0.9-2.3,1.2c-0.4,0.2-0.9,0.1-1.2-0.1
		c-0.3-0.2-0.7-0.5-0.8-1c-0.2-0.4-0.3-0.9-0.2-1.3c0-0.4,0.3-0.8,0.8-0.9c1-0.4,1.8-0.9,2.3-1.1c0.4-0.2,1-0.5,1.4-1
		s0.9-0.8,1.3-1.1h-4c-0.4,0-0.8-0.2-1-0.5c-0.2-0.3-0.3-0.8-0.3-1.3c0-0.4,0.1-0.9,0.3-1.2c0.2-0.3,0.5-0.5,1.1-0.5h3.8
		c-0.1-0.1-0.2-0.3-0.3-0.5c-0.2-0.7-0.5-1.3-0.9-2.1c-0.3-0.8-0.7-1.3-0.8-1.5c-0.2-0.4-0.2-0.8-0.1-1.2c0.2-0.4,0.5-0.8,1-1
		c0.4-0.2,0.9-0.3,1.2-0.3c0.4,0,0.8,0.2,1,0.7c0.4,0.7,0.7,1.2,0.9,1.8c0.3,0.5,0.7,1.4,1,2.4c0.1,0.4,0.1,0.8-0.1,1.1
		c-0.2,0.2-0.4,0.4-0.7,0.5h8.7c-0.1-0.3,0-0.7,0.2-1c1.1-1.9,1.9-3.4,2.3-4.6c0.1-0.4,0.4-0.8,0.8-0.8c0.4-0.1,0.9,0,1.3,0.1
		c0.4,0.2,0.8,0.4,1,0.7c0.3,0.3,0.3,0.8,0.2,1.2c-0.4,1.3-1.2,2.9-2.1,4.5h4c0.4,0,0.8,0.2,1,0.5c0.2,0.3,0.3,0.8,0.3,1.3
		c0,0.4-0.1,0.9-0.3,1.2c-0.2,0.3-0.5,0.5-1,0.5h-3.8c0.3,0.3,0.7,0.5,0.9,0.9c1.1,0.9,2.4,1.6,4,2.4c0.4,0.2,0.7,0.5,0.8,1
		c0,0.4,0,0.9-0.2,1.3s-0.4,0.8-0.9,1.1c-0.3,0.2-0.8,0.3-1.2,0.1c-1.1-0.4-2.2-1.2-3.5-2.1v0.1c0,0.4-0.1,0.9-0.3,1.2
		c-0.2,0.3-0.5,0.5-1,0.5h-4.4v1.2h8.2c0.4,0,0.8,0.2,1,0.5c0.2,0.3,0.3,0.8,0.3,1.3c0,0.4-0.1,0.9-0.3,1.2c-0.2,0.3-0.5,0.5-1,0.5
		h-8.2v3.2H377.5z M374.4,349.3c0.3-0.2,0.8-0.3,1.3-0.3c0.4,0,0.9,0.1,1.2,0.3c0.3,0.2,0.5,0.5,0.5,1.1v0.9h3.7
		c-0.9-0.9-1.6-1.8-2.5-3H373c-0.4,0.7-1,1.3-1.6,2c-0.3,0.3-0.7,0.7-1,1h3.5v-0.9C373.8,349.9,374.1,349.6,374.4,349.3z
		 M372.9,339.6c0.2-0.4,0.5-0.7,1-0.9c0.4-0.2,0.9-0.3,1.2-0.3c0.4,0,0.8,0.2,1,0.7c0.2,0.4,0.4,0.9,0.7,1.2c0.2,0.4,0.4,1,0.7,1.8
		c0.1,0.4,0.1,0.9-0.2,1.2c-0.3,0.3-0.7,0.5-1.2,0.8c-0.4,0.1-0.9,0.1-1.3,0c-0.4-0.1-0.7-0.4-0.8-0.9c-0.1-0.4-0.3-0.9-0.5-1.3
		c-0.2-0.5-0.4-0.9-0.4-1C372.6,340.2,372.6,339.9,372.9,339.6z"/>
	<path d="M397.3,345.2c0.4,0,0.9,0.1,1.2,0.3c0.3,0.2,0.7,0.5,0.8,0.9c0.2,0.3,0.1,0.8-0.1,1.1c-0.5,0.8-1.2,1.6-2.1,2.6l-0.1,0.1
		v0.1v12.7c0,0.4-0.2,0.8-0.5,1c-0.3,0.2-0.8,0.3-1.3,0.3c-0.4,0-0.9-0.1-1.2-0.3c-0.3-0.2-0.5-0.5-0.5-1v-9.5
		c-0.4,0.3-0.9,0.7-1.2,0.9c-0.4,0.3-0.9,0.3-1.3,0.1c-0.3-0.2-0.7-0.5-0.9-1c-0.2-0.4-0.3-0.9-0.2-1.3c0.1-0.3,0.3-0.7,0.8-0.9
		c0.9-0.8,1.9-1.5,3.1-2.5c1-1,1.9-2.1,2.6-3.2C396.5,345.3,396.8,345.2,397.3,345.2z M395.9,338.5c0.4,0,0.9,0.1,1.2,0.3
		c0.4,0.2,0.7,0.4,0.9,0.8c0.2,0.3,0.2,0.8,0,1.1c-0.4,0.7-1,1.4-1.5,2.3c-0.7,0.8-1.3,1.5-2.1,2.2c-0.7,0.7-1.3,1.2-1.9,1.5
		c-0.4,0.3-0.9,0.3-1.3,0.2c-0.3-0.2-0.7-0.5-1-0.9c-0.2-0.4-0.3-0.9-0.3-1.3c0.1-0.3,0.3-0.7,0.8-1c0.8-0.5,1.5-1.3,2.3-2.1
		c0.8-0.9,1.5-1.8,2.1-2.5C395.2,338.7,395.5,338.5,395.9,338.5z M414.6,346c0.4,0,0.8,0.2,1,0.5c0.2,0.3,0.3,0.8,0.3,1.3
		c0,0.4-0.1,0.9-0.3,1.2c-0.2,0.3-0.5,0.5-1,0.5h-2.4v11.2c0,0.4-0.1,0.9-0.3,1.4c-0.2,0.5-0.5,0.9-0.9,1.2c-0.5,0.5-1.2,0.8-2,0.9
		c-0.9,0.1-1.6,0.1-2.4,0c-0.8-0.1-1.6-0.2-2.7-0.5c-0.4-0.1-0.8-0.3-1-0.7s-0.2-0.8-0.1-1.2c0.1-0.5,0.2-0.9,0.5-1.2
		c0.3-0.3,0.7-0.4,1.1-0.3c0.4,0.1,0.9,0.2,1.3,0.3c0.5,0.1,1,0.2,1.5,0.2s0.9-0.2,1.1-0.4c0.2-0.3,0.3-0.5,0.3-0.9v-10h-7.5
		c-0.4,0-0.8-0.2-1-0.5c-0.2-0.3-0.3-0.8-0.3-1.3c0-0.4,0.1-0.9,0.3-1.2c0.2-0.3,0.5-0.5,1.1-0.5H414.6z M413.3,339.9
		c0.4,0,0.8,0.2,1,0.5c0.2,0.3,0.3,0.8,0.3,1.3c0,0.4-0.1,0.9-0.3,1.2c-0.2,0.3-0.5,0.5-1,0.5H403c-0.4,0-0.8-0.2-1-0.5
		c-0.2-0.3-0.3-0.8-0.3-1.3c0-0.4,0.1-0.9,0.3-1.2c0.2-0.3,0.5-0.5,1.1-0.5H413.3z"/>
	<path d="M421.6,339.6c0.1-0.4,0.3-0.8,0.7-0.9c0.3-0.1,0.8-0.2,1.3,0c0.7,0.1,1.1,0.3,1.2,0.8c0.2,0.4,0.2,0.9,0,1.4
		c-0.7,1.9-1.5,3.8-3,6.2l0.9-0.1c0.3,0,0.5,0,0.8,0c0.3-0.5,0.7-1.2,0.9-1.8c0.1-0.4,0.4-0.7,0.8-0.8c0.3-0.1,0.8-0.1,1.3,0.1
		c0.7,0.2,1,0.5,1.1,0.9c0.1,0.4,0.1,0.9-0.1,1.4c-1.1,2.2-2.5,4.7-4.6,7.5l2.1-0.3c0.5-0.1,1.1-0.1,1.4,0.1
		c0.3,0.1,0.5,0.5,0.7,1.2c0.1,0.7,0.1,1.1-0.1,1.3c-0.2,0.2-0.5,0.4-1.2,0.5l-5.8,0.9c-0.4,0.1-0.9,0.1-1.2,0
		c-0.4-0.1-0.9-0.4-1.1-0.9c-0.2-0.4-0.3-0.9-0.3-1.2c0-0.4,0.2-0.8,0.4-1c1.4-1.5,2.6-3.1,3.6-4.6l-1.8,0.2c-0.4,0.1-0.9,0.1-1.2,0
		c-0.4-0.1-0.8-0.3-1.1-0.8c-0.2-0.4-0.3-0.8-0.3-1.2c0-0.4,0.1-0.8,0.3-1C419.5,344.7,420.9,342.1,421.6,339.6z M426.4,358.4
		c0.3,0.3,0.7,0.7,0.8,1.1c0.1,0.4,0.2,0.9,0.1,1.2c-0.1,0.4-0.3,0.8-0.8,0.9c-0.8,0.3-1.6,0.5-2.9,0.8c-1.8,0.4-3.3,0.7-4.5,0.8
		c-0.4,0-0.9-0.1-1.1-0.4c-0.3-0.3-0.4-0.8-0.5-1.2c0-0.5,0-0.9,0.2-1.2c0.2-0.3,0.5-0.5,1-0.7c1-0.1,2.2-0.3,3.5-0.7s2.3-0.5,3-0.8
		C425.7,358,426.2,358,426.4,358.4z M436.8,348h3.8c0.4,0,0.8,0.2,1,0.5c0.2,0.3,0.3,0.8,0.3,1.3c0,0.4-0.1,0.9-0.3,1.2
		c-0.2,0.3-0.5,0.5-1,0.5h-11.3c-0.4,0-0.8-0.2-1-0.5c-0.2-0.3-0.3-0.8-0.3-1.3c0-0.4,0.1-0.9,0.3-1.2c0.2-0.3,0.5-0.5,1.1-0.5h3.8
		v-2.6H429c-0.4,0-0.8-0.2-1-0.5c-0.2-0.3-0.3-0.8-0.3-1.3c0-0.4,0.1-0.9,0.3-1.2c0.2-0.3,0.5-0.5,1.1-0.5h4.3v-2.1
		c0-0.5,0.2-0.9,0.5-1.1c0.4-0.2,0.9-0.3,1.3-0.3c0.4,0,0.9,0.1,1.2,0.3c0.4,0.2,0.5,0.5,0.5,1.1v2.1h4.5c0.4,0,0.8,0.2,1,0.5
		c0.2,0.3,0.3,0.8,0.3,1.3c0,0.4-0.1,0.9-0.3,1.2c-0.2,0.3-0.5,0.5-1,0.5H437v2.6H436.8z M442.4,354.1v8.4c0,0.9-0.4,1.3-1.3,1.3
		h-11.6c-0.9,0-1.3-0.4-1.3-1.3v-8.4c0-0.9,0.4-1.3,1.3-1.3h11.6C442,352.8,442.4,353.2,442.4,354.1z M432.1,356.4
		c-0.2,0-0.3,0.1-0.3,0.3v3.2c0,0.2,0.1,0.3,0.3,0.3h6.4c0.2,0,0.3-0.1,0.3-0.3v-3.2c0-0.2-0.1-0.3-0.3-0.3H432.1z"/>
	<path d="M446.2,346.4h-0.7c-0.4,0-0.9-0.2-1.1-0.5c-0.2-0.3-0.3-0.8-0.3-1.2c0-0.5,0.1-0.9,0.3-1.3c0.2-0.3,0.5-0.5,1-0.5h1.2
		c0.1-1.3,0.2-2.4,0.2-3.5c0.1-0.4,0.3-0.8,0.8-0.9c0.4-0.1,0.9-0.1,1.3-0.1c0.4,0.1,0.9,0.3,1.1,0.5c0.3,0.3,0.4,0.7,0.3,1.1
		c0,0.8-0.1,1.6-0.3,2.7h1.6c0.9,0,1.4,0.2,1.8,0.7c0.3,0.5,0.4,1.2,0.3,2.1c-0.1,2.2-0.3,4.1-0.5,5.7c-0.3,1.8-0.9,3.4-1.5,5.3
		c-0.1,0.2-0.2,0.4-0.3,0.7l1.9,1.3c0.3,0.3,0.5,0.7,0.5,1c0,0.4-0.2,0.9-0.4,1.3c-0.2,0.4-0.5,0.7-1,0.8c-0.4,0.1-0.8,0.1-1.2-0.2
		l-1.4-1c-0.1,0.2-0.2,0.4-0.4,0.7c-0.9,1.2-1.6,2.2-2.5,3c-0.3,0.3-0.8,0.4-1.2,0.3c-0.4-0.1-0.8-0.3-1.1-0.8
		c-0.3-0.4-0.5-0.8-0.7-1.2c-0.1-0.4,0.1-0.8,0.4-1.1c1-1,1.9-1.9,2.5-2.9l-1.5-1.1c-0.8-0.5-1.2-1.2-1.4-1.8
		c-0.2-0.5-0.1-1.2,0.1-2c0.5-1.1,1.1-3.1,1.8-6C446,347.1,446.2,346.8,446.2,346.4z M447.8,353.2c-0.1,0.4-0.1,0.8-0.1,1
		c0,0.2,0.3,0.5,0.8,0.8l0.4,0.3c0-0.1,0.1-0.1,0.1-0.1c0.4-1.1,0.9-2.4,1.1-3.8c0.3-1.4,0.5-2.9,0.5-4.4c0-0.2,0-0.3-0.1-0.4
		c-0.1-0.1-0.3-0.1-0.5-0.1h-0.4c0,0.2-0.1,0.5-0.1,0.8C448.8,350.1,448.2,352.2,447.8,353.2z M454.8,339.3c0.3-0.3,0.9-0.5,1.9-0.5
		c1.6,0,3.4,0,5.3-0.1c1.8-0.1,3.3-0.3,4.6-0.5c0.4-0.1,0.9,0,1.1,0.3c0.3,0.3,0.4,0.8,0.5,1.2c0.1,0.5,0,0.9-0.1,1.3
		c-0.1,0.4-0.4,0.7-1,0.8c-0.9,0.1-2.1,0.3-3.5,0.4c0,0.3,0.1,0.5,0.1,0.9h4.2c0.4,0,0.7,0.2,0.9,0.4c0.2,0.3,0.3,0.8,0.3,1.1
		c0,0.4-0.1,0.8-0.3,1.1c0.4,0.1,0.8,0.2,1.1,0.5c0.2,0.2,0.3,0.7,0.3,1c-0.4,1.4-0.9,2.5-1.3,3.3c-0.3,0.4-0.7,0.8-1,1
		c-0.2,0.1-0.7,0-1.2,0c-0.4-0.1-1-0.3-1.5-0.8c-0.8-0.4-1.5-1.1-2.3-2c-0.7-0.8-1.1-1.6-1.5-2.6h-3.5v0.3c0,0.1,0,0.2,0,0.2
		c0,0.2,0.1,0.3,0.2,0.4c0.2,0.1,0.5,0.1,1-0.1c0.3-0.1,0.7-0.1,0.9-0.2c0.5-0.1,0.9-0.1,1.2,0.1c0.3,0.2,0.5,0.7,0.7,1
		c0.1,0.4,0.2,0.8,0.1,1.2c-0.1,0.4-0.2,0.7-0.7,0.8c-0.8,0.3-1.6,0.7-2.6,0.9c-1.1,0.3-1.9,0.5-2.4,0.7c-0.5,0.1-1.1-0.1-1.5-0.5
		c-0.4-0.5-0.5-1-0.5-1.5v-2.6v-0.3v-5.5C454.3,340.4,454.5,339.9,454.8,339.3z M469.3,353.3v9.1c0,0.9-0.4,1.3-1.3,1.3h-12.3
		c-0.9,0-1.3-0.4-1.3-1.3v-9.1c0-0.9,0.4-1.3,1.3-1.3H468C468.9,352,469.3,352.4,469.3,353.3z M460.3,343.1
		c-0.1-0.3-0.1-0.5-0.1-0.8c-0.5,0-1,0-1.3,0c-0.5,0-0.8,0.1-0.9,0.1c-0.1,0.1-0.1,0.3-0.1,0.7H460.3z M465.9,356.3v-0.5
		c0-0.2-0.1-0.3-0.3-0.3h-7.4c-0.2,0-0.3,0.1-0.3,0.3v0.5H465.9z M457.9,359.5v0.5c0,0.2,0.1,0.3,0.3,0.3h7.4c0.2,0,0.3-0.1,0.3-0.3
		v-0.5H457.9z M465.2,346.3c0.3,0.4,0.5,0.8,0.8,1c0.3,0.2,0.5,0.3,0.8,0.3c0.1-0.1,0.1-0.2,0.2-0.3c0-0.2,0.1-0.3,0.1-0.5
		c0-0.1,0.1-0.3,0.1-0.4H465.2z"/>
	<path d="M496.1,340.9c0.4,0,0.8,0.2,1,0.5c0.2,0.3,0.3,0.8,0.3,1.3c0,0.4-0.1,0.9-0.3,1.2s-0.5,0.5-1,0.5h-17.7
		c-0.5,0-0.8,0.2-0.8,0.8v7.7c0,1.3-0.1,2.6-0.4,4.2c-0.2,1.3-0.5,2.5-1,3.7c-0.5,1.1-1,2-1.5,2.6c-0.3,0.4-0.7,0.7-0.9,0.8
		c-0.3,0.1-0.9,0-1.4-0.4c-0.5-0.4-0.9-0.9-1-1.3c-0.1-0.4,0-0.8,0.2-1.1c0.8-1.3,1.4-2.6,1.9-4.1c0.4-1.8,0.7-3.6,0.7-5.5v-8.4
		c0-0.9,0.2-1.5,0.7-2.1c0.4-0.4,1-0.5,2-0.5h7.5c0-0.1-0.1-0.1-0.1-0.2c-0.2-0.4-0.3-0.8-0.1-1.2c0.2-0.4,0.5-0.8,1-1
		c0.4-0.2,0.9-0.4,1.2-0.4c0.4,0,0.8,0.2,1.1,0.7c0.4,0.5,0.8,1.3,1.1,2.2H496.1z M495.9,349.1c0.2,0.3,0.3,0.8,0.3,1.3
		c0,0.4-0.1,0.9-0.3,1.2c-0.2,0.3-0.5,0.5-1,0.5h-6c0,0.4,0.1,0.8,0.1,1c0.1,0.8,0.3,1.4,0.7,2c0.2,0.5,0.5,1.1,1,1.8
		c0.4,0.7,1.2,1.3,2.2,2.1c1.1,0.7,2.3,1.4,3.5,2.1c0.4,0.2,0.7,0.5,0.7,1s-0.1,0.9-0.3,1.3s-0.5,0.8-0.9,0.9
		c-0.3,0.2-0.8,0.2-1.2,0c-1.3-0.8-2.4-1.5-3.4-2.2c-1.3-1.1-2.4-2.2-3.3-3.3c-0.4-0.5-0.8-1-1-1.5c-0.2,0.3-0.4,0.8-0.7,1.1
		c-0.5,0.8-1.1,1.4-1.5,2c-0.7,0.7-1.3,1.2-1.9,1.6c-0.8,0.7-1.5,1.1-2.3,1.4c-0.8,0.4-1.4,0.8-1.9,0.9c-0.4,0.1-0.9,0.1-1.2-0.2
		c-0.3-0.2-0.7-0.7-0.8-1.1c-0.1-0.4-0.2-0.9-0.1-1.3c0.1-0.4,0.3-0.8,0.8-0.9c0.4-0.2,1-0.4,1.4-0.8c0.5-0.3,1.1-0.8,1.6-1.1
		c0.5-0.3,1-0.8,1.5-1.2c0.5-0.4,1-1,1.4-1.8c0.4-0.7,0.8-1.3,0.9-1.8c0.3-0.7,0.4-1.3,0.5-2l0,0h-5.5c-0.4,0-0.8-0.2-1-0.5
		c-0.2-0.3-0.3-0.8-0.3-1.3c0-0.4,0.1-0.9,0.3-1.2c0.2-0.3,0.5-0.5,1.1-0.5h5.6v-2.3c0-0.4,0.2-0.8,0.5-1c0.3-0.2,0.8-0.3,1.3-0.3
		c0.4,0,0.9,0.1,1.2,0.3c0.3,0.2,0.5,0.5,0.5,1.1v2.3h6.2C495.5,348.7,495.8,348.8,495.9,349.1z"/>
	<path d="M501.9,342.4c0.4-0.4,1.1-0.5,1.9-0.5h1.8h1.4v-2.3c0-0.4,0.2-0.8,0.5-1c0.3-0.2,0.8-0.3,1.3-0.3c0.4,0,0.9,0.1,1.2,0.3
		c0.3,0.2,0.5,0.5,0.5,1.1v2.3h2.3v-2.3c0-0.4,0.2-0.8,0.5-1c0.3-0.2,0.8-0.3,1.3-0.3c0.4,0,0.9,0.1,1.2,0.3
		c0.3,0.2,0.5,0.5,0.5,1.1v2.3h3.1c0.9,0,1.4,0.2,1.9,0.7c0.4,0.4,0.5,1.1,0.7,1.9V355h0.8c0.4,0,0.8,0.2,1,0.5
		c0.2,0.3,0.3,0.8,0.3,1.3c0,0.4-0.1,0.9-0.3,1.2c-0.2,0.3-0.5,0.5-1,0.5h-5.7c2,0.5,4.3,1.5,6.8,2.9c0.4,0.2,0.7,0.5,0.7,1
		c0,0.4-0.1,0.9-0.3,1.3c-0.2,0.4-0.5,0.8-0.9,0.9c-0.4,0.2-0.8,0.2-1.2,0c-2.5-1.3-4.7-2.3-6.4-2.7c-0.4-0.1-0.8-0.4-0.9-0.8
		c-0.1-0.4-0.1-0.9,0-1.4c0.1-0.4,0.3-0.9,0.7-1.1l0.1-0.1h-8.1c0.3,0.1,0.5,0.4,0.8,0.8c0.3,0.4,0.4,0.8,0.4,1.2s-0.2,0.8-0.5,1
		c-1.6,1-3.1,1.8-4.3,2.2c-1.2,0.5-2.4,0.9-3.3,1.1c-0.5,0.1-0.9-0.1-1.2-0.4c-0.2-0.3-0.4-0.7-0.5-1.2c-0.1-0.5,0-1,0.1-1.4
		c0.1-0.4,0.4-0.7,1-0.7c1.1-0.3,2.1-0.5,3.1-0.9c1-0.4,2.1-1,3.1-1.6h-5.6c-0.4,0-0.8-0.2-1-0.5s-0.3-0.8-0.3-1.3
		c0-0.4,0.1-0.9,0.3-1.2s0.5-0.5,1.1-0.5h1v-10.3C501.3,343.4,501.5,342.9,501.9,342.4z M506.9,345.4h-1.4c-0.3,0-0.4,0-0.5,0.1
		c-0.1,0.1-0.2,0.3-0.1,0.7v2h2.1L506.9,345.4L506.9,345.4z M504.8,354.6h2.1v-2.9h-2.1V354.6z M512.8,345.4h-2.3v2.6h2.3V345.4z
		 M510.4,354.6h2.3v-2.9h-2.3V354.6z M516.3,348.1h2.1v-1.9c0-0.3,0-0.5-0.1-0.7c-0.1-0.1-0.3-0.1-0.7-0.1h-1.3L516.3,348.1
		L516.3,348.1z M516.3,354.6h2.1v-2.9h-2.1V354.6z"/>
	<path d="M328.9,413.4c-0.2,0.8-0.8,1.4-1.4,1.9c-0.8,0.4-1.8,0.8-3,0.8c-1.3,0-2.3-0.1-3.2-0.3c-0.5-0.1-0.9-0.3-1-0.8
		c-0.2-0.4-0.2-0.9-0.1-1.3c0.1-0.5,0.3-1,0.7-1.3c0.3-0.3,0.7-0.4,1.2-0.3c0.4,0.1,1,0.1,1.6,0.2c0.8,0,1.3,0,1.6-0.2
		c0.2-0.1,0.4-0.5,0.5-1.1c0.1-0.5,0.2-1.8,0.3-3.6c0-1.9,0-3.5,0-5.1c0-0.4-0.1-0.7-0.2-0.8c-0.1-0.1-0.3-0.1-0.7-0.1h-5.6
		c-0.2,0.4-0.4,0.9-0.7,1.2c0.1,0,0.3,0,0.4,0h4.6c0.9,0,1.3,0.4,1.3,1.3v5.9c0,0.9-0.4,1.3-1.3,1.3h-4.6c-0.9,0-1.3-0.4-1.3-1.3
		v-5.9l0,0c-0.2,0.2-0.3,0.3-0.5,0.5c-0.3,0.3-0.7,0.4-1.1,0.2c-0.4-0.1-0.8-0.4-1.1-0.8s-0.4-0.8-0.5-1.1c0-0.4,0.1-0.8,0.4-1.1
		c0.5-0.7,1-1.3,1.2-2.1c0.3-0.7,0.4-1.4,0.7-2.3c0-0.4,0.2-0.8,0.7-0.9c0.1,0,0.2-0.1,0.3-0.1c0-0.1,0-0.3,0-0.4v-0.4h-1.4
		c-0.4,0-0.8-0.2-1-0.5s-0.3-0.8-0.3-1.3c0-0.4,0.1-0.9,0.3-1.2c0.2-0.3,0.5-0.5,1.1-0.5h1.4v-0.4c0-0.4,0.2-0.8,0.5-1
		c0.3-0.2,0.8-0.3,1.3-0.3c0.4,0,0.9,0.1,1.2,0.3c0.3,0.2,0.5,0.5,0.5,1.1v0.4h2.3v-0.4c0-0.4,0.2-0.8,0.5-1
		c0.3-0.2,0.8-0.3,1.3-0.3c0.4,0,0.9,0.1,1.2,0.3c0.3,0.2,0.5,0.5,0.5,1.1v0.4h1c0.4,0,0.8,0.2,1,0.5c0.2,0.3,0.3,0.8,0.3,1.3
		c0,0.4-0.1,0.9-0.3,1.2c-0.2,0.3-0.5,0.5-1,0.5h-1v0.5c0,0.4-0.2,0.8-0.5,1c-0.3,0.2-0.8,0.3-1.3,0.3c-0.4,0-0.9-0.1-1.2-0.3
		c-0.3-0.2-0.5-0.5-0.5-1v-0.5H322v0.4c0,0.4-0.2,0.8-0.5,1c-0.2,0.1-0.3,0.2-0.5,0.2c0,0.1,0.1,0.3,0,0.5h6.3c0.9,0,1.5,0.2,2,0.5
		c0.3-0.8,0.7-1.4,0.9-2.2c0.4-1.5,0.7-3.1,0.9-4.8c0-0.4,0.2-0.8,0.7-1c0.4-0.2,0.9-0.2,1.3-0.2c0.4,0,0.9,0.2,1.2,0.4
		c0.3,0.2,0.4,0.7,0.4,1.1c-0.1,0.5-0.2,1-0.3,1.5h5.7c0.4,0,0.8,0.2,1,0.5c0.2,0.3,0.3,0.8,0.3,1.3c0,0.4-0.1,0.9-0.3,1.2
		c-0.2,0.3-0.4,0.4-0.8,0.5v1.3c0,1.4-0.1,2.6-0.2,3.6c-0.1,0.8-0.3,1.8-0.5,3c-0.2,1.2-0.7,2.4-1.1,3.5c-0.2,0.5-0.4,1-0.7,1.4
		c0.9,1.1,2,2.3,3.3,3.8c0.3,0.3,0.4,0.8,0.3,1.2c-0.1,0.4-0.3,0.8-0.8,1.1c-0.4,0.3-0.8,0.5-1.2,0.7s-0.8,0-1.1-0.4
		c-0.7-0.7-1.4-1.8-2.5-3.1c-0.1,0.1-0.1,0.1-0.2,0.2c-0.7,0.8-1.2,1.4-1.8,1.9c-0.7,0.5-1.1,0.9-1.5,1.1c-0.4,0.3-0.9,0.3-1.2,0.1
		c-0.4-0.1-0.8-0.4-1-0.9c-0.2-0.4-0.4-0.9-0.4-1.2c0-0.4,0.2-0.8,0.5-1c0.3-0.3,0.8-0.7,1.2-1.1c0.5-0.5,1-1,1.4-1.5
		c0.2-0.2,0.4-0.5,0.8-0.9c-0.4-0.9-0.9-1.6-1.1-2.4c-0.5-1.3-1-3-1.2-4.7c-0.2,0.2-0.5,0.3-0.8,0.3c-0.1,0-0.3,0-0.4,0
		c0,3-0.1,5.3-0.2,6.7C329.4,410.9,329.1,412.3,328.9,413.4z M321,407.6c0,0.2,0.1,0.3,0.3,0.3h1.1c0.2,0,0.3-0.1,0.3-0.3v-2.1
		c0-0.2-0.1-0.3-0.3-0.3h-1.1c-0.2,0-0.3,0.1-0.3,0.3V407.6z M336.5,400.2c0.1-0.9,0.1-1.6,0.1-2.5v-1.3h-2.4c0,1.6,0,3.1,0.1,4.3
		c0.2,1.6,0.5,3,1,4.2c0,0.1,0.1,0.2,0.1,0.4c0.3-0.8,0.4-1.5,0.7-2.1C336.3,402.2,336.5,401.2,336.5,400.2z"/>
	<path d="M346.1,414.7c-0.3-0.3-0.4-1-0.4-1.8v-7.8c0-0.1,0-0.2,0-0.2c-0.9,0.2-1.4,0.3-1.8,0.3c-0.4,0.1-0.9-0.1-1.1-0.4
		c-0.2-0.3-0.4-0.7-0.5-1.2c-0.1-0.5,0-1,0.1-1.4c0.2-0.4,0.5-0.7,1-0.7c0.7-0.1,2.1-0.3,4.4-0.9c1.6-0.3,3.4-0.9,5.2-1.4
		c-0.1-0.1-0.2-0.2-0.3-0.3c-1-1-1.9-2-2.5-3c-0.4,0.4-0.9,0.9-1.3,1.2c-0.9,0.7-1.6,1.2-2.3,1.5c-0.4,0.2-0.9,0.2-1.2,0
		c-0.3-0.2-0.7-0.5-0.8-1c-0.2-0.4-0.3-0.9-0.3-1.3c0-0.4,0.2-0.8,0.8-1c0.7-0.3,1.3-0.8,2.1-1.4c0.5-0.5,1-1.1,1.2-1.6
		c0.2-0.4,0.5-0.9,1-1.2c0.4-0.2,1.1-0.4,2-0.4h12.2c0.9,0,1.5,0.2,2,0.5c0.4,0.3,0.7,0.8,0.8,1.3c0.2,0.5-0.1,1.3-0.8,2.1
		c-1.1,1.4-2.4,2.7-3.8,3.8c-0.5,0.4-1.2,0.9-1.9,1.3c0.9,0.4,2,0.8,3.4,1.1c1.5,0.2,3.1,0.5,4.5,0.8c0.4,0.1,0.8,0.3,1,0.8
		c0.1,0.3,0.2,0.8,0.1,1.3c-0.1,0.5-0.3,0.9-0.5,1.2s-0.7,0.4-1.1,0.3c-0.2,0-0.5-0.1-0.8-0.2v7.8c0,0.8-0.2,1.4-0.5,1.8
		c-0.3,0.4-1,0.7-1.9,0.7h-15.7C347,415.4,346.5,415.2,346.1,414.7z M354,406.4h-4c-0.3,0-0.4,0-0.5,0.1c-0.1,0.1-0.1,0.2-0.1,0.5
		v0.5h4.6V406.4z M354,410.9h-4.6v0.1c0,0.4,0,0.7,0.1,0.8c0.1,0.1,0.2,0.1,0.4,0.1h4v-1H354z M352.3,403h6
		c-0.4-0.2-0.8-0.4-1.1-0.5c-0.4-0.2-0.9-0.5-1.3-0.8C354.7,402.1,353.5,402.5,352.3,403z M353.2,394.2c0.5,0.8,1,1.4,1.5,2
		c0.5,0.5,1.1,1.1,1.8,1.6c0.5-0.3,1.1-0.7,1.6-0.9c1.1-0.8,2.1-1.4,2.6-2.1c0.1-0.1,0.1-0.3,0.1-0.4c0-0.1-0.2-0.1-0.4-0.1h-7.3
		V394.2z M357.7,407.6h4.6V407c0-0.3,0-0.4-0.1-0.5c-0.1-0.1-0.3-0.1-0.8-0.1h-3.6v1.2H357.7z M357.7,412h3.6c0.5,0,0.8,0,0.9-0.1
		c0-0.1,0.1-0.3,0.1-0.9v-0.1h-4.6L357.7,412L357.7,412z"/>
	<path d="M370.3,407.3c-0.2-0.3-0.3-0.8-0.3-1.3c0-0.4,0.1-0.9,0.3-1.2c0.2-0.3,0.5-0.5,1-0.5h5.3l-0.1-0.3c0-0.1-0.1-0.2-0.1-0.2
		H374c-0.9,0-1.3-0.4-1.3-1.3v-3.2c0-0.9,0.4-1.3,1.3-1.3h17.6c0.9,0,1.3,0.4,1.3,1.3v3.2c0,0.9-0.4,1.3-1.3,1.3h-2.4
		c0,0.2-0.1,0.3-0.1,0.5v0.1h4.7c0.4,0,0.8,0.2,1,0.5c0.2,0.3,0.3,0.8,0.3,1.3c0,0.4-0.1,0.9-0.3,1.2c-0.2,0.3-0.5,0.5-1,0.5h-22.3
		C370.9,407.8,370.5,407.6,370.3,407.3z M394,391.4c0.2,0.3,0.3,0.8,0.3,1.1c0,0.4-0.1,0.8-0.3,1.1c-0.2,0.3-0.5,0.5-0.9,0.5h-8.7
		v0.7h6.8c0.3,0,0.5,0.1,0.8,0.3c0.1,0.2,0.2,0.5,0.2,0.9c0,0.3-0.1,0.7-0.2,0.9c-0.1,0.2-0.4,0.4-0.8,0.4h-16.8
		c-0.3,0-0.5-0.1-0.8-0.4c-0.1-0.2-0.2-0.5-0.2-0.9c0-0.3,0.1-0.7,0.2-0.9c0.1-0.2,0.4-0.3,0.8-0.3h6.5v-0.7h-8.7
		c-0.4,0-0.8-0.1-0.9-0.4c-0.2-0.3-0.3-0.8-0.3-1.1c0-0.4,0.1-0.8,0.3-1.1s0.5-0.4,0.9-0.4h8.7c0-0.4,0.2-0.7,0.5-0.9
		c0.3-0.2,0.8-0.3,1.3-0.3c0.4,0,0.9,0.1,1.2,0.3c0.3,0.2,0.5,0.4,0.5,0.9h8.7C393.4,391,393.7,391.2,394,391.4z M393,409.7v4.4
		c0,0.9-0.4,1.3-1.3,1.3h-17.6c-0.9,0-1.3-0.4-1.3-1.3v-4.4c0-0.9,0.4-1.3,1.3-1.3h17.6C392.5,408.4,393,408.8,393,409.7z
		 M376.6,400.4c-0.2,0-0.3,0.1-0.3,0.3v0.2c0,0.2,0.1,0.3,0.3,0.3H389c0.2,0,0.3-0.1,0.3-0.3v-0.2c0-0.2-0.1-0.3-0.3-0.3H376.6z
		 M376.7,411.3c-0.2,0-0.3,0.1-0.3,0.3v0.5c0,0.2,0.1,0.3,0.3,0.3h12.4c0.2,0,0.3-0.1,0.3-0.3v-0.5c0-0.2-0.1-0.3-0.3-0.3H376.7z
		 M380.2,403.7l0.2,0.7h4.5l0.3-0.7H380.2z"/>
	<path d="M417.9,396.8v6.9c0,0.9-0.4,1.3-1.3,1.3h-5.8c-0.1,0.1-0.2,0.3-0.3,0.4l-0.1,0.1h10.6c0.4,0,0.8,0.1,1,0.4
		c0.2,0.4,0.3,0.8,0.3,1.2s-0.1,0.9-0.3,1.1c-0.2,0.3-0.5,0.5-1,0.5h-3.2c-0.7,0.9-1.5,1.8-2.4,2.5c1.9,0.3,3.7,0.7,5.8,1.1
		c0.4,0.1,0.8,0.3,0.9,0.8c0.1,0.4,0.1,0.9,0.1,1.3c-0.1,0.4-0.3,0.9-0.5,1.1c-0.3,0.3-0.7,0.4-1.1,0.3c-3-0.5-6-1.2-9-1.8
		c-0.4,0.2-0.8,0.3-1.2,0.5c-1.5,0.5-3.3,1-5.2,1.2c-1.5,0.1-3.6,0.1-6.4,0c-0.4,0-0.8-0.2-1-0.7c-0.2-0.4-0.2-0.9-0.2-1.3
		c0.1-0.5,0.2-0.9,0.4-1.2c0.2-0.3,0.7-0.4,1.1-0.4c1.4,0,2.7,0.1,3.8,0.1c-0.9-0.2-1.5-0.5-2-0.8c-0.3-0.3-0.5-0.7-0.7-1
		c-0.1-0.4-0.1-0.9,0-1.3c0-0.2,0.1-0.3,0.3-0.5h-2.2c-0.4,0-0.8-0.2-1-0.5c-0.2-0.4-0.3-0.8-0.3-1.2c0-0.4,0.1-0.9,0.3-1.1
		c0.2-0.3,0.5-0.5,1-0.5h6.9c0.2-0.2,0.4-0.3,0.7-0.5h-3.2c-0.9,0-1.3-0.4-1.3-1.3v-6.9c0-0.9,0.4-1.3,1.3-1.3h13.8
		C417.5,395.5,417.9,395.9,417.9,396.8z M410.8,390.3c0.2,0.3,0.4,0.7,0.7,1.1h8.4c0.8,0,1.3,0.1,1.6,0.4s0.5,0.7,0.8,1.1
		c0.1,0.3,0.2,1,0.2,2c0,0.9-0.2,1.9-0.7,3.1c-0.1,0.4-0.4,0.8-0.9,0.8c-0.4,0.1-0.8,0.1-1.2-0.1c-0.4-0.1-0.9-0.4-1.1-0.8
		c-0.2-0.3-0.3-0.7-0.1-1.1c0.1-0.5,0.2-1,0.2-1.3c0-0.3-0.3-0.5-0.8-0.5h-16.4c-0.5,0-0.9,0.3-0.8,0.9v1.4c0,0.4-0.2,0.8-0.5,1
		c-0.3,0.2-0.8,0.3-1.2,0.3c-0.5,0-0.9-0.1-1.3-0.3c-0.3-0.2-0.5-0.5-0.5-1v-3.1c0-1,0.2-1.8,0.5-2.1c0.4-0.3,1.1-0.5,2.1-0.5h7.8
		c0-0.1,0.1-0.1,0.1-0.2c0.2-0.4,0.4-0.8,0.9-1c0.4-0.2,0.8-0.4,1.2-0.4C410.2,389.8,410.5,389.9,410.8,390.3z M414.4,398.9v-0.2
		c0-0.2-0.1-0.3-0.3-0.3h-9.1c-0.2,0-0.3,0.1-0.3,0.3v0.1h9.8V398.9z M404.7,401.4v0.3c0,0.2,0.1,0.3,0.3,0.3h9.1
		c0.2,0,0.3-0.1,0.3-0.3v-0.3H404.7z M410.8,410.7c0.4-0.3,0.9-0.5,1.3-0.9c0.3-0.3,0.8-0.5,1.1-0.9h-6.5c-0.3,0.2-0.5,0.3-0.7,0.4
		c-0.1,0.1-0.1,0.1-0.1,0.2c0,0.1,0.1,0.2,0.1,0.2C407.5,410,409.1,410.3,410.8,410.7z"/>
	<path d="M470.4,405.7c-1.3,1-2.5,1.9-3.6,2.5c-0.4,0.2-0.9,0.1-1.2-0.1c-0.3-0.2-0.7-0.5-0.8-1c-0.2-0.4-0.3-0.9-0.2-1.3
		c0-0.4,0.3-0.8,0.8-1c1.2-0.7,2.4-1.4,3.5-2.3c0.2-0.2,0.4-0.4,0.7-0.5h-3.4c-0.4,0-0.8-0.2-1-0.5c-0.2-0.3-0.3-0.8-0.3-1.3
		c0-0.4,0.1-0.9,0.3-1.2c0.2-0.3,0.5-0.5,1.1-0.5h5.6v-2.3h-3.4c-0.4,0-0.8-0.2-1-0.5c-0.2-0.3-0.3-0.8-0.3-1.3
		c0-0.4,0.1-0.9,0.3-1.2c0.2-0.3,0.5-0.5,1.1-0.5h3.4V391c0-0.4,0.2-0.8,0.5-1c0.3-0.2,0.8-0.3,1.3-0.3c0.4,0,0.9,0.1,1.2,0.3
		c0.3,0.2,0.5,0.5,0.5,1.1v1.4h4.9v-1.4c0-0.4,0.2-0.8,0.5-1c0.3-0.2,0.8-0.3,1.3-0.3c0.4,0,0.9,0.1,1.2,0.3
		c0.3,0.2,0.5,0.5,0.5,1.1v1.4h3.2c0.4,0,0.8,0.2,1,0.5c0.2,0.3,0.3,0.8,0.3,1.3c0,0.4-0.1,0.9-0.3,1.2c-0.2,0.3-0.5,0.5-1,0.5h-3.7
		v2.3h5.6c0.4,0,0.8,0.2,1,0.5c0.2,0.3,0.3,0.8,0.3,1.3c0,0.4-0.1,0.9-0.3,1.2c-0.2,0.3-0.5,0.5-1,0.5h-3.5c0.1,0.1,0.3,0.2,0.4,0.3
		c1,0.9,2.3,1.8,3.8,2.5c0.4,0.2,0.7,0.5,0.7,1c0,0.4-0.1,0.8-0.3,1.2c-0.2,0.4-0.5,0.8-1,1c-0.4,0.2-0.8,0.2-1.2,0
		c-0.5-0.3-1.1-0.7-1.5-0.9c0.2,0.4,0.5,0.8,0.8,1.1c0.5,0.9,1.3,2.2,2.2,3.8c0.2,0.4,0.2,0.8,0,1.1c-0.2,0.3-0.5,0.7-1,0.9
		c-0.4,0.2-0.9,0.3-1.2,0.2c-0.4,0-0.8-0.2-0.9-0.7c-0.5-1-1.2-2.2-2-3.5c-0.9-1.3-1.4-2.2-1.6-2.5c-0.2-0.3-0.3-0.8-0.2-1.1
		c0.1-0.4,0.4-0.8,0.8-1.1c0.2-0.1,0.4-0.2,0.7-0.3c-1.2-1-2.2-2.1-3.1-3.3h-6.6C472.9,403.5,471.5,404.7,470.4,405.7z M472.1,405.9
		c0.4,0,0.9,0.1,1.3,0.4c0.4,0.3,0.7,0.5,0.9,0.9c0.2,0.4,0.1,0.8-0.1,1.2c-1.1,1.4-2.1,2.5-3,3.3c-0.9,0.9-1.6,1.5-2.4,2.1
		c-0.4,0.2-0.8,0.2-1.2,0c-0.4-0.2-0.7-0.4-0.9-0.9c-0.2-0.4-0.3-0.9-0.3-1.3s0.2-0.8,0.7-1c0.8-0.5,1.5-1.1,2.2-1.8
		c0.7-0.8,1.3-1.5,2-2.4C471.3,406.2,471.8,405.9,472.1,405.9z M476.2,403.1c0.3-0.2,0.8-0.3,1.3-0.3c0.4,0,0.9,0.1,1.2,0.3
		c0.3,0.2,0.5,0.5,0.5,1.1v4.1c0.1-0.1,0.2-0.2,0.3-0.3c0.3-0.2,0.8-0.4,1.1-0.4c0.4,0,0.8,0.1,1,0.5c0.4,0.7,0.9,1.3,1.2,1.9
		c0.3,0.7,0.9,1.5,1.4,2.6c0.2,0.4,0.2,0.8,0,1.1c-0.2,0.3-0.5,0.7-1,0.8c-0.4,0.2-0.8,0.2-1.2,0.2c-0.4,0-0.7-0.3-0.9-0.8
		c-0.3-0.7-0.8-1.4-1.2-2.3c-0.3-0.5-0.5-0.9-0.8-1.2v2.2c0,0.4-0.1,0.9-0.3,1.4c-0.2,0.5-0.5,0.9-0.9,1.2c-0.4,0.4-1,0.7-1.6,0.8
		c-0.7,0.1-1.3,0.1-1.9,0.1c-0.5,0-1.3-0.2-2.2-0.4c-0.4,0-0.8-0.2-1-0.7c-0.2-0.3-0.2-0.8-0.1-1.2c0.1-0.5,0.2-0.9,0.5-1.2
		c0.2-0.3,0.7-0.4,1.1-0.3c0.2,0.1,0.5,0.1,0.9,0.2c0.3,0,0.7,0.1,1,0.1s0.5-0.1,0.8-0.2c0.2-0.3,0.3-0.5,0.3-0.9v-7.3
		C475.6,403.6,475.8,403.3,476.2,403.1z M475.2,396.2v2.3h4.9v-2.3H475.2z"/>
	<path d="M516.6,402.1c0.3,0.3,0.4,0.7,0.4,1.2v10c0,1.2-0.4,2.1-1.2,2.4c-0.4,0.2-1.1,0.3-1.9,0.3c-0.8,0-1.4-0.1-2-0.1
		c-0.4-0.1-0.8-0.2-0.9-0.7c-0.1-0.3-0.2-0.7-0.2-1.1c0-0.4,0.1-0.8,0.3-1.1c0.2-0.2,0.5-0.3,1.1-0.3c0.1,0,0.2,0,0.4,0
		c0.2,0,0.4,0,0.5,0c0,0,0.1-0.3,0.1-1v-1H505v4c0,0.4-0.2,0.8-0.5,1c-0.3,0.2-0.8,0.3-1.3,0.3c-0.4,0-0.9-0.1-1.2-0.3
		c-0.3-0.2-0.5-0.5-0.5-1v-3.6c-1.1,1.2-2.1,2.1-3.2,2.6c-0.8,0.4-1.4,0.4-2.1,0.1c-0.7-0.3-1.1-1.1-1.1-2.1v-9.9c0-0.7-0.3-1-1.1-1
		H493c-0.5,0-0.9-0.1-1.1-0.3c-0.2-0.2-0.3-0.8-0.3-1.4c0-0.7,0.1-1.2,0.4-1.4c0.2-0.2,0.5-0.3,1.1-0.3h2.9c0.9,0,1.5,0.2,2,0.5
		c0.4,0.3,0.7,1,0.7,2.1v8.7c0,0.1,0,0.2,0.1,0.2c0,0,0.1,0,0.1-0.1l0.7-1c0.2-0.4,0.5-0.7,1-0.8c0.3-0.1,0.7,0,0.9,0.1v-3.7
		c0-0.5,0.1-1,0.4-1.2c0.3-0.3,0.8-0.5,1.3-0.4h12.3C515.9,401.8,516.3,401.9,516.6,402.1z M493.2,391.8c0.1-0.4,0.3-0.9,0.7-1.2
		c0.3-0.3,0.7-0.5,1.1-0.7c0.4-0.1,0.9,0,1.2,0.3c0.9,0.8,1.9,1.9,2.9,3.3c0.2,0.4,0.3,0.8,0.1,1.2c-0.2,0.4-0.5,0.8-0.9,1.1
		c-0.4,0.2-0.9,0.4-1.2,0.4c-0.4,0-0.8-0.2-1.1-0.5c-0.9-1.2-1.6-2.1-2.3-2.6C493.2,392.6,493.1,392.2,493.2,391.8z M510.3,395h4.4
		c0.3,0,0.7,0.1,0.8,0.4c0.2,0.3,0.2,0.7,0.2,1c0,0.4-0.1,0.7-0.2,0.9c-0.2,0.3-0.4,0.4-0.8,0.4h-4.4v0.5h5.6c0.3,0,0.7,0.1,0.8,0.4
		c0.2,0.3,0.3,0.7,0.3,1.1c0,0.4-0.1,0.8-0.2,1c-0.2,0.3-0.4,0.4-0.9,0.4h-14.6c-0.4,0-0.7-0.2-0.9-0.4c-0.2-0.3-0.3-0.7-0.3-1.1
		s0.1-0.8,0.2-1c0.2-0.3,0.4-0.4,0.9-0.4h5.4v-0.5h-4.1c-0.3,0-0.7-0.1-0.8-0.4c-0.2-0.3-0.2-0.7-0.2-1c0-0.4,0.1-0.7,0.2-0.9
		c0.1-0.2,0.4-0.4,0.8-0.4h4.1v-0.4h-4.9c-0.4,0-0.7-0.2-0.9-0.4c-0.2-0.3-0.3-0.7-0.3-1.1c0-0.4,0.1-0.8,0.2-1
		c0.2-0.3,0.4-0.4,0.9-0.4h4.9v-0.3c0-0.4,0.2-0.8,0.5-1c0.3-0.2,0.8-0.3,1.3-0.3c0.4,0,0.9,0.1,1.2,0.3c0.3,0.2,0.5,0.5,0.5,1.1
		v0.3h5.1c0.3,0,0.7,0.1,0.8,0.4c0.2,0.3,0.3,0.7,0.3,1.1c0,0.4-0.1,0.8-0.2,1c-0.2,0.3-0.4,0.4-0.9,0.4h-5.1v0.3H510.3z
		 M505.7,404.8c-0.4,0-0.8,0.2-0.8,0.5h8.5c-0.1-0.3-0.3-0.5-0.8-0.5H505.7z M505,407.7v0.8h8.5v-0.8H505z"/>
	<path d="M543,399.8c0.4,0,0.8,0.2,1,0.5c0.2,0.3,0.3,0.8,0.3,1.3c0,0.4-0.1,0.9-0.3,1.2c-0.2,0.3-0.5,0.5-1,0.5H537v7.7
		c0,0.3,0.1,0.7,0.2,0.8c0.1,0.1,0.3,0.2,0.8,0.2c0.5,0,1.1,0,1.5,0c0.8,0,1.2,0,1.3-0.1c0.1-0.1,0.2-0.2,0.2-0.4c0-0.2,0-0.4,0-0.7
		c0-0.3,0-0.8,0-1.2s0.2-0.9,0.5-1.2c0.3-0.2,0.8-0.3,1.3-0.3c0.5,0.1,1,0.2,1.2,0.5c0.2,0.2,0.3,0.7,0.3,1.3c0,1.8,0,2.9-0.1,3.3
		c0,0.5-0.2,1-0.4,1.5c-0.1,0.2-0.3,0.3-0.5,0.5c-0.2,0.1-0.4,0.2-0.8,0.2c-0.3,0-0.7,0.1-1,0.1c-1.9,0-3.7,0-5.7,0
		c-0.8,0-1.4-0.2-2-0.8c-0.5-0.5-0.9-1.2-0.9-2.1v-9.3h-3v2.2c0,0.8-0.1,1.5-0.3,2.1c-0.1,0.4-0.3,1-0.7,1.6s-0.8,1.4-1.3,2.1
		c-0.5,0.7-1,1.1-1.4,1.5c-0.5,0.5-1.2,1-1.8,1.3c-0.8,0.4-1.4,0.8-2.1,1.1c-0.8,0.3-1.3,0.5-1.6,0.7c-0.4,0.1-0.9,0-1.2-0.3
		c-0.3-0.2-0.5-0.7-0.7-1.1s-0.1-0.9,0-1.3c0.1-0.4,0.4-0.7,0.9-0.8c0.3-0.1,0.8-0.3,1.2-0.5c0.5-0.2,1-0.4,1.4-0.7
		c0.4-0.2,0.9-0.5,1.3-0.9c0.4-0.3,0.8-0.8,1.2-1.2c0.3-0.4,0.5-0.9,0.8-1.2c0.2-0.4,0.4-0.9,0.4-1.3c0.1-0.4,0.1-0.8,0.1-1.2v-2.2
		h-5.9c-0.4,0-0.8-0.2-1-0.5c-0.2-0.3-0.3-0.8-0.3-1.3c0-0.4,0.1-0.9,0.3-1.2c0.2-0.3,0.5-0.5,1.1-0.5h9.1v-8.4
		c0-0.5,0.2-0.9,0.5-1.1c0.4-0.2,0.9-0.3,1.3-0.3s0.9,0.1,1.2,0.3c0.4,0.2,0.5,0.5,0.5,1.1v8.4H543z M522,393.1
		c0.2-0.4,0.4-0.8,0.9-1.1c0.4-0.3,0.8-0.4,1.2-0.4c0.4,0,0.8,0.2,1.1,0.5c0.9,1.2,1.6,2.7,2.5,4.6c0.2,0.4,0.1,0.9-0.1,1.2
		c-0.3,0.4-0.7,0.7-1.1,0.9c-0.4,0.1-0.9,0.2-1.3,0.1c-0.4-0.1-0.8-0.3-0.9-0.8c-0.8-1.6-1.4-3-2.1-3.8
		C521.9,394,521.8,393.5,522,393.1z M538.9,391.9c0.4,0,0.9,0,1.4,0.2c0.4,0.2,0.8,0.4,1,0.8c0.2,0.3,0.2,0.8,0.1,1.2
		c-0.5,1.4-1.5,3-2.7,4.7c-0.3,0.4-0.7,0.5-1.1,0.5s-0.9-0.2-1.3-0.5c-0.4-0.3-0.7-0.7-0.8-1c-0.1-0.4-0.1-0.9,0.2-1.2
		c1.1-1.5,1.9-2.9,2.3-4C538.1,392.2,538.5,392,538.9,391.9z"/>
	<path d="M550.6,408.6c0,0.4-0.2,0.8-0.5,1c-0.3,0.2-0.8,0.3-1.3,0.3c-0.4,0-0.9-0.1-1.2-0.3c-0.3-0.2-0.5-0.5-0.5-1v-13.1
		c0-0.4,0.2-0.8,0.5-1c0.3-0.2,0.8-0.3,1.3-0.3c0.4,0,0.9,0.1,1.2,0.3c0.3,0.2,0.5,0.5,0.5,1V408.6z M555.6,414.7
		c0,0.4-0.2,0.8-0.5,1c-0.3,0.2-0.8,0.3-1.3,0.3c-0.4,0-0.9-0.1-1.2-0.3c-0.3-0.2-0.5-0.5-0.5-1v-23.5c0-0.4,0.2-0.8,0.5-1
		c0.3-0.2,0.8-0.3,1.3-0.3c0.4,0,0.9,0.1,1.2,0.3c0.3,0.2,0.5,0.5,0.5,1.1V414.7z M560.2,390c0.4-0.1,0.9-0.2,1.3-0.1
		c0.4,0.1,0.9,0.2,1.2,0.5c0.3,0.3,0.4,0.7,0.3,1.1c-0.2,0.7-0.3,1.3-0.5,2h7.9c0.4,0,0.8,0.2,1,0.5c0.2,0.3,0.3,0.8,0.3,1.3
		c0,0.4-0.1,0.9-0.3,1.2c-0.2,0.3-0.5,0.5-1,0.5h-9.1c0,0.1-0.1,0.3-0.1,0.4c-0.7,1.6-1.3,3-2,4.1c-0.3,0.3-0.7,0.5-1.1,0.5
		c-0.4,0-0.8-0.2-1.2-0.4c-0.4-0.3-0.7-0.7-0.8-1c-0.2-0.4-0.1-0.8,0.1-1.1c0.8-1.3,1.4-2.5,2-3.8c0.5-1.4,1-3.1,1.3-4.7
		C559.6,390.4,559.8,390.1,560.2,390z M571.6,404.3v9.7c0,0.9-0.4,1.3-1.3,1.3H558c-0.9,0-1.3-0.4-1.3-1.3v-9.7
		c0-0.9,0.4-1.3,1.3-1.3h12.2C571.1,403,571.6,403.4,571.6,404.3z M562.4,406.6h-1.8c-0.2,0-0.3,0.1-0.3,0.3v4.5
		c0,0.2,0.1,0.3,0.3,0.3h1.8V406.6z M561.9,400.3c-0.1-0.4-0.2-0.9-0.1-1.3c0.1-0.4,0.2-0.9,0.5-1.1c0.3-0.3,0.7-0.4,1.1-0.3
		c1.5,0.2,3.3,0.8,5.3,1.6c0.4,0.2,0.7,0.5,0.8,0.9c0.1,0.4,0,0.9-0.2,1.3c-0.2,0.4-0.4,0.8-0.8,1c-0.3,0.2-0.8,0.2-1.2,0.1
		c-1.8-0.7-3.3-1.2-4.5-1.4C562.4,401,562.1,400.8,561.9,400.3z M565.9,411.7h1.8c0.2,0,0.3-0.1,0.3-0.3v-4.5c0-0.2-0.1-0.3-0.3-0.3
		h-1.8V411.7z"/>
</g>
<g>
	<path d="M197.9,504.5v17.4c0.1,1.6-0.7,2.4-2.3,2.2h-3.5c-1.5,0.1-2.3-0.7-2.1-2.3v-17.3c0.1-1.3,0.8-2,2.1-2.1h3.5
		C197.1,502.4,197.9,503.1,197.9,504.5z M192.5,522.2h2.6c0.4,0,0.7-0.2,0.8-0.7v-7.9h-4v7.8C191.8,522,192.1,522.3,192.5,522.2z
		 M195.9,511.6v-6.5c-0.1-0.4-0.3-0.7-0.7-0.8h-2.5c-0.5,0.1-0.8,0.3-0.8,0.7v6.6H195.9z M210.2,501.8v5.7h3.6
		c0.4,0.1,0.8,0.4,0.9,1.1c-0.1,0.7-0.3,1-0.9,1h-3.6v13.3c0.3,2.2-1.5,3.1-5.3,2.7c-0.7-0.1-1.1-0.5-1.2-1.4c0.1-0.7,0.4-1,1.3-1
		c2.3,0.2,3.4-0.2,3.1-1.3v-12.5h-8c-0.7,0-1.1-0.3-1.2-1c0.1-0.7,0.4-1,1.2-1.1h7.9v-5.7c0-0.4,0.3-0.8,1.1-0.9
		C209.8,501,210.1,501.2,210.2,501.8z M202.3,511.1c0.8,0.7,1.9,1.9,3.4,3.7c0.4,0.7,0.4,1.3,0.1,1.8c-0.5,0.4-1.1,0.3-1.5-0.3
		c-1.2-1.5-2.3-2.7-3.3-3.7c-0.5-0.4-0.5-0.9-0.2-1.5C201.1,510.7,201.6,510.7,202.3,511.1z"/>
	<path d="M218.9,506.4v19c-0.1,0.8-0.4,1.2-1.2,1.3c-0.7-0.1-1.1-0.5-1.1-1.3v-19c0-0.7,0.3-1.1,1.1-1.2
		C218.4,505.3,218.9,505.7,218.9,506.4z M219.1,502c1.2,0.7,2.5,1.6,3.8,2.7c0.4,0.5,0.5,1.1,0.2,1.5c-0.4,0.5-0.9,0.5-1.4,0.1
		c-0.9-0.8-2.2-1.8-3.7-2.9c-0.5-0.3-0.5-0.8-0.3-1.3C218.1,501.9,218.6,501.8,219.1,502z M224.4,508h7.9c1.5-0.1,2.2,0.7,2.1,2.1
		v9.6c0.1,1.5-0.7,2.2-2.3,2h-7.6c-1.8,0.2-2.5-0.5-2.3-2.2v-9.6C222.2,508.6,222.8,507.9,224.4,508z M239.9,504.3v19.9
		c-0.2,2.2-2.1,2.7-5.7,1.5c-0.7-0.3-1-0.7-1-1.3c0.2-0.5,0.7-0.8,1.4-0.7c2.1,0.5,3.2,0.4,3.1-0.4v-18c0-0.4-0.2-0.8-0.8-0.9h-11.8
		c-0.7,0-1-0.3-1-1.1c0-0.7,0.3-1,1-1.1h13C239.4,502.3,240,503,239.9,504.3z M225.5,519.8h6.2c0.4,0.1,0.7-0.2,0.7-0.8v-3.6h-7.7
		v3.4C224.5,519.5,224.8,519.8,225.5,519.8z M224.5,510.9v2.5h7.7v-2.5c0-0.4-0.3-0.8-0.9-0.8h-5.8
		C224.8,510.1,224.5,510.4,224.5,510.9z"/>
	<path d="M248.8,515.8c-1.3,0-1.9-0.7-1.9-1.9c0.1-1.2,0.7-1.9,1.9-2c1.2,0.1,1.9,0.8,2,2C250.6,515.2,250,515.8,248.8,515.8z
		 M248.8,524.9c-1.3-0.1-1.9-0.7-1.9-1.6c0.1-1.2,0.7-1.9,1.9-2c1.3,0.1,2,0.8,2,2C250.6,524.2,250,524.7,248.8,524.9z"/>
	<path d="M273.5,522.1v-16.3H271c-0.7,0-1-0.3-1-1.1c0-0.5,0.3-0.9,1-1h4.3c0.4,0,0.8,0.2,0.8,0.7V522c-0.1,0.7-0.5,1.1-1.3,1.1
		C273.9,523.2,273.5,522.8,273.5,522.1z"/>
	<path d="M283.6,521.1h7.4c0.5,0.1,0.9,0.4,1,1c-0.1,0.7-0.4,1.1-1,1.1h-9.5c-0.9,0-1.3-0.3-1.3-1c-0.1-0.2,0.1-0.5,0.5-1.1l6.7-9
		c0.9-1.1,1.3-2.2,1.4-3.4c-0.1-1.9-1.2-2.9-3.1-3c-2.3,0.1-3.4,1.5-3.5,4.4c-0.1,0.7-0.4,1.1-1.1,1.1c-0.8,0.1-1.2-0.4-1.2-1.5
		c0.3-3.7,2.3-5.7,6.2-6c3.1,0.3,4.8,1.9,5.2,4.8c0.1,1.5-0.3,2.9-1.3,4L283.6,521.1z"/>
	<path d="M300,515.8c-1.3,0-1.9-0.7-1.9-1.9c0.1-1.2,0.7-1.9,1.9-2c1.2,0.1,1.9,0.8,2,2C301.9,515.2,301.2,515.8,300,515.8z
		 M300,524.9c-1.3-0.1-1.9-0.7-1.9-1.6c0.1-1.2,0.7-1.9,1.9-2c1.3,0.1,2,0.8,2,2C301.9,524.2,301.2,524.7,300,524.9z"/>
	<path d="M321.2,513.5c0.1-6.2,2.3-9.5,6.5-9.9c4.1,0.4,6.2,3.7,6.4,9.9c-0.3,6.2-2.4,9.3-6.4,9.7
		C323.5,522.9,321.4,519.7,321.2,513.5z M323.8,513.5c0,5.1,1.3,7.6,3.8,7.7c2.5-0.1,3.7-2.7,3.8-7.7c-0.1-4.9-1.3-7.6-3.8-7.7
		C325.2,506,323.8,508.6,323.8,513.5z"/>
	<path d="M335.7,513.5c0.1-6.2,2.3-9.5,6.5-9.9c4.1,0.4,6.2,3.7,6.4,9.9c-0.3,6.2-2.4,9.3-6.4,9.7
		C338.1,522.9,335.9,519.7,335.7,513.5z M338.3,513.5c0,5.1,1.3,7.6,3.8,7.7c2.5-0.1,3.7-2.7,3.8-7.7c-0.1-4.9-1.3-7.6-3.8-7.7
		C339.7,506,338.3,508.6,338.3,513.5z"/>
	<path d="M193.5,583.5c0.1-0.7,0.5-0.9,1.2-0.8c0.7,0.2,0.9,0.7,0.9,1.3c-1,3.2-2.4,6-4.4,8.6c-0.5,0.5-1.2,0.5-1.8,0.1
		c-0.5-0.5-0.4-1,0.1-1.5C191.1,589.6,192.5,587,193.5,583.5z M191.1,576.4c1.1,0.8,2.3,1.5,3.5,2.4c0.4,0.5,0.5,1,0.3,1.5
		c-0.5,0.5-1,0.5-1.5,0c-1.1-0.9-2.3-1.6-3.4-2.3c-0.7-0.4-0.8-0.9-0.5-1.5C190,576.2,190.5,576.1,191.1,576.4z M191.6,569.7
		c1.3,0.9,2.5,1.8,3.6,2.6c0.3,0.5,0.3,1.1,0,1.5c-0.5,0.3-1,0.3-1.5-0.1c-0.7-0.7-1.8-1.5-3.3-2.4c-0.5-0.3-0.5-0.8-0.3-1.4
		C190.6,569.6,191.1,569.5,191.6,569.7z M196.8,569.6h16.5c0.9,0.1,1.3,0.4,1.4,1.2c-0.1,0.7-0.7,1-1.5,1H208v2.4h3.1
		c1.5,0.1,2.4,0.8,2.4,2.2v14.7c-0.1,1.5-0.9,2.2-2.3,2.2h-12.7c-1.6,0.1-2.4-0.7-2.2-2.3v-14.5c0-1.5,0.8-2.3,2.4-2.3h2.2v-2.4
		h-4.1c-0.8,0-1.2-0.3-1.3-1.1C195.6,570,195.9,569.7,196.8,569.6z M198.2,577.3v9.5h13.3v-2.6h-3.4c-1.5,0.1-2.2-0.8-2.1-2.4v-5.3
		h-3c-0.1,4.8-1,7.6-2.6,8.4c-0.7,0.3-1.1,0.3-1.5-0.2c-0.4-0.7-0.3-1.1,0.2-1.5c1.3-0.5,1.9-2.7,1.8-6.7H199
		C198.4,576.3,198.1,576.6,198.2,577.3z M198.2,588.8v1.9c0,0.3,0.2,0.5,0.7,0.5h11.9c0.4,0,0.8-0.2,0.8-0.7v-1.8H198.2z M206,571.8
		h-3.1v2.4h3.1V571.8z M210.9,576.3H208v4.8c-0.1,0.5,0.2,0.8,0.9,0.8h2.6V577C211.5,576.5,211.3,576.3,210.9,576.3z"/>
	<path d="M239.7,573.3h-9.6v3.2h10.1c0.5,0.1,0.9,0.4,1,1.1c-0.1,0.7-0.4,1.1-1,1.1h-10.1v3.7h7.1c1.5-0.1,2.3,0.7,2.2,2.1v6.8
		c0.1,1.6-0.5,2.4-2,2.3h-14.3c-1.5,0.1-2.3-0.7-2.1-2.1v-7c-0.2-1.5,0.5-2.2,2.4-2.1h4.5v-9h-7.4c-0.7,0-1,0.3-1,1v9.5
		c-0.1,3.5-0.9,6.4-2.1,8.6c-0.4,0.4-0.9,0.7-1.5,0.4c-0.5-0.3-0.7-0.8-0.4-1.4c1.3-2.2,1.9-4.7,1.9-7.7v-10.3
		c-0.1-1.5,0.5-2.3,2-2.2h8.8c-0.1-0.1-0.2-0.4-0.3-0.8c-0.1-0.2-0.2-0.4-0.3-0.8c-0.3-0.7-0.1-1.1,0.4-1.4c0.5-0.2,1.1,0,1.5,0.5
		c0.4,0.9,0.8,1.6,1,2.3h9c0.4,0.1,0.8,0.4,0.9,1.1C240.4,573,240.1,573.3,239.7,573.3z M223.3,585.2v5.5c-0.1,0.4,0.2,0.8,1,0.8
		H236c0.9,0,1.2-0.3,1.2-0.9v-5.4c0-0.4-0.2-0.8-0.8-0.8h-12.3C223.5,584.5,223.2,584.8,223.3,585.2z"/>
	<path d="M248.8,583.8c-1.3,0-1.9-0.7-1.9-1.9c0.1-1.2,0.7-1.9,1.9-2c1.2,0.1,1.9,0.8,2,2C250.6,583.1,250,583.8,248.8,583.8z
		 M248.8,592.8c-1.3-0.1-1.9-0.7-1.9-1.6c0.1-1.2,0.7-1.9,1.9-2c1.3,0.1,2,0.8,2,2C250.6,592.1,250,592.7,248.8,592.8z"/>
	<path d="M273.6,583.7c0.2-0.7,0.7-1,1.4-0.9c0.7,0.3,0.9,0.9,0.8,1.5c-0.9,3-2,5.7-3.2,8.1c-0.4,0.7-1,0.9-1.6,0.5
		c-0.7-0.3-0.8-0.9-0.3-1.5C271.7,589.4,272.8,586.7,273.6,583.7z M272.2,576.1c1.1,0.9,2.2,1.8,3.1,2.5c0.4,0.5,0.5,1.2,0.1,1.8
		s-0.9,0.5-1.5,0c-0.9-0.9-1.9-1.8-3-2.6c-0.5-0.4-0.5-0.9-0.2-1.5C271.1,575.9,271.6,575.7,272.2,576.1z M273.1,569.7
		c0.9,0.7,1.8,1.4,2.6,2.2c0.4,0.7,0.4,1.2,0,1.8c-0.5,0.5-1,0.5-1.5,0c-1-0.9-1.9-1.6-2.5-2.3c-0.5-0.4-0.5-0.9-0.1-1.5
		C272,569.5,272.4,569.4,273.1,569.7z M282.4,569.7v4.5h2.7c0.5,0.1,0.9,0.4,1,1.1c-0.1,0.7-0.3,1-0.9,1h-2.9v0.9
		c1.8,2.4,3.1,4.2,3.8,5.3c0.3,0.8,0.3,1.4-0.2,1.9c-0.7,0.3-1.2,0.1-1.5-0.7c-0.9-1.5-1.5-2.6-2-3.4v12.6c-0.1,0.7-0.4,1-1,1.1
		c-0.7-0.1-1-0.4-1-1.1v-12.5c-0.7,2.9-1.5,5.2-2.3,7.1c-0.4,0.8-1,1-1.6,0.8c-0.7-0.3-0.8-0.9-0.4-1.6c1.6-3.1,2.9-6.5,3.7-10.3
		H277c-0.5,0-0.9-0.3-1-1c0-0.7,0.3-1,0.9-1.1h3.7v-4.5c0-0.4,0.3-0.7,1-0.8C282,569,282.3,569.3,282.4,569.7z M289.5,570h2.9
		c1.9-0.2,2.6,0.7,2.5,2.7v18.1c0.1,1.8-0.7,2.5-2.3,2.4h-3c-2.1,0.1-3-0.7-2.7-2.4v-18.2C286.7,570.8,287.6,569.9,289.5,570z
		 M288.9,586.1v4.5c-0.1,0.5,0.2,0.9,0.9,0.9h2.5c0.4,0,0.8-0.3,0.8-0.9v-4.5H288.9z M292,572.1h-2.1c-0.7,0-1,0.3-1,1v3.8h4.1v-3.7
		C293,572.4,292.6,572.1,292,572.1z M288.9,578.7v5.2h4.2v-5.2H288.9z"/>
	<path d="M299.2,576.4c1.3,1.2,2.1,2.1,2.5,2.5c0.4,0.7,0.4,1.3-0.1,1.6c-0.5,0.3-1,0.2-1.5-0.3c-0.7-0.8-1.5-1.6-2.5-2.5
		c-0.4-0.4-0.4-0.9,0-1.4C298.1,576.1,298.7,576.1,299.2,576.4z M303.2,584.2c-1.3,3.5-2.5,6.3-3.6,8.2c-0.4,0.7-1,0.9-1.6,0.5
		c-0.5-0.3-0.5-0.9-0.1-1.5c1.3-2.4,2.4-5.1,3.4-7.9c0.3-0.7,0.8-1,1.5-0.9C303.2,582.9,303.4,583.4,303.2,584.2z M299.8,569.5
		c0.9,0.9,1.6,1.5,2.3,2.2c0.3,0.7,0.2,1.2-0.2,1.5c-0.5,0.3-1,0.3-1.4-0.2c-0.9-0.9-1.6-1.6-2.3-2.2c-0.4-0.4-0.4-0.9,0-1.4
		C298.7,569.1,299.2,569.1,299.8,569.5z M322.1,571.1h-6.2v1.5h3.7c1.4,0,2.1,0.7,2.1,1.9v1.5c0.1,1.3-0.5,2-1.6,1.8h-14.7
		c-1.5,0.1-2.2-0.4-2.1-1.6v-1.8c-0.1-1.1,0.5-1.6,2.1-1.6h3.6v-1.5h-5.5c-0.5,0-0.9-0.3-1-0.9c0.1-0.4,0.4-0.8,1-0.9h18.7
		c0.4,0.1,0.7,0.3,0.8,0.9C322.7,570.8,322.4,571.1,322.1,571.1z M307,579.3h11.3c1.3-0.1,2,0.5,2,2v3.7c0,1.6-0.7,2.5-2.1,2.3h-4.8
		v1.5h8.4c0.7,0.1,1,0.4,1.1,1c-0.1,0.7-0.4,1-1.1,1h-8.4v2.2c-0.1,0.7-0.4,1-1,1.1c-0.7,0-1.1-0.3-1.1-0.9v-2.4h-7.7
		c-0.7,0-1.1-0.3-1.1-1c0-0.5,0.3-0.9,1.1-1h7.7v-1.5h-4.9c-1.4,0.1-2.1-0.7-2-2.1v-3.7C304.4,580,305.3,579.3,307,579.3z
		 M308.9,574.4h-3.4c-0.5,0-0.7,0.2-0.7,0.5v0.8c0,0.3,0.2,0.5,0.7,0.5h3.4V574.4z M306.3,581.6v0.9h12.4v-1c0-0.3-0.2-0.4-0.5-0.5
		h-11.2C306.4,581,306.1,581.2,306.3,581.6z M306.3,584.2v1.1c0,0.3,0.2,0.4,0.5,0.4h11.4c0.3,0,0.4-0.2,0.4-0.5v-1H306.3z
		 M310.5,571.1v1.5h3.6v-1.5H310.5z M310.5,574.4v1.8h3.6v-1.8H310.5z M319.4,574.4h-3.6v1.8h3.5c0.4,0.1,0.7-0.1,0.7-0.5v-0.9
		C320,574.6,319.8,574.4,319.4,574.4z"/>
	<path d="M331.8,573.7v7.5c-0.1,0.7-0.4,1.1-1.2,1.1c-0.7,0-1.1-0.3-1.1-1.1v-5.1c-1.1,1-2.1,1.8-3,2.2c-0.8,0.4-1.3,0.3-1.6-0.3
		c-0.3-0.7-0.1-1.2,0.7-1.6c3.2-1.9,5.3-4.2,6.2-7c0.3-0.5,0.8-0.7,1.5-0.4c0.5,0.3,0.8,0.8,0.5,1.4
		C333.1,571.7,332.4,572.8,331.8,573.7z M338.5,582.4v2.4h11c0.5,0.1,0.9,0.4,1,1.1c-0.1,0.7-0.4,1.1-1,1.1h-11v6.6
		c-0.1,0.5-0.4,0.9-1.2,1c-0.7-0.1-1.1-0.4-1.1-1v-6.6h-10.6c-0.7,0-1-0.3-1-1.1c0-0.7,0.3-1,1-1.1h10.6v-2.4c0-0.7,0.3-1,1.1-1
		C338,581.5,338.5,581.8,338.5,582.4z M340.8,569.5v3.6c2.5-1,4.4-1.9,5.8-2.7c0.7-0.3,1.1-0.2,1.5,0.2c0.3,0.7,0.2,1.1-0.3,1.5
		c-1.5,1.1-3.8,2.2-7,3.4v3.1c0,0.8,0.3,1.1,1.1,1.1h4.6c0.9,0.1,1.4-0.8,1.5-2.6c0.1-0.4,0.4-0.7,1.1-0.7c0.5,0.1,0.9,0.4,0.9,1
		c-0.1,3.3-1,4.7-2.7,4.4h-5.8c-1.9,0.1-2.7-0.8-2.6-2.6v-2.9c-1.5,0.5-2.7,0.9-3.6,1c-0.7,0.1-1.1-0.1-1.3-0.8
		c-0.1-0.7,0.2-1.1,0.9-1.3c0.9-0.3,1.9-0.5,3-1c0.4-0.1,0.8-0.2,1.1-0.3v-4.3c0-0.5,0.3-0.9,1.1-1
		C340.3,568.6,340.8,568.9,340.8,569.5z"/>
	<path d="M357.6,571.2h4.1c0.4,0.1,0.8,0.4,0.9,1.1c-0.1,0.7-0.4,1-1,1h-4.6c-0.4,1.1-0.9,2-1.3,2.9h5.2c0.5,0.1,0.9,0.4,0.9,1.2
		c-0.1,0.5-0.4,0.9-1,0.9h-3v3.6h3.5c0.4,0.1,0.8,0.4,0.9,1.1c0,0.7-0.2,1-0.8,1h-3.6v6.9c-0.1,0.3,0.2,0.4,0.8,0.3
		c0.3-0.3,0.9-0.9,1.5-1.6c-0.1,0.1,0,0,0.3-0.3c0.4-0.4,0.9-0.5,1.5-0.1c0.4,0.5,0.4,1,0.1,1.5c-1.1,1.1-2.4,2.2-3.7,3.2
		c-0.8,0.4-1.4,0.5-1.9,0.2c-0.4-0.3-0.7-0.9-0.7-1.9v-8H353c-0.5,0-0.9-0.3-0.9-1c0.1-0.7,0.4-1,1-1.1h2.6v-3.6h-1.2
		c-0.1,0.2-0.3,0.4-0.4,0.7l-0.1,0.2c-0.7,0.7-1.3,0.8-1.9,0.4c-0.5-0.4-0.5-1,0-1.6c1.6-2.5,2.9-5.3,3.6-8.2
		c0.1-0.5,0.5-0.8,1.3-0.8c0.7,0.1,0.9,0.5,0.9,1.2C357.8,570,357.7,570.5,357.6,571.2z M364.9,569.8h8.6c1.4,0,2.1,0.8,2.1,2.2v8.1
		c-0.1,1.4-0.9,2.1-2.3,2.1h-4c0.4,1.6,1.1,3.1,1.9,4.3c0.4-0.4,1.4-1.4,2.9-3c0.4-0.4,0.9-0.5,1.5-0.2c0.4,0.5,0.5,1,0.2,1.5
		c-1.4,1.5-2.5,2.6-3.4,3.3c1.2,1.2,2.7,2.2,4.6,3c0.7,0.4,0.8,0.9,0.5,1.5c-0.4,0.5-1,0.7-1.6,0.3c-4.7-2.2-7.7-5.7-8.7-10.7h-2.2
		v8.8c-0.1,0.1-0.1,0.2,0,0.2c0.1,0.1,0.2,0.1,0.4,0c0.7-0.3,1.4-1,2.3-2c0.4-0.5,1-0.7,1.5-0.2c0.4,0.5,0.5,1.1,0.1,1.6
		c-1.6,1.4-2.9,2.4-3.8,3c-1.8,0.7-2.6,0-2.6-2V572C362.9,570.6,363.6,569.8,364.9,569.8z M364.9,572.7v2.4h8.7v-2.3
		c-0.1-0.4-0.4-0.8-1.1-1h-6.7C365.3,571.9,364.9,572.1,364.9,572.7z M364.9,577.2v3.2h7.7c0.7,0.1,1-0.2,1-1v-2.2H364.9z"/>
	<path d="M381.9,570.1h19.8c1.1-0.1,1.5,0.5,1.5,1.9v19c0.1,1.5-0.5,2.2-1.9,2.1H382c-1.3,0-1.9-0.7-1.8-2.1v-19
		C380,570.7,380.5,570.1,381.9,570.1z M382.3,573.3v16.8c-0.1,0.7,0.2,1,1.2,1h16.6c0.8,0.1,1.1-0.2,1.1-1v-16.5
		c0.1-1.1-0.3-1.5-1.2-1.5h-16.6C382.5,572.2,382.2,572.6,382.3,573.3z M385.6,574.6h12.7c0.4,0.1,0.8,0.4,0.9,1.1
		c-0.1,0.7-0.3,1-0.9,1h-5.9v3.1h5.4c0.5,0.1,0.9,0.4,1,1.1c-0.1,0.7-0.4,1.1-1,1.1h-5.4v4.7h6.5c0.5,0.1,0.9,0.4,1,1.1
		c-0.1,0.7-0.4,1.1-1,1.1h-14.2c-0.7,0-1.1-0.3-1.1-1.1c0-0.7,0.3-1,1.1-1.1h5.5V582h-4.3c-0.7,0-1-0.3-1-1.1c0-0.7,0.3-1,1-1.1h4.3
		v-3.1h-4.6c-0.7,0-1.1-0.3-1.2-1C384.5,575.1,384.8,574.6,385.6,574.6z M394.8,582.8c0.9,0.5,1.5,1.2,2.2,1.8
		c0.4,0.5,0.4,1,0.1,1.5c-0.5,0.4-1,0.4-1.4-0.1c-0.7-0.5-1.4-1.1-2.1-1.6c-0.5-0.3-0.5-0.8-0.2-1.4
		C393.7,582.6,394.3,582.6,394.8,582.8z"/>
	<path d="M411.8,572.1h-1.9c-0.5,0-0.8,0.3-0.8,0.9v20.1c-0.1,0.5-0.4,0.9-1.1,1c-0.7-0.1-1-0.4-1-1v-21.3c-0.1-1.2,0.5-1.8,1.9-1.8
		h4.1c1.9,0,2.4,0.9,1.8,2.7c-0.3,0.9-0.8,1.8-1.2,2.7c-0.7,1.5-0.9,2.3-0.9,2.3c3.3,6.4,2.4,9.6-2.4,9.7c-0.7,0-1.1-0.4-1.1-1.2
		c0.1-0.7,0.5-1,1.3-1.1c2.9,0.3,3-2.1,0.2-7.5c0-0.1,0-0.2,0.1-0.3c0.5-1.4,1.1-2.9,1.5-4.5C412.7,572.3,412.5,572.1,411.8,572.1z
		 M417.5,581.8c0.2-0.7,0.7-0.9,1.4-0.8c0.7,0.2,0.9,0.7,0.8,1.4c-0.9,2.9-2.3,5.7-4.3,8.6c-0.5,0.4-1.1,0.5-1.6,0.3
		c-0.7-0.3-0.7-0.9-0.2-1.5C415.3,587.6,416.7,584.9,417.5,581.8z M430.7,579h-6.5v11.1c0,1.6-0.3,2.5-1.1,2.9
		c-0.5,0.4-2.2,0.5-4.8,0.3c-0.9-0.1-1.2-0.5-1.2-1.3c0.2-0.7,0.8-1,1.5-1c2.5,0.3,3.6,0.1,3.4-0.9V579h-6.4c-1.1-0.7-1.1-1.4,0-2.2
		h14.9c0.4,0.1,0.8,0.4,0.9,1.1C431.4,578.7,431.1,579,430.7,579z M428.7,572h-10.6c-0.7,0-1-0.3-1-1.1c0-0.7,0.3-1,1-1.1h10.7
		c0.4,0.1,0.8,0.4,0.9,1.2C429.6,571.7,429.2,572,428.7,572z M427.9,581.6c1.2,2.1,2.3,5.2,3.4,9.1c0.1,0.7-0.2,1.1-0.9,1.3
		c-0.7,0.1-1.1-0.1-1.3-0.8c-0.5-2.5-1.6-5.5-3.2-8.7c-0.3-0.7-0.2-1.1,0.3-1.5C426.9,580.9,427.4,581,427.9,581.6z"/>
	<path d="M447,570.1v4.3h10.7c0.5,0.1,0.9,0.4,1,1.2c-0.1,0.7-0.4,1.1-1,1.1h-10.3c1.8,5.6,5.5,10.3,11,14.2c0.7,0.4,0.9,1,0.5,1.6
		c-0.5,0.5-1.1,0.7-1.9,0.2c-5.3-3.5-8.8-7.9-10.8-13.4c-1.3,6-5.1,10.7-11.1,13.8c-0.9,0.4-1.5,0.3-1.9-0.3
		c-0.3-0.8-0.1-1.4,0.7-1.8c6.3-3.1,9.9-7.9,10.8-14.5h-9.8c-0.9,0-1.3-0.3-1.4-1.1c0.1-0.7,0.5-1.1,1.4-1.2h9.9v-4.2
		c0-0.7,0.4-1,1.2-1.1C446.5,569.1,446.9,569.5,447,570.1z"/>
	<path d="M465.1,583.5c0.1-0.7,0.5-0.9,1.2-0.8c0.7,0.2,0.9,0.7,0.9,1.3c-1,3.2-2.4,6-4.4,8.6c-0.5,0.5-1.2,0.5-1.8,0.1
		c-0.5-0.5-0.4-1,0.1-1.5C462.8,589.6,464.1,587,465.1,583.5z M462.8,576.4c1.1,0.8,2.3,1.5,3.5,2.4c0.4,0.5,0.5,1,0.3,1.5
		c-0.5,0.5-1,0.5-1.5,0c-1.1-0.9-2.3-1.6-3.4-2.3c-0.7-0.4-0.8-0.9-0.5-1.5C461.5,576.2,462.1,576.1,462.8,576.4z M463.2,569.7
		c1.3,0.9,2.5,1.8,3.6,2.6c0.3,0.5,0.3,1.1,0,1.5c-0.5,0.3-1,0.3-1.5-0.1c-0.7-0.7-1.8-1.5-3.3-2.4c-0.5-0.3-0.5-0.8-0.3-1.4
		C462.2,569.6,462.6,569.5,463.2,569.7z M468.4,569.6H485c0.9,0.1,1.3,0.4,1.4,1.2c-0.1,0.7-0.7,1-1.5,1h-5.2v2.4h3.1
		c1.5,0.1,2.4,0.8,2.4,2.2v14.7c-0.1,1.5-0.9,2.2-2.3,2.2h-12.7c-1.6,0.1-2.4-0.7-2.2-2.3v-14.5c0-1.5,0.8-2.3,2.4-2.3h2.2v-2.4
		h-4.2c-0.8,0-1.2-0.3-1.3-1.1C467.1,570,467.6,569.7,468.4,569.6z M469.8,577.3v9.5h13.3v-2.6h-3.4c-1.5,0.1-2.2-0.8-2.1-2.4v-5.3
		h-3c-0.1,4.8-1,7.6-2.6,8.4c-0.7,0.3-1.1,0.3-1.5-0.2c-0.4-0.7-0.3-1.1,0.2-1.5c1.3-0.5,1.9-2.7,1.8-6.7h-1.9
		C470,576.3,469.8,576.6,469.8,577.3z M469.8,588.8v1.9c0,0.3,0.2,0.5,0.7,0.5h11.9c0.4,0,0.8-0.2,0.8-0.7v-1.8H469.8z M477.6,571.8
		h-3.1v2.4h3.1V571.8z M482.4,576.3h-2.9v4.8c-0.1,0.5,0.2,0.8,0.9,0.8h2.6V577C483.1,576.5,482.9,576.3,482.4,576.3z"/>
	<path d="M511.2,573.3h-9.6v3.2h10.1c0.5,0.1,0.9,0.4,1,1.1c-0.1,0.7-0.4,1.1-1,1.1h-10.1v3.7h7.1c1.5-0.1,2.3,0.7,2.2,2.1v6.8
		c0.1,1.6-0.5,2.4-2,2.3h-14.2c-1.5,0.1-2.3-0.7-2.1-2.1v-7c-0.2-1.5,0.5-2.2,2.4-2.1h4.5v-9h-7.4c-0.7,0-1,0.3-1,1v9.5
		c-0.1,3.5-0.9,6.4-2.1,8.6c-0.4,0.4-0.9,0.7-1.5,0.4c-0.5-0.3-0.7-0.8-0.4-1.4c1.3-2.2,1.9-4.7,1.9-7.7v-10.3
		c-0.1-1.5,0.5-2.3,2-2.2h8.8c-0.1-0.1-0.2-0.4-0.3-0.8c-0.1-0.2-0.2-0.4-0.3-0.8c-0.3-0.7-0.1-1.1,0.4-1.4c0.5-0.2,1.1,0,1.5,0.5
		c0.4,0.9,0.8,1.6,1,2.3h9c0.4,0.1,0.8,0.4,0.9,1.1C512,573,511.7,573.3,511.2,573.3z M494.8,585.2v5.5c-0.1,0.4,0.2,0.8,1,0.8h11.8
		c0.9,0,1.2-0.3,1.2-0.9v-5.4c0-0.4-0.2-0.8-0.8-0.8h-12.3C495.1,584.5,494.7,584.8,494.8,585.2z"/>
	<path d="M532.5,591.2c1.5,1.6,1.8,2.6,0.8,3c-0.2,0.1-0.4,0.2-0.8,0.1c-0.7-0.1-1.5-0.5-2.3-1.5c-2.9-2.6-4.3-6.5-4.3-11.3
		c0.1-4.8,2.1-8.9,5.9-12.2c0.4-0.4,1.1-0.8,1.8-0.9c0.2,0,0.4,0.1,0.9,0.4c0.4,0.7,0.2,1.4-1,2.2c-3.3,2.7-4.9,6.3-4.9,10.4
		C528.5,585.5,529.8,588.7,532.5,591.2z"/>
	<path d="M566.5,581.5h-23.8c-0.7,0-1.1-0.4-1.2-1.2c0.1-0.7,0.4-1.1,1.2-1.2h23.8c0.5,0.1,0.9,0.4,1,1.2
		C567.4,581,567,581.5,566.5,581.5z"/>
	<path d="M583.1,576.5h-4.2c-0.7,0-1.1-0.3-1.2-1c0.1-0.7,0.4-1,1.2-1.1h5.6v-4.7c0-0.7,0.3-1,1-1.1c0.7,0.1,1,0.4,1.1,1.1v4.7h1.5
		c-0.5-0.4-0.4-1,0.1-1.5c1.1-1.2,1.9-2.3,2.5-3.4c0.3-0.7,0.8-0.8,1.4-0.5c0.4,0.3,0.5,0.9,0.2,1.5c-0.7,1.2-1.5,2.4-2.5,3.5
		c-0.1,0.1-0.2,0.1-0.3,0.2s-0.1,0.2-0.2,0.2h3.6c0.4,0.1,0.8,0.4,0.9,1.1c-0.1,0.7-0.4,1-1,1H588c1,1.5,2.9,3,5.6,4.2
		c0.7,0.4,1,1,0.8,1.5c-0.3,0.5-0.9,0.7-1.6,0.3c-2.5-1.1-4.5-2.6-6.2-4.6v4c0,0.5-0.3,0.9-0.9,1.1c0.1,0.1,0,0.4-0.1,0.9
		c-0.1,0.1-0.1,0.3-0.2,0.5l-0.1,0.2h8.5c0.5,0.1,0.9,0.4,1,1.1c-0.1,0.7-0.4,1-1,1H591c-0.9,1.5-1.8,2.7-2.9,3.7
		c1.4,0.3,3.1,0.9,4.8,1.5c0.7,0.3,1,0.9,0.9,1.5c-0.2,0.5-0.7,0.8-1.4,0.5c-2.5-1-4.6-1.6-6-2c-2.5,1.4-5.6,2.3-9.2,2.7
		c-0.8,0-1.2-0.3-1.4-0.9c-0.1-0.8,0.3-1.2,1.1-1.3c2.9-0.2,5.3-0.7,7.3-1.4c-3.3-0.7-4.8-1.2-4.7-1.8c0.2-0.4,0.9-1.3,2-2.6h-3.5
		c-0.7,0-1-0.3-1-1c0-0.7,0.3-1,1-1.1h4.7c0.1-0.1,0.2-0.3,0.4-0.7c0.2-0.3,0.4-0.5,0.5-0.8c0.3-0.4,0.7-0.8,1.1-0.8
		c-0.1-0.1-0.2-0.2-0.1-0.5v-4c-1.6,1.9-3.5,3.4-5.5,4.4c-0.7,0.3-1.1,0.2-1.3-0.2c-0.7,0.5-1.2,0.5-1.5-0.2
		c-0.1-0.1-0.3-0.2-0.5-0.5c-0.5-0.7-0.8-1.2-1-1.5v13.3c-0.1,0.7-0.4,1-1.1,1s-1.1-0.3-1.1-1v-11.9c-0.7,1.5-1.3,3-2.1,4.4
		c-0.5,0.8-1.1,1-1.6,0.5c-0.4-0.4-0.4-1.1-0.1-1.9c1.5-2.2,2.7-4.8,3.7-7.8h-2c-0.8,0-1.2-0.3-1.3-1.1c0.1-0.7,0.4-1,1.3-1.1h2.2
		v-4.7c0-0.5,0.3-0.9,1-1c0.7,0.1,1.1,0.3,1.2,0.9v4.8h1.8c0.7,0.1,1,0.4,1.1,1.1c0,0.7-0.3,1.1-0.9,1.1h-2v0.7
		c1.5,1.5,2.5,2.9,3.2,3.8c0.2-0.1,0.4-0.2,0.5-0.3C580.2,579.5,581.8,578.2,583.1,576.5z M579.2,571.1c-0.5-0.4-0.5-1-0.2-1.5
		c0.4-0.3,0.9-0.3,1.5,0.1c1.3,1.2,2.2,2.2,2.7,2.9c0.3,0.7,0.3,1.2-0.1,1.5c-0.5,0.3-1,0.2-1.4-0.3C581,573,580.1,572,579.2,571.1z
		 M588.8,586.5h-4.7c-0.1,0.1-0.3,0.4-0.7,0.8c-0.5,0.7-0.8,1-0.9,1.2c-0.2,0.2,1,0.5,3.6,1.1C587.2,588.7,588,587.7,588.8,586.5z"
		/>
	<path d="M599.7,584.1c0.2-0.7,0.7-0.9,1.4-0.7c0.7,0.3,0.9,0.8,0.8,1.4c-1.2,3.5-2.5,6-3.8,7.8c-0.5,0.5-1.1,0.7-1.6,0.3
		c-0.5-0.4-0.7-1-0.2-1.5C597.5,589.5,598.7,587.1,599.7,584.1z M598.3,577.2c1.1,0.8,2.1,1.5,2.9,2.2c0.4,0.5,0.4,1.1,0,1.6
		c-0.5,0.4-1,0.4-1.5-0.1c-0.2-0.1-0.4-0.2-0.5-0.4c-0.8-0.7-1.5-1.3-2.1-1.6c-0.5-0.3-0.7-0.8-0.2-1.4
		C597.2,577,597.6,576.8,598.3,577.2z M598.7,570.1c0.7,0.5,1.5,1.3,2.6,2.3c0.4,0.5,0.4,1,0.2,1.5c-0.4,0.5-0.9,0.7-1.4,0.3
		s-0.9-0.7-1.2-1c-0.4-0.4-0.9-0.9-1.5-1.4c-0.5-0.4-0.7-0.9-0.4-1.5C597.5,569.9,598,569.8,598.7,570.1z M608.3,570.1v2.4h3.1
		c0.7,0.1,1,0.4,1,1.1s-0.3,1.1-1,1.1h-3.1v4.5h1c1.4-0.1,2.1,0.5,2,2.2v9.3c0,1.4-0.7,2.1-2,2.1h-4.6c-1.4,0.1-2.1-0.5-1.9-1.9
		v-9.7c-0.1-1.5,0.5-2.2,1.9-2.1h1.5v-4.5H603c-0.5,0-0.9-0.3-1-1.1c0.1-0.7,0.4-1,1-1.1h3.2v-2.3c0-0.5,0.3-0.9,1-1
		C607.8,569.3,608.2,569.6,608.3,570.1z M604.7,582v8.2c-0.1,0.5,0.2,0.8,1,0.8h2.6c0.7,0,0.9-0.3,0.9-1v-8.1c0-0.4-0.3-0.8-0.9-0.8
		h-2.7C605,581.2,604.6,581.5,604.7,582z M615.3,570.1h3.4c1.5-0.1,2.2,0.7,2.1,2.2v18.8c0.2,2.3-1.2,3-4.3,2.2
		c-0.5-0.2-0.8-0.7-0.8-1.4c0.1-0.5,0.5-0.8,1.2-0.7c1.4,0.3,2.1,0.2,1.9-0.5v-5.2h-3.7c-0.2,3.1-0.8,5.5-1.8,7.5
		c-0.3,0.5-0.9,0.7-1.5,0.4c-0.5-0.4-0.7-0.9-0.3-1.5c1.3-2.1,1.9-5.2,1.8-9.3v-10.4C613.1,570.8,613.8,570.1,615.3,570.1z
		 M618,572.2h-2c-0.7,0-0.9,0.2-0.9,0.8v3.6h3.7v-3.7C618.8,572.3,618.6,572.2,618,572.2z M615.2,578.5v4.9h3.7v-4.9H615.2z"/>
	<path d="M636.7,569.6v1.3h10.7c0.5,0.1,0.9,0.4,1,1.2c-0.1,0.7-0.4,1.1-1,1.1h-10.7v2.2h8.4c1.5-0.1,2.3,0.7,2.2,2.3V591
		c0.4,2.6-1.5,3.5-6,2.3c-0.7-0.1-0.9-0.5-0.8-1.3c0.2-0.5,0.7-0.8,1.3-0.8c2.5,0.7,3.6,0.4,3.4-0.5v-12.5c0-0.5-0.3-0.9-0.9-0.9
		h-17.4c-0.7,0-0.9,0.3-0.9,0.9v15.2c-0.1,0.5-0.4,0.9-1.1,1c-0.7-0.1-1.1-0.3-1.1-0.9v-15.6c-0.1-1.6,0.5-2.5,2.2-2.4h8.1v-2.2
		h-10.7c-0.7,0-1.1-0.3-1.2-1.1c0.1-0.7,0.4-1.1,1.2-1.2h10.7v-1.3c0-0.7,0.4-1,1.2-1C636.2,568.7,636.6,569,636.7,569.6z
		 M639.7,581.5h3.7c0.7,0.1,1,0.4,1,1.1c0,0.7-0.3,1-1,1h-6.6v2.4h6.7c0.5,0.1,0.9,0.4,1,1.1c-0.1,0.7-0.4,1-1,1h-6.7v4.8
		c-0.1,0.5-0.4,0.9-1.2,1c-0.7-0.1-1.1-0.4-1.1-1v-4.8h-6.9c-0.7,0-1-0.3-1.1-1c0-0.7,0.3-1,1-1.1h7v-2.4h-6.8c-0.7,0-1-0.3-1-1
		s0.3-1,1-1.1h4c-0.2-0.3-0.5-1.1-1.1-2.2c-0.3-0.7-0.1-1.1,0.5-1.4c0.7-0.2,1.2,0,1.5,0.7c0.3,0.8,0.5,1.4,0.9,2
		c0.1,0.4,0.1,0.8,0,1h3.7c0.4-1.1,0.8-2,1-2.6c0.1-0.1,0.1-0.3,0.2-0.4c0.2-0.7,0.7-1,1.4-0.9c0.7,0.3,0.9,0.8,0.7,1.5
		c-0.1,0.5-0.3,1.1-0.7,1.8C639.7,581.2,639.7,581.5,639.7,581.5z"/>
	<path d="M654.1,570h20.7c0.4,0.1,0.8,0.4,0.9,1.1c-0.1,0.7-0.3,1-0.9,1h-19.7c-0.8,0-1.1,0.3-1.1,1.1v6.7c0.1,6.6-0.5,10.9-2,12.9
		c-0.5,0.7-1.1,0.9-1.6,0.7c-0.5-0.4-0.5-1-0.3-1.6c1.3-1.6,2-5.6,2-11.8v-7.7C651.9,570.7,652.6,570,654.1,570z M655.8,575.1H675
		c0.5,0.1,0.9,0.4,1,1.1c-0.1,0.7-0.4,1-1,1h-7.6v13.6c-0.1,3.1-2.1,4.1-5.9,3c-0.7-0.3-1-0.8-1-1.5c0.2-0.7,0.7-0.9,1.5-0.7
		c2.3,0.8,3.5,0.4,3.4-1.2v-13.3h-9.6c-0.7,0-1.1-0.3-1.1-1C654.9,575.4,655.2,575.1,655.8,575.1z"/>
	<path d="M685.5,591.2c2.6-2.6,4-5.9,4-9.8c-0.1-4.1-1.8-7.6-5.1-10.4c-1.2-0.9-1.5-1.6-0.9-2.2c0.2-0.3,0.4-0.4,0.9-0.4
		c0.7,0.1,1.2,0.3,1.8,0.9c3.8,3.4,5.8,7.5,5.9,12.2c0,4.7-1.4,8.6-4.3,11.3c-1,0.9-1.8,1.4-2.4,1.5c-0.2,0.1-0.4,0-0.7-0.1
		C683.7,593.9,683.9,592.9,685.5,591.2z"/>
	<path d="M193.6,638.7v5.3h1.6c0.7,0.1,1,0.4,1,1.1c0,0.7-0.3,1-1,1h-1.6v10.7c0.4-0.3,1.1-0.9,1.9-1.5c0.5-0.3,1.1-0.2,1.5,0.3
		c0.3,0.5,0.2,1-0.3,1.4c-2.1,1.3-4.1,2.6-6.2,3.8c-0.8,0.3-1.3,0.2-1.6-0.3c-0.3-0.7-0.1-1.1,0.7-1.5c0.4-0.1,1.2-0.4,2-1v-12h-1.4
		c-0.7,0-1.1-0.3-1.1-1c0-0.7,0.3-1,1.1-1.1h1.4v-5.4c0-0.7,0.3-1,1.1-1C193.2,637.7,193.5,638.1,193.6,638.7z M205.9,638.2v3.8
		l4-1.9c1.8-0.7,2.7,0.1,3,2.1v5.1c0,3.3-0.3,5.3-1,5.8c-0.5,0.8-2,0.9-4.4,0.3c-0.7-0.1-1-0.5-1-1.3c0.1-0.7,0.5-0.9,1.4-0.8
		c1.4,0.4,2.2,0.3,2.4-0.2c0.3-0.3,0.4-2.2,0.4-5.4v-2.5c-0.1-0.9-0.5-1.2-1.3-1l-3.6,1.9v11c-0.1,0.7-0.4,1.1-1.1,1.1
		c-0.7,0-1-0.3-1-1.1v-10.2l-4.1,1.9v9.2c-0.3,2.3,0.7,3.3,2.9,3.1h5.8c2.3,0.4,3.4-0.8,3.1-3.5c0-0.7,0.3-1,1.1-1
		c0.7,0.1,1.1,0.4,1.2,1.1c0.2,3.8-1.4,5.6-4.8,5.4h-6.6c-3.1,0.1-4.6-1.2-4.5-4v-9.6l-1.5,0.8c-0.7,0.3-1.1,0.1-1.4-0.4
		c-0.2-0.7,0-1.1,0.7-1.5l2.2-1V640c0-0.7,0.3-1,1-1.1c0.7,0.1,1,0.4,1.1,1.1v4.4l4-1.8v-4.7c0-0.7,0.3-1,1.1-1.1
		C205.5,637.2,205.8,637.5,205.9,638.2z"/>
	<path d="M221.6,638.1v5.8h2.2c0.4,0.1,0.8,0.4,0.9,1.1c-0.1,0.7-0.3,1.1-0.9,1.1h-2.2v8.2c1.1-0.9,1.6-1.4,1.9-1.5
		c0.4-0.3,1-0.3,1.5,0.2c0.3,0.5,0.3,1-0.1,1.4c-2.3,2.3-4.7,4-7.1,5.1c-0.5,0.2-1,0.1-1.4-0.4c-0.3-0.4-0.2-0.9,0.3-1.3
		c0.9-0.5,1.8-1.2,2.7-1.9V646h-2.3c-0.7,0-1-0.3-1-1.1c0-0.7,0.3-1,1-1.1h2.3v-5.8c0-0.4,0.3-0.8,1.1-0.9
		C221.3,637.3,221.6,637.5,221.6,638.1z M234.7,638.2v5.5h4.7c0.7,0.1,1,0.4,1.1,1.1c-0.1,0.7-0.4,1.1-1.1,1.1h-4.7V659h5.8
		c0.5,0,0.9,0.3,1,0.9c-0.1,0.7-0.4,1-1,1.1h-17c-0.7-0.1-1-0.4-1-1.1c0-0.5,0.3-0.9,1-0.9h3.1v-16.4c0-0.7,0.3-1,1.1-1
		c0.7,0,1,0.3,1.1,1v16.3h4v-20.8c0-0.5,0.3-0.9,1.1-1C234.3,637.3,234.6,637.6,234.7,638.2z"/>
	<path d="M248.8,651.7c-1.3,0-1.9-0.7-1.9-1.9c0.1-1.2,0.7-1.9,1.9-2c1.2,0.1,1.9,0.8,2,2C250.6,651,250,651.7,248.8,651.7z
		 M248.8,660.7c-1.3-0.1-1.9-0.7-1.9-1.6c0.1-1.2,0.7-1.9,1.9-2c1.3,0.1,2,0.8,2,2C250.6,660,250,660.6,248.8,660.7z"/>
	<path d="M273.6,651.6c0.2-0.7,0.7-1,1.4-0.9c0.7,0.3,0.9,0.9,0.8,1.5c-0.9,3-2,5.7-3.2,8.1c-0.4,0.7-1,0.9-1.6,0.5
		c-0.7-0.3-0.8-0.9-0.3-1.5C271.7,657.3,272.8,654.7,273.6,651.6z M272.2,644c1.1,0.9,2.2,1.8,3.1,2.5c0.4,0.5,0.5,1.2,0.1,1.8
		c-0.4,0.5-0.9,0.5-1.5,0c-0.9-0.9-1.9-1.8-3-2.6c-0.5-0.4-0.5-0.9-0.2-1.5C271.1,643.7,271.6,643.7,272.2,644z M273.1,637.6
		c0.9,0.7,1.8,1.4,2.6,2.2c0.4,0.7,0.4,1.2,0,1.8c-0.5,0.5-1,0.5-1.5,0c-1-0.9-1.9-1.6-2.5-2.3c-0.5-0.4-0.5-0.9-0.1-1.5
		C272,637.4,272.4,637.3,273.1,637.6z M282.4,637.6v4.5h2.7c0.5,0.1,0.9,0.4,1,1.1c-0.1,0.7-0.3,1-0.9,1h-2.9v0.9
		c1.8,2.4,3.1,4.2,3.8,5.3c0.3,0.8,0.3,1.4-0.2,1.9c-0.7,0.3-1.2,0.1-1.5-0.7c-0.9-1.5-1.5-2.6-2-3.4v12.6c-0.1,0.7-0.4,1-1,1.1
		c-0.7-0.1-1-0.4-1-1.1v-12.5c-0.7,2.9-1.5,5.2-2.3,7.1c-0.4,0.8-1,1-1.6,0.8c-0.7-0.3-0.8-0.9-0.4-1.6c1.6-3.1,2.9-6.5,3.7-10.3
		H277c-0.5,0-0.9-0.3-1-1c0-0.7,0.3-1,0.9-1.1h3.7v-4.5c0-0.4,0.3-0.7,1-0.8C282,637,282.3,637.2,282.4,637.6z M289.5,637.9h2.9
		c1.9-0.2,2.6,0.7,2.5,2.7v18.1c0.1,1.8-0.7,2.5-2.3,2.4h-3c-2.1,0.1-3-0.7-2.7-2.4v-18.2C286.7,638.7,287.6,637.8,289.5,637.9z
		 M288.9,654v4.5c-0.1,0.5,0.2,0.9,0.9,0.9h2.5c0.4,0,0.8-0.3,0.8-0.9V654H288.9z M292,639.9h-2.1c-0.7,0-1,0.3-1,1v3.8h4.1V641
		C293,640.4,292.6,639.9,292,639.9z M288.9,646.6v5.2h4.2v-5.2H288.9z"/>
	<path d="M299.2,644.3c1.3,1.2,2.1,2.1,2.5,2.5c0.4,0.7,0.4,1.3-0.1,1.6s-1,0.2-1.5-0.3c-0.7-0.8-1.5-1.6-2.5-2.5
		c-0.4-0.4-0.4-0.9,0-1.4C298.1,644,298.7,644,299.2,644.3z M303.2,652c-1.3,3.5-2.5,6.3-3.6,8.2c-0.4,0.7-1,0.9-1.6,0.5
		c-0.5-0.3-0.5-0.9-0.1-1.5c1.3-2.4,2.4-5.1,3.4-7.9c0.3-0.7,0.8-1,1.5-0.9C303.2,650.8,303.4,651.2,303.2,652z M299.8,637.4
		c0.9,0.9,1.6,1.5,2.3,2.2c0.3,0.7,0.2,1.2-0.2,1.5c-0.5,0.3-1,0.3-1.4-0.2c-0.9-0.9-1.6-1.6-2.3-2.2c-0.4-0.4-0.4-0.9,0-1.4
		C298.7,637.1,299.2,637.1,299.8,637.4z M322.1,639h-6.2v1.5h3.7c1.4,0,2.1,0.7,2.1,1.9v1.5c0.1,1.3-0.5,2-1.6,1.8h-14.7
		c-1.5,0.1-2.2-0.4-2.1-1.6v-1.8c-0.1-1.1,0.5-1.6,2.1-1.6h3.6v-1.5h-5.5c-0.5,0-0.9-0.3-1-0.9c0.1-0.4,0.4-0.8,1-0.9h18.7
		c0.4,0.1,0.7,0.3,0.8,0.9C322.7,638.7,322.4,639,322.1,639z M307,647.2h11.3c1.3-0.1,2,0.5,2,2v3.7c0,1.6-0.7,2.5-2.1,2.3h-4.8v1.5
		h8.4c0.7,0.1,1,0.4,1.1,1c-0.1,0.7-0.4,1-1.1,1h-8.4v2.2c-0.1,0.7-0.4,1-1,1.1c-0.7,0-1.1-0.3-1.1-0.9v-2.4h-7.7
		c-0.7,0-1.1-0.3-1.1-1c0-0.5,0.3-0.9,1.1-1h7.7v-1.5h-4.9c-1.4,0.1-2.1-0.7-2-2.1v-3.7C304.4,647.9,305.3,647.2,307,647.2z
		 M308.9,642.3h-3.4c-0.5,0-0.7,0.2-0.7,0.5v0.8c0,0.3,0.2,0.5,0.7,0.5h3.4V642.3z M306.3,649.5v0.9h12.4v-1c0-0.3-0.2-0.4-0.5-0.5
		h-11.2C306.4,648.8,306.1,649,306.3,649.5z M306.3,652v1.1c0,0.3,0.2,0.4,0.5,0.4h11.4c0.3,0,0.4-0.2,0.4-0.5v-1H306.3z M310.5,639
		v1.5h3.6V639H310.5z M310.5,642.3v1.8h3.6v-1.8H310.5z M319.4,642.3h-3.6v1.8h3.5c0.4,0.1,0.7-0.1,0.7-0.5v-0.9
		C320,642.6,319.8,642.3,319.4,642.3z"/>
	<path d="M349.9,642.1h-11.3v3h8.2c1.3,0.1,2.1,1,2.2,2.6v10.7c-0.5,2.6-3.1,3.3-7.8,1.8c-0.7-0.3-0.9-0.7-0.8-1.2
		c0.2-0.7,0.7-0.9,1.3-0.7c3.4,1.1,5.2,0.8,5.3-0.9v-9c0-0.7-0.4-1.1-1.2-1.1h-7.3v14.1c-0.1,0.7-0.4,1-1.2,1s-1.2-0.3-1.2-1v-14.1
		H330c-1,0-1.4,0.4-1.4,1.2v11.3c-0.1,0.7-0.4,1-1.2,1.1c-0.7-0.1-1.1-0.4-1.1-1.1v-12.2c-0.1-1.8,0.8-2.6,2.5-2.6h7.3v-3h-10.7
		c-1.1-0.7-1.1-1.4,0-2.2h10.9c-0.3-0.7-0.7-1.3-1.1-1.9s-0.3-1.2,0.2-1.5c0.7-0.3,1.2-0.1,1.6,0.5c0.3,0.5,0.9,1.5,1.5,3h11
		c0.7,0.1,1,0.4,1.1,1.2C350.9,641.7,350.5,642.1,349.9,642.1z"/>
	<path d="M361.9,646.5h1.8c0.4,0.1,0.7,0.4,0.8,1c-0.1,0.5-0.3,0.9-0.8,0.9h-11.4c-0.7,0-1-0.3-1-0.9s0.3-0.9,1-1h7.6
		c0.4-1.3,0.9-2.7,1.3-4.4c0.1-0.5,0.4-0.8,1.1-0.8c0.5,0.1,0.9,0.5,0.9,1.2C362.6,644,362.3,645.3,361.9,646.5z M363.4,640.9h-10.8
		c-0.5,0-0.8-0.3-0.9-0.9c0.1-0.5,0.3-0.9,0.9-1h4.4c-0.1-0.2-0.3-0.5-0.5-1.1c-0.3-0.7-0.1-1.1,0.5-1.4c0.5-0.2,1,0,1.4,0.7
		c0.3,0.5,0.5,1.2,0.8,1.8h4.4c0.4,0.1,0.7,0.4,0.8,1C364.1,640.6,363.8,640.9,363.4,640.9z M355.3,649.7h5.9
		c1.5-0.1,2.2,0.7,2.1,2.1v7.6c0.1,1.4-0.5,2.1-2,2h-6.2c-1.6,0.1-2.5-0.5-2.3-2.2v-7.5C352.6,650.4,353.4,649.7,355.3,649.7z
		 M355.3,642.2c0.4,0.9,0.9,1.9,1.2,3c0.1,0.5-0.2,1-0.8,1.2c-0.7,0.1-1-0.1-1.2-0.7c-0.1-0.8-0.4-1.6-1-2.6
		c-0.3-0.4-0.1-0.8,0.4-1.2C354.5,641.7,354.8,641.8,355.3,642.2z M354.7,656.5v2.4c-0.1,0.3,0.1,0.5,0.5,0.5h5.5
		c0.4,0,0.7-0.2,0.7-0.5v-2.4H354.7z M354.7,652.2v2.4h6.7v-2.3c0-0.4-0.2-0.8-0.7-0.8h-5.4C354.8,651.7,354.6,651.8,354.7,652.2z
		 M365.3,637.6h8.5c1.3,0.1,2.1,0.8,2.1,2.2c0.1,6.3-0.5,9.6-1.6,9.7c-1.2,0.8-3.1,0.9-5.5,0.2c-0.5-0.2-0.8-0.5-0.8-1.2
		c0.1-0.7,0.5-0.9,1.2-0.9c1.9,0.5,3.1,0.5,3.7,0.1c0.8-0.2,1.2-2.7,1.2-7.6c0-0.4-0.3-0.8-1-0.8h-3.4c-0.1,5.1-1.6,8.7-4.5,10.7
		c-0.5,0.4-1.1,0.4-1.5,0.1c-0.3-0.5-0.3-1.1,0.2-1.5c2.5-1.6,3.7-4.7,3.8-9.2h-2.4c-0.7,0-1-0.3-1-1
		C364.4,638.1,364.7,637.7,365.3,637.6z M366.8,650.8h6.9c1.4,0,2.1,0.9,2.1,2.6v5.8c0.1,1.5-0.5,2.3-2.1,2.1h-7.1
		c-1.5,0.1-2.2-0.5-2-1.8v-6.4C364.4,651.5,365.1,650.7,366.8,650.8z M366.6,653.6v5.2c-0.1,0.4,0.2,0.8,0.8,0.8h5.8
		c0.4,0,0.8-0.2,0.8-0.7v-5.3c0-0.4-0.3-0.8-0.9-0.8h-5.7C366.8,652.8,366.5,653,366.6,653.6z"/>
	<path d="M392.5,637.7v21.2h7.5c0.4,0,0.7-0.2,0.7-0.5v-17.9c0-0.7,0.4-1,1.2-1c0.7,0,1.1,0.3,1.2,1v18.4c0,1.5-1,2.3-2.9,2.3H382
		c-1.3-0.1-1.9-0.8-1.9-2.1v-18.5c0-0.7,0.3-1.1,1.1-1.2c0.7,0.1,1.1,0.4,1.2,1.2v17.6c0,0.5,0.3,0.8,0.9,0.8h7.4v-21.2
		C391.1,636.6,391.8,636.6,392.5,637.7z"/>
	<path d="M417.1,637.7l-1.5,3h14.2c0.8,0.1,1.2,0.4,1.3,1.2c0,0.7-0.4,1.1-1.2,1.1h-15.2l-3.1,5.6h6.4v-4.2c0-0.7,0.4-1,1.2-1.1
		c0.7,0.1,1.1,0.4,1.2,1.1v4.2h8.9c0.7,0.1,1,0.4,1.1,1.1c0,0.8-0.3,1.2-0.9,1.2h-9.1v8.1c0.5,2.6-1.3,3.6-5.5,3.1
		c-0.9-0.1-1.4-0.5-1.5-1.3c0.1-0.9,0.5-1.2,1.4-1.1c2.3,0.4,3.4,0.2,3.3-0.8v-8.1h-7.9c-0.9,0.1-1.3-0.1-1.5-0.5
		c-0.2-0.4,0-1.1,0.5-2l3.2-5.3h-5.5c-0.8,0-1.2-0.3-1.2-1.1c0-0.7,0.4-1.1,1.2-1.2h6.5l2-3.8c0.3-0.5,0.9-0.8,1.5-0.5
		C417.4,636.6,417.5,637.1,417.1,637.7z M411.8,652.9c0.5-0.9,1.2-1.1,1.9-0.8c0.5,0.5,0.5,1.2,0,2c-2.3,3.2-4.3,5.3-5.7,6.2
		c-0.7,0.3-1.3,0.3-1.6-0.2s-0.2-1.1,0.4-1.5C408.8,656.6,410.5,654.8,411.8,652.9z M424.6,651.9c2.5,2.3,4.5,4.3,5.9,6
		c0.4,0.7,0.4,1.2,0,1.6c-0.7,0.3-1.2,0.2-1.8-0.4c-2.1-2.2-4-4.1-5.6-5.6c-0.7-0.4-0.8-1-0.3-1.5
		C423.3,651.6,424,651.6,424.6,651.9z"/>
	<path d="M440.9,646.5h-1.2v4.2h2.9c0.4,0.1,0.8,0.4,0.9,1.1c-0.1,0.7-0.3,1-0.9,1h-2.9v5.6c1.1-0.3,2.1-0.5,3-1
		c0.4-0.1,0.9,0.2,1.1,0.8c0.2,0.5,0.1,0.9-0.4,1.1c-3.6,1.1-6.8,1.9-9.5,2.1c-0.7,0-1-0.3-1.2-1c-0.1-0.7,0.2-1,0.9-1
		c0.4-0.1,0.8-0.2,1-0.1v-9c0-0.5,0.3-0.9,0.9-1c0.5,0.1,0.9,0.4,1,1v8.7c0.3,0,0.4,0,0.7,0c0.3,0,0.7,0,0.9-0.1v-12.3h-2
		c-1.2,0.2-1.8-0.4-1.5-2.1v-4.8c-0.1-1.3,0.4-1.9,1.6-1.8h4.6c1.3,0,2,0.5,1.9,1.8v5.3C442.4,646.1,441.9,646.7,440.9,646.5z
		 M435.9,640.5v3.3c-0.1,0.7,0.2,0.9,0.9,0.9h3c0.4,0.1,0.8-0.2,0.8-0.8v-3.5c0-0.4-0.3-0.8-0.9-0.8h-2.9
		C436.2,639.6,435.9,639.9,435.9,640.5z M449.1,638.6h6.5c1.5,0,2.1,0.8,1.5,2.2c-1,2.4-2.4,4.4-4.2,5.8c1.9,1.2,3.6,2.1,5.5,2.5
		c0.5,0.2,0.8,0.7,0.7,1.4c-0.2,0.7-0.7,1-1.3,0.8c-2.3-0.7-4.5-1.6-6.6-3.2c-2.1,1.3-4.4,2.3-6.7,3.1c-0.7,0.2-1.2,0-1.5-0.5
		c-0.3-0.7-0.1-1.2,0.7-1.5c2.1-0.7,4-1.5,5.8-2.5c-1.3-1.3-2.3-2.5-3-3.8c-0.2,0.2-0.3,0.3-0.2,0.2c-0.7,1-1.3,1.6-1.6,2
		c-0.7,0.5-1.3,0.7-1.8,0.2c-0.4-0.4-0.3-1.1,0.2-1.6c1.5-1.5,2.9-3.5,4.1-5.9c0.3-0.7,0.8-0.9,1.5-0.7
		C449.2,637.4,449.5,637.8,449.1,638.6z M457,653.7v5.9c0.1,1.4-0.7,2.1-2.1,2h-8.1c-1.6,0.1-2.3-0.5-2.1-2v-6c-0.1-1.4,0.5-2.1,2-2
		h8.2C456.4,651.6,457,652.2,457,653.7z M446.7,654.5v4.5c0,0.4,0.2,0.8,0.7,0.8h6.9c0.5,0,0.9-0.3,0.9-0.9v-4.6
		c0-0.5-0.3-0.9-1-0.9h-6.6C446.9,653.4,446.6,653.8,446.7,654.5z M453.9,640.6H448c0,0.1,0,0.2-0.1,0.3l-0.1,0.1
		c0.8,1.4,2,2.9,3.5,4.4c1.3-1.2,2.4-2.5,3.1-4c0.1-0.3,0.1-0.4,0-0.7C454.4,640.7,454.2,640.6,453.9,640.6z"/>
	<path d="M464.3,647.2L464.3,647.2c0.9-0.4,1.9-0.7,3.2-0.8c3.1,0.2,4.6,2.3,4.8,6.4c-0.3,3.8-2.3,5.9-5.9,6.2
		c-3.6-0.1-5.6-2.3-5.8-6.5c0-4.4,2.3-8.6,6.8-12.5c0.3-0.3,0.7-0.5,1.1-0.5c0.7,0.1,1,0.5,1.1,1.2c0,0.2-0.3,0.7-1,1.3
		C466.8,643.3,465.4,645.1,464.3,647.2z M463,652.7c0.1,2.7,1.2,4.2,3.4,4.3c2.1-0.1,3.3-1.5,3.4-4.3c-0.1-2.6-1.2-4.1-3.4-4.2
		C464.2,648.7,463.1,650,463,652.7z"/>
	<path d="M476.1,643.9c0.1-2.6,1.8-4.2,4.9-4.5c3.1,0.3,4.6,1.8,4.8,4.5c0,1.9-0.9,3.3-2.5,4.3c2.2,0.7,3.4,2.3,3.5,4.8
		c-0.3,3.8-2.2,5.8-5.8,5.9c-3.7-0.1-5.7-2.1-5.9-5.9c0.1-2.5,1.2-4.2,3.5-4.8C476.8,647.2,475.9,645.7,476.1,643.9z M477.7,653.1
		c0.1,2.5,1.2,3.7,3.4,4c2.1-0.1,3.2-1.4,3.3-4c-0.1-2.4-1.2-3.6-3.3-3.8C478.9,649.5,477.8,650.7,477.7,653.1z M478.2,644.3
		c0,1.9,0.9,2.9,2.7,2.9c1.6,0,2.5-1,2.6-2.9c-0.1-1.6-1-2.6-2.6-2.7C479.2,641.6,478.4,642.6,478.2,644.3z"/>
	<path d="M513.9,649.5h-15.7l-1.2,2.4h12.7c1.5,0.1,2.3,0.8,2.3,2c-0.1,4.7-1.9,7.4-5.4,7.7c-1.2,0.1-3.2,0.1-5.8,0
		c-2.1-0.2-3.7-0.5-4.7-0.9c-0.8-0.3-1.1-0.8-0.9-1.5c0.2-0.4,0.7-0.7,1.5-0.4c1.2,0.2,2.7,0.4,4.6,0.7c2.4,0.2,4.1,0.2,5.1,0.1
		c2.1-0.5,3.3-2,3.4-4.5c0.1-0.9-0.2-1.3-0.8-1.3h-13.5c-1.4-0.1-1.8-0.7-1.2-1.8c0-0.1,0.4-1,1.3-2.6h-5.8c-0.5,0-0.9-0.3-1-1
		c0.1-0.7,0.4-1,1.1-1.1h23.8c0.8,0.1,1.2,0.4,1.3,1.1C515.1,649.2,514.6,649.5,513.9,649.5z M512.5,639v4.2c0,1.4-0.7,2.1-1.9,2
		h-16.9c-1.3,0-2-0.7-2-1.9V639c0-1.1,0.7-1.8,2-1.8h16.8C511.9,637.2,512.5,637.8,512.5,639z M493.7,639.9v2.5
		c-0.1,0.4,0.2,0.5,0.8,0.5h15.1c0.5,0.1,0.9-0.2,0.9-0.9v-2c0-0.5-0.2-0.9-0.8-0.9h-15.2C494,639.4,493.7,639.5,493.7,639.9z"/>
	<path d="M534.4,659.2c1.5,1.6,1.8,2.6,0.8,3c-0.2,0.1-0.4,0.2-0.8,0.1c-0.7-0.1-1.5-0.5-2.3-1.5c-2.9-2.6-4.3-6.5-4.3-11.3
		c0.1-4.8,2.1-8.9,5.9-12.2c0.4-0.4,1.1-0.8,1.8-0.9c0.2,0,0.4,0.1,0.9,0.4c0.4,0.7,0.2,1.4-1,2.2c-3.3,2.7-4.9,6.3-4.9,10.4
		C530.5,653.3,531.8,656.6,534.4,659.2z"/>
	<path d="M549.8,637.4v4.6h2.6c0.4,0.1,0.7,0.4,0.8,1c-0.1,0.7-0.3,1-0.8,1h-2.6v4.2c0.1,0,0.3-0.2,0.9-0.5c0.4-0.3,0.7-0.4,0.9-0.5
		c0.4-0.3,1-0.3,1.4,0.2c0.3,0.5,0.2,1.1-0.3,1.5c-0.8,0.7-1.6,1.2-2.7,1.6v8.6c0.1,2.6-1.4,3.6-4.6,2.9c-0.7-0.2-1-0.7-1-1.4
		c0.2-0.7,0.7-0.9,1.4-0.7c1.5,0.4,2.2,0.1,2.1-0.9v-7.7c-0.5,0.3-1.4,0.5-2.7,1c-0.8,0.2-1.3,0-1.5-0.7c-0.1-0.7,0.1-1.1,0.9-1.4
		c1.3-0.3,2.5-0.8,3.4-1.2v-5.1h-3.4c-0.5,0-0.8-0.3-0.9-1c0.1-0.5,0.3-0.9,0.9-1h3.4v-4.6c0-0.5,0.3-0.9,1-1
		C549.4,636.5,549.7,636.8,549.8,637.4z M562.4,640h3.1c1.6,0.1,2.5,0.8,2.5,2v6c0,1.5-0.7,2.3-1.9,2.2h-9.9
		c-0.2,4.5-1.4,8.1-3.6,11c-0.5,0.7-1.2,0.9-1.8,0.5c-0.5-0.5-0.5-1.1,0-1.8c2.3-2.7,3.5-6.6,3.4-11.5V642c-0.1-1.3,0.7-2,2.1-2h3.5
		c-0.4-0.7-0.8-1.3-1.1-1.9c-0.3-0.5-0.2-1.1,0.3-1.5c0.7-0.3,1.2-0.2,1.5,0.3s0.5,1.2,1,1.9C562,639.4,562.2,639.8,562.4,640z
		 M556.3,642.6v6h9.2c0.4,0.1,0.7-0.2,0.7-0.9V643c0-0.7-0.3-1-1.1-1h-8.2C556.3,642,556.2,642.1,556.3,642.6z"/>
	<path d="M572.8,644.3c1.3,1.2,2.1,2.1,2.5,2.5c0.4,0.7,0.4,1.3-0.1,1.6s-1,0.2-1.5-0.3c-0.7-0.8-1.5-1.6-2.5-2.5
		c-0.4-0.4-0.4-0.9,0-1.4C571.7,644,572.1,644,572.8,644.3z M576.6,652c-1.3,3.5-2.5,6.3-3.6,8.2c-0.4,0.7-1,0.9-1.6,0.5
		c-0.5-0.3-0.5-0.9-0.1-1.5c1.3-2.4,2.4-5.1,3.4-7.9c0.3-0.7,0.8-1,1.5-0.9C576.7,650.8,576.8,651.2,576.6,652z M573.2,637.4
		c0.9,0.9,1.6,1.5,2.3,2.2c0.3,0.7,0.2,1.2-0.2,1.5c-0.5,0.3-1,0.3-1.4-0.2c-0.9-0.9-1.6-1.6-2.3-2.2c-0.4-0.4-0.4-0.9,0-1.4
		C572.1,637.1,572.7,637.1,573.2,637.4z M595.5,639h-6.2v1.5h3.7c1.4,0,2.1,0.7,2.1,1.9v1.5c0.1,1.3-0.5,2-1.6,1.8h-14.7
		c-1.5,0.1-2.2-0.4-2.1-1.6v-1.8c-0.1-1.1,0.5-1.6,2.1-1.6h3.6v-1.5h-5.5c-0.5,0-0.9-0.3-1-0.9c0.1-0.4,0.4-0.8,1-0.9h18.7
		c0.4,0.1,0.7,0.3,0.8,0.9C596.2,638.7,596,639,595.5,639z M580.6,647.2h11.3c1.3-0.1,2,0.5,2,2v3.7c0,1.6-0.7,2.5-2.1,2.3h-4.8v1.5
		h8.4c0.7,0.1,1,0.4,1.1,1c-0.1,0.7-0.4,1-1.1,1h-8.4v2.2c-0.1,0.7-0.4,1-1,1.1c-0.7,0-1.1-0.3-1.1-0.9v-2.4h-7.7
		c-0.7,0-1.1-0.3-1.1-1c0-0.5,0.3-0.9,1.1-1h7.7v-1.5h-4.9c-1.4,0.1-2.1-0.7-2-2.1v-3.7C577.8,647.9,578.7,647.2,580.6,647.2z
		 M582.3,642.3h-3.4c-0.5,0-0.7,0.2-0.7,0.5v0.8c0,0.3,0.2,0.5,0.7,0.5h3.4V642.3z M579.7,649.5v0.9h12.4v-1c0-0.3-0.2-0.4-0.5-0.5
		h-11.2C579.9,648.8,579.7,649,579.7,649.5z M579.7,652v1.1c0,0.3,0.2,0.4,0.5,0.4h11.4c0.3,0,0.4-0.2,0.4-0.5v-1H579.7z M584.1,639
		v1.5h3.6V639H584.1z M584.1,642.3v1.8h3.6v-1.8H584.1z M593,642.3h-3.6v1.8h3.5c0.4,0.1,0.7-0.1,0.7-0.5v-0.9
		C593.4,642.6,593.2,642.3,593,642.3z"/>
	<path d="M613.8,639.7h8.6c0.7,0.1,1,0.4,1.1,1.1c-0.1,0.7-0.4,1.1-1.1,1.1h-17.9c-1-0.1-1.4,0.4-1.3,1.4v5.1
		c-0.1,6.3-1.1,10.7-3.1,13.1c-0.7,0.5-1.2,0.7-1.8,0.3c-0.4-0.5-0.4-1.1,0.1-1.8c1.9-2.1,2.6-5.8,2.5-11.2v-6.6
		c-0.1-1.6,0.7-2.4,2.4-2.3h7.9c-0.3-0.5-0.5-1.1-0.9-1.6s-0.1-1,0.5-1.4c0.7-0.2,1.1-0.1,1.5,0.4
		C613.1,638.2,613.5,639,613.8,639.7z"/>
	<path d="M630.7,637.7v5.8h2.6c0.7,0.1,1,0.4,1,1.1c0,0.7-0.3,1-1,1h-2.6v7.3c0.2-0.1,0.5-0.3,1-0.7c0.4-0.3,0.8-0.5,1.1-0.8
		c0.7-0.4,1.2-0.4,1.6,0.1c0.3,0.5,0.1,1.1-0.5,1.5c-2.4,1.9-4.7,3.3-6.9,4.3c-0.8,0.3-1.4,0.3-1.8-0.2c-0.2-0.7,0-1.2,0.8-1.5
		c0.1-0.1,0.3-0.1,0.4-0.2c0.5-0.2,1.3-0.7,2.3-1.3v-8.5H626c-0.7,0-1.1-0.3-1.2-1c0.1-0.7,0.4-1,1.2-1.1h2.7v-5.9
		c0-0.5,0.3-0.9,1-0.9C630.2,636.8,630.6,637.2,630.7,637.7z M636.1,637.1h10.4c1,0.1,1.6,0.3,1.9,0.8c0.3,0.5,0.1,1.1-0.4,1.8
		c-1.9,2.1-4.6,4.3-8,6.7h8.2c1.5-0.1,2.3,0.7,2.2,2.3c-0.3,6.6-0.8,10.6-1.5,11.6c-0.7,1.5-2.3,2.1-5.1,1.5
		c-0.8-0.1-1.2-0.5-1.3-1.3c0.1-0.7,0.5-0.9,1.4-0.9c1.8,0.4,2.9,0.1,3.2-1.1c0.4-1,0.9-4.2,1.3-9.6c0-0.5-0.3-0.9-0.9-0.9h-2
		c-1,6-3.6,10.6-8,13.3c-0.7,0.3-1.2,0.3-1.6-0.2s-0.3-1.1,0.2-1.5c4.2-2.6,6.6-6.5,7.5-11.5h-2.9c-1.1,4.4-3.6,7.7-7.6,10.1
		c-0.8,0.3-1.4,0.3-1.8-0.1c-0.3-0.5-0.2-1.1,0.5-1.5c3.4-2.2,5.6-4.9,6.6-8.4h-2.1c-0.5,0-1-0.2-1.2-0.7c-0.1-0.3,0.1-0.7,0.7-1.1
		c4.1-2.5,7.4-5.1,10.1-7.6h-9.7c-0.8,0-1.2-0.3-1.3-1C634.9,637.5,635.3,637.2,636.1,637.1z"/>
	<path d="M660.2,659.2c2.6-2.6,4-5.9,4-9.8c-0.1-4.1-1.8-7.6-5.1-10.4c-1.2-0.9-1.5-1.6-0.9-2.2c0.2-0.3,0.4-0.4,0.9-0.4
		c0.7,0.1,1.2,0.3,1.8,0.9c3.8,3.4,5.8,7.5,5.9,12.2c0,4.7-1.4,8.6-4.3,11.3c-1,0.9-1.8,1.4-2.4,1.5c-0.2,0.1-0.4,0-0.7-0.1
		C658.4,661.8,658.6,660.8,660.2,659.2z"/>
</g>
<g>
	<path class="st0" d="M467.3,243.8c-2.7-1.4-5.9-2.3-9.2-2.3c-5.9,0-11.2,2.6-14.7,6.6c-3.5-4.1-8.8-6.6-14.7-6.6
		c-3.3,0-6.5,0.9-9.2,2.3c-5.9,3.1-9.9,9.1-9.9,16c0,2,0.3,3.8,1,5.7c3.3,14.2,24.2,32,32.9,32c8.5,0,29.6-17.8,32.9-32
		c0.7-1.8,1-3.6,1-5.7C477.1,253,473.2,247,467.3,243.8z M471,264c-0.2,0.5-0.7,0.9-1.2,0.9c-0.1,0-0.2,0-0.4,0
		c-0.7-0.2-1-1-0.8-1.6c0.3-1.1,0.5-2.2,0.5-3.2c0-3.8-2.2-7.4-5.7-9.2c-1.6-0.9-3.5-1.3-5.4-1.3c-0.8,0-1.3-0.5-1.3-1.3
		c0-0.7,0.5-1.3,1.3-1.3c2.3,0,4.5,0.5,6.6,1.6c4.4,2.3,7,6.7,7,11.5C471.7,261.3,471.4,262.6,471,264z"/>
</g>
</svg>
