<svg id="图层_1" data-name="图层 1" xmlns="http://www.w3.org/2000/svg" viewBox="0 0 264.27 174.2"><defs><style>.cls-1{fill:#00a0e9;}.cls-2{fill:#fff;}</style></defs><title>zi</title><path class="cls-1" d="M73.66,56.46a.38.38,0,0,0-.48,0H70.51a.38.38,0,0,0-.52,0H67.32a.38.38,0,0,0-.48,0H64.17a.38.38,0,0,0-.48,0H61a.38.38,0,0,0-.48,0H57.87a.38.38,0,0,1-.37-.37V53.42a.38.38,0,0,0,0-.48V50.27a.38.38,0,0,0,0-.48V47.12a.37.37,0,0,1,.11-.26.37.37,0,0,1-.11-.26V43.92a.37.37,0,0,1,.09-.24.38.38,0,0,1-.09-.24V40.78a.38.38,0,0,1,.09-.24.37.37,0,0,1-.09-.24V37.63a.37.37,0,0,1,.09-.24.38.38,0,0,1-.09-.24V34.48a.38.38,0,0,1,.38-.37h2.67a.38.38,0,0,0,.48,0h2.67a.38.38,0,0,0,.48,0h2.67a.38.38,0,0,0,.48,0H70a.38.38,0,0,0,.52,0h2.67a.38.38,0,0,0,.48,0h2.67a.38.38,0,0,1,.38.38v2.67a.38.38,0,0,1,0,.12l.12,0h2.67a.38.38,0,0,1,.38.38V40.3a.37.37,0,0,1-.09.24.38.38,0,0,1,.09.24v2.67a.38.38,0,0,1-.09.24.37.37,0,0,1,.09.24V46.6a.37.37,0,0,1-.11.26.37.37,0,0,1,.11.26v2.67a.38.38,0,0,0,0,.48v2.67a.38.38,0,0,1-.37.38H76.81l-.12,0a.38.38,0,0,1,0,.12v2.67a.38.38,0,0,1-.37.38ZM70,53a.38.38,0,0,0,.52,0h2.67l.12,0a.38.38,0,0,1,0-.12V50.27a.38.38,0,0,0,0-.48V47.12a.37.37,0,0,1,.11-.26.37.37,0,0,1-.11-.26V43.92a.37.37,0,0,1,.09-.24.38.38,0,0,1-.09-.24V40.78a.38.38,0,0,1,.09-.24.37.37,0,0,1-.09-.24V37.63a.38.38,0,0,1,0-.12l-.12,0H70.51a.38.38,0,0,0-.52,0H67.32a.38.38,0,0,0-.48,0H64.17l-.12,0a.38.38,0,0,1,0,.12V40.3a.37.37,0,0,1-.09.24.38.38,0,0,1,.09.24v2.67a.38.38,0,0,1-.09.24.37.37,0,0,1,.09.24V46.6a.37.37,0,0,1-.11.26.37.37,0,0,1,.11.26v2.67a.38.38,0,0,0,0,.48v2.67a.38.38,0,0,1,0,.12l.12,0h2.67a.38.38,0,0,0,.48,0Z" transform="translate(-14.58 -4.18)"/><path class="cls-2" d="M76.33,34.48v2.67H73.66V34.48h2.67m-3.15,0v2.67H70.51V34.48h2.67m-3.2,0v2.67H67.32V34.48H70m-3.15,0v2.67H64.17V34.48h2.67m-3.15,0v2.67H61V34.48h2.67m-3.15,0v2.67H57.87V34.48h2.67m18.94,3.15V40.3H76.81V37.63h2.67m-3.15,0V40.3H73.66V37.63h2.67m-12.64,0V40.3H61V37.63h2.67m-3.15,0V40.3H57.87V37.63h2.67m18.94,3.15v2.67H76.81V40.78h2.67m-3.15,0v2.67H73.66V40.78h2.67m-12.64,0v2.67H61V40.78h2.67m-3.15,0v2.67H57.87V40.78h2.67m18.94,3.15V46.6H76.81V43.92h2.67m-3.15,0V46.6H73.66V43.92h2.67m-12.64,0V46.6H61V43.92h2.67m-3.15,0V46.6H57.87V43.92h2.67m18.94,3.2v2.67H76.81V47.12h2.67m-3.15,0v2.67H73.66V47.12h2.67m-12.64,0v2.67H61V47.12h2.67m-3.15,0v2.67H57.87V47.12h2.67m18.94,3.15v2.67H76.81V50.27h2.67m-3.15,0v2.67H73.66V50.27h2.67m-12.64,0v2.67H61V50.27h2.67m-3.15,0v2.67H57.87V50.27h2.67m15.79,3.15v2.67H73.66V53.42h2.67m-3.15,0v2.67H70.51V53.42h2.67m-3.2,0v2.67H67.32V53.42H70m-3.15,0v2.67H64.17V53.42h2.67m-3.15,0v2.67H61V53.42h2.67m-3.15,0v2.67H57.87V53.42h2.67M76.33,33.73H73.66a.75.75,0,0,1-.48,0H70.51a.75.75,0,0,1-.52,0H67.32a.75.75,0,0,1-.48,0H64.17a.75.75,0,0,1-.48,0H61a.75.75,0,0,1-.48,0H57.87a.75.75,0,0,0-.75.75v2.67a.75.75,0,0,0,0,.24.75.75,0,0,0,0,.24V40.3a.75.75,0,0,0,0,.24.75.75,0,0,0,0,.24v2.67a.75.75,0,0,0,0,.24.75.75,0,0,0,0,.24V46.6a.75.75,0,0,0,0,.26.75.75,0,0,0,0,.26v2.67a.75.75,0,0,1,0,.48v2.67a.75.75,0,0,1,0,.48v2.67a.75.75,0,0,0,.75.75h2.67a.75.75,0,0,1,.48,0h2.67a.75.75,0,0,1,.48,0h2.67a.75.75,0,0,1,.48,0H70a.75.75,0,0,1,.52,0h2.67a.75.75,0,0,1,.48,0h2.67a.75.75,0,0,0,.75-.75v-2.4h2.4a.75.75,0,0,0,.75-.75V50.27a.75.75,0,0,1,0-.48V47.12a.75.75,0,0,0,0-.26.75.75,0,0,0,0-.26V43.92a.75.75,0,0,0,0-.24.75.75,0,0,0,0-.24V40.78a.75.75,0,0,0,0-.24.75.75,0,0,0,0-.24V37.63a.75.75,0,0,0-.75-.75h-2.4v-2.4a.75.75,0,0,0-.75-.75Zm-9,4.17H70a.75.75,0,0,1,.52,0h2.4v2.4a.75.75,0,0,0,0,.24.75.75,0,0,0,0,.24v2.67a.75.75,0,0,0,0,.24.75.75,0,0,0,0,.24V46.6a.75.75,0,0,0,0,.26.75.75,0,0,0,0,.26v2.67a.75.75,0,0,1,0,.48v2.4h-2.4a.75.75,0,0,1-.52,0H67.32a.75.75,0,0,1-.48,0h-2.4v-2.4a.75.75,0,0,1,0-.48V47.12a.75.75,0,0,0,0-.26.75.75,0,0,0,0-.26V43.92a.75.75,0,0,0,0-.24.75.75,0,0,0,0-.24V40.78a.75.75,0,0,0,0-.24.75.75,0,0,0,0-.24V37.9h2.4a.75.75,0,0,1,.48,0Z" transform="translate(-14.58 -4.18)"/><path class="cls-1" d="M101.62,56.46a.38.38,0,0,0-.48,0H98.47a.38.38,0,0,1-.37-.37V53.42a.38.38,0,0,0,0-.48V50.27a.38.38,0,0,1,0-.12l-.12,0H95.32a.38.38,0,0,0-.52,0H92.12a.38.38,0,0,0-.48,0H89l-.12,0a.38.38,0,0,1,0,.12v2.67a.38.38,0,0,0,0,.48v2.67a.38.38,0,0,1-.37.38H85.83a.38.38,0,0,0-.48,0H82.68a.38.38,0,0,1-.37-.37V53.42a.38.38,0,0,0,0-.48V50.27a.38.38,0,0,0,0-.48V47.12a.37.37,0,0,1,.11-.26.37.37,0,0,1-.11-.26V43.92a.37.37,0,0,1,.09-.24.38.38,0,0,1-.09-.24V40.78a.38.38,0,0,1,.38-.37h2.67l.12,0a.38.38,0,0,1,0-.12V37.63a.38.38,0,0,1,.38-.37H88.5l.12,0a.38.38,0,0,1,0-.12V34.48A.38.38,0,0,1,89,34.1h2.67a.38.38,0,0,0,.48,0H94.8a.38.38,0,0,0,.52,0H98a.38.38,0,0,1,.38.38v2.67a.38.38,0,0,1,0,.12l.12,0h2.67a.38.38,0,0,1,.38.38V40.3a.38.38,0,0,1,0,.12l.12,0h2.67a.38.38,0,0,1,.38.38v2.67a.38.38,0,0,1-.09.24.37.37,0,0,1,.09.24V46.6a.37.37,0,0,1-.11.26.37.37,0,0,1,.11.26v2.67a.38.38,0,0,0,0,.48v2.67a.38.38,0,0,0,0,.48v2.67a.38.38,0,0,1-.37.38ZM94.8,46.75a.38.38,0,0,0,.52,0H98a.37.37,0,0,1,.15,0,.37.37,0,0,1,0-.18V43.92a.37.37,0,0,1,.09-.24.38.38,0,0,1-.09-.24V40.78a.38.38,0,0,1,0-.12l-.12,0H95.32a.38.38,0,0,1-.37-.37V37.63a.37.37,0,0,1,0-.15.37.37,0,0,1-.18,0H92.12l-.12,0a.38.38,0,0,1,0,.12V40.3a.38.38,0,0,1-.37.38H89l-.12,0a.38.38,0,0,1,0,.12v2.67a.38.38,0,0,1-.09.24.37.37,0,0,1,.09.24V46.6a.37.37,0,0,1,0,.18.37.37,0,0,1,.15,0h2.67a.38.38,0,0,0,.48,0Z" transform="translate(-14.58 -4.18)"/><path class="cls-2" d="M98,34.48v2.67H95.32V34.48H98m-3.2,0v2.67H92.12V34.48H94.8m-3.15,0v2.67H89V34.48h2.67m9.49,3.15V40.3H98.47V37.63h2.67m-3.15,0V40.3H95.32V37.63H98m-6.35,0V40.3H89V37.63h2.67m-3.15,0V40.3H85.83V37.63H88.5m15.79,3.15v2.67h-2.67V40.78h2.67m-3.15,0v2.67H98.47V40.78h2.67m-12.64,0v2.67H85.83V40.78H88.5m-3.15,0v2.67H82.68V40.78h2.67m18.94,3.15V46.6h-2.67V43.92h2.67m-3.15,0V46.6H98.47V43.92h2.67m-12.64,0V46.6H85.83V43.92H88.5m-3.15,0V46.6H82.68V43.92h2.67m18.94,3.2v2.67h-2.67V47.12h2.67m-3.15,0v2.67H98.47V47.12h2.67m-3.15,0v2.67H95.32V47.12H98m-3.2,0v2.67H92.12V47.12H94.8m-3.15,0v2.67H89V47.12h2.67m-3.15,0v2.67H85.83V47.12H88.5m-3.15,0v2.67H82.68V47.12h2.67m18.94,3.15v2.67h-2.67V50.27h2.67m-3.15,0v2.67H98.47V50.27h2.67m-12.64,0v2.67H85.83V50.27H88.5m-3.15,0v2.67H82.68V50.27h2.67m18.94,3.15v2.67h-2.67V53.42h2.67m-3.15,0v2.67H98.47V53.42h2.67m-12.64,0v2.67H85.83V53.42H88.5m-3.15,0v2.67H82.68V53.42h2.67M98,33.73H95.32a.75.75,0,0,1-.52,0H92.12a.75.75,0,0,1-.48,0H89a.75.75,0,0,0-.75.75v2.4h-2.4a.75.75,0,0,0-.75.75V40h-2.4a.75.75,0,0,0-.75.75v2.67a.75.75,0,0,0,0,.24.75.75,0,0,0,0,.24V46.6a.75.75,0,0,0,0,.26.75.75,0,0,0,0,.26v2.67a.75.75,0,0,1,0,.48v2.67a.75.75,0,0,1,0,.48v2.67a.75.75,0,0,0,.75.75h2.67a.75.75,0,0,1,.48,0H88.5a.75.75,0,0,0,.75-.75V53.42a.75.75,0,0,1,0-.48v-2.4h2.4a.75.75,0,0,1,.48,0H94.8a.75.75,0,0,1,.52,0h2.4v2.4a.75.75,0,0,1,0,.48v2.67a.75.75,0,0,0,.75.75h2.67a.75.75,0,0,1,.48,0h2.67a.75.75,0,0,0,.75-.75V53.42a.75.75,0,0,1,0-.48V50.27a.75.75,0,0,1,0-.48V47.12a.75.75,0,0,0,0-.26.75.75,0,0,0,0-.26V43.92a.75.75,0,0,0,0-.24.75.75,0,0,0,0-.24V40.78a.75.75,0,0,0-.75-.75h-2.4v-2.4a.75.75,0,0,0-.75-.75h-2.4v-2.4a.75.75,0,0,0-.75-.75ZM92.4,37.9h2.17v2.4a.75.75,0,0,0,.75.75h2.4v2.4a.75.75,0,0,0,0,.24.75.75,0,0,0,0,.24v2.45h-2.4a.75.75,0,0,1-.52,0H92.12a.75.75,0,0,1-.48,0h-2.4V43.92a.75.75,0,0,0,0-.24.75.75,0,0,0,0-.24V41h2.4a.75.75,0,0,0,.75-.75V37.9Z" transform="translate(-14.58 -4.18)"/><path class="cls-1" d="M123.28,56.46a.37.37,0,0,0-.48,0h-2.67a.37.37,0,0,0-.52,0h-2.67a.37.37,0,0,0-.48,0h-2.67a.37.37,0,0,0-.48,0h-2.67a.37.37,0,0,0-.48,0h-2.67a.38.38,0,0,1-.37-.37V53.42a.38.38,0,0,1,.38-.37h2.67a.37.37,0,0,0,.48,0h2.67l.12,0a.38.38,0,0,1,0-.12V50.27a.38.38,0,0,0,0-.48V47.12a.37.37,0,0,1,.11-.26.37.37,0,0,1-.11-.26V43.92a.37.37,0,0,1,.09-.24.38.38,0,0,1-.09-.24V40.78a.38.38,0,0,1,.09-.24.37.37,0,0,1-.09-.24V37.63a.38.38,0,0,1,0-.12l-.12,0h-2.67a.37.37,0,0,0-.48,0h-2.67a.38.38,0,0,1-.37-.37V34.48a.38.38,0,0,1,.38-.37h2.67a.37.37,0,0,0,.48,0h2.67a.37.37,0,0,0,.48,0h2.67a.37.37,0,0,0,.48,0h2.67a.37.37,0,0,0,.52,0h2.67a.37.37,0,0,0,.48,0h2.67a.38.38,0,0,1,.38.38v2.67a.38.38,0,0,1-.37.38h-2.67a.37.37,0,0,0-.48,0h-2.67a.37.37,0,0,1-.18,0,.37.37,0,0,1,0,.15V40.3a.37.37,0,0,1-.09.24.38.38,0,0,1,.09.24v2.67a.38.38,0,0,1-.09.24.37.37,0,0,1,.09.24V46.6a.37.37,0,0,1-.11.26.37.37,0,0,1,.11.26v2.67a.38.38,0,0,0,0,.48v2.67a.1.1,0,1,0,.15.1h2.67a.37.37,0,0,0,.48,0h2.67a.38.38,0,0,1,.38.38v2.67a.38.38,0,0,1-.37.38Z" transform="translate(-14.58 -4.18)"/><path class="cls-2" d="M125.95,34.48v2.67h-2.67V34.48h2.67m-3.15,0v2.67h-2.67V34.48h2.67m-3.2,0v2.67h-2.67V34.48h2.67m-3.15,0v2.67h-2.67V34.48h2.67m-3.15,0v2.67h-2.67V34.48h2.67m-3.15,0v2.67h-2.67V34.48h2.67m9.45,3.15V40.3h-2.67V37.63h2.67m-3.15,0V40.3h-2.67V37.63h2.67m3.15,3.15v2.67h-2.67V40.78h2.67m-3.15,0v2.67h-2.67V40.78h2.67m3.15,3.15V46.6h-2.67V43.92h2.67m-3.15,0V46.6h-2.67V43.92h2.67m3.15,3.2v2.67h-2.67V47.12h2.67m-3.15,0v2.67h-2.67V47.12h2.67m3.15,3.15v2.67h-2.67V50.27h2.67m-3.15,0v2.67h-2.67V50.27h2.67m9.49,3.15v2.67h-2.67V53.42h2.67m-3.15,0v2.67h-2.67V53.42h2.67m-3.2,0v2.67h-2.67V53.42h2.67m-3.15,0v2.67h-2.67V53.42h2.67m-3.15,0v2.67h-2.67V53.42h2.67m-3.15,0v2.67h-2.67V53.42h2.67m15.79-19.69h-2.67a.75.75,0,0,1-.48,0h-2.67a.75.75,0,0,1-.52,0h-2.67a.75.75,0,0,1-.48,0h-2.67a.75.75,0,0,1-.48,0h-2.67a.75.75,0,0,1-.48,0h-2.67a.75.75,0,0,0-.75.75v2.67a.75.75,0,0,0,.75.75h2.67a.75.75,0,0,1,.48,0H113v2.4a.75.75,0,0,0,0,.24.75.75,0,0,0,0,.24v2.67a.75.75,0,0,0,0,.24.75.75,0,0,0,0,.24V46.6a.75.75,0,0,0,0,.26.75.75,0,0,0,0,.26v2.67a.75.75,0,0,1,0,.48v2.4h-2.4a.75.75,0,0,1-.48,0h-2.67a.75.75,0,0,0-.75.75v2.67a.75.75,0,0,0,.75.75h2.67a.75.75,0,0,1,.48,0h2.67a.75.75,0,0,1,.48,0h2.67a.75.75,0,0,1,.48,0h2.67a.75.75,0,0,1,.52,0h2.67a.75.75,0,0,1,.48,0h2.67a.75.75,0,0,0,.75-.75V53.42a.75.75,0,0,0-.75-.75h-2.67a.75.75,0,0,1-.48,0h-2.45v-2.4a.75.75,0,0,1,0-.48V47.12a.75.75,0,0,0,0-.26.75.75,0,0,0,0-.26V43.92a.75.75,0,0,0,0-.24.75.75,0,0,0,0-.24V40.78a.75.75,0,0,0,0-.24.75.75,0,0,0,0-.24V37.9h2.45a.75.75,0,0,1,.48,0h2.67a.75.75,0,0,0,.75-.75V34.48a.75.75,0,0,0-.75-.75Z" transform="translate(-14.58 -4.18)"/><path class="cls-1" d="M147.8,56.46a.38.38,0,0,1-.37-.37V53.42a.1.1,0,1,0-.15-.1H144.6l-.12,0a.38.38,0,0,1,0,.12v2.67a.38.38,0,0,1-.37.38h-2.67a.37.37,0,0,0-.48,0H138.3a.38.38,0,0,1-.37-.37V53.42a.38.38,0,0,1,0-.12l-.12,0h-2.67a.38.38,0,0,1-.37-.37V50.27a.38.38,0,0,0,0-.48V47.12a.38.38,0,0,1,.38-.37h2.67a.38.38,0,0,1,.15,0,.38.38,0,0,1,0-.18V43.92a.38.38,0,0,1,0-.12l-.12,0h-2.67a.38.38,0,0,1-.37-.37V40.78a.38.38,0,0,1,.09-.24.37.37,0,0,1-.09-.24V37.63a.38.38,0,0,1,.38-.37h2.67l.12,0a.38.38,0,0,1,0-.12V34.48a.38.38,0,0,1,.38-.37H141a.37.37,0,0,0,.48,0h2.67a.38.38,0,0,1,.38.38v2.67a.38.38,0,0,1,0,.12l.12,0h2.67a.38.38,0,0,1,.38.38V40.3a.38.38,0,0,1-.37.38H144.6l-.12,0a.38.38,0,0,1,0,.12v2.67a.38.38,0,0,1-.37.38h-2.67l-.12,0a.38.38,0,0,1,0,.12V46.6a.37.37,0,0,1,0,.18.37.37,0,0,1,.15,0h2.67a.38.38,0,0,1,.38.38v2.67a.38.38,0,0,1,0,.12l.12,0h2.67a.1.1,0,1,0,.15-.1V47.12a.38.38,0,0,1,.38-.37h2.67a.38.38,0,0,1,.38.38v2.67a.38.38,0,0,1-.37.38H147.8a.1.1,0,1,0-.15.1v2.67a.1.1,0,1,0,.15.1h2.67a.38.38,0,0,1,.38.38v2.67a.38.38,0,0,1-.37.38ZM141,53a.37.37,0,0,0,.48,0h2.67l.12,0a.38.38,0,0,1,0-.12V50.27a.38.38,0,0,1,0-.12l-.12,0h-2.67a.38.38,0,0,1-.37-.37V47.12a.37.37,0,0,1,0-.18.37.37,0,0,1-.15,0H138.3a.38.38,0,0,1-.15,0,.38.38,0,0,1,0,.18v2.67a.38.38,0,0,0,0,.48v2.67a.38.38,0,0,1,0,.12l.12,0Zm0-9.49.12,0a.38.38,0,0,1,0-.12V40.78a.38.38,0,0,1,.38-.37h2.67l.12,0a.38.38,0,0,1,0-.12V37.63a.38.38,0,0,1,0-.12l-.12,0h-2.67a.37.37,0,0,0-.48,0H138.3l-.12,0a.38.38,0,0,1,0,.12V40.3a.37.37,0,0,1-.09.24.38.38,0,0,1,.09.24v2.67a.38.38,0,0,1,0,.12l.12,0Z" transform="translate(-14.58 -4.18)"/><path class="cls-2" d="M144.13,34.48v2.67h-2.67V34.48h2.67m-3.15,0v2.67H138.3V34.48H141m6.3,3.15V40.3H144.6V37.63h2.67m-9.45,0V40.3h-2.67V37.63h2.67m6.3,3.15v2.67h-2.67V40.78h2.67m-6.3,0v2.67h-2.67V40.78h2.67M141,43.92V46.6H138.3V43.92H141m9.49,3.2v2.67H147.8V47.12h2.67m-6.34,0v2.67h-2.67V47.12h2.67m-6.3,0v2.67h-2.67V47.12h2.67m9.45,3.15v2.67H144.6V50.27h2.67m-9.45,0v2.67h-2.67V50.27h2.67m12.64,3.15v2.67H147.8V53.42h2.67m-6.34,0v2.67h-2.67V53.42h2.67m-3.15,0v2.67H138.3V53.42H141m3.15-19.69h-2.67a.75.75,0,0,1-.48,0H138.3a.75.75,0,0,0-.75.75v2.4h-2.4a.75.75,0,0,0-.75.75V40.3a.75.75,0,0,0,0,.24.75.75,0,0,0,0,.24v2.67a.75.75,0,0,0,.75.75h2.4v2.17h-2.4a.75.75,0,0,0-.75.75v2.67a.75.75,0,0,1,0,.48v2.67a.75.75,0,0,0,.75.75h2.4v2.4a.75.75,0,0,0,.75.75H141a.75.75,0,0,1,.48,0h2.67a.75.75,0,0,0,.75-.75v-2.4H147v2.4a.75.75,0,0,0,.75.75h2.67a.75.75,0,0,0,.75-.75V53.42a.75.75,0,0,0-.75-.75H148V50.54h2.45a.75.75,0,0,0,.75-.75V47.12a.75.75,0,0,0-.75-.75H147.8a.75.75,0,0,0-.75.75v2.4h-2.17v-2.4a.75.75,0,0,0-.75-.75h-2.4V44.2h2.4a.75.75,0,0,0,.75-.75V41h2.4a.75.75,0,0,0,.75-.75V37.63a.75.75,0,0,0-.75-.75h-2.4v-2.4a.75.75,0,0,0-.75-.75Zm-5.55,4.17H141a.75.75,0,0,1,.48,0h2.4V40h-2.4a.75.75,0,0,0-.75.75v2.4h-2.13v-2.4a.75.75,0,0,0,0-.24.75.75,0,0,0,0-.24V37.9Zm0,9.45h2.13v2.45a.75.75,0,0,0,.75.75h2.4v2.13h-2.4a.75.75,0,0,1-.48,0h-2.4v-2.4a.75.75,0,0,1,0-.48V47.35Z" transform="translate(-14.58 -4.18)"/><path class="cls-1" d="M177,56.46a.37.37,0,0,1-.24-.09.38.38,0,0,1-.24.09h-2.67a.38.38,0,0,1-.24-.09.37.37,0,0,1-.24.09H170.7a.37.37,0,0,1-.26-.11.37.37,0,0,1-.26.11H167.5a.37.37,0,0,0-.48,0h-2.67a.38.38,0,0,1-.24-.09.37.37,0,0,1-.24.09h-2.67a.37.37,0,0,0-.48,0h-2.67a.38.38,0,0,1-.37-.37V53.42a.37.37,0,0,0,0-.48V50.27a.37.37,0,0,0,0-.48V47.12a.38.38,0,0,1,.11-.26.38.38,0,0,1-.11-.26V43.92a.37.37,0,0,1,.09-.24.37.37,0,0,1-.09-.24V40.78a.37.37,0,0,1,.09-.24.37.37,0,0,1-.09-.24V37.63a.37.37,0,0,1,.09-.24.37.37,0,0,1-.09-.24V34.48a.38.38,0,0,1,.38-.37h2.67a.37.37,0,0,0,.48,0h2.67a.38.38,0,0,1,.38.38v2.67a.37.37,0,0,1-.09.24.37.37,0,0,1,.09.24V40.3a.37.37,0,0,1-.09.24.37.37,0,0,1,.09.24v2.67a.37.37,0,0,1-.09.24.37.37,0,0,1,.09.24V46.6a.38.38,0,0,1-.11.26.38.38,0,0,1,.11.26v2.67a.37.37,0,0,0,0,.48v2.67a.36.36,0,0,1,0,.12l.12,0H167a.37.37,0,0,0,.48,0h2.67a.37.37,0,0,1,.26.11.37.37,0,0,1,.26-.11h2.67a.37.37,0,0,1,.24.09.38.38,0,0,1,.24-.09h2.67a.38.38,0,0,1,.24.09A.37.37,0,0,1,177,53h2.67a.38.38,0,0,1,.38.38v2.67a.38.38,0,0,1-.37.38Z" transform="translate(-14.58 -4.18)"/><path class="cls-2" d="M163.88,34.48v2.67h-2.67V34.48h2.67m-3.15,0v2.67h-2.67V34.48h2.67m3.15,3.15V40.3h-2.67V37.63h2.67m-3.15,0V40.3h-2.67V37.63h2.67m3.15,3.15v2.67h-2.67V40.78h2.67m-3.15,0v2.67h-2.67V40.78h2.67m3.15,3.15V46.6h-2.67V43.92h2.67m-3.15,0V46.6h-2.67V43.92h2.67m3.15,3.2v2.67h-2.67V47.12h2.67m-3.15,0v2.67h-2.67V47.12h2.67m3.15,3.15v2.67h-2.67V50.27h2.67m-3.15,0v2.67h-2.67V50.27h2.67m18.94,3.15v2.67H177V53.42h2.67m-3.15,0v2.67h-2.67V53.42h2.67m-3.15,0v2.67H170.7V53.42h2.67m-3.2,0v2.67H167.5V53.42h2.67m-3.15,0v2.67h-2.67V53.42H167m-3.15,0v2.67h-2.67V53.42h2.67m-3.15,0v2.67h-2.67V53.42h2.67m3.15-19.69h-2.67a.75.75,0,0,1-.48,0h-2.67a.75.75,0,0,0-.75.75v2.67a.75.75,0,0,0,0,.24.75.75,0,0,0,0,.24V40.3a.75.75,0,0,0,0,.24.75.75,0,0,0,0,.24v2.67a.75.75,0,0,0,0,.24.75.75,0,0,0,0,.24V46.6a.75.75,0,0,0,0,.26.75.75,0,0,0,0,.26v2.67a.75.75,0,0,1,0,.48v2.67a.75.75,0,0,1,0,.48v2.67a.75.75,0,0,0,.75.75h2.67a.75.75,0,0,1,.48,0h2.67a.75.75,0,0,1,.48,0H167a.75.75,0,0,1,.48,0h2.67a.75.75,0,0,1,.52,0h2.67a.75.75,0,0,1,.48,0h2.67a.75.75,0,0,1,.48,0h2.67a.75.75,0,0,0,.75-.75V53.42a.75.75,0,0,0-.75-.75H177a.75.75,0,0,1-.48,0h-2.67a.75.75,0,0,1-.48,0H170.7a.75.75,0,0,1-.52,0H167.5a.75.75,0,0,1-.48,0h-2.4v-2.4a.75.75,0,0,1,0-.48V47.12a.75.75,0,0,0,0-.26.75.75,0,0,0,0-.26V43.92a.75.75,0,0,0,0-.24.75.75,0,0,0,0-.24V40.78a.75.75,0,0,0,0-.24.75.75,0,0,0,0-.24V37.63a.75.75,0,0,0,0-.24.75.75,0,0,0,0-.24V34.48a.75.75,0,0,0-.75-.75Z" transform="translate(-14.58 -4.18)"/><path class="cls-1" d="M198.66,56.46a.37.37,0,0,1-.24-.09.38.38,0,0,1-.24.09h-2.67a.37.37,0,0,1-.26-.11.37.37,0,0,1-.26.11h-2.67a.37.37,0,0,0-.48,0h-2.67a.37.37,0,0,1-.24-.09.38.38,0,0,1-.24.09H186a.37.37,0,0,0-.48,0h-2.67a.38.38,0,0,1-.37-.37V53.42a.38.38,0,0,1,.38-.37h2.67a.37.37,0,0,0,.48,0h2.67l.12,0a.36.36,0,0,1,0-.12V50.27a.37.37,0,0,0,0-.48V47.12a.38.38,0,0,1,.11-.26.38.38,0,0,1-.11-.26V43.92a.37.37,0,0,1,.09-.24.37.37,0,0,1-.09-.24V40.78a.37.37,0,0,1,.09-.24.37.37,0,0,1-.09-.24V37.63a.36.36,0,0,1,0-.12l-.12,0H186a.37.37,0,0,0-.48,0h-2.67a.38.38,0,0,1-.37-.37V34.48a.38.38,0,0,1,.38-.37h2.67a.37.37,0,0,0,.48,0h2.67a.38.38,0,0,1,.24.09.37.37,0,0,1,.24-.09h2.67a.37.37,0,0,0,.48,0H195a.37.37,0,0,1,.26.11.37.37,0,0,1,.26-.11h2.67a.38.38,0,0,1,.24.09.37.37,0,0,1,.24-.09h2.67a.38.38,0,0,1,.38.38v2.67a.38.38,0,0,1-.37.38h-2.67a.37.37,0,0,1-.24-.09.38.38,0,0,1-.24.09h-2.67a.37.37,0,0,1-.18,0,.37.37,0,0,1,0,.15V40.3a.37.37,0,0,1-.09.24.37.37,0,0,1,.09.24v2.67a.37.37,0,0,1-.09.24.37.37,0,0,1,.09.24V46.6a.38.38,0,0,1-.11.26.38.38,0,0,1,.11.26v2.67a.37.37,0,0,0,0,.48v2.67a.1.1,0,1,0,.15.1h2.67a.38.38,0,0,1,.24.09.37.37,0,0,1,.24-.09h2.67a.38.38,0,0,1,.38.38v2.67a.38.38,0,0,1-.37.38Z" transform="translate(-14.58 -4.18)"/><path class="cls-2" d="M201.33,34.48v2.67h-2.67V34.48h2.67m-3.15,0v2.67h-2.67V34.48h2.67m-3.2,0v2.67h-2.67V34.48H195m-3.15,0v2.67h-2.67V34.48h2.67m-3.15,0v2.67H186V34.48h2.67m-3.15,0v2.67h-2.67V34.48h2.67M195,37.63V40.3h-2.67V37.63H195m-3.15,0V40.3h-2.67V37.63h2.67M195,40.78v2.67h-2.67V40.78H195m-3.15,0v2.67h-2.67V40.78h2.67M195,43.92V46.6h-2.67V43.92H195m-3.15,0V46.6h-2.67V43.92h2.67m3.15,3.2v2.67h-2.67V47.12H195m-3.15,0v2.67h-2.67V47.12h2.67M195,50.27v2.67h-2.67V50.27H195m-3.15,0v2.67h-2.67V50.27h2.67m9.49,3.15v2.67h-2.67V53.42h2.67m-3.15,0v2.67h-2.67V53.42h2.67m-3.2,0v2.67h-2.67V53.42H195m-3.15,0v2.67h-2.67V53.42h2.67m-3.15,0v2.67H186V53.42h2.67m-3.15,0v2.67h-2.67V53.42h2.67m15.79-19.69h-2.67a.75.75,0,0,1-.48,0h-2.67a.75.75,0,0,1-.52,0h-2.67a.75.75,0,0,1-.48,0h-2.67a.75.75,0,0,1-.48,0H186a.75.75,0,0,1-.48,0h-2.67a.75.75,0,0,0-.75.75v2.67a.75.75,0,0,0,.75.75h2.67a.75.75,0,0,1,.48,0h2.4v2.4a.75.75,0,0,0,0,.24.75.75,0,0,0,0,.24v2.67a.75.75,0,0,0,0,.24.75.75,0,0,0,0,.24V46.6a.75.75,0,0,0,0,.26.75.75,0,0,0,0,.26v2.67a.75.75,0,0,1,0,.48v2.4H186a.75.75,0,0,1-.48,0h-2.67a.75.75,0,0,0-.75.75v2.67a.75.75,0,0,0,.75.75h2.67a.75.75,0,0,1,.48,0h2.67a.75.75,0,0,1,.48,0h2.67a.75.75,0,0,1,.48,0H195a.75.75,0,0,1,.52,0h2.67a.75.75,0,0,1,.48,0h2.67a.75.75,0,0,0,.75-.75V53.42a.75.75,0,0,0-.75-.75h-2.67a.75.75,0,0,1-.48,0h-2.45v-2.4a.75.75,0,0,1,0-.48V47.12a.75.75,0,0,0,0-.26.75.75,0,0,0,0-.26V43.92a.75.75,0,0,0,0-.24.75.75,0,0,0,0-.24V40.78a.75.75,0,0,0,0-.24.75.75,0,0,0,0-.24V37.9h2.45a.75.75,0,0,1,.48,0h2.67a.75.75,0,0,0,.75-.75V34.48a.75.75,0,0,0-.75-.75Z" transform="translate(-14.58 -4.18)"/><path class="cls-1" d="M223.46,56.46a.37.37,0,0,1-.24-.09.38.38,0,0,1-.24.09h-2.67a.37.37,0,0,1-.26-.11.37.37,0,0,1-.26.11h-2.67a.37.37,0,0,0-.48,0H214a.37.37,0,0,1-.24-.09.38.38,0,0,1-.24.09h-2.67a.38.38,0,0,1-.37-.37V53.42a.36.36,0,0,1,0-.12l-.12,0h-2.67a.38.38,0,0,1-.37-.37V50.27a.37.37,0,0,0,0-.48V47.12a.38.38,0,0,1,.11-.26.38.38,0,0,1-.11-.26V43.92a.37.37,0,0,1,.09-.24.37.37,0,0,1-.09-.24V40.78a.37.37,0,0,1,.09-.24.37.37,0,0,1-.09-.24V37.63a.37.37,0,0,1,.09-.24.37.37,0,0,1-.09-.24V34.48a.38.38,0,0,1,.38-.37h2.67a.37.37,0,0,0,.48,0h2.67a.38.38,0,0,1,.38.38v2.67a.37.37,0,0,1-.09.24.37.37,0,0,1,.09.24V40.3a.37.37,0,0,1-.09.24.37.37,0,0,1,.09.24v2.67a.37.37,0,0,1-.09.24.37.37,0,0,1,.09.24V46.6a.38.38,0,0,1-.11.26.38.38,0,0,1,.11.26v2.67a.37.37,0,0,0,0,.48v2.67a.36.36,0,0,1,0,.12l.12,0h2.67a.37.37,0,0,0,.48,0h2.67a.37.37,0,0,1,.26.11.37.37,0,0,1,.26-.11H223l.12,0a.36.36,0,0,1,0-.12V50.27a.37.37,0,0,0,0-.48V47.12a.38.38,0,0,1,.11-.26.38.38,0,0,1-.11-.26V43.92a.37.37,0,0,1,.09-.24.37.37,0,0,1-.09-.24V40.78a.37.37,0,0,1,.09-.24.37.37,0,0,1-.09-.24V37.63a.37.37,0,0,1,.09-.24.37.37,0,0,1-.09-.24V34.48a.38.38,0,0,1,.38-.37h2.67a.38.38,0,0,1,.24.09.37.37,0,0,1,.24-.09h2.67a.38.38,0,0,1,.38.38v2.67a.37.37,0,0,1-.09.24.37.37,0,0,1,.09.24V40.3a.37.37,0,0,1-.09.24.37.37,0,0,1,.09.24v2.67a.37.37,0,0,1-.09.24.37.37,0,0,1,.09.24V46.6a.38.38,0,0,1-.11.26.38.38,0,0,1,.11.26v2.67a.37.37,0,0,0,0,.48v2.67a.38.38,0,0,1-.37.38h-2.67l-.12,0a.36.36,0,0,1,0,.12v2.67a.38.38,0,0,1-.37.38Z" transform="translate(-14.58 -4.18)"/><path class="cls-2" d="M229.29,34.48v2.67h-2.67V34.48h2.67m-3.15,0v2.67h-2.67V34.48h2.67m-12.64,0v2.67h-2.67V34.48h2.67m-3.15,0v2.67h-2.67V34.48h2.67m18.94,3.15V40.3h-2.67V37.63h2.67m-3.15,0V40.3h-2.67V37.63h2.67m-12.64,0V40.3h-2.67V37.63h2.67m-3.15,0V40.3h-2.67V37.63h2.67m18.94,3.15v2.67h-2.67V40.78h2.67m-3.15,0v2.67h-2.67V40.78h2.67m-12.64,0v2.67h-2.67V40.78h2.67m-3.15,0v2.67h-2.67V40.78h2.67m18.94,3.15V46.6h-2.67V43.92h2.67m-3.15,0V46.6h-2.67V43.92h2.67m-12.64,0V46.6h-2.67V43.92h2.67m-3.15,0V46.6h-2.67V43.92h2.67m18.94,3.2v2.67h-2.67V47.12h2.67m-3.15,0v2.67h-2.67V47.12h2.67m-12.64,0v2.67h-2.67V47.12h2.67m-3.15,0v2.67h-2.67V47.12h2.67m18.94,3.15v2.67h-2.67V50.27h2.67m-3.15,0v2.67h-2.67V50.27h2.67m-12.64,0v2.67h-2.67V50.27h2.67m-3.15,0v2.67h-2.67V50.27h2.67m15.79,3.15v2.67h-2.67V53.42h2.67m-3.15,0v2.67h-2.67V53.42H223m-3.2,0v2.67h-2.67V53.42h2.67m-3.15,0v2.67H214V53.42h2.67m-3.15,0v2.67h-2.67V53.42h2.67m15.79-19.69h-2.67a.75.75,0,0,1-.48,0h-2.67a.75.75,0,0,0-.75.75v2.67a.75.75,0,0,0,0,.24.75.75,0,0,0,0,.24V40.3a.75.75,0,0,0,0,.24.75.75,0,0,0,0,.24v2.67a.75.75,0,0,0,0,.24.75.75,0,0,0,0,.24V46.6a.75.75,0,0,0,0,.26.75.75,0,0,0,0,.26v2.67a.75.75,0,0,1,0,.48v2.4h-2.4a.75.75,0,0,1-.52,0h-2.67a.75.75,0,0,1-.48,0h-2.4v-2.4a.75.75,0,0,1,0-.48V47.12a.75.75,0,0,0,0-.26.75.75,0,0,0,0-.26V43.92a.75.75,0,0,0,0-.24.75.75,0,0,0,0-.24V40.78a.75.75,0,0,0,0-.24.75.75,0,0,0,0-.24V37.63a.75.75,0,0,0,0-.24.75.75,0,0,0,0-.24V34.48a.75.75,0,0,0-.75-.75h-2.67a.75.75,0,0,1-.48,0h-2.67a.75.75,0,0,0-.75.75v2.67a.75.75,0,0,0,0,.24.75.75,0,0,0,0,.24V40.3a.75.75,0,0,0,0,.24.75.75,0,0,0,0,.24v2.67a.75.75,0,0,0,0,.24.75.75,0,0,0,0,.24V46.6a.75.75,0,0,0,0,.26.75.75,0,0,0,0,.26v2.67a.75.75,0,0,1,0,.48v2.67a.75.75,0,0,0,.75.75h2.4v2.4a.75.75,0,0,0,.75.75h2.67a.75.75,0,0,1,.48,0h2.67a.75.75,0,0,1,.48,0h2.67a.75.75,0,0,1,.52,0H223a.75.75,0,0,1,.48,0h2.67a.75.75,0,0,0,.75-.75v-2.4h2.4a.75.75,0,0,0,.75-.75V50.27a.75.75,0,0,1,0-.48V47.12a.75.75,0,0,0,0-.26.75.75,0,0,0,0-.26V43.92a.75.75,0,0,0,0-.24.75.75,0,0,0,0-.24V40.78a.75.75,0,0,0,0-.24.75.75,0,0,0,0-.24V37.63a.75.75,0,0,0,0-.24.75.75,0,0,0,0-.24V34.48a.75.75,0,0,0-.75-.75Z" transform="translate(-14.58 -4.18)"/><path class="cls-1" d="M113,17.47a.38.38,0,0,1-.37-.37V11.58l-3.77-6.3a.37.37,0,0,1,.32-.57h2.86a.38.38,0,0,1,.32.18l1.89,3.18,1.92-3.18a.37.37,0,0,1,.32-.18h2.87a.37.37,0,0,1,.32.57l-3.77,6.3v5.51a.38.38,0,0,1-.37.38Z" transform="translate(-14.58 -4.18)"/><path class="cls-2" d="M119.38,5.09h0m0,0-3.82,6.39v5.61H113V11.48l-3.82-6.39h2.86l2.21,3.72,2.25-3.72h2.87m0-.75h-2.88a.75.75,0,0,0-.64.36l-1.6,2.65L112.7,4.71a.75.75,0,0,0-.64-.37h-2.86a.75.75,0,0,0-.64,1.13l3.71,6.21v5.4a.75.75,0,0,0,.75.75h2.56a.75.75,0,0,0,.75-.75v-5.4L120,5.52a.75.75,0,0,0-.61-1.18Zm0,1.5h0Z" transform="translate(-14.58 -4.18)"/><path class="cls-1" d="M121,17.47a.38.38,0,0,1-.37-.37v-12a.38.38,0,0,1,.38-.37h6.75a.38.38,0,0,1,.38.38V7.47a.38.38,0,0,1-.37.38H124V9.52h3.79a.38.38,0,0,1,.38.38v2.34a.38.38,0,0,1-.37.38H124v1.74h3.79a.38.38,0,0,1,.38.38v2.38a.38.38,0,0,1-.37.38Z" transform="translate(-14.58 -4.18)"/><path class="cls-2" d="M127.78,5.09V7.47h-4.17V9.89h4.17v2.34h-4.17v2.49h4.17v2.38H121v-12h6.75m0-.75H121a.75.75,0,0,0-.75.75v12a.75.75,0,0,0,.75.75h6.75a.75.75,0,0,0,.75-.75V14.72a.75.75,0,0,0-.75-.75h-3.42V13h3.42a.75.75,0,0,0,.75-.75V9.89a.75.75,0,0,0-.75-.75h-3.42V8.22h3.42a.75.75,0,0,0,.75-.75V5.09a.75.75,0,0,0-.75-.75Z" transform="translate(-14.58 -4.18)"/><path class="cls-1" d="M132.83,17.63a5.73,5.73,0,0,1-3.94-1.86.37.37,0,0,1,0-.51l1.7-2a.38.38,0,0,1,.27-.13h0a.37.37,0,0,1,.27.11A2.84,2.84,0,0,0,133,14.32a.92.92,0,0,0,.63-.31.85.85,0,0,0,.32-.6c0-.44-.62-.9-1.74-1.3a6.77,6.77,0,0,1-1.71-.83,3.13,3.13,0,0,1-.91-1.19,3.66,3.66,0,0,1-.36-1.57,3.8,3.8,0,0,1,1.16-2.87,4.15,4.15,0,0,1,3-1.1A5.12,5.12,0,0,1,137,5.91a.38.38,0,0,1,0,.53L135.38,8.2a.37.37,0,0,1-.47.07,3.92,3.92,0,0,0-1.64-.7.62.62,0,0,0-.47.21.7.7,0,0,0-.21.51c0,.52.75.93,1.37,1.19a11.44,11.44,0,0,1,1.85.95,3.64,3.64,0,0,1,1.13,1.26,3.52,3.52,0,0,1,.45,1.75,3.91,3.91,0,0,1-1.37,3A4.6,4.6,0,0,1,132.83,17.63Z" transform="translate(-14.58 -4.18)"/><path class="cls-2" d="M133.36,4.93a4.74,4.74,0,0,1,3.34,1.25L135.1,7.94a4.41,4.41,0,0,0-1.83-.75,1,1,0,0,0-.74.32,1.08,1.08,0,0,0-.31.77q0,.89,1.61,1.53a11.23,11.23,0,0,1,1.78.91,3.25,3.25,0,0,1,1,1.13,3.14,3.14,0,0,1,.41,1.56,3.53,3.53,0,0,1-1.25,2.69,4.22,4.22,0,0,1-2.95,1.14,5.35,5.35,0,0,1-3.68-1.75l1.7-2A3.16,3.16,0,0,0,133,14.7a1.29,1.29,0,0,0,.9-.41,1.21,1.21,0,0,0,.43-.87q0-.94-2-1.66a6.51,6.51,0,0,1-1.61-.77,2.75,2.75,0,0,1-.8-1.05,3.28,3.28,0,0,1-.32-1.41,3.43,3.43,0,0,1,1-2.59,3.78,3.78,0,0,1,2.72-1m0-.75a4.52,4.52,0,0,0-3.24,1.2,4.16,4.16,0,0,0-1.27,3.14,4,4,0,0,0,.4,1.73,3.5,3.5,0,0,0,1,1.33,7.11,7.11,0,0,0,1.8.88c1.18.43,1.49.81,1.49,1a.56.56,0,0,1-.2.33.59.59,0,0,1-.37.2,2.55,2.55,0,0,1-1.6-.95.75.75,0,0,0-.54-.23h0a.75.75,0,0,0-.55.26l-1.7,2a.75.75,0,0,0,0,1,6.09,6.09,0,0,0,4.2,2,5,5,0,0,0,3.45-1.34,4.27,4.27,0,0,0,1.49-3.24,3.89,3.89,0,0,0-.5-1.93A4,4,0,0,0,136,10.11a11.81,11.81,0,0,0-1.91-1c-.85-.35-1.15-.67-1.15-.84a.33.33,0,0,1,.1-.25.24.24,0,0,1,.2-.09,3.74,3.74,0,0,1,1.45.64.75.75,0,0,0,.94-.14l1.61-1.76a.75.75,0,0,0,0-1.06,5.49,5.49,0,0,0-3.85-1.45Z" transform="translate(-14.58 -4.18)"/><path class="cls-1" d="M141.58,17.61a1.84,1.84,0,1,1,1.3-.54A1.77,1.77,0,0,1,141.58,17.61Z" transform="translate(-14.58 -4.18)"/><path class="cls-2" d="M141.58,14.31a1.47,1.47,0,1,1-1,.43,1.4,1.4,0,0,1,1-.43m0-.75a2.22,2.22,0,1,0,1.56.65,2.16,2.16,0,0,0-1.56-.65Z" transform="translate(-14.58 -4.18)"/><rect class="cls-1" x="132.03" y="0.54" width="3.34" height="12.75" rx="0.38" ry="0.38"/><path class="cls-2" d="M149.57,5.09v12H147v-12h2.59m0-.75H147a.75.75,0,0,0-.75.75v12a.75.75,0,0,0,.75.75h2.59a.75.75,0,0,0,.75-.75v-12a.75.75,0,0,0-.75-.75Z" transform="translate(-14.58 -4.18)"/><path class="cls-1" d="M156.9,17.47a.38.38,0,0,1-.37-.37v-12a.38.38,0,0,1,.38-.37H161a6,6,0,0,1,4.49,1.77,6.39,6.39,0,0,1,1.71,4.62,6.23,6.23,0,0,1-1.76,4.62,6.35,6.35,0,0,1-4.65,1.74Zm3.63-3.07a3.5,3.5,0,0,0,2.37-.78,3.28,3.28,0,0,0,.89-2.61,4,4,0,0,0-.45-1.91A2.15,2.15,0,0,0,162.12,8a5.12,5.12,0,0,0-1.66-.3h-.58V14.4Z" transform="translate(-14.58 -4.18)"/><path class="cls-2" d="M161,5.09a5.6,5.6,0,0,1,4.22,1.65,6,6,0,0,1,1.6,4.36,5.85,5.85,0,0,1-1.65,4.35,6,6,0,0,1-4.39,1.64H156.9v-12H161m-1.49,9.68h1a3.89,3.89,0,0,0,2.61-.87,3.61,3.61,0,0,0,1-2.9,4.3,4.3,0,0,0-.49-2.09,2.53,2.53,0,0,0-1.43-1.23,5.46,5.46,0,0,0-1.79-.32h-1v7.41M161,4.34H156.9a.75.75,0,0,0-.75.75v12a.75.75,0,0,0,.75.75h3.87A6.71,6.71,0,0,0,165.69,16a6.6,6.6,0,0,0,1.87-4.88,6.75,6.75,0,0,0-1.81-4.88A6.35,6.35,0,0,0,161,4.34Zm-.74,3.77h.2a4.74,4.74,0,0,1,1.54.28,1.79,1.79,0,0,1,1,.88,3.54,3.54,0,0,1,.4,1.73,3,3,0,0,1-.76,2.32,3.14,3.14,0,0,1-2.13.69h-.27V8.11Z" transform="translate(-14.58 -4.18)"/><path class="cls-1" d="M174.45,17.61a6.16,6.16,0,0,1-4.58-1.85,6.45,6.45,0,0,1-1.8-4.68,6.29,6.29,0,0,1,1.87-4.66,6.13,6.13,0,0,1,4.43-1.84,6.34,6.34,0,0,1,6.53,6.51,6.37,6.37,0,0,1-1.83,4.65A6.25,6.25,0,0,1,174.45,17.61Zm0-9.88a2.58,2.58,0,0,0-2.07.91,3.73,3.73,0,0,0-.83,2.51,3.43,3.43,0,0,0,.85,2.4,2.67,2.67,0,0,0,2.1.93,2.73,2.73,0,0,0,2.16-.91,3.61,3.61,0,0,0,.83-2.49,3.53,3.53,0,0,0-.81-2.44,2.79,2.79,0,0,0-2.14-.92l-.07-.38Z" transform="translate(-14.58 -4.18)"/><path class="cls-2" d="M174.37,5a6,6,0,0,1,6.16,6.14,6,6,0,0,1-1.73,4.39,5.87,5.87,0,0,1-4.35,1.75,5.77,5.77,0,0,1-4.32-1.74,6.06,6.06,0,0,1-1.7-4.41A5.9,5.9,0,0,1,170.2,6.7,5.74,5.74,0,0,1,174.37,5m.08,9.9a3.11,3.11,0,0,0,2.44-1,4,4,0,0,0,.93-2.74,3.87,3.87,0,0,0-.91-2.69,3.17,3.17,0,0,0-2.42-1h-.07a3,3,0,0,0-2.36,1,4.07,4.07,0,0,0-.92,2.76,3.82,3.82,0,0,0,.94,2.65,3.05,3.05,0,0,0,2.38,1.05m-.08-10.65a6.5,6.5,0,0,0-4.7,1.95,6.65,6.65,0,0,0-2,4.92A6.81,6.81,0,0,0,169.6,16a6.52,6.52,0,0,0,4.85,2,6.61,6.61,0,0,0,4.88-2,6.73,6.73,0,0,0,1.94-4.91,6.71,6.71,0,0,0-6.91-6.89Zm.08,9.9a2.31,2.31,0,0,1-1.82-.8,3.07,3.07,0,0,1-.75-2.15,3.32,3.32,0,0,1,.74-2.27,2.23,2.23,0,0,1,1.79-.78h.06a2.43,2.43,0,0,1,1.87.79,3.13,3.13,0,0,1,.72,2.19,3.2,3.2,0,0,1-.74,2.24,2.37,2.37,0,0,1-1.88.79Z" transform="translate(-14.58 -4.18)"/><path class="cls-1" d="M130.22,171.16a3.82,3.82,0,0,1-.94-.14.87.87,0,0,1-.59-1,.72.72,0,0,1,.72-.62l.23,0a2.07,2.07,0,0,0,.36.06v-1.78h-.85a8.06,8.06,0,0,1-.77,2.93.84.84,0,0,1-.73.44,1.12,1.12,0,0,1-.41-.09,1.27,1.27,0,0,1-.32-.32,1.41,1.41,0,0,1-.61.12h-1.92l-.09-.37v.38a1.1,1.1,0,0,1-.86-.32,1.11,1.11,0,0,1-.23-.9V168a10.81,10.81,0,0,1-1.34,2.54.94.94,0,0,1-.72.37,1,1,0,0,1-.48-.13.82.82,0,0,1-.22-1.21,10.78,10.78,0,0,0,1.48-3,.75.75,0,0,1,.73-.56,1.09,1.09,0,0,1,.31,0,1.34,1.34,0,0,1,.23.13v-.52a.85.85,0,0,1-.58.27,1.54,1.54,0,0,1-.87-.52,9.45,9.45,0,0,0-.79-.61.74.74,0,0,1-.36-.49.79.79,0,0,1,.18-.63.8.8,0,0,1,.66-.35,1,1,0,0,1,.42.1,11.72,11.72,0,0,1,1.31,1,1.31,1.31,0,0,1,.19.33,1,1,0,0,1,.15-.21,1.07,1.07,0,0,1,.81-.31h.37v-1.13h-1a.72.72,0,0,1-.56-.24.69.69,0,0,1-.41.14.77.77,0,0,1-.45-.16,4.37,4.37,0,0,1-.54-.44c-.17-.17-.38-.36-.61-.57a.82.82,0,0,1-.27-1.08.87.87,0,0,1,.72-.43,1,1,0,0,1,.47.13c.36.28.74.61,1.19,1l.06.07a.83.83,0,0,1,.35-.12h1v-.61a.76.76,0,0,1,.74-.77h0a.77.77,0,0,1,.85.68v.7h.92a1,1,0,0,1,.42.13,1.1,1.1,0,0,1,.25-.83,1.15,1.15,0,0,1,.89-.33h1.53a1.23,1.23,0,0,1,1,.33,1.31,1.31,0,0,1,.31,1v7.9a1.2,1.2,0,0,1-1.31,1.44Zm-4.29-1.86,0-3.4h-1.13v3.41Zm.49-5a1,1,0,0,1,.78.3,1.36,1.36,0,0,1,.3,1V168a11.86,11.86,0,0,0,.1-1.86v-3a.82.82,0,0,1-.43.11h-.92v1.13Zm3.56,1.84v-1.35h-.82v1.35Zm0-3V162.1h-.82v1.08Z" transform="translate(-14.58 -4.18)"/><path class="cls-2" d="M125.44,160.51a.39.39,0,0,1,.45.36v1h1.3a.4.4,0,0,1,.4.45q0,.45-.4.45h-1.3v1.88h.54q.75,0,.71.95v3.94q0,.89-.85.89h-2q-.8,0-.72-.81v-4.07q0-.9.73-.9H125v-1.88h-1.34q-.36,0-.4-.45a.44.44,0,0,1,.4-.45H125v-1c0-.24.13-.37.4-.4m-.63,9.17h1.12c.27,0,.39-.13.36-.4v-3.44q0-.31-.36-.31h-1.16q-.4,0-.36.36v3.49q0,.31.4.31m-3.24-8.89a.6.6,0,0,1,.29.09q.45.36,1.12,1a.51.51,0,0,1,.09.63.45.45,0,0,1-.35.22.4.4,0,0,1-.23-.09,4,4,0,0,1-.49-.4q-.27-.27-.63-.58a.46.46,0,0,1-.18-.63.47.47,0,0,1,.38-.22m7.18.08h1.6q.86,0,.82.94v7.91q.1,1.06-.94,1.06a3.5,3.5,0,0,1-.85-.13.49.49,0,0,1-.31-.58.33.33,0,0,1,.34-.29l.15,0a2.09,2.09,0,0,0,.49.07q.38,0,.32-.3v-2.24h-1.57a8,8,0,0,1-.76,3.13.45.45,0,0,1-.4.24.74.74,0,0,1-.27-.06.42.42,0,0,1-.13-.63,7.37,7.37,0,0,0,.76-3.93v-4.38q-.09-.85.76-.85m0,2.68h1.57V162q0-.27-.36-.27h-.85q-.4,0-.36.31v1.52m0,3h1.57v-2.1h-1.57v2.1m-7.38-2.75a.67.67,0,0,1,.27.06,11.82,11.82,0,0,1,1.21.94.54.54,0,0,1,0,.72.45.45,0,0,1-.29.12.48.48,0,0,1-.34-.17.42.42,0,0,1-.22-.18,7.87,7.87,0,0,0-.89-.71q-.36-.22-.09-.58a.43.43,0,0,1,.36-.2m1.23,2.67a.72.72,0,0,1,.2,0,.47.47,0,0,1,.31.58,12.18,12.18,0,0,1-1.61,3.31.56.56,0,0,1-.42.22.61.61,0,0,1-.3-.09.44.44,0,0,1-.09-.67,11.05,11.05,0,0,0,1.52-3.08.38.38,0,0,1,.38-.3m2.8-6.66h-.08a1.12,1.12,0,0,0-1.07,1.15v.23h-.68l-.22,0c-.4-.37-.75-.68-1-.92l-.11-.07a1.34,1.34,0,0,0-.65-.18h0a1.22,1.22,0,0,0-1,.52l-.07.11a1.19,1.19,0,0,0,.37,1.54c.22.19.41.37.57.53a4.06,4.06,0,0,0,.4.35,1.35,1.35,0,0,0-.45-.08h0a1.17,1.17,0,0,0-1,.51,1.14,1.14,0,0,0-.24.91,1.11,1.11,0,0,0,.54.75,7,7,0,0,1,.73.58,1.18,1.18,0,0,0,.32.28,1.28,1.28,0,0,0-.25.45,10.36,10.36,0,0,1-1.41,2.87,1.19,1.19,0,0,0,.24,1.72l.09.06a1.35,1.35,0,0,0,.66.18,1.28,1.28,0,0,0,1-.48l0,0a8.13,8.13,0,0,0,.66-1,1.4,1.4,0,0,0,.34,1,1.46,1.46,0,0,0,1.14.45h2a2,2,0,0,0,.47-.05l.15.13.17.1a1.49,1.49,0,0,0,.55.11,1.19,1.19,0,0,0,1-.47,1.24,1.24,0,0,0,.53.37l.08,0a4.19,4.19,0,0,0,1,.15,1.68,1.68,0,0,0,1.3-.5,1.71,1.71,0,0,0,.39-1.34v-7.88a1.64,1.64,0,0,0-.41-1.25,1.53,1.53,0,0,0-1.16-.45h-1.6a1.5,1.5,0,0,0-1.17.46,1.32,1.32,0,0,0-.3.58h-.64v-.28a.75.75,0,0,0,0-.09,1.13,1.13,0,0,0-1.19-1Zm4.1,2.71h.07v.33h-.07v-.33Zm-6.82,1a1.06,1.06,0,0,0,.38-.07,1.17,1.17,0,0,0,.6.16h.59v.38a1.51,1.51,0,0,0-.91.27,11.89,11.89,0,0,0-1-.8,1.08,1.08,0,0,0,.35.06Zm3.91.09h.6v.59a1.42,1.42,0,0,0-.6-.21v-.38Zm2.91,1.61h.07v.6h-.07v-.6Zm-4.38,1.12h.38v2.66h-.38v-2.66Zm4.31,1.83h.13v1l-.2,0h-.09q.1-.45.16-.94Z" transform="translate(-14.58 -4.18)"/><path class="cls-1" d="M132.91,171.48c-.73-.07-.78-.58-.78-.73v-6.66a1.33,1.33,0,0,1,.29-1,1.23,1.23,0,0,1,.94-.36h3.15v-.19h-4.1a.81.81,0,0,1-.87-.79.88.88,0,0,1,.83-.9h4.13v-.16a.76.76,0,0,1,.87-.78.8.8,0,0,1,.86.74v.2h4.1a.83.83,0,0,1,.78.83c0,.57-.34.86-.78.86h-4.1v.19h3.17a1.27,1.27,0,0,1,1,.34,1.35,1.35,0,0,1,.32,1v5.62a1.32,1.32,0,0,1-.25,1.11,1.59,1.59,0,0,1-1.27.46,6.18,6.18,0,0,1-1.49-.22.76.76,0,0,1-.59-1,.84.84,0,0,1,.82-.62h.13a4.43,4.43,0,0,0,.94.16h.07v-.91a.79.79,0,0,1-.34.07h-2.44v1.68a.83.83,0,0,1-.83.78h-.07a.77.77,0,0,1-.79-.78v-1.68h-2.53a1,1,0,0,1-.3,0v2a.82.82,0,0,1-.78.77h-.08Zm7.82-4.33a1,1,0,0,1,.34.1v-.46a.87.87,0,0,1-.39.08h-2.4v.28Zm-7,0,.21,0h2.62v-.28h-2.49a.9.9,0,0,1-.34-.06Zm6.92-1.93a1,1,0,0,1,.39.11v-1.08h-1.19a1,1,0,0,1,0,.42c0,.15-.11.34-.18.54Zm-6.92.08a1,1,0,0,1,.3-.08h1.09l-.19-.41a.85.85,0,0,1-.07-.54h-1.14Zm4.13-.08a4.27,4.27,0,0,0,.28-.82l.06-.14h-1.65c.12.32.22.56.33.76a.39.39,0,0,1,0,.11v.09Z" transform="translate(-14.58 -4.18)"/><path class="cls-2" d="M137.37,160.25a.43.43,0,0,1,.49.4v.54h4.47q.36,0,.4.49c0,.3-.17.45-.4.45h-4.47v.94h3.61q.9,0,.86,1v5.63q.19,1.2-1.15,1.2a5.88,5.88,0,0,1-1.4-.21q-.4-.09-.31-.54a.45.45,0,0,1,.45-.32H140a4.35,4.35,0,0,0,1,.16q.55,0,.45-.38v-5.28a.32.32,0,0,0-.36-.36h-7.33c-.27,0-.39.12-.36.36v6.39a.44.44,0,0,1-.45.4q-.45,0-.45-.36v-6.66q-.09-1,.86-1h3.52v-.94h-4.47a.44.44,0,0,1-.49-.45.49.49,0,0,1,.49-.49h4.47v-.54q0-.4.49-.4m1.69,3.74h.14a.46.46,0,0,1,.27.63,8,8,0,0,1-.27.76,1.26,1.26,0,0,0-.09.27h1.56a.4.4,0,0,1,.4.45.36.36,0,0,1-.4.4h-2.77v1h2.82a.44.44,0,0,1,.4.45q0,.4-.4.4h-2.82v2.06c0,.24-.19.37-.49.4s-.45-.16-.45-.4v-2.06h-2.91a.43.43,0,1,1,0-.85h3v-1h-2.86a.36.36,0,0,1-.4-.4.4.4,0,0,1,.4-.45h1.65a9.8,9.8,0,0,1-.45-.94.39.39,0,0,1,.22-.58.73.73,0,0,1,.21,0,.51.51,0,0,1,.46.3,7.9,7.9,0,0,0,.36.85.91.91,0,0,1,0,.4h1.57a5.27,5.27,0,0,0,.4-1.12l.09-.18a.45.45,0,0,1,.44-.37m-1.69-4.49a1.13,1.13,0,0,0-1.22.94h-3.81a1.24,1.24,0,0,0-1.17,1.16.75.75,0,0,0,0,.15,1.17,1.17,0,0,0,.92,1.09,1.74,1.74,0,0,0-.34,1.28v6.63a1.12,1.12,0,0,0,1.12,1.1H133a1.19,1.19,0,0,0,1.11-1.05.75.75,0,0,0,0-.09v-1.58h2.08v1.31a1.14,1.14,0,0,0,1.12,1.15h.15a1.21,1.21,0,0,0,1.16-1.05.75.75,0,0,0,0-.09v-1.31h.83a1.2,1.2,0,0,0-.72.73.75.75,0,0,0,0,.12,1.13,1.13,0,0,0,.89,1.42,6.45,6.45,0,0,0,1.56.23,1.94,1.94,0,0,0,1.56-.59,1.72,1.72,0,0,0,.34-1.41V164a1.7,1.7,0,0,0-.38-1.23,1.15,1.15,0,0,0,.78-1.06.75.75,0,0,0,0-.15,1.21,1.21,0,0,0-1.06-1.16h-3.84a1.17,1.17,0,0,0-1.22-.94Zm2.86,5.21h.46v.2h-.52l0-.07,0-.13Zm-3.09,0h.57l-.07.2h-.41l-.09-.2Zm-3,0h.39a1.36,1.36,0,0,0,.05.2h-.44v-.2Zm6.25,4.43h.3v.06l-.3-.06Z" transform="translate(-14.58 -4.18)"/><path class="cls-1" d="M148.89,166.88a1.26,1.26,0,0,1-1.3-1.29,1.31,1.31,0,0,1,1.28-1.38,1.38,1.38,0,0,1,1.39,1.32,1.28,1.28,0,0,1-1.36,1.35Z" transform="translate(-14.58 -4.18)"/><path class="cls-2" d="M148.91,164.58a1,1,0,0,1,1,1,.9.9,0,0,1-1,.94.88.88,0,0,1-.94-.94.94.94,0,0,1,.94-1m0-.75h-.08a1.68,1.68,0,0,0-1.61,1.69s0,0,0,.07a1.62,1.62,0,0,0,1.65,1.65h0a1.65,1.65,0,0,0,1.76-1.62.75.75,0,0,0,0-.15,1.73,1.73,0,0,0-1.65-1.65Z" transform="translate(-14.58 -4.18)"/><path class="cls-1" d="M159.78,171.26a.77.77,0,0,1-.74-.82v-2.77q-.13.34-.27.65a.93.93,0,0,1-.83.58,1,1,0,0,1-.37-.07,1.07,1.07,0,0,1-.32-.26q-.38,1-.82,1.91a.88.88,0,0,1-.77.51,1,1,0,0,1-.45-.11.81.81,0,0,1-.42-.5.9.9,0,0,1,.14-.7,14.15,14.15,0,0,0,1.26-3.21.82.82,0,0,1,.8-.65l.21,0,.11,0a1,1,0,0,1,.46.51,17.37,17.37,0,0,0,.85-2.58h-.73a.76.76,0,0,1-.78-.74s0-.08,0-.11h0a.87.87,0,0,1-.61-.29l-1.06-1a.78.78,0,0,1-.09-1.13.93.93,0,0,1,.68-.33.91.91,0,0,1,.49.15,8.58,8.58,0,0,1,1.18,1,1,1,0,0,1,.25.83H159v-1.5c0-.14.05-.61.74-.69.66.07.79.46.81.63v1.56h.79a1,1,0,0,1,.38.12v-.37a1.38,1.38,0,0,1,.28-1.11,1.34,1.34,0,0,1,1-.39h1.58a1.2,1.2,0,0,1,.92.35,1.58,1.58,0,0,1,.33,1.22v7.62a1.36,1.36,0,0,1-.29,1.06,1.19,1.19,0,0,1-.91.35h-1.59a1.39,1.39,0,0,1-1.09-.4,1.29,1.29,0,0,1-.26-1.06v-2.37a.8.8,0,0,1-.27,0,.86.86,0,0,1-.76-.53l-.15-.25v4a.82.82,0,0,1-.73.82h-.09Zm4.58-1.82V168h-1v1.48Zm0-3.13v-1.44h-1v1.44Zm-3.66-2.51,1.07,1.48v-1.57a.7.7,0,0,1-.34.09Zm3.62-.48v-1.19l-.92-.07h-.08l0,1.25ZM157,165.74a.88.88,0,0,1-.58-.25c-.39-.36-.81-.73-1.25-1.12a.81.81,0,0,1-.16-1.11.84.84,0,0,1,.66-.36.91.91,0,0,1,.48.15l1.34,1.11a1,1,0,0,1,.11,1.25A.77.77,0,0,1,157,165.74Z" transform="translate(-14.58 -4.18)"/><path class="cls-2" d="M159.82,160.38c.24,0,.37.13.4.31v1.88h1.16a.44.44,0,0,1,.4.45c0,.27-.15.4-.36.4h-1.21v.36q1.12,1.52,1.61,2.24a.66.66,0,0,1-.09.81.49.49,0,0,1-.24.07q-.25,0-.43-.34l-.85-1.43v5.32a.44.44,0,0,1-.4.45.4.4,0,0,1-.4-.45v-5.28a18.56,18.56,0,0,1-1,3,.57.57,0,0,1-.49.36.61.61,0,0,1-.23,0c-.27-.15-.33-.39-.18-.72a17,17,0,0,0,1.57-4.34H157.9c-.24,0-.37-.13-.4-.4a.39.39,0,0,1,.36-.45h1.56v-1.88c0-.18.13-.28.4-.31m-3.82.22a.55.55,0,0,1,.29.09,8.25,8.25,0,0,1,1.12.94.54.54,0,0,1,0,.76.44.44,0,0,1-.32.18.51.51,0,0,1-.35-.18l-1.07-1a.41.41,0,0,1,0-.63.54.54,0,0,1,.38-.18m8.68.21q.95,0,.87,1.18v7.65q.08,1-.83,1h-1.59q-1.1,0-1-1v-7.69q-.12-1.12,1-1.12h1.58M163,163.69h1.7v-1.57q0-.45-.4-.45h-.89c-.3,0-.43.13-.4.4v1.61m0,3h1.74v-2.19H163v2.19m.36,3.13h1.07q.31,0,.31-.36v-1.88H163v1.88c0,.24.09.36.36.36m-7.7-6.53a.54.54,0,0,1,.28.09l1.3,1.07a.57.57,0,0,1,0,.76.38.38,0,0,1-.29.16.53.53,0,0,1-.34-.16q-.58-.54-1.25-1.12a.43.43,0,0,1-.09-.63.45.45,0,0,1,.34-.18m1.35,2.9h.14a.58.58,0,0,1,.31.67,24.37,24.37,0,0,1-1.34,3.44.51.51,0,0,1-.44.3.63.63,0,0,1-.28-.07q-.4-.22-.13-.67a14.44,14.44,0,0,0,1.3-3.31.44.44,0,0,1,.44-.37m2.82-6.55h-.08a1.08,1.08,0,0,0-1.07,1.06v1.13h-.37a1.45,1.45,0,0,0-.29-.65l-.06-.07a9,9,0,0,0-1.22-1,1.32,1.32,0,0,0-.72-.23h0a1.27,1.27,0,0,0-.91.4l-.07.08a1.14,1.14,0,0,0,.16,1.64l.62.56h-.14a1.18,1.18,0,0,0-.91.45l-.07.09a1.18,1.18,0,0,0,.24,1.59q.66.57,1.23,1.1l0,0a1.36,1.36,0,0,0-.32.56,13.83,13.83,0,0,1-1.23,3.15,1.24,1.24,0,0,0-.17,1,1.16,1.16,0,0,0,.59.72,1.41,1.41,0,0,0,.64.17,1.24,1.24,0,0,0,1.08-.66l0-.06q.34-.7.65-1.47h0a1.36,1.36,0,0,0,.5.1,1.2,1.2,0,0,0,.72-.24v1.41a1.15,1.15,0,0,0,1.07,1.19h.18a1.19,1.19,0,0,0,1.05-1.11.75.75,0,0,0,0-.08V167.5a1.13,1.13,0,0,0,.42.13v2a1.63,1.63,0,0,0,.36,1.3,1.74,1.74,0,0,0,1.37.53h1.59a1.55,1.55,0,0,0,1.19-.47,1.73,1.73,0,0,0,.39-1.34V162a1.91,1.91,0,0,0-.43-1.48,1.56,1.56,0,0,0-1.19-.47H163.1a1.57,1.57,0,0,0-1.71,1.75H161v-1.13a.75.75,0,0,0,0-.12,1.13,1.13,0,0,0-1-.94Zm3.92,2.8h.2v.51h-.2v-.51ZM158,164.17h.2l-.07.26a1.38,1.38,0,0,0-.12-.26Zm5.79,1.07H164v.69h-.24v-.69Zm0,3.08H164v.74h-.24v-.74Z" transform="translate(-14.58 -4.18)"/><path class="cls-1" d="M172.92,171.31a.72.72,0,0,1-.82-.73v-.65h-2.89a.74.74,0,0,1-.82-.68q-.31.67-.6,1.2a.87.87,0,0,1-.77.49,1,1,0,0,1-.45-.11.81.81,0,0,1-.2-1.2,23.11,23.11,0,0,0,1.4-3.28.88.88,0,0,1,.84-.63l.21,0a1.1,1.1,0,0,1,.31.2v-.28a1.19,1.19,0,0,1,.3-.91,1.15,1.15,0,0,1,.32-.23,1.2,1.2,0,0,1-.91-.32,1,1,0,0,1-.25-.79v-.74a1,1,0,0,1,0-.1.75.75,0,0,1-.41.13.8.8,0,0,1-.61-.31c-.36-.36-.68-.67-.95-.9a.76.76,0,0,1,0-1.11,1,1,0,0,1,.61-.24,1,1,0,0,1,.54.17l.57.53a.76.76,0,0,1,.7-.63h7.92a.75.75,0,0,1,.68.68.39.39,0,0,1,0,.1.68.68,0,0,1-.69.69h-.49a1.06,1.06,0,0,1,.73,1.1v.63a1.14,1.14,0,0,1-.26.87.91.91,0,0,1-.69.27h-.08a1.14,1.14,0,0,1,.49,1.05v1.56a1.26,1.26,0,0,1-.58,1.23h.79a.82.82,0,0,1,.82.73.79.79,0,0,1-.82.82H173.7v.56a.82.82,0,0,1-.73.82Zm-3.77-3.9q-.23.59-.44,1.12a1,1,0,0,1,.47-.16h.54a.9.9,0,0,1-.27-.19A1.16,1.16,0,0,1,169.15,167.41Zm6.57-4.36h0Zm-2.46,0h0ZM171,163h0Zm-2.06-1.4a1,1,0,0,1,0,.15,1.09,1.09,0,0,1,.3-.14H169Zm-.84,4.12a.88.88,0,0,1-.67-.35c-.29-.32-.64-.67-1-1a.76.76,0,0,1,0-1.1A1,1,0,0,1,167,163a1,1,0,0,1,.54.17c.62.57,1,.93,1.16,1.15a.89.89,0,0,1-.08,1.24A.8.8,0,0,1,168.12,165.76Z" transform="translate(-14.58 -4.18)"/><path class="cls-2" d="M167.21,160.49a.66.66,0,0,1,.35.11c.39.36.72.67,1,.94a.55.55,0,0,1-.09.67.39.39,0,0,1-.58-.09q-.58-.58-1-.94a.38.38,0,0,1,0-.58.55.55,0,0,1,.32-.11m9.74.07a.37.37,0,0,1,.31.36q0,.36-.31.36h-2.59v.67h1.56q.89,0,.89.8v.63q0,.77-.58.77h-6.46q-.83,0-.79-.72v-.76q-.09-.71.89-.71h1.52v-.67h-2.33a.36.36,0,0,1-.4-.36.41.41,0,0,1,.4-.36h7.87m-4.83,1.39h1.52v-.67h-1.52v.67m2.24,1.48h1.55c.13,0,.2-.08.2-.23v-.36a.29.29,0,0,0-.22-.18h-1.52v.76m-2.24,0h1.52v-.76h-1.52v.76m-2.15,0h1.43v-.76H170c-.21,0-.3.08-.27.22v.31c0,.15.09.22.27.22m-3,0a.66.66,0,0,1,.35.11q.8.76,1.07,1.07t0,.72a.41.41,0,0,1-.24.09.53.53,0,0,1-.38-.22q-.45-.49-1.07-1.07a.38.38,0,0,1,0-.58.55.55,0,0,1,.32-.11m8.52,1.32q.77,0,.77.85v1.56q0,1-.76,1h-2.19v.63h3.53a.44.44,0,0,1,.45.4.4.4,0,0,1-.45.4h-3.53v.94a.44.44,0,0,1-.4.45q-.45,0-.45-.36v-1h-3.26c-.3,0-.45-.13-.45-.4s.15-.37.45-.4h3.26v-.63h-2.18q-.81,0-.77-.9v-1.57q0-.94,1.12-.94h4.86m-5.22,1.34h5.23v-.4c0-.12-.08-.19-.22-.22h-4.74q-.31,0-.27.27v.36m.22,1.34h4.83c.12,0,.18-.07.18-.22v-.4h-5.23v.45c0,.12.07.18.22.18m-1.89-1.31h.14c.24.12.31.34.22.67a25.94,25.94,0,0,1-1.52,3.49.51.51,0,0,1-.44.3.62.62,0,0,1-.28-.07q-.31-.22,0-.67a23.2,23.2,0,0,0,1.43-3.35.51.51,0,0,1,.49-.37m-1.41-6.35a1.3,1.3,0,0,0-.76.25.75.75,0,0,0-.13.12,1.13,1.13,0,0,0,0,1.6c.28.25.58.54,1,.92l.07.08a1.28,1.28,0,0,0-1.17.18.75.75,0,0,0-.13.12,1.13,1.13,0,0,0,0,1.6c.43.4.77.74,1,1a1.46,1.46,0,0,0,.36.31,1.63,1.63,0,0,0-.1.21,22.84,22.84,0,0,1-1.4,3.28,1.16,1.16,0,0,0,.27,1.63l.1.06a1.37,1.37,0,0,0,.61.15,1.24,1.24,0,0,0,1.08-.66q.16-.28.31-.6a1.26,1.26,0,0,0,.79.25h2.51v.28a1.09,1.09,0,0,0,1.2,1.11H173a1.19,1.19,0,0,0,1.05-1.11.75.75,0,0,0,0-.08v-.19h2.78a1.14,1.14,0,0,0,1.19-1.07.75.75,0,0,0,0-.17,1.19,1.19,0,0,0-1.11-1.06h-.07a2.24,2.24,0,0,0,.15-.86v-1.56a1.9,1.9,0,0,0-.16-.81,1.2,1.2,0,0,0,.34-.25,1.52,1.52,0,0,0,.36-1.17v-.59a1.67,1.67,0,0,0-.19-.81A1.09,1.09,0,0,0,178,161a.75.75,0,0,0,0-.2,1.12,1.12,0,0,0-.93-1H169a1.23,1.23,0,0,0-.77.38l-.15-.14L168,160a1.4,1.4,0,0,0-.74-.22Zm1,3.59-.34-.32a1.08,1.08,0,0,0,.3,0h0v.28Z" transform="translate(-14.58 -4.18)"/><path class="cls-1" d="M106.94,86.18a.38.38,0,0,1-.29-.61l3.62-4.6a11.33,11.33,0,0,0,1.09-1.61,2.29,2.29,0,0,0,.29-1,1,1,0,0,0-1-1,.73.73,0,0,0-.7.33,3.14,3.14,0,0,0-.33,1.4.38.38,0,0,1-.37.35h-2.36a.38.38,0,0,1-.37-.37,4.22,4.22,0,0,1,1.25-3.26,4.37,4.37,0,0,1,3.08-1.16,4,4,0,0,1,2.81,1,3.4,3.4,0,0,1,1.11,2.61,6,6,0,0,1-1.22,3.29l-.63.92c-.21.32-.47.67-.77,1h2.25a.38.38,0,0,1,.38.38v2a.38.38,0,0,1-.37.38Z" transform="translate(-14.58 -4.18)"/><path class="cls-2" d="M110.81,74.94a3.62,3.62,0,0,1,2.55.91,3,3,0,0,1,1,2.33,5.59,5.59,0,0,1-1.16,3.08l-.63.92c-.25.37-.56.8-.95,1.27l-.29.36h3v2h-7.41l3.62-4.6a11.67,11.67,0,0,0,1.13-1.66,2.65,2.65,0,0,0,.34-1.22,1.37,1.37,0,0,0-1.41-1.41,1.11,1.11,0,0,0-1,.5,3.46,3.46,0,0,0-.38,1.58h-2.36A3.85,3.85,0,0,1,108,76a4,4,0,0,1,2.82-1.06m0-.75a4.74,4.74,0,0,0-3.33,1.26A4.58,4.58,0,0,0,106.11,79a.75.75,0,0,0,.75.75h2.36A.75.75,0,0,0,110,79a2.71,2.71,0,0,1,.27-1.22c0-.06.1-.15.38-.15a.64.64,0,0,1,.48.18.62.62,0,0,1,.18.48,1.93,1.93,0,0,1-.25.87A11,11,0,0,1,110,80.74l-3.62,4.6a.75.75,0,0,0,.59,1.21h7.41a.75.75,0,0,0,.75-.75v-2a.75.75,0,0,0-.75-.75h-1.49l.32-.46.63-.92a6.33,6.33,0,0,0,1.29-3.5,3.77,3.77,0,0,0-1.23-2.89,4.36,4.36,0,0,0-3.06-1.11Z" transform="translate(-14.58 -4.18)"/><path class="cls-1" d="M119.68,86.3a4.07,4.07,0,0,1-3.33-1.6,6.38,6.38,0,0,1-1.24-4.07,7,7,0,0,1,1.21-4.28,3.92,3.92,0,0,1,3.29-1.68A4,4,0,0,1,123,76.25a6.54,6.54,0,0,1,1.2,4.1,6.45,6.45,0,0,1-1.35,4.45A4.18,4.18,0,0,1,119.68,86.3Zm0-8.83a1.23,1.23,0,0,0-1.11.73,4.92,4.92,0,0,0-.48,2.39,4.34,4.34,0,0,0,.48,2.21,1.18,1.18,0,0,0,2.16,0,4.45,4.45,0,0,0,.48-2.24,4.9,4.9,0,0,0-.47-2.36A1.18,1.18,0,0,0,119.68,77.47Z" transform="translate(-14.58 -4.18)"/><path class="cls-2" d="M119.68,75a3.62,3.62,0,0,1,3,1.45,6.15,6.15,0,0,1,1.12,3.87,6.07,6.07,0,0,1-1.25,4.2,3.81,3.81,0,0,1-2.89,1.37,3.69,3.69,0,0,1-3-1.46,6,6,0,0,1-1.16-3.84,6.64,6.64,0,0,1,1.14-4.06,3.55,3.55,0,0,1,3-1.53h.07m0,8.85a1.59,1.59,0,0,0,1.41-.9,4.79,4.79,0,0,0,.53-2.43,5.24,5.24,0,0,0-.52-2.54,1.55,1.55,0,0,0-1.39-.92,1.6,1.6,0,0,0-1.44.92,5.25,5.25,0,0,0-.52,2.57,4.68,4.68,0,0,0,.53,2.4,1.59,1.59,0,0,0,1.4.9m0-9.6h-.07A4.28,4.28,0,0,0,116,76.11a7.39,7.39,0,0,0-1.28,4.51,6.74,6.74,0,0,0,1.32,4.31,4.43,4.43,0,0,0,3.62,1.74,4.54,4.54,0,0,0,3.44-1.61,6.8,6.8,0,0,0,1.44-4.7A6.9,6.9,0,0,0,123.29,76a4.35,4.35,0,0,0-3.61-1.74Zm0,8.85c-.2,0-.47-.06-.75-.53a4,4,0,0,1-.43-2,4.57,4.57,0,0,1,.43-2.2c.27-.48.55-.54.79-.54s.47.06.73.54a4.55,4.55,0,0,1,.42,2.17,4.1,4.1,0,0,1-.42,2.05c-.27.47-.54.53-.76.53Z" transform="translate(-14.58 -4.18)"/><path class="cls-1" d="M127.53,86.18a.38.38,0,0,1-.37-.37v-8.3H126a.37.37,0,0,1-.37-.45l.41-1.93a.37.37,0,0,1,.37-.3h3.45a.38.38,0,0,1,.38.38V85.8a.38.38,0,0,1-.37.38Z" transform="translate(-14.58 -4.18)"/><path class="cls-2" d="M129.86,75.2V85.8h-2.33V77.13H126l.41-1.93h3.45m0-.75h-3.45a.75.75,0,0,0-.73.59L125.27,77a.75.75,0,0,0,.73.91h.78V85.8a.75.75,0,0,0,.75.75h2.33a.75.75,0,0,0,.75-.75V75.2a.75.75,0,0,0-.75-.75Z" transform="translate(-14.58 -4.18)"/><path class="cls-1" d="M135.32,86.51a.37.37,0,0,1-.2-.06l-1.89-1.19a.37.37,0,0,1-.12-.51l4.47-7.26h-3.9a.38.38,0,0,1-.37-.37V75.18a.38.38,0,0,1,.38-.37h8.41a.37.37,0,0,1,.32.57l-6.77,11a.37.37,0,0,1-.23.17Z" transform="translate(-14.58 -4.18)"/><path class="cls-2" d="M142.09,75.18l-6.77,11-1.89-1.19,4.82-7.83h-4.57V75.18h8.41m0-.75h-8.41a.75.75,0,0,0-.75.75v1.93a.75.75,0,0,0,.75.75h3.23l-4.12,6.69a.75.75,0,0,0,.24,1l1.89,1.19a.75.75,0,0,0,.4.12l.17,0a.75.75,0,0,0,.47-.34l6.77-11a.75.75,0,0,0-.64-1.14Zm0,1.5h0Z" transform="translate(-14.58 -4.18)"/><path class="cls-1" d="M144.49,86.31a1.71,1.71,0,1,1,1.21-.5A1.65,1.65,0,0,1,144.49,86.31Z" transform="translate(-14.58 -4.18)"/><path class="cls-2" d="M144.49,83.27a1.34,1.34,0,1,1-.94.39,1.28,1.28,0,0,1,.94-.39m0-.75a2.09,2.09,0,1,0,1.47.61,2,2,0,0,0-1.47-.61Z" transform="translate(-14.58 -4.18)"/><path class="cls-1" d="M150.05,86.18a.38.38,0,0,1-.37-.37v-8.3h-1.16a.37.37,0,0,1-.37-.45l.41-1.93a.37.37,0,0,1,.37-.3h3.45a.38.38,0,0,1,.38.38V85.8a.38.38,0,0,1-.37.38Z" transform="translate(-14.58 -4.18)"/><path class="cls-2" d="M152.38,75.2V85.8h-2.33V77.13h-1.53l.41-1.93h3.45m0-.75h-3.45a.75.75,0,0,0-.73.59L147.79,77a.75.75,0,0,0,.73.91h.78V85.8a.75.75,0,0,0,.75.75h2.33a.75.75,0,0,0,.75-.75V75.2a.75.75,0,0,0-.75-.75Z" transform="translate(-14.58 -4.18)"/><path class="cls-1" d="M160.3,86.3a4.07,4.07,0,0,1-3.33-1.6,6.38,6.38,0,0,1-1.24-4.07,7,7,0,0,1,1.21-4.28,3.92,3.92,0,0,1,3.29-1.68,4,4,0,0,1,3.38,1.59,6.53,6.53,0,0,1,1.2,4.1,6.45,6.45,0,0,1-1.35,4.45A4.18,4.18,0,0,1,160.3,86.3Zm0-8.83a1.23,1.23,0,0,0-1.11.73,4.92,4.92,0,0,0-.48,2.39,4.35,4.35,0,0,0,.48,2.21,1.18,1.18,0,0,0,2.16,0,4.45,4.45,0,0,0,.48-2.24,4.91,4.91,0,0,0-.47-2.36A1.18,1.18,0,0,0,160.3,77.47Z" transform="translate(-14.58 -4.18)"/><path class="cls-2" d="M160.3,75a3.62,3.62,0,0,1,3,1.45,6.15,6.15,0,0,1,1.12,3.87,6.07,6.07,0,0,1-1.25,4.2,3.81,3.81,0,0,1-2.89,1.37,3.69,3.69,0,0,1-3-1.46,6,6,0,0,1-1.16-3.84,6.64,6.64,0,0,1,1.14-4.06,3.55,3.55,0,0,1,3-1.53h.07m0,8.85a1.59,1.59,0,0,0,1.41-.9,4.79,4.79,0,0,0,.53-2.43,5.24,5.24,0,0,0-.52-2.54,1.55,1.55,0,0,0-1.39-.92,1.6,1.6,0,0,0-1.44.92,5.25,5.25,0,0,0-.52,2.57,4.68,4.68,0,0,0,.53,2.4,1.59,1.59,0,0,0,1.4.9m0-9.6h-.07a4.28,4.28,0,0,0-3.59,1.83,7.39,7.39,0,0,0-1.28,4.51,6.74,6.74,0,0,0,1.32,4.31,4.43,4.43,0,0,0,3.62,1.74,4.54,4.54,0,0,0,3.44-1.61,6.8,6.8,0,0,0,1.44-4.7A6.9,6.9,0,0,0,163.91,76a4.35,4.35,0,0,0-3.61-1.74Zm0,8.85c-.2,0-.47-.06-.75-.53a4,4,0,0,1-.43-2,4.57,4.57,0,0,1,.43-2.2c.27-.48.55-.54.79-.54s.47.06.73.54a4.55,4.55,0,0,1,.42,2.17A4.1,4.1,0,0,1,161,82.6c-.27.47-.54.53-.76.53Z" transform="translate(-14.58 -4.18)"/><path class="cls-1" d="M167,86.31a1.71,1.71,0,1,1,1.21-.5A1.65,1.65,0,0,1,167,86.31Z" transform="translate(-14.58 -4.18)"/><path class="cls-2" d="M167,83.27a1.34,1.34,0,1,1-.94.39,1.28,1.28,0,0,1,.94-.39m0-.75a2.09,2.09,0,1,0,1.47.61,2,2,0,0,0-1.47-.61Z" transform="translate(-14.58 -4.18)"/><path class="cls-1" d="M173.77,86.3a4.07,4.07,0,0,1-3.33-1.6,6.38,6.38,0,0,1-1.24-4.07,7,7,0,0,1,1.21-4.28,3.92,3.92,0,0,1,3.29-1.68,4,4,0,0,1,3.38,1.59,6.53,6.53,0,0,1,1.2,4.1,6.45,6.45,0,0,1-1.35,4.45A4.18,4.18,0,0,1,173.77,86.3Zm0-8.83a1.23,1.23,0,0,0-1.11.73,4.92,4.92,0,0,0-.48,2.39,4.35,4.35,0,0,0,.48,2.21,1.18,1.18,0,0,0,2.16,0,4.45,4.45,0,0,0,.48-2.24,4.91,4.91,0,0,0-.47-2.36A1.18,1.18,0,0,0,173.77,77.47Z" transform="translate(-14.58 -4.18)"/><path class="cls-2" d="M173.77,75a3.62,3.62,0,0,1,3,1.45,6.15,6.15,0,0,1,1.12,3.87,6.07,6.07,0,0,1-1.25,4.2,3.81,3.81,0,0,1-2.89,1.37,3.69,3.69,0,0,1-3-1.46,6,6,0,0,1-1.16-3.84,6.64,6.64,0,0,1,1.14-4.06,3.55,3.55,0,0,1,3-1.53h.07m0,8.85a1.59,1.59,0,0,0,1.41-.9,4.79,4.79,0,0,0,.53-2.43,5.24,5.24,0,0,0-.52-2.54,1.55,1.55,0,0,0-1.39-.92,1.6,1.6,0,0,0-1.44.92,5.25,5.25,0,0,0-.52,2.57,4.68,4.68,0,0,0,.53,2.4,1.59,1.59,0,0,0,1.4.9m0-9.6h-.07a4.28,4.28,0,0,0-3.59,1.83,7.39,7.39,0,0,0-1.28,4.51,6.74,6.74,0,0,0,1.32,4.31,4.43,4.43,0,0,0,3.62,1.74,4.54,4.54,0,0,0,3.44-1.61,6.8,6.8,0,0,0,1.44-4.7A6.9,6.9,0,0,0,177.38,76a4.35,4.35,0,0,0-3.61-1.74Zm0,8.85c-.2,0-.47-.06-.75-.53a4,4,0,0,1-.43-2,4.57,4.57,0,0,1,.43-2.2c.27-.48.55-.54.79-.54s.47.06.73.54a4.55,4.55,0,0,1,.42,2.17,4.1,4.1,0,0,1-.42,2.05c-.27.47-.54.53-.76.53Z" transform="translate(-14.58 -4.18)"/><path class="cls-1" d="M182.07,86.33a4.54,4.54,0,0,1-1.57-.25,7.07,7.07,0,0,1-1.48-.79.38.38,0,0,1-.16-.35l.25-2.42a.37.37,0,0,1,.37-.34.37.37,0,0,1,.21.06,5.3,5.3,0,0,0,2.52,1.09,1.36,1.36,0,0,0,1-.41,1.24,1.24,0,0,0,.42-.92,1.3,1.3,0,0,0-.42-1,1.49,1.49,0,0,0-1.08-.4,4.92,4.92,0,0,0-1.9.44.37.37,0,0,1-.15,0,.38.38,0,0,1-.37-.41l.53-5.53a.37.37,0,0,1,.37-.34h5.26a.38.38,0,0,1,.38.38v1.95a.38.38,0,0,1-.37.38H183L183,78a3.82,3.82,0,0,1,2.66,1.17,4,4,0,0,1,1.08,2.75,4.15,4.15,0,0,1-1.38,3.1A4.58,4.58,0,0,1,182.07,86.33Z" transform="translate(-14.58 -4.18)"/><path class="cls-2" d="M185.87,75.17v1.95h-3.2l-.12,1.26a3.6,3.6,0,0,1,2.79,1.06,3.57,3.57,0,0,1,1,2.5,3.77,3.77,0,0,1-1.26,2.83,4.19,4.19,0,0,1-3,1.19,4.14,4.14,0,0,1-1.44-.23,6.66,6.66,0,0,1-1.39-.75l.25-2.42a5.58,5.58,0,0,0,2.73,1.16,1.74,1.74,0,0,0,1.24-.51A1.6,1.6,0,0,0,184,82a1.68,1.68,0,0,0-.53-1.27,1.87,1.87,0,0,0-1.34-.51,5.27,5.27,0,0,0-2,.47l.53-5.53h5.26m0-.75h-5.26a.75.75,0,0,0-.75.68l-.53,5.53a.75.75,0,0,0,1,.76,4.56,4.56,0,0,1,1.76-.41,1.12,1.12,0,0,1,.82.3.92.92,0,0,1,.3.72.86.86,0,0,1-.3.65,1,1,0,0,1-.72.3,4.76,4.76,0,0,1-2.31-1,.75.75,0,0,0-1.16.55l-.25,2.42a.75.75,0,0,0,.33.7,7.32,7.32,0,0,0,1.56.84,5.16,5.16,0,0,0,5.19-1.12,4.5,4.5,0,0,0,1.49-3.37,4.31,4.31,0,0,0-1.18-3,3.84,3.84,0,0,0-1.67-1.06h1.65a.75.75,0,0,0,.75-.75V75.17a.75.75,0,0,0-.75-.75Z" transform="translate(-14.58 -4.18)"/><path class="cls-1" d="M33.46,82.66a.38.38,0,0,1-.37-.37V10.76a.38.38,0,0,1,.38-.37H101a.38.38,0,0,1,.38.38v1.54a.38.38,0,0,1-.37.38H35.38V80.37H93.8a.38.38,0,0,1,.38.38v1.54a.38.38,0,0,1-.37.38Z" transform="translate(-14.58 -4.18)"/><path class="cls-2" d="M101,10.76v1.54H35V80.74H93.8v1.54H33.46V10.76H101m0-.75H33.46a.75.75,0,0,0-.75.75V82.29a.75.75,0,0,0,.75.75H93.8a.75.75,0,0,0,.75-.75V80.74A.75.75,0,0,0,93.8,80h-58V13.06H101a.75.75,0,0,0,.75-.75V10.76A.75.75,0,0,0,101,10Z" transform="translate(-14.58 -4.18)"/><path class="cls-1" d="M199.64,82.66a.38.38,0,0,1-.37-.37V80.74a.38.38,0,0,1,.38-.37h58.42V12.68H192.41a.38.38,0,0,1-.37-.37V10.76a.38.38,0,0,1,.38-.37H260a.38.38,0,0,1,.38.38V82.29a.38.38,0,0,1-.37.38Z" transform="translate(-14.58 -4.18)"/><path class="cls-2" d="M260,10.76V82.29H199.64V80.74h58.8V12.31h-66V10.76H260m0-.75H192.41a.75.75,0,0,0-.75.75v1.54a.75.75,0,0,0,.75.75h65.28V80h-58a.75.75,0,0,0-.75.75v1.54a.75.75,0,0,0,.75.75H260a.75.75,0,0,0,.75-.75V10.76A.75.75,0,0,0,260,10Z" transform="translate(-14.58 -4.18)"/><path class="cls-1" d="M154.68,113.55a.38.38,0,0,1-.26-.11l-7.74-7.55-7.54,7.54a.37.37,0,0,1-.53,0l-.71-.71a.37.37,0,0,1,0-.53l8.5-8.5a.37.37,0,0,1,.53,0l8.71,8.49a.37.37,0,0,1,0,.53l-.7.72a.37.37,0,0,1-.26.11Z" transform="translate(-14.58 -4.18)"/><path class="cls-2" d="M146.66,104l8.71,8.49-.7.72-8-7.8-7.8,7.8-.71-.71,8.5-8.5m0-.75a.75.75,0,0,0-.53.22l-8.5,8.5a.75.75,0,0,0,0,1.06l.71.71a.75.75,0,0,0,1.06,0l7.28-7.28,7.48,7.29a.75.75,0,0,0,.52.21h0a.75.75,0,0,0,.53-.23l.7-.72a.75.75,0,0,0,0-1.06l-8.71-8.49a.75.75,0,0,0-.52-.21Z" transform="translate(-14.58 -4.18)"/><path class="cls-1" d="M128.17,113.54a.37.37,0,0,1-.27-.11l-.71-.71a.37.37,0,0,1,0-.53l8.15-8.15a.37.37,0,0,1,.53,0l.71.71a.37.37,0,0,1,0,.53l-8.15,8.15A.37.37,0,0,1,128.17,113.54Z" transform="translate(-14.58 -4.18)"/><path class="cls-2" d="M135.61,104.31l.71.71-8.15,8.15-.71-.71,8.15-8.15m0-.75a.75.75,0,0,0-.53.22l-8.15,8.15a.75.75,0,0,0,0,1.06l.71.71a.75.75,0,0,0,1.06,0l8.15-8.15a.75.75,0,0,0,0-1.06l-.71-.71a.75.75,0,0,0-.53-.22Z" transform="translate(-14.58 -4.18)"/><path class="cls-1" d="M117.47,113.54a.37.37,0,0,1-.27-.11l-.71-.71a.37.37,0,0,1,0-.53l8.15-8.15a.37.37,0,0,1,.53,0l.71.71a.37.37,0,0,1,0,.53l-8.15,8.15A.37.37,0,0,1,117.47,113.54Z" transform="translate(-14.58 -4.18)"/><path class="cls-2" d="M124.91,104.31l.71.71-8.15,8.15-.71-.71,8.15-8.15m0-.75a.75.75,0,0,0-.53.22l-8.15,8.15a.75.75,0,0,0,0,1.06l.71.71a.75.75,0,0,0,1.06,0l8.15-8.15a.75.75,0,0,0,0-1.06l-.71-.71a.75.75,0,0,0-.53-.22Z" transform="translate(-14.58 -4.18)"/><path class="cls-1" d="M165.27,113.54a.38.38,0,0,1-.27-.11l-8.15-8.15a.38.38,0,0,1,0-.53l.71-.71a.38.38,0,0,1,.53,0l8.15,8.15a.38.38,0,0,1,0,.53l-.71.71A.38.38,0,0,1,165.27,113.54Z" transform="translate(-14.58 -4.18)"/><path class="cls-2" d="M157.83,104.31l8.15,8.15-.71.71L157.12,105l.71-.71m0-.75a.75.75,0,0,0-.53.22l-.71.71a.75.75,0,0,0,0,1.06l8.15,8.15a.75.75,0,0,0,1.06,0l.71-.71a.75.75,0,0,0,0-1.06l-8.15-8.15a.75.75,0,0,0-.53-.22Z" transform="translate(-14.58 -4.18)"/><path class="cls-1" d="M176,113.54a.38.38,0,0,1-.27-.11l-8.15-8.15a.38.38,0,0,1,0-.53l.71-.71a.38.38,0,0,1,.53,0l8.15,8.15a.38.38,0,0,1,0,.53l-.71.71A.38.38,0,0,1,176,113.54Z" transform="translate(-14.58 -4.18)"/><path class="cls-2" d="M168.53,104.31l8.15,8.15-.71.71L167.82,105l.71-.71m0-.75a.75.75,0,0,0-.53.22l-.71.71a.75.75,0,0,0,0,1.06l8.15,8.15a.75.75,0,0,0,1.06,0l.71-.71a.75.75,0,0,0,0-1.06l-8.15-8.15a.75.75,0,0,0-.53-.22Z" transform="translate(-14.58 -4.18)"/><path class="cls-1" d="M.75,103.65H92.88a.37.37,0,0,1,.37.37v.79a.38.38,0,0,1-.38.38H.75a.38.38,0,0,1-.37-.37V104A.38.38,0,0,1,.75,103.65Z"/><path class="cls-2" d="M107.46,108.21V109H15.33v-.79h92.13m0-.75H15.33a.75.75,0,0,0-.75.75V109a.75.75,0,0,0,.75.75h92.13a.75.75,0,0,0,.75-.75v-.79a.75.75,0,0,0-.75-.75Z" transform="translate(-14.58 -4.18)"/><rect class="cls-1" x="171.01" y="103.65" width="92.88" height="1.54" rx="0.38" ry="0.38"/><path class="cls-2" d="M278.1,108.21V109H186v-.79H278.1m0-.75H186a.75.75,0,0,0-.75.75V109a.75.75,0,0,0,.75.75H278.1a.75.75,0,0,0,.75-.75v-.79a.75.75,0,0,0-.75-.75Z" transform="translate(-14.58 -4.18)"/><path class="cls-1" d="M63.88,136.23a.38.38,0,0,1-.36-.27l-1.76-6.37L60,136a.37.37,0,0,1-.36.27H58.51a.38.38,0,0,1-.36-.27l-2.44-8.83a.38.38,0,0,1,.36-.48H57.3a.37.37,0,0,1,.36.29l1.42,5.79,1.6-5.81a.38.38,0,0,1,.36-.27h1.4a.38.38,0,0,1,.36.27l1.6,5.81,1.42-5.79a.37.37,0,0,1,.36-.29h1.23a.38.38,0,0,1,.36.48L65.36,136a.37.37,0,0,1-.36.27Z" transform="translate(-14.58 -4.18)"/><path class="cls-2" d="M67.45,127,65,135.86H63.88l-2.12-7.67-2.13,7.67H58.51L56.07,127H57.3l1.76,7.19,2-7.19h1.4l2,7.19L66.21,127h1.23m0-.75H66.21a.75.75,0,0,0-.73.57l-1.08,4.4-1.22-4.42a.75.75,0,0,0-.72-.55h-1.4a.75.75,0,0,0-.72.55l-1.22,4.42L58,126.85a.75.75,0,0,0-.73-.57H56.07a.75.75,0,0,0-.72.95l2.44,8.83a.75.75,0,0,0,.72.55h1.12a.75.75,0,0,0,.72-.55l1.4-5.06,1.4,5.06a.75.75,0,0,0,.72.55H65a.75.75,0,0,0,.72-.55l2.45-8.83a.75.75,0,0,0-.72-1Zm0,1.5h0Z" transform="translate(-14.58 -4.18)"/><path class="cls-1" d="M68.55,136.23a.38.38,0,0,1-.37-.37V127a.38.38,0,0,1,.38-.37h6.38a.38.38,0,0,1,.38.38v1a.38.38,0,0,1-.37.38H70.1v1.95h4.5a.38.38,0,0,1,.38.38v1a.38.38,0,0,1-.37.38H70.1v2.24h5a.38.38,0,0,1,.38.38v1a.38.38,0,0,1-.37.38Z" transform="translate(-14.58 -4.18)"/><path class="cls-2" d="M74.93,127v1H69.72v2.7H74.6v1H69.72v3h5.42v1H68.55V127h6.38m0-.75H68.55a.75.75,0,0,0-.75.75v8.83a.75.75,0,0,0,.75.75h6.58a.75.75,0,0,0,.75-.75v-1a.75.75,0,0,0-.75-.75H70.47v-1.49H74.6a.75.75,0,0,0,.75-.75v-1a.75.75,0,0,0-.75-.75H70.47v-1.2h4.46a.75.75,0,0,0,.75-.75v-1a.75.75,0,0,0-.75-.75Z" transform="translate(-14.58 -4.18)"/><path class="cls-1" d="M76.78,136.23a.38.38,0,0,1-.37-.37V127a.38.38,0,0,1,.38-.37H78a.38.38,0,0,1,.38.38v7.41h3.92a.38.38,0,0,1,.38.38v1a.38.38,0,0,1-.37.38Z" transform="translate(-14.58 -4.18)"/><path class="cls-2" d="M78,127v7.78h4.29v1H76.78V127H78m0-.75H76.78A.75.75,0,0,0,76,127v8.83a.75.75,0,0,0,.75.75h5.46a.75.75,0,0,0,.75-.75v-1a.75.75,0,0,0-.75-.75H78.7v-7a.75.75,0,0,0-.75-.75Z" transform="translate(-14.58 -4.18)"/><path class="cls-1" d="M87.34,136.38A4.22,4.22,0,0,1,84.07,135a5.9,5.9,0,0,1,0-7.17,4.22,4.22,0,0,1,3.27-1.35,4.29,4.29,0,0,1,2.68.85,3.21,3.21,0,0,1,1.28,2.31.38.38,0,0,1-.37.41h-1.2a.37.37,0,0,1-.37-.34,1.42,1.42,0,0,0-.58-1.07,2.57,2.57,0,0,0-3.26.37,4.51,4.51,0,0,0,0,4.8,2.56,2.56,0,0,0,3.26.37,1.6,1.6,0,0,0,.58-1.19.37.37,0,0,1,.37-.34h1.2a.38.38,0,0,1,.37.41,3.35,3.35,0,0,1-1.25,2.44A4.28,4.28,0,0,1,87.34,136.38Z" transform="translate(-14.58 -4.18)"/><path class="cls-2" d="M87.34,126.88a3.91,3.91,0,0,1,2.45.78,2.84,2.84,0,0,1,1.14,2h-1.2a1.79,1.79,0,0,0-.73-1.33,2.95,2.95,0,0,0-3.77.43,4.86,4.86,0,0,0,0,5.28,2.93,2.93,0,0,0,3.78.42,2,2,0,0,0,.72-1.45h1.2a3,3,0,0,1-1.11,2.18,3.9,3.9,0,0,1-2.48.77,3.84,3.84,0,0,1-3-1.23,5.53,5.53,0,0,1,0-6.67,3.84,3.84,0,0,1,3-1.23m0-.75a4.58,4.58,0,0,0-3.55,1.48,6.27,6.27,0,0,0,0,7.68,4.58,4.58,0,0,0,3.55,1.48,4.64,4.64,0,0,0,2.94-.93,3.71,3.71,0,0,0,1.39-2.7.75.75,0,0,0-.75-.82h-1.2A.75.75,0,0,0,89,133a1.23,1.23,0,0,1-.44.92,1.88,1.88,0,0,1-1.21.34,1.85,1.85,0,0,1-1.53-.66,4.16,4.16,0,0,1,0-4.31,1.89,1.89,0,0,1,1.55-.66,1.92,1.92,0,0,1,1.2.34,1,1,0,0,1,.43.8.75.75,0,0,0,.75.69h1.2a.75.75,0,0,0,.75-.82,3.57,3.57,0,0,0-1.43-2.57,4.66,4.66,0,0,0-2.91-.93Z" transform="translate(-14.58 -4.18)"/><path class="cls-1" d="M96.38,136.38A4.38,4.38,0,0,1,93.06,135a5.58,5.58,0,0,1,0-7.14,4.69,4.69,0,0,1,6.63,0,5.61,5.61,0,0,1,0,7.14A4.36,4.36,0,0,1,96.38,136.38Zm0-8.13a2.43,2.43,0,0,0-1.91.82,4.11,4.11,0,0,0,0,4.75,2.59,2.59,0,0,0,3.78,0,4.14,4.14,0,0,0,0-4.75A2.38,2.38,0,0,0,96.39,128.25Z" transform="translate(-14.58 -4.18)"/><path class="cls-2" d="M96.38,126.88a4,4,0,0,1,3,1.25,5.24,5.24,0,0,1,0,6.63,4.32,4.32,0,0,1-6.08,0,5.21,5.21,0,0,1,0-6.62,4,4,0,0,1,3-1.25m0,8.13a2.79,2.79,0,0,0,2.17-.94,4.5,4.5,0,0,0,0-5.25,2.76,2.76,0,0,0-2.15-.94,2.81,2.81,0,0,0-2.18.94,4.47,4.47,0,0,0,0,5.25,2.78,2.78,0,0,0,2.16.94m0-8.88a4.75,4.75,0,0,0-3.59,1.49,6,6,0,0,0,0,7.65,5.06,5.06,0,0,0,7.17,0,6,6,0,0,0,0-7.65,4.73,4.73,0,0,0-3.58-1.49Zm0,8.13a2,2,0,0,1-1.6-.69,3.75,3.75,0,0,1,0-4.24,2.08,2.08,0,0,1,1.63-.69,2,2,0,0,1,1.59.69,3.78,3.78,0,0,1,0,4.25,2.05,2.05,0,0,1-1.61.69Z" transform="translate(-14.58 -4.18)"/><path class="cls-1" d="M109.34,136.23a.38.38,0,0,1-.37-.37v-5.21L107.18,136a.38.38,0,0,1-.36.26h-1a.38.38,0,0,1-.36-.26l-1.79-5.33v5.21a.38.38,0,0,1-.37.38h-1.11a.38.38,0,0,1-.37-.37V127a.38.38,0,0,1,.38-.37h1.75a.37.37,0,0,1,.36.26l2,6.27,2-6.27a.38.38,0,0,1,.36-.26h1.75a.38.38,0,0,1,.38.38v8.83a.38.38,0,0,1-.37.38Z" transform="translate(-14.58 -4.18)"/><path class="cls-2" d="M110.45,127v8.83h-1.11v-7.51l-2.52,7.51h-1l-2.52-7.51v7.51h-1.11V127h1.75l2.39,7.36,2.4-7.36h1.75m0-.75h-1.75a.75.75,0,0,0-.71.52L106.29,132l-1.68-5.17a.75.75,0,0,0-.71-.52h-1.75a.75.75,0,0,0-.75.75v8.83a.75.75,0,0,0,.75.75h1.11a.75.75,0,0,0,.75-.75v-2.91l1.06,3.15a.75.75,0,0,0,.71.51h1a.75.75,0,0,0,.71-.51l1.06-3.15v2.91a.75.75,0,0,0,.75.75h1.11a.75.75,0,0,0,.75-.75V127a.75.75,0,0,0-.75-.75Z" transform="translate(-14.58 -4.18)"/><path class="cls-1" d="M112.42,136.23a.38.38,0,0,1-.37-.37V127a.38.38,0,0,1,.38-.37h6.38a.38.38,0,0,1,.38.38v1a.38.38,0,0,1-.37.38H114v1.95h4.5a.38.38,0,0,1,.38.38v1a.38.38,0,0,1-.37.38H114v2.24h5a.38.38,0,0,1,.38.38v1a.38.38,0,0,1-.37.38Z" transform="translate(-14.58 -4.18)"/><path class="cls-2" d="M118.8,127v1h-5.21v2.7h4.87v1h-4.87v3H119v1h-6.58V127h6.38m0-.75h-6.38a.75.75,0,0,0-.75.75v8.83a.75.75,0,0,0,.75.75H119a.75.75,0,0,0,.75-.75v-1a.75.75,0,0,0-.75-.75h-4.67v-1.49h4.12a.75.75,0,0,0,.75-.75v-1a.75.75,0,0,0-.75-.75h-4.12v-1.2h4.46a.75.75,0,0,0,.75-.75v-1a.75.75,0,0,0-.75-.75Z" transform="translate(-14.58 -4.18)"/><path class="cls-1" d="M129.38,136.23a.38.38,0,0,1-.37-.37v-7.41h-2.52a.38.38,0,0,1-.37-.37v-1a.38.38,0,0,1,.38-.37h7a.38.38,0,0,1,.38.38v1a.38.38,0,0,1-.37.38h-2.55v7.41a.38.38,0,0,1-.37.38Z" transform="translate(-14.58 -4.18)"/><path class="cls-2" d="M133.48,127v1h-2.92v7.78h-1.17v-7.78h-2.9v-1h7m0-.75h-7a.75.75,0,0,0-.75.75v1a.75.75,0,0,0,.75.75h2.15v7a.75.75,0,0,0,.75.75h1.17a.75.75,0,0,0,.75-.75v-7h2.17a.75.75,0,0,0,.75-.75v-1a.75.75,0,0,0-.75-.75Z" transform="translate(-14.58 -4.18)"/><path class="cls-1" d="M138.56,136.38a4.38,4.38,0,0,1-3.32-1.37,5.58,5.58,0,0,1,0-7.14,4.69,4.69,0,0,1,6.63,0,5.61,5.61,0,0,1,0,7.14A4.36,4.36,0,0,1,138.56,136.38Zm0-8.13a2.43,2.43,0,0,0-1.9.82,4.11,4.11,0,0,0,0,4.75,2.59,2.59,0,0,0,3.78,0,4.14,4.14,0,0,0,0-4.75A2.38,2.38,0,0,0,138.57,128.25Z" transform="translate(-14.58 -4.18)"/><path class="cls-2" d="M138.56,126.88a4,4,0,0,1,3,1.25,5.24,5.24,0,0,1,0,6.63,4.32,4.32,0,0,1-6.08,0,5.21,5.21,0,0,1,0-6.62,4,4,0,0,1,3-1.25m0,8.13a2.79,2.79,0,0,0,2.17-.94,4.5,4.5,0,0,0,0-5.25,2.76,2.76,0,0,0-2.15-.94,2.81,2.81,0,0,0-2.18.94,4.47,4.47,0,0,0,0,5.25,2.78,2.78,0,0,0,2.16.94m0-8.88a4.75,4.75,0,0,0-3.59,1.49,6,6,0,0,0,0,7.65,5.06,5.06,0,0,0,7.18,0,6,6,0,0,0,0-7.65,4.73,4.73,0,0,0-3.58-1.49Zm0,8.13a2,2,0,0,1-1.61-.69,3.75,3.75,0,0,1,0-4.24,2.08,2.08,0,0,1,1.63-.69,2,2,0,0,1,1.59.69,3.78,3.78,0,0,1,0,4.25,2.05,2.05,0,0,1-1.61.69Z" transform="translate(-14.58 -4.18)"/><path class="cls-1" d="M154.71,136.38a4.38,4.38,0,0,1-3.32-1.37,5.58,5.58,0,0,1,0-7.14,4.69,4.69,0,0,1,6.63,0,5.61,5.61,0,0,1,0,7.14A4.36,4.36,0,0,1,154.71,136.38Zm0-8.13a2.43,2.43,0,0,0-1.9.82,4.11,4.11,0,0,0,0,4.75,2.59,2.59,0,0,0,3.78,0,4.14,4.14,0,0,0,0-4.75A2.38,2.38,0,0,0,154.72,128.25Z" transform="translate(-14.58 -4.18)"/><path class="cls-2" d="M154.71,126.88a4,4,0,0,1,3,1.25,5.24,5.24,0,0,1,0,6.63,4.32,4.32,0,0,1-6.08,0,5.21,5.21,0,0,1,0-6.62,4,4,0,0,1,3-1.25m0,8.13a2.79,2.79,0,0,0,2.17-.94,4.5,4.5,0,0,0,0-5.25,2.76,2.76,0,0,0-2.15-.94,2.81,2.81,0,0,0-2.18.94,4.47,4.47,0,0,0,0,5.25,2.78,2.78,0,0,0,2.16.94m0-8.88a4.75,4.75,0,0,0-3.59,1.49,6,6,0,0,0,0,7.65,5.06,5.06,0,0,0,7.18,0,6,6,0,0,0,0-7.65,4.73,4.73,0,0,0-3.58-1.49Zm0,8.13a2,2,0,0,1-1.61-.69,3.75,3.75,0,0,1,0-4.24,2.08,2.08,0,0,1,1.63-.69,2,2,0,0,1,1.59.69,3.78,3.78,0,0,1,0,4.25,2.05,2.05,0,0,1-1.61.69Z" transform="translate(-14.58 -4.18)"/><path class="cls-1" d="M163.94,136.38a4,4,0,0,1-2.53-.68,3,3,0,0,1-1.1-1.61,8.17,8.17,0,0,1-.21-2V127a.38.38,0,0,1,.38-.37h1.17a.38.38,0,0,1,.38.38v5.09c0,1.3.25,1.82.47,2a2.59,2.59,0,0,0,2.91,0c.21-.2.47-.71.47-2V127a.38.38,0,0,1,.38-.37h1.17a.38.38,0,0,1,.38.38v5.11a5.79,5.79,0,0,1-.42,2.53A2.86,2.86,0,0,1,166,136,4.79,4.79,0,0,1,163.94,136.38Z" transform="translate(-14.58 -4.18)"/><path class="cls-2" d="M167.41,127v5.11a5.51,5.51,0,0,1-.38,2.36,2.47,2.47,0,0,1-1.15,1.14,4.4,4.4,0,0,1-1.93.38,3.69,3.69,0,0,1-2.3-.6,2.56,2.56,0,0,1-1-1.4,7.75,7.75,0,0,1-.2-1.87V127h1.17v5.09a3.21,3.21,0,0,0,.58,2.29,2.95,2.95,0,0,0,3.42,0,3.22,3.22,0,0,0,.58-2.29V127h1.17m0-.75h-1.17a.75.75,0,0,0-.75.75v5.09c0,1.31-.27,1.67-.35,1.74a2.25,2.25,0,0,1-2.39,0c-.08-.08-.35-.43-.35-1.74V127a.75.75,0,0,0-.75-.75h-1.17a.75.75,0,0,0-.75.75v5.11a8.53,8.53,0,0,0,.22,2.06,3.31,3.31,0,0,0,1.23,1.81,4.35,4.35,0,0,0,2.76.76,5.15,5.15,0,0,0,2.26-.45,3.22,3.22,0,0,0,1.49-1.47,6.13,6.13,0,0,0,.46-2.7V127a.75.75,0,0,0-.75-.75Z" transform="translate(-14.58 -4.18)"/><path class="cls-1" d="M175.48,136.23a.37.37,0,0,1-.35-.25l-.83-2.36a1.8,1.8,0,0,0-.62-.85,1.53,1.53,0,0,0-1-.32h-1.79v3.4a.38.38,0,0,1-.37.38h-1.17a.38.38,0,0,1-.37-.37V127a.38.38,0,0,1,.38-.37h3.91a6.23,6.23,0,0,1,1.78.22,2.27,2.27,0,0,1,1.27,1,3,3,0,0,1,.47,1.64,2.63,2.63,0,0,1-.62,1.77,2.66,2.66,0,0,1-.86.66,3.37,3.37,0,0,1,.88,1.39l.89,2.4a.37.37,0,0,1-.35.5Zm-2.32-5.57a2.42,2.42,0,0,0,1.37-.28,1,1,0,0,0,.33-.88c0-.53-.17-1.13-1.52-1.13h-2.41v2.29Z" transform="translate(-14.58 -4.18)"/><path class="cls-2" d="M173.3,127a5.85,5.85,0,0,1,1.67.2,1.9,1.9,0,0,1,1.06.84,2.61,2.61,0,0,1,.41,1.44,2.26,2.26,0,0,1-.53,1.53,2.5,2.5,0,0,1-1.45.8v0a2.37,2.37,0,0,1,1.4,1.6l.89,2.4h-1.27l-.83-2.36a2.19,2.19,0,0,0-.74-1,1.9,1.9,0,0,0-1.19-.4h-2.16v3.78h-1.17V127h3.91m-2.74,4h2.61a2.82,2.82,0,0,0,1.58-.34,1.35,1.35,0,0,0,.49-1.19q0-1.51-1.89-1.51h-2.79v3m2.74-4.76h-3.91a.75.75,0,0,0-.75.75v8.83a.75.75,0,0,0,.75.75h1.17a.75.75,0,0,0,.75-.75v-3h1.41a1.15,1.15,0,0,1,.74.24,1.44,1.44,0,0,1,.49.68l.83,2.35a.75.75,0,0,0,.71.5h1.27a.75.75,0,0,0,.7-1l-.89-2.4a4.22,4.22,0,0,0-.64-1.17,3,3,0,0,0,1.26-2.52,3.36,3.36,0,0,0-.53-1.84,2.64,2.64,0,0,0-1.47-1.15,6.51,6.51,0,0,0-1.89-.23Zm-2,2.47h2c1.14,0,1.14.44,1.14.76s0,.47-.17.57a2.1,2.1,0,0,1-1.15.21h-1.86v-1.54Z" transform="translate(-14.58 -4.18)"/><path class="cls-1" d="M191.82,136.23a.37.37,0,0,1-.36-.27l-1.76-6.37L187.93,136a.37.37,0,0,1-.36.27h-1.12a.37.37,0,0,1-.36-.27l-2.44-8.83a.37.37,0,0,1,.36-.48h1.23a.37.37,0,0,1,.36.29l1.42,5.8,1.6-5.81a.37.37,0,0,1,.36-.27h1.4a.37.37,0,0,1,.36.27l1.6,5.81,1.42-5.8a.37.37,0,0,1,.36-.29h1.23a.37.37,0,0,1,.36.48L193.3,136a.37.37,0,0,1-.36.27Z" transform="translate(-14.58 -4.18)"/><path class="cls-2" d="M195.39,127l-2.45,8.83h-1.12l-2.12-7.67-2.13,7.67h-1.12L184,127h1.23l1.77,7.19,2-7.19h1.4l2,7.19,1.77-7.19h1.23m0-.75h-1.23a.75.75,0,0,0-.73.57l-1.08,4.4-1.22-4.42a.75.75,0,0,0-.72-.55H189a.75.75,0,0,0-.72.55l-1.22,4.42-1.08-4.4a.75.75,0,0,0-.73-.57H184a.75.75,0,0,0-.72.95l2.44,8.83a.75.75,0,0,0,.72.55h1.12a.75.75,0,0,0,.72-.55l1.4-5.06,1.4,5.06a.75.75,0,0,0,.72.55h1.12a.75.75,0,0,0,.72-.55l2.45-8.83a.75.75,0,0,0-.72-1Zm0,1.5h0Z" transform="translate(-14.58 -4.18)"/><path class="cls-1" d="M196.49,136.23a.38.38,0,0,1-.37-.37V127a.38.38,0,0,1,.38-.37h6.38a.38.38,0,0,1,.38.38v1a.38.38,0,0,1-.37.38H198v1.95h4.5a.38.38,0,0,1,.38.38v1a.38.38,0,0,1-.37.38H198v2.24h5a.38.38,0,0,1,.38.38v1a.38.38,0,0,1-.37.38Z" transform="translate(-14.58 -4.18)"/><path class="cls-2" d="M202.87,127v1h-5.21v2.7h4.87v1h-4.87v3h5.42v1h-6.58V127h6.38m0-.75h-6.38a.75.75,0,0,0-.75.75v8.83a.75.75,0,0,0,.75.75h6.58a.75.75,0,0,0,.75-.75v-1a.75.75,0,0,0-.75-.75h-4.67v-1.49h4.12a.75.75,0,0,0,.75-.75v-1a.75.75,0,0,0-.75-.75h-4.12v-1.2h4.46a.75.75,0,0,0,.75-.75v-1a.75.75,0,0,0-.75-.75Z" transform="translate(-14.58 -4.18)"/><path class="cls-1" d="M204.72,136.23a.38.38,0,0,1-.37-.37V127a.38.38,0,0,1,.38-.37h2.8c3.19,0,4.87,1.64,4.87,4.74s-1.69,4.84-4.87,4.84Zm2.78-1.8a2.86,2.86,0,0,0,2.32-.75,3.67,3.67,0,0,0,.62-2.29,3.49,3.49,0,0,0-.61-2.22,2.92,2.92,0,0,0-2.33-.73h-1.23v6Z" transform="translate(-14.58 -4.18)"/><path class="cls-2" d="M207.52,127q4.5,0,4.5,4.37t-4.5,4.46h-2.8V127h2.8m-1.63,7.78h1.61a3.17,3.17,0,0,0,2.62-.89,4,4,0,0,0,.7-2.52,3.83,3.83,0,0,0-.7-2.45,3.23,3.23,0,0,0-2.62-.87h-1.61v6.73m1.63-8.53h-2.8a.75.75,0,0,0-.75.75v8.83a.75.75,0,0,0,.75.75h2.8c3.43,0,5.25-1.8,5.25-5.21s-1.82-5.12-5.25-5.12Zm-.88,2.55h.86a2.65,2.65,0,0,1,2,.59,3.14,3.14,0,0,1,.53,2,3.32,3.32,0,0,1-.54,2.06,2.72,2.72,0,0,1-2,.61h-.86v-5.23Z" transform="translate(-14.58 -4.18)"/><path class="cls-1" d="M213.63,136.23a.38.38,0,0,1-.37-.37V127a.38.38,0,0,1,.38-.37h2.8c3.19,0,4.87,1.64,4.87,4.74s-1.69,4.84-4.87,4.84Zm2.78-1.8a2.86,2.86,0,0,0,2.32-.75,3.67,3.67,0,0,0,.62-2.29,3.49,3.49,0,0,0-.61-2.22,2.92,2.92,0,0,0-2.33-.73h-1.23v6Z" transform="translate(-14.58 -4.18)"/><path class="cls-2" d="M216.43,127q4.5,0,4.5,4.37t-4.5,4.46h-2.8V127h2.8m-1.63,7.78h1.61a3.17,3.17,0,0,0,2.62-.89,4,4,0,0,0,.7-2.52,3.83,3.83,0,0,0-.7-2.45,3.23,3.23,0,0,0-2.62-.87H214.8v6.73m1.63-8.53h-2.8a.75.75,0,0,0-.75.75v8.83a.75.75,0,0,0,.75.75h2.8c3.43,0,5.25-1.8,5.25-5.21s-1.82-5.12-5.25-5.12Zm-.88,2.55h.86a2.65,2.65,0,0,1,2,.59,3.14,3.14,0,0,1,.53,2,3.32,3.32,0,0,1-.54,2.06,2.72,2.72,0,0,1-2,.61h-.86v-5.23Z" transform="translate(-14.58 -4.18)"/><rect class="cls-1" x="207.73" y="122.47" width="1.92" height="9.58" rx="0.38" ry="0.38"/><path class="cls-2" d="M223.86,127v8.83h-1.17V127h1.17m0-.75h-1.17a.75.75,0,0,0-.75.75v8.83a.75.75,0,0,0,.75.75h1.17a.75.75,0,0,0,.75-.75V127a.75.75,0,0,0-.75-.75Z" transform="translate(-14.58 -4.18)"/><path class="cls-1" d="M231.7,136.23a.37.37,0,0,1-.31-.17l-3.94-5.93v5.73a.38.38,0,0,1-.37.38H226a.38.38,0,0,1-.37-.37V127a.38.38,0,0,1,.38-.37h1.19a.37.37,0,0,1,.31.17l3.94,5.93V127a.38.38,0,0,1,.38-.37h1.11a.38.38,0,0,1,.38.38v8.83a.38.38,0,0,1-.37.38Z" transform="translate(-14.58 -4.18)"/><path class="cls-2" d="M232.9,127v8.83h-1.2l-4.63-7v7H226V127h1.19l4.63,7v-7h1.11m0-.75h-1.11a.75.75,0,0,0-.75.75v4.48l-3.25-4.9a.75.75,0,0,0-.62-.34H226a.75.75,0,0,0-.75.75v8.83a.75.75,0,0,0,.75.75h1.11a.75.75,0,0,0,.75-.75v-4.48l3.25,4.9a.75.75,0,0,0,.62.34h1.2a.75.75,0,0,0,.75-.75V127a.75.75,0,0,0-.75-.75Z" transform="translate(-14.58 -4.18)"/><path class="cls-1" d="M238.73,136.38a4.44,4.44,0,0,1-3.36-1.36,5.65,5.65,0,0,1,0-7.16,4.39,4.39,0,0,1,3.34-1.36,4.79,4.79,0,0,1,2.87.84,3.15,3.15,0,0,1,1.34,2.32.38.38,0,0,1-.37.41h-1.21a.38.38,0,0,1-.37-.34,1.36,1.36,0,0,0-.61-1.06,2.83,2.83,0,0,0-1.63-.42,2.43,2.43,0,0,0-1.92.81,4.19,4.19,0,0,0,0,4.76,2.45,2.45,0,0,0,1.93.81,3,3,0,0,0,2.46-1v-.84h-2a.38.38,0,0,1-.37-.37v-1.05a.38.38,0,0,1,.38-.37h3.46a.38.38,0,0,1,.38.38v4.5a.38.38,0,0,1-.37.38h-.83a.37.37,0,0,1-.36-.26l-.12-.36A4.22,4.22,0,0,1,238.73,136.38Z" transform="translate(-14.58 -4.18)"/><path class="cls-2" d="M238.7,126.88a4.4,4.4,0,0,1,2.65.77,2.77,2.77,0,0,1,1.18,2.06h-1.21a1.73,1.73,0,0,0-.77-1.34,3.17,3.17,0,0,0-1.84-.48,2.81,2.81,0,0,0-2.2.93,4.55,4.55,0,0,0,0,5.26,2.82,2.82,0,0,0,2.21.94,3.29,3.29,0,0,0,2.84-1.26V132.4h-2.33v-1.05h3.46v4.5h-.83l-.31-.93a3.47,3.47,0,0,1-2.83,1.08,4.06,4.06,0,0,1-3.09-1.25,5.27,5.27,0,0,1,0-6.64,4,4,0,0,1,3.07-1.24m0-.75a4.75,4.75,0,0,0-3.61,1.48,6,6,0,0,0,0,7.67,4.8,4.8,0,0,0,3.63,1.48,4.94,4.94,0,0,0,2.46-.56.75.75,0,0,0,.67.41h.83a.75.75,0,0,0,.75-.75v-4.5a.75.75,0,0,0-.75-.75h-3.46a.75.75,0,0,0-.75.75v1.05a.75.75,0,0,0,.75.75h1.58v.33a2.66,2.66,0,0,1-2.09.77,2.09,2.09,0,0,1-1.65-.69,3.83,3.83,0,0,1,0-4.26,2.07,2.07,0,0,1,1.64-.68,2.47,2.47,0,0,1,1.42.35,1,1,0,0,1,.45.79.75.75,0,0,0,.75.69h1.21a.75.75,0,0,0,.75-.82,3.51,3.51,0,0,0-1.49-2.59,5.15,5.15,0,0,0-3.09-.91Z" transform="translate(-14.58 -4.18)"/><path class="cls-1" d="M102.52,178a.38.38,0,0,1-.37-.37v-22.5a.38.38,0,0,1,.38-.37H195.3a.38.38,0,0,1,.38.38v22.5a.38.38,0,0,1-.37.38Zm91.57-1.58V156.34H103.73v20.08Z" transform="translate(-14.58 -4.18)"/><path class="cls-2" d="M195.3,155.13v22.5H102.52v-22.5H195.3M103.36,176.8h91.11V156H103.36V176.8m91.94-22.42H102.52a.75.75,0,0,0-.75.75v22.5a.75.75,0,0,0,.75.75H195.3a.75.75,0,0,0,.75-.75v-22.5a.75.75,0,0,0-.75-.75Zm-91.19,2.33h89.61v19.33H104.11V156.72Z" transform="translate(-14.58 -4.18)"/></svg>